<?xml version="1.0" encoding="utf-8"?>
<!-- Generator: Adobe Illustrator 15.0.2, SVG Export Plug-In . SVG Version: 6.00 Build 0)  -->
<!DOCTYPE svg PUBLIC "-//W3C//DTD SVG 1.1//EN" "http://www.w3.org/Graphics/SVG/1.1/DTD/svg11.dtd">
<svg version="1.1" id="Layer_1" xmlns="http://www.w3.org/2000/svg" xmlns:xlink="http://www.w3.org/1999/xlink" x="0px" y="0px"
	 width="100px" height="100px" viewBox="0 0 100 100" enable-background="new 0 0 100 100" xml:space="preserve">
<g>
	<path fill="#FFFFFF" stroke="#FFFFFF" d="M84.96,70.236c-0.167-1.031-0.813-1.913-1.783-2.438l-14.335-8.445l-0.117-0.066
		c-0.58-0.297-1.25-0.45-1.938-0.45c-1.201,0-2.348,0.455-3.145,1.253l-4.23,4.233c-0.182,0.172-0.771,0.421-0.95,0.43
		c-0.049-0.004-4.923-0.354-13.896-9.329c-8.957-8.955-9.337-13.844-9.34-13.844c0.005-0.25,0.251-0.838,0.426-1.02l3.608-3.607
		c1.271-1.274,1.652-3.386,0.898-5.022L32.19,16.938c-0.579-1.192-1.704-1.928-2.952-1.928c-0.883,0-1.735,0.366-2.401,1.031
		l-9.835,9.813c-0.943,0.938-1.755,2.578-1.932,3.898c-0.086,0.631-1.831,15.693,18.819,36.346
		C51.42,83.627,65.09,84.989,68.865,84.989l0,0c0.812,0,1.285-0.058,1.376-0.071c1.315-0.176,2.954-0.986,3.891-1.925l9.827-9.826
		C84.762,72.361,85.127,71.296,84.96,70.236z"/>
</g>
</svg>
