<?xml version="1.0" encoding="utf-8"?>
<!-- Generator: Adobe Illustrator 17.1.0, SVG Export Plug-In . SVG Version: 6.00 Build 0)  -->
<!DOCTYPE svg PUBLIC "-//W3C//DTD SVG 1.1//EN" "http://www.w3.org/Graphics/SVG/1.1/DTD/svg11.dtd">
<svg version="1.1" id="Layer_1" xmlns="http://www.w3.org/2000/svg" xmlns:xlink="http://www.w3.org/1999/xlink" x="0px" y="0px"
	 viewBox="0 82.4 612 627.7" enable-background="new 0 82.4 612 627.7" xml:space="preserve">
<g>
	<path fill="none" stroke="#26B99A" stroke-miterlimit="10" d="M351.5,224c0,175.8-90.7,318-202.7,318"/>
	<path fill="none" stroke="#26B99A" stroke-miterlimit="10" d="M274.5,216c0,183,87.6,331,195.8,331"/>
	<path fill="none" stroke="#26B99A" stroke-miterlimit="10" d="M485,273c0,70.8-179.1,128-400.4,128"/>
	<path fill="none" stroke="#26B99A" stroke-miterlimit="10" d="M142,267c0,166.9,90.3,302,202,302"/>
	<path fill="none" stroke="#26B99A" stroke-miterlimit="10" d="M274.5,216c0,180.2-56.2,326-125.7,326"/>
	<path fill="none" stroke="#26B99A" stroke-miterlimit="10" d="M142,273c0,151.4,146.8,274,328.2,274"/>
	<path fill="none" stroke="#26B99A" stroke-miterlimit="10" d="M485,273c0,163.6-92.2,296-206.2,296"/>
	<path fill="none" stroke="#26B99A" stroke-miterlimit="10" d="M278.8,569c0-190.7,32.5-345,72.6-345"/>
	<path fill="none" stroke="#26B99A" stroke-miterlimit="10" d="M485,273c0,115.2,12.2,208.4,27.2,208.4"/>
	<path fill="none" stroke="#26B99A" stroke-miterlimit="10" d="M537,388.6C537,321.4,360.3,267,142,267"/>
	<path fill="none" stroke="#26B99A" stroke-miterlimit="10" d="M537,388.6C537,473.4,363.4,542,148.8,542"/>
	<path fill="none" stroke="#26B99A" stroke-miterlimit="10" d="M512.2,481.4C512.2,362.9,346.6,267,142,267"/>
	<path fill="none" stroke="#26B99A" stroke-miterlimit="10" d="M344,569c0-92.9-116-168-259.4-168"/>
</g>
<g>
	<path fill="#34485D" d="M101.9,479c7.8,2.4,14.8,11.3,16.5,20.2c1.7,8.9-2.8,15.5-10.3,14.6c-8.2-0.9-17.1-10.3-19-20.7
		C87.3,482.6,93.4,476.4,101.9,479z"/>
	<path fill="#34485D" d="M148,561.4l-12.7-35.2l0,0l-0.2-0.7l0,0c-1-2.8-3.3-5.1-5.6-5.2l0,0v-0.2L85,516.6v0.2
		c-4-0.3-7,2.3-7.5,6.1l0,0v0.9c0,0,0,0,0,0.2L73,579.3h0.2c0,0.5,0,0.9,0.2,1.4c0.9,5.2,5.7,8.4,10.6,7c3.5-1,6.1-4.2,6.6-7.8l0,0
		l2.3-38.1v0.2l0,0c0-1.2,0.7-2.1,1.9-2.3c1,0,2.1,0.9,2.6,1.9l0,0v0.3v0.2v0.2v0.3L94,603.9c-0.2,0.7-0.2,1.2-0.2,1.9v0.2l0,0v0.2
		c0.5,2.6,2.6,3.8,4.9,3l9.6-4.2l6.6,36.9c0.9,5.2,4.9,7,8.7,4.2c3.7-2.8,5.7-8.7,4.9-13.4l-6.1-33.8l3.5-1.6l5.9,33.1
		c0.9,4.7,4,6.4,7.1,4.2c3-2.3,4.5-7.3,3.8-11.7l-5.2-30.8l5.9-2.6c1.2-0.5,1.9-2.4,1.6-4.4v-0.2l0,0l0,0c-0.2-0.5-0.2-0.9-0.5-1.2
		l-16-42.8l0,0c0-0.2-0.2-0.3-0.2-0.5c-0.2-1.2,0.3-2.1,1-2.3c0.7,0,1.4,0.7,1.7,1.6l0,0l9.9,26.8l0,0c1,2.3,2.8,3.5,4.4,3
		c2.1-0.7,3.3-3.8,2.8-7.1C148.2,561.9,148.2,561.7,148,561.4L148,561.4z"/>
</g>
<g>
	<path fill="#34485D" d="M512.2,481.4c8.4-3.3,14.8,2.1,13.8,12.5c-1,10.3-9.1,20.2-17.2,21.6c-7.3,1.4-12.2-4.5-11.3-13.2
		C498.3,493.6,504.7,484.4,512.2,481.4z"/>
	<path fill="#34485D" d="M540.1,515L540.1,515l-52.1,8.4l0,0c-2.6,0.3-5.1,3.8-5.4,7.5l0,0l-4,40.6l0,0c-0.2,1.6,0,3.1,0.7,4.5
		c1.4,2.8,4,3.5,5.9,1.4c1-1,1.6-2.6,1.7-4.2l0,0l3-30v-0.3l0,0c0.2-1,0.9-1.9,1.7-2.1c0.9,0,1.4,0.9,1.4,1.9l0,0v0.3l-1.9,19.7
		l-6.1,61c-0.3,4.2,1.7,9.2,4.7,11.3c3.3,2.1,6.4,0.2,6.8-4.5l4.4-44.4l0,0c0.2-1.2,1-2.1,2.1-1.9c1,0.3,1.7,1.6,1.6,2.8l0,0
		l-4.5,45.5c-0.5,4.7,2.1,10.4,6.1,13.1c4,2.6,8,0.7,8.5-4.5l4.9-50l2.4-24.7l2.4-24.2v-0.3c0.2-1.4,1.2-2.6,2.6-2.6s2.3,1,2.1,2.6
		v0.3l-3.8,38.5l0,0c-0.2,2.1,0.3,4.4,1.6,6.4c2.8,4,7.8,5.4,11.5,2.8c1.9-1.4,3-3.5,3.1-5.7l0,0l6.1-61
		C548.4,518.3,544.9,514.7,540.1,515z"/>
</g>
<g>
	<g>
		<circle fill="#34485D" cx="264.4" cy="589.8" r="14.5"/>
		<path fill="#34485D" d="M291.7,608L291.7,608h-51.6l0,0c-3.7,0-6.8,3-6.8,6.8l0,0v40.8l0,0c0,1.6,0.5,3.1,1.7,4.4
			c2.4,2.4,6.3,2.4,8.5,0c1.2-1.2,1.7-2.8,1.7-4.4l0,0v-28.2V627l0,0c0-1,0.9-1.9,1.9-1.9c1,0,1.9,0.9,1.9,1.9l0,0v0.3v18.1v56.3
			c0,3.8,3.1,7.1,7.1,7.1c3.8,0,7.1-3.1,7.1-7.1v-37.6l0,0c0-1,0.9-1.9,1.9-1.9s1.9,0.9,1.9,1.9l0,0v37.6c0,3.8,3.1,7.1,7.1,7.1
			c3.8,0,7.1-3.1,7.1-7.1v-37.6v-18.6v-18.1V627c0-1,0.9-1.9,1.9-1.9s1.9,0.9,1.9,1.9v0.3v28.2l0,0c0,1.6,0.5,3.1,1.7,4.4
			c2.4,2.4,6.3,2.4,8.5,0c1.2-1.2,1.7-2.8,1.7-4.4l0,0v-40.8C297.8,611.3,295,608.4,291.7,608z"/>
	</g>
	<g>
		<circle fill="#34485D" cx="351.5" cy="589.9" r="14.5"/>
		<path fill="#34485D" d="M391.9,649.8l-9.8-36.1l0,0l-0.2-0.7l0,0c-0.9-2.8-3.5-4.7-6.4-4.7l0,0v-0.2H330v0.2c-3,0-5.6,2.1-6.4,4.7
			l0,0l-0.2,0.7l0,0l-9.8,36.1h0.2c0,0.3-0.2,0.5-0.2,0.9c0,3.5,2.8,6.1,6.1,6.1c2.6,0,4.9-1.6,5.7-3.8l0,0l7.1-26.5v0.2l0,0
			c0.2-0.9,0.9-1.6,1.9-1.6c0.9,0,1.7,0.7,1.9,1.6l0,0v0.3c0,0,0,0,0,0.2c0,0,0,0,0,0.2v0.3L325.2,670c-0.2,0.3-0.3,0.7-0.3,1.2v0.2
			l0,0v0.2c0,1.7,1.6,3.3,3.3,3.3h8.4v28c0,4,3.1,7.1,7.1,7.1s7.1-3.1,7.1-7.1v-28.4h4v28c0,4,3.1,7.1,7.1,7.1c4,0,7.1-3.1,7.1-7.1
			v-28h8.4c1.7,0,3.3-1.4,3.3-3.3v-0.2l0,0v-0.2c0-0.3-0.2-0.9-0.3-1.2L369,627.4l0,0c0-0.2-0.2-0.3-0.2-0.5c0-1,0.9-1.9,1.9-1.9
			c0.9,0,1.6,0.7,1.9,1.6l0,0l7.1,26.5l0,0c0.9,2.3,3.1,3.8,5.7,3.8c3.5,0,6.1-2.8,6.1-6.1C391.9,650.4,391.9,650,391.9,649.8
			L391.9,649.8z"/>
	</g>
</g>
<g>
	<circle fill="#34485D" cx="507.5" cy="179.8" r="14.3"/>
	<path fill="#34485D" d="M547.4,238.8l-9.6-35.5l0,0l-0.2-0.7l0,0c-0.9-2.8-3.3-4.7-6.4-4.7l0,0v-0.2h-44.8v0.2
		c-3,0-5.6,1.9-6.4,4.7l0,0l-0.2,0.7l0,0l-9.6,35.5h0.2c0,0.3-0.2,0.5-0.2,0.9c0,3.3,2.8,6.1,6.1,6.1c2.6,0,4.7-1.6,5.6-3.8l0,0
		l7-26.1v0.2l0,0c0.2-0.9,0.9-1.6,1.9-1.6c0.9,0,1.6,0.7,1.9,1.6l0,0v0.3c0,0,0,0,0,0.2c0,0,0,0,0,0.2v0.3l-11.1,41.8
		c-0.2,0.3-0.3,0.7-0.3,1.2v0.2l0,0v0.2c0,1.7,1.4,3.3,3.3,3.3h8.4v27.5c0,3.8,3.1,7,7,7c3.8,0,7-3.1,7-7v-27.5h4v27.5
		c0,3.8,3.1,7,7,7s7-3.1,7-7v-27.5h8.4c1.7,0,3.3-1.4,3.3-3.3v-0.2l0,0v-0.2c0-0.3-0.2-0.9-0.3-1.2l-11.1-41.6l0,0
		c0-0.2-0.2-0.3-0.2-0.5c0-1,0.9-1.9,1.9-1.9c0.9,0,1.6,0.7,1.7,1.4l0,0l7,26.1l0,0c0.9,2.3,3.1,3.8,5.6,3.8c3.3,0,6.1-2.8,6.1-6.1
		C547.4,239.3,547.2,239.2,547.4,238.8L547.4,238.8z"/>
</g>
<g>
	<circle fill="#34485D" cx="115.6" cy="180" r="14.5"/>
	<path fill="#34485D" d="M143,198.2L143,198.2H91.4l0,0c-3.7,0-6.8,3-6.8,6.8l0,0v40.8l0,0c0,1.6,0.5,3.1,1.7,4.4
		c2.4,2.4,6.3,2.4,8.5,0c1.2-1.2,1.7-2.8,1.7-4.4l0,0v-28.2v-0.3l0,0c0-1,0.9-1.9,1.9-1.9s1.9,0.9,1.9,1.9l0,0v0.3v18.1v56.3
		c0,3.8,3.1,7.1,7.1,7.1c3.8,0,7.1-3.1,7.1-7.1v-37.6l0,0c0-1,0.9-1.9,1.9-1.9s1.9,0.9,1.9,1.9l0,0v37.6c0,3.8,3.1,7.1,7.1,7.1
		c3.8,0,7.1-3.1,7.1-7.1v-37.6v-18.6v-18.1v-0.3c0-1,0.9-1.9,1.9-1.9c1,0,1.9,0.9,1.9,1.9v0.3v28.2l0,0c0,1.6,0.5,3.1,1.7,4.4
		c2.4,2.4,6.3,2.4,8.5,0c1.2-1.2,1.7-2.8,1.7-4.4l0,0v-40.9C149.1,201.4,146.3,198.6,143,198.2z"/>
</g>
<g>
	<g>
		<circle fill="#34485D" cx="264.4" cy="96.9" r="14.5"/>
		<path fill="#34485D" d="M291.7,115.2L291.7,115.2h-51.6l0,0c-3.7,0-6.8,3-6.8,6.8l0,0v40.8l0,0c0,1.6,0.5,3.1,1.7,4.4
			c2.4,2.4,6.3,2.4,8.5,0c1.2-1.2,1.7-2.8,1.7-4.4l0,0v-28.2v-0.3l0,0c0-1,0.9-1.9,1.9-1.9c1,0,1.9,0.9,1.9,1.9l0,0v0.3v18.1v56.3
			c0,3.8,3.1,7.1,7.1,7.1c3.8,0,7.1-3.1,7.1-7.1v-37.6l0,0c0-1,0.9-1.9,1.9-1.9s1.9,0.9,1.9,1.9l0,0v37.6c0,3.8,3.1,7.1,7.1,7.1
			c3.8,0,7.1-3.1,7.1-7.1v-37.6v-18.6v-18.1v-0.3c0-1,0.9-1.9,1.9-1.9s1.9,0.9,1.9,1.9v0.3v28.2l0,0c0,1.6,0.5,3.1,1.7,4.4
			c2.4,2.4,6.3,2.4,8.5,0c1.2-1.2,1.7-2.8,1.7-4.4l0,0v-40.9C297.8,118.3,295,115.5,291.7,115.2z"/>
	</g>
	<g>
		<circle fill="#34485D" cx="351.5" cy="96.9" r="14.5"/>
		<path fill="#34485D" d="M391.9,156.8l-9.8-36.1l0,0l-0.2-0.7l0,0c-0.9-2.8-3.5-4.7-6.4-4.7l0,0v-0.2H330v0.2c-3,0-5.6,2.1-6.4,4.7
			l0,0l-0.2,0.7l0,0l-9.8,36.1h0.2c0,0.3-0.2,0.5-0.2,0.9c0,3.5,2.8,6.1,6.1,6.1c2.6,0,4.9-1.6,5.7-3.8l0,0l7.1-26.5v0.2l0,0
			c0.2-0.9,0.9-1.6,1.9-1.6c0.9,0,1.7,0.7,1.9,1.6l0,0v0.3c0,0,0,0,0,0.2c0,0,0,0,0,0.2v0.3L325.2,177c-0.2,0.3-0.3,0.7-0.3,1.2v0.2
			l0,0v0.2c0,1.7,1.6,3.3,3.3,3.3h8.4v27.7c0,4,3.1,7.1,7.1,7.1s7.1-3.1,7.1-7.1v-28h4v28c0,4,3.1,7.1,7.1,7.1c4,0,7.1-3.1,7.1-7.1
			v-28h8.4c1.7,0,3.3-1.4,3.3-3.3V178l0,0v-0.2c0-0.3-0.2-0.9-0.3-1.2L369,134.3l0,0c0-0.2-0.2-0.3-0.2-0.5c0-1,0.9-1.9,1.9-1.9
			c0.9,0,1.6,0.7,1.9,1.6l0,0l7.1,26.5l0,0c0.9,2.3,3.1,3.8,5.7,3.8c3.5,0,6.1-2.8,6.1-6.1C391.9,157.5,391.9,157.1,391.9,156.8
			L391.9,156.8z"/>
	</g>
</g>
<g>
	<path fill="#34485D" d="M46,315.6c7.1,4,12.5,14.3,12.7,23.3c0.2,9.1-5.2,14.8-12.4,12.5c-8-2.4-15.2-13.4-15.2-24.4
		C31,316.1,38,311.3,46,315.6z"/>
	<path fill="#34485D" d="M77.2,405.5l-6.4-36.9c0,0,0,0,0-0.2l-0.2-0.7l0,0c-0.7-3-2.4-5.6-4.5-6.1l0,0v-0.2l-43.2-11.8v0.2
		c-4-1-7.3,1-8.5,4.7l0,0l-0.2,0.9c0,0,0,0,0,0.2L0,410.7h0.2c0,0.5-0.2,1-0.2,1.6c0,5.6,4.5,9.4,9.6,8.7c3.8-0.5,6.8-3.3,8-6.8l0,0
		l8.7-38v0.2l0,0c0.2-1.2,1-1.9,2.3-1.9c1,0.2,1.9,1.2,2.3,2.4l0,0v0.3v0.2v0.2v0.3l-13.8,61.1c-0.2,0.7-0.3,1.2-0.3,1.9v0.2l0,0
		v0.2c0,2.8,2.1,4.4,4.4,3.7l10.3-2.8l0.3,38.3c0,5.4,3.7,7.7,7.8,5.4c4-2.3,7-8,7-12.9l-0.3-34.8l3.8-1l0.2,34c0,4.7,3,7,6.3,5.2
		c3.1-1.7,5.6-6.8,5.6-11.1l-0.2-31l6.1-1.7c1.2-0.3,2.3-2.1,2.3-4v-0.2l0,0v-0.2c0-0.5-0.2-0.9-0.2-1.2l-8.5-45.1l0,0
		c0-0.2,0-0.3,0-0.5c0-1.2,0.7-2.1,1.4-1.9c0.7,0.2,1.2,0.9,1.4,1.7l0,0l5.2,28.4l0,0c0.7,2.3,2.1,3.8,3.8,3.7
		c2.1-0.3,3.8-3.1,3.8-6.6C77.2,406.2,77.2,405.8,77.2,405.5L77.2,405.5z"/>
</g>
<g>
	<path fill="#34485D" d="M569.5,317.4c7.7-6.6,14.8-3.1,14.8,8.5c0,11.7-7.1,24.6-14.8,28.4c-6.6,3.3-11.5-1.7-11.5-10.6
		S562.7,323.1,569.5,317.4z"/>
	<path fill="#34485D" d="M601.7,344.9L601.7,344.9l-50.3,21.9l0,0c-2.3,1-3.8,4.7-4,8.5l0,0v40.8l0,0c0,1.6,0.3,3.1,1,4.5
		c1.4,2.8,3.7,3.3,5.2,1c0.7-1,1.2-2.8,1.2-4.5l0,0v-30.8V386l0,0c0-1.2,0.5-2.1,1.2-2.3c0.7-0.2,1.2,0.7,1.4,1.7l0,0v0.3v20.6v63.4
		c0,4.4,2.3,9.9,5.2,12.4c3.1,2.6,5.9,0.9,5.9-4v-47.7l0,0c0-1.4,0.7-2.3,1.7-2.1c1,0.2,1.9,1.6,1.9,3l0,0v49.5
		c0,5.2,3.1,11.8,7.1,15.3c4.4,3.7,8.2,2.1,8.2-3.8v-56.8v-28v-27.2v-0.5c0-1.6,1-3.1,2.4-3.5c1.4-0.3,2.6,0.9,2.6,2.4v0.5v44.4h0.2
		c0,2.4,0.9,5.1,2.4,7.3c3.5,4.7,9.4,6.1,13.4,3c2.1-1.7,3.1-4.4,3.1-7.1l0,0v-74C612,346.1,607.3,343,601.7,344.9z"/>
</g>
<g>
	<circle fill="#26B99A" cx="312.6" cy="388.6" r="90.7"/>
	<text transform="matrix(1 0 0 1 242.588 408.7304)" fill="#FFFFFF" font-family="'Gadugi-Bold'" font-size="62.6978">CRM</text>
</g>
</svg>
