<?xml version="1.0" encoding="utf-8"?>
<!-- Generator: Adobe Illustrator 17.1.0, SVG Export Plug-In . SVG Version: 6.00 Build 0)  -->
<!DOCTYPE svg PUBLIC "-//W3C//DTD SVG 1.1//EN" "http://www.w3.org/Graphics/SVG/1.1/DTD/svg11.dtd">
<svg version="1.1" id="Layer_2" xmlns="http://www.w3.org/2000/svg" xmlns:xlink="http://www.w3.org/1999/xlink" x="0px" y="0px"
	 viewBox="0 90.9 612.2 648.5" enable-background="new 0 90.9 612.2 648.5" xml:space="preserve">
<text transform="matrix(1 0 0 1 -177.5005 1373)" display="none" fill="#E6E6E6" enable-background="new    " font-family="'Arial-Black'" font-size="637.5946">G</text>
<path fill="#1ABC9C" d="M506.7,436.3c9.6,0,17.4,3.1,23.2,9.4c6,6.3,8.8,14.4,8.8,24.5c0,10.1-2.8,18.3-8.8,24.5
	c-5.8,6.3-13.7,9.2-23.2,9.2c-9.6,0-17.4-3.1-23.4-9.2c-5.8-6.3-8.8-14.4-8.8-24.5s2.8-18.3,8.8-24.5
	C489.3,439.4,497,436.3,506.7,436.3z M527.5,470c0-9.2-2-16.6-5.8-22.1c-3.8-5.6-8.8-8.1-15.2-8.1c-6.5,0-11.6,2.6-15.4,8.1
	c-3.8,5.6-5.8,12.7-5.8,22.1c0,9.2,2,16.6,5.8,21.9c3.8,5.6,8.8,8.1,15.4,8.1c6.3,0,11.6-2.6,15.2-8.1
	C525.6,486.6,527.5,479.4,527.5,470z M502.6,465.9h7.9c3.1,0,5.1-0.5,6.3-1.5c0.9-0.9,1.7-2.6,1.7-5.3h2.4v20.1h-2.4
	c-0.2-2.6-0.7-4.3-1.7-5.3s-3.1-1.5-6.3-1.5h-7.9c-3.1,0-5.3,0.5-6.3,1.5c-0.9,0.9-1.7,2.6-1.7,5.3h-2.4v-20.2h2.4
	c0.2,2.6,0.7,4.3,1.7,5.3C497.3,465.4,499.4,465.9,502.6,465.9z"/>
<path fill="#1ABC9C" d="M261.4,233.3c2.6-2.2,3.8-3.8,4.1-5.6c0.2-1.7-0.7-3.8-2.6-6.5l1.7-1.5l10.8,13.4l-20.6,16.9l-11.1-13.5
	c3.4-3.8,4.8-8.4,4.5-13.4c-0.2-5.1-2.2-9.6-5.8-14.4c-4.3-5.3-9.2-8.4-14.6-9.2c-5.6-0.7-10.8,0.7-15.9,4.8
	c-5.1,4.1-7.8,8.8-8.1,14.4c-0.5,5.6,1.5,11.1,5.8,16.3c3.6,4.5,7.9,7.5,12.7,8.8c4.8,1.3,9.4,0.7,14.1-1.7l11.1,13.7l-20.6,16.9
	l-11-13.4l1.7-1.5c2.2,2.4,4.1,3.8,5.8,3.8c1.7,0.2,3.6-0.7,6.3-2.8l9.4-7.5l-3.6-4.5c-7.1,3.8-13.4,5.3-19.5,4.5
	c-6-0.7-11.3-3.8-15.4-8.8c-4.8-6-6.5-13.1-4.8-20.4c1.7-7.4,6.3-14.4,13.9-20.4c7.8-6.3,15.4-9.4,23.2-9.4c7.8,0,13.9,3.1,19,9.2
	c4.1,5.1,6,10.8,5.6,16.9c-0.5,6-3.4,12.3-8.4,18.1l3.6,4.5L261.4,233.3z"/>
<path fill="#1ABC9C" d="M528.8,626.3l23.4,2c2.4,0.2,4.3-0.2,5.3-0.9c0.9-0.9,1.5-2.8,2-5.8l1.5,0.2l-2,22.9l-1.5-0.2
	c0.2-2.8-0.2-5.1-0.9-6s-2.4-1.7-5.1-2l-23.4-2c0,4.5,0.7,7.9,2.4,9.9s4.8,2.8,9.6,3.4l6.5,0.5c4.5,0.2,7.8,1.5,9.4,2.8
	c1.7,1.7,2.4,4.1,2.2,7.8c0,0.7-0.2,1.5-0.2,2.2c0,0.7-0.2,1.3-0.5,2l-1.7-0.2l0.2-1.5c0.2-1.7-0.2-2.6-1.3-3.4
	c-0.9-0.7-2.8-1.3-6.3-1.5l-8.1-0.7c-5.1-0.5-8.6-2.4-11.1-6c-2.4-3.6-3.4-8.8-3.1-15.6l-7.3-0.5c-2.6-0.2-4.3,0.2-5.3,0.9
	c-0.9,0.9-1.7,2.8-2,5.8l-1.5-0.2l2-22.9l1.5,0.2c-0.2,3.1,0.2,5.1,0.9,6c0.7,0.9,2.4,1.7,5.1,2l7.3,0.5c0.7-6.7,2.6-11.8,5.6-14.8
	c2.8-3.1,7.1-4.5,12-4.1l8.1,0.7c3.4,0.2,5.6,0.2,6.5-0.5c0.9-0.5,1.5-1.7,1.7-3.1l0.2-1.5l1.7,0.2c0,0.5,0,1.3,0,2
	c0,0.7,0,1.5-0.2,2.2c-0.2,3.6-1.5,6-3.4,7.3c-2,1.5-5.1,2-9.6,1.5l-6.5-0.5c-4.8-0.5-8.1,0.2-10.1,1.7
	C530.7,618.8,529.2,621.9,528.8,626.3z"/>
<path fill="#1ABC9C" d="M442.1,569.3c-1.3,2.6-2,4.5-2,5.6c0,0.9,0.2,1.7,1.3,2.2c0.5,0.2,0.9,0.5,1.7,0.5s1.5,0,2.6,0l25.7-1.7
	l-11.2-20.3l0,0c-1.7-3.1-2.8-4.8-3.6-5.3c-0.7-0.5-1.7-0.5-2.4,0c-0.7,0.5-2,2-3.6,4.1l-1.7-0.9l9.6-17.1l1.7,0.9
	c-0.7,2-0.9,3.6-0.7,5.1c0.2,1.7,1.3,4.1,2.8,7.3l14.6,26.8l17.4,9.6c2.4,1.5,4.3,1.7,5.8,1.3c1.5-0.5,3.1-2.4,5.1-5.3l1.7,0.9
	l-13.7,24.5l-1.7-0.9l0.2-0.5c1.7-2.8,2.2-5.1,1.7-6.7c-0.5-1.7-2-3.1-4.5-4.5l-15.6-8.6l-35.3,3.1c-2.2,0.2-3.8,0.7-5.3,1.5
	c-1.5,0.9-2.6,2.2-3.8,4.1l-1.7-0.9l13.9-25L442.1,569.3z"/>
<path fill="#1ABC9C" d="M102.1,240.4c0-3.4-0.5-5.8-1.7-6.7c-1.3-1.3-3.4-1.7-7.1-2v-2h27.2v2c-3.4,0-5.8,0.7-7.1,2
	c-1.3,1.3-1.7,3.4-1.7,6.7v43.3c0,3.4,0.5,5.8,1.7,6.7c1.3,1.3,3.4,2,7.1,2v2H93.3v-2c3.4,0,5.8-0.7,7.1-1.7
	c1.3-1.3,1.7-3.4,1.7-7.1C102.1,283.6,102.1,240.4,102.1,240.4z"/>
<path fill="#1ABC9C" d="M425.3,629.9c0-10.1,2.8-18.3,8.6-24.5c5.8-6.2,13.2-9.2,22.9-9.2c9.4,0,16.9,3.1,22.6,9.4
	c5.8,6.3,8.6,14.4,8.6,24.5c0,10.1-2.8,18.3-8.6,24.5c-5.8,6.3-13.2,9.4-22.6,9.4s-16.9-3.1-22.9-9.2
	C428.2,648.6,425.3,640.2,425.3,629.9z M456.6,599.7c-6.3,0-11.3,2.6-14.8,8.1c-3.8,5.6-5.6,12.7-5.6,21.9s2,16.6,5.6,22.1
	c3.6,5.5,8.6,8.1,14.8,8.1c6.2,0,11.1-2.6,14.6-8.1c3.6-5.6,5.6-12.7,5.6-22.1s-2-16.6-5.6-22.1
	C467.9,602.5,462.9,599.7,456.6,599.7z"/>
<path fill="#1ABC9C" d="M262.7,99.2c-3.1,1.5-5.1,2.6-5.8,4.1c-0.7,1.5-0.5,3.4,0.5,6.3l13.7,36c1.3,2.8,2.4,4.5,3.8,5.1
	c1.5,0.5,3.6,0.2,7.1-0.9l0.7,1.7l-24.7,9.4l-0.7-1.7c3.1-1.3,5.1-2.6,5.8-4.1c0.7-1.5,0.5-3.6-0.5-6.3l-13.2-34.5
	c-1.3-2.8-2.4-4.5-3.8-5.1c-1.4-0.5-4.1,0-7.9,1.3l-7.8,2.8c-3.8,1.5-6,2.8-6.7,4.3c-0.7,1.5-0.7,3.6,0.5,6.5l13.4,34.6
	c0.9,2.8,2.4,4.5,3.8,5.1c1.4,0.5,3.8,0.2,7.1-0.9l0.7,1.7l-24.7,9.4l-0.7-1.7c3.1-1.5,5.3-2.6,5.8-4.1c0.7-1.5,0.5-3.4-0.7-6.3
	l-13.7-36c-0.9-2.6-2.4-4.3-3.6-5.1c-1.5-0.5-3.8-0.2-7.1,0.7l-0.9-1.3l59.4-22.7L262.7,99.2z"/>
<path fill="#1ABC9C" d="M612,393h-2.4c-0.5-4.8-2-8.1-4.8-10.6c-2.6-2.4-6.7-3.6-11.8-3.6h-18.4l23.6,26v1.5l-25.3,24.2h29
	c2.8,0,5.1-0.5,6-1.7c0.9-1.3,1.7-3.4,2-6.7h2.4v17.8H560v-2.6l29.6-28.6l-28.4-31.3v-2.2h50.8L612,393L612,393z"/>
<path fill="#1ABC9C" d="M546.3,683.1l-50.4,24.7l-4.8-71l2-0.9L546.3,683.1z M500.2,700.9l32.8-16.1l-36.3-32.2L500.2,700.9z"/>
<path fill="#1ABC9C" d="M81.7,528.4c-3.8,0-6.5,0.7-7.8,1.7s-2,3.1-2,6.3v0.5c9.2,0.2,16.1,2.4,21.2,6.3c5.1,3.8,7.8,8.8,7.8,15.4
	c0,6-2.6,11.1-7.8,14.8c-5.1,3.8-12.3,6-21.2,6.7v0.9c0,2.8,0.7,5.1,2,6.3c1.5,1.3,3.8,1.7,7.8,1.7v2H52.2v-2c3.8,0,6.3-0.7,7.8-2
	c1.5-1.3,2-3.4,2-6.3v-0.7c-8.8-0.7-16.1-2.8-21.2-6.7c-5.1-3.8-7.8-8.8-7.8-14.8c0-6.5,2.6-11.6,7.8-15.4s12.3-5.8,21.4-6.3v-0.5
	c0-3.1-0.7-5.3-2-6.5c-1.3-1.3-3.8-1.7-7.9-1.7v-1.7h29.6L81.7,528.4L81.7,528.4L81.7,528.4z M61.8,539.6
	c-5.8,0.5-10.3,2.4-13.2,5.8c-2.8,3.1-4.3,7.8-4.3,13.4c0,5.8,1.5,10.3,4.3,13.4c2.8,3.1,7.3,5.1,13.2,5.6V539.6z M72.1,539.6v38.2
	c5.8-0.5,10.1-2.2,13.1-5.6c2.8-3.1,4.3-7.8,4.3-13.4c0-5.8-1.5-10.3-4.3-13.4C82.3,542.2,77.9,540.3,72.1,539.6z"/>
<path fill="#1ABC9C" d="M480.9,170l0.7-2c4.8,0.2,8.6-0.2,11.6-2c2.8-1.5,5.1-4.1,6.5-7.5l3.8-9.6c0.9-2.6,1.5-4.5,1.3-5.6
	c-0.2-1.3-2-2.2-4.5-3.4l-40.3-16.3c-3.1-1.3-5.6-1.5-7.3-0.5c-1.7,0.9-3.4,3.1-4.8,7.1l-2-0.7l11.8-29.1l2,0.7
	c-1.5,3.8-2,6.5-1.5,7.9c0.5,1.7,2.4,3.1,6,4.5l39,15.6c3.6,1.5,6.3,2,7.9,1.3c1.6-0.7,3.4-2.8,4.5-6.3l0.2-0.5l1.7,0.7l-19.9,49.8
	L480.9,170z"/>
<path fill="#1ABC9C" d="M187,509.5c1.5-2.4,2-4.5,1.5-6.5c-0.5-2-2-3.6-4.3-5.1c-0.2,0.2-0.5,0.7-0.7,1.5c-1.3,2.2-2,3.6-2.4,4.3
	c-5.8,9.6-11.8,15.9-18.1,19c-6.3,3.1-12.7,2.6-19-1.3c-5.6-3.4-8.8-7.5-9.6-12.3c-0.7-4.8,0.9-10.6,4.8-17.4l4.3-7.5
	c1.5-2.4,2.4-4.5,2.4-6c0.2-1.5-0.5-2.6-1.7-3.4c-1.5-0.7-2.6-0.9-4.1-0.2c-1.5,0.7-2.6,2.2-3.8,4.1l-1.7-0.9
	c0.2-0.2,0.5-0.7,0.7-1.3c1.7-2.6,3.6-4.3,6-5.1c2.4-0.9,4.8-0.5,7.1,0.7c3.4,2,5.1,4.5,5.6,7.8c0.2,3.1-0.9,7.1-3.8,11.8l-6,9.9
	c-2.6,4.3-3.8,7.9-3.4,10.8c0.2,2.8,2,5.3,5.1,7.3c3.6,2.2,7.1,2.2,10.1,0.2c3.4-2,7.1-6.5,11.3-13.7l8.1-13.4l-1.3-0.7
	c-6.7-4.1-11.3-8.4-13.9-13.4c-2.4-4.8-2.6-9.4,0-13.4c2-3.4,4.8-5.3,8.6-6c3.6-0.7,7.5,0,11.1,2.4c5.6,3.4,8.8,7.9,9.9,13.9
	c0.9,5.8-0.5,12.7-4.3,20.4c3.4,2.2,5.3,4.3,6,6.7c0.7,2.4,0.2,5.3-1.7,8.4L187,509.5z M176.7,490.6l0.9-1.5
	c3.8-6.5,6-11.6,6.3-15.9c0.2-4.1-1.3-7.3-4.3-9.2c-2.2-1.5-4.3-1.7-6.3-0.9c-2,0.7-3.8,2.2-5.3,4.5c-2.6,4.3-3.1,8.1-2,12
	c1.5,3.8,4.5,7.3,9.6,10.3L176.7,490.6z"/>
<path fill="#1ABC9C" d="M565.7,555.9c-3.6-3.6-6.3-5.8-8.1-6.5c-2-0.9-3.8-0.9-5.8,0l-0.7-2l24-10.1l0.7,2c-2.6,1.3-4.1,2.2-4.8,3.1
	c-0.7,0.7-0.7,1.7-0.5,2.8c0.9,2.2,9.2,10.8,25,26.2l7.9,7.8v-40.3c0-1.5,0-2.6-0.2-3.6c0-1.3-0.2-2-0.5-2.4
	c-0.5-1.5-1.5-2.2-2.4-2.4c-0.9-0.2-2.8,0.2-5.6,1.3l-0.7-2l17.4-7.3l0.7,2c-1.5,0.7-2.6,1.7-3.1,3.4c-0.5,1.5-0.9,4.5-0.7,8.8
	l0.2,59l-2.2,0.9L565.7,555.9z"/>
<path fill="#1ABC9C" d="M462.6,385.7l-0.7,30.8c0,3.4,0.5,5.6,1.5,6.7c1.3,1.3,3.4,2,6.7,2.2v2.2l-17.8-0.5l1.3-52.7l17.8,0.5v2.2
	c-3.4,0.2-5.6,0.7-6.7,2C463.3,380.1,462.6,382.3,462.6,385.7z M499.1,427.8v-2.2c3.4-0.2,5.6-0.7,6.7-2c1.2-1.3,2-3.1,2-6.5
	l0.7-30.5c0-3.4-0.5-5.6-1.7-6.7c-1.3-1.3-3.4-2-6.7-2.2v-2.2l17.8,0.5l-1.3,51.9L499.1,427.8z M489.8,396.5l-0.2,9.6
	c0,3.6,0.2,5.8,1.3,7.1c0.7,1.3,2.4,1.7,4.8,2v2.2l-21-0.5v-2.2c2.6,0,4.3-0.7,5.3-1.7c0.9-1.3,1.5-3.4,1.5-6.7l0.2-9.6
	c0-3.4-0.2-5.8-1.3-6.7c-0.9-1.3-2.6-2-5.1-2.2v-2.2l21,0.5v2.2c-2.4,0-4.1,0.7-5.1,1.7C490.3,391,489.8,393,489.8,396.5z"/>
<path fill="#1ABC9C" d="M196.5,602.5l-16.1-22.1c-2.4-3.4-4.5-5.8-6-6.7c-1.7-0.9-3.4-1.7-5.6-1.7h-0.9v-2h29.1v2h-0.7
	c-2.2,0-3.8,0.2-4.8,0.5c-0.9,0.5-1.5,0.9-1.5,2c0,0.5,0.2,0.9,0.2,1.5c0.2,0.5,0.7,1.3,1.5,2.2l11.6,16.3l11.3-14.1
	c0.9-0.9,1.5-2.2,2.2-3.1c0.5-0.9,0.7-2,0.7-2.4c0-0.9-0.5-1.5-1.5-2c-0.9-0.5-2.6-0.7-5.3-0.7v-2h23.8v2h-1.2c-2.2,0-4.3,0.5-6,1.5
	c-1.7,0.9-3.8,2.8-6,5.8l-15.6,18.6l19.2,27.2c2,2.6,3.6,4.5,5.3,5.6c1.7,1.3,3.8,1.7,6,2v2h-29.7v-2c0.2,0,0.2,0,0.5,0
	c4.8-0.2,7.5-1.5,7.5-3.1c0-0.5-0.2-1.3-0.7-2.2c-0.5-0.9-1.3-2.2-2.4-3.6l-12.3-17.6l-13.4,16.6c-1.7,2-2.6,3.4-3.1,4.5
	c-0.5,0.9-0.7,2-0.7,2.6c0,0.9,0.5,1.7,1.5,2.2c0.9,0.5,2.8,0.7,5.6,0.7v2h-21.7v-1.9c1.7,0,3.4-0.2,4.8-1.3
	c1.5-0.7,3.1-2.4,5.6-5.3L196.5,602.5z"/>
<path fill="#1ABC9C" d="M554,213.9l1.3,2c-3.1,1.7-5.8,2.2-7.9,1.7c-2.2-0.7-4.3-2.6-6.3-5.8l-0.2-0.2c-0.2-0.5-0.7-1.5-1.5-2.8
	c-0.7-1.5-1.5-2.6-2-3.6c-2.2-3.8-5.3-6.3-8.8-7.3c-3.6-0.9-7.5-0.5-11.1,1.7c-3.8,2.4-6.3,5.3-6.5,8.6c-0.5,3.4,1.3,8.4,4.5,15.4
	c2.2,4.1,2.8,7.5,2.4,9.9c-0.5,2.4-2.2,4.5-5.3,6.3c-4.1,2.4-8.1,2.8-12.5,1.3c-4.3-1.7-8.1-5.1-11.1-10.1c-1.7-2.8-2.6-5.1-2.8-6.5
	c-0.2-1.5,0.2-2.6,1.3-3.4c0.9-0.5,1.7-0.5,2.4-0.2c0.7,0.2,1.5,0.9,2.2,2.2c0.5,0.7,0.9,2.2,1.5,4.5c0.5,2.4,1.3,4.3,2.2,5.8
	c1.5,2.4,3.4,4.1,5.8,5.1c2.4,0.9,4.5,0.9,6.3,0c1.5-0.9,2.4-2,2.6-3.1c0.3-1.2,0.2-2.6-0.5-4.8c-0.5-1.3-1.3-3.1-2.6-5.6
	c-1.3-2.4-2.2-4.3-2.6-5.8c-1.7-4.1-1.7-8.1,0-11.8c1.7-3.6,5.1-6.7,10.1-9.9c6.5-3.8,12.3-5.6,17.6-4.8c5.1,0.7,9.4,3.6,12.5,8.6
	c0.7,1.3,1.7,2.8,2.6,4.8c0.9,2,1.7,3.1,2,3.8c0.7,1.5,1.7,2.4,2.6,2.8C552.5,214,553.2,214,554,213.9z"/>
<path fill="#1ABC9C" d="M48.9,259.8c6.5,1.7,10.8,5.8,13.1,12c2.2,6.3,2,14.4-0.7,24.5c-2.8,10.8-6.7,18.7-11.6,23.6
	c-5.1,4.8-10.6,6.5-17.1,4.8c-7.1-1.7-11.3-5.8-13.2-12.3c-2.4-6.3-2-14.8,0.9-25.7c2.6-10.1,6.5-17.6,11.6-22.1
	C36.5,259.8,42.3,258.5,48.9,259.8z M52.4,291.2c0-0.5,0.2-0.9,0.5-2c0.2-0.7,0.5-1.3,0.5-1.7c2.2-7.9,2.6-13.9,2-18.1
	c-0.7-4.1-3.1-6.7-7.1-7.8c-3.8-0.9-7.5,0.2-10.3,4.1c-2.8,3.6-5.6,10.1-7.9,19.5L52.4,291.2z M29.1,288.9l-0.5,2.2
	c-2.6,10.6-3.8,18.1-3.1,22.9c0.7,4.5,3.1,7.5,7.1,8.4c4.1,1.3,7.8-0.2,10.3-3.8c2.6-3.6,5.6-11.6,8.6-23.8L29.1,288.9z"/>
<path fill="#1ABC9C" d="M480.1,183.9h2.6c-0.7,6.5-3.1,11.3-7.3,14.6c-4.2,3.4-9.9,4.8-16.9,4.8c-6.7-0.2-12.3-2-16.3-5.6
	c-4.1-3.4-6-7.8-6-13.1c0-3.1,1.3-5.6,3.1-7.8c2.2-2,5.3-3.6,9.4-4.5c-4.1-1.3-7.3-2.8-9.2-5.1s-2.8-4.8-2.8-7.9
	c0.2-5.3,2.4-9.4,6.7-12.7c4.3-3.1,9.9-4.8,16.6-4.5c7.1,0.2,12.5,2.2,16.6,5.8c3.8,3.6,6,8.6,6.5,15.2h-2.6c0-3.8-1.5-6.7-4.3-8.4
	c-2.6-1.7-7.5-2.6-14.1-2.8c-7.9-0.2-13.4,0.2-16.9,1.7c-3.4,1.5-5.1,3.8-5.1,7.1c0,2.8,1.3,5.1,3.6,6.7s6,2.6,10.3,2.6
	c2.2,0,5.3-0.2,8.8-0.7c3.6-0.5,6.3-0.7,7.5-0.7c1.7,0,2.8,0.5,3.6,1.3c0.7,0.7,1.3,2,1.3,3.4s-0.5,2.6-1.5,3.4
	c-0.9,0.7-2.2,1.3-3.6,1.3c-1.5,0-3.8-0.5-7.8-1.3c-3.6-0.7-6.7-1.3-8.8-1.3c-4.3,0-7.9,0.7-10.3,2.2c-2.4,1.5-3.8,3.6-3.8,6.5
	c0,3.4,1.5,5.8,4.8,7.3c3.1,1.5,8.6,2.4,15.9,2.6s12.3-0.5,15.2-2C478.1,190.6,479.9,187.7,480.1,183.9z"/>
<path fill="#1ABC9C" d="M304.6,629.4c-2.8-0.9-5.1-2.2-6.7-3.8c-1.5-1.7-2.4-3.8-2.4-6.3c0-3.4,1.5-6,4.3-8.1
	c2.8-2.2,6.7-3.1,11.3-3.1c4.1,0,7.5,0.7,10.3,2.2c2.8,1.5,4.1,3.1,4.1,5.3c0,0.9-0.2,2-0.9,2.4c-0.7,0.7-1.5,0.9-2.6,0.9
	c-0.9,0-2-0.2-2.6-0.7c-0.7-0.5-1.5-1.5-2.2-2.8c-0.9-1.7-1.7-2.6-2.6-3.4c-0.9-0.7-2.2-0.9-3.8-0.9c-2.2,0-3.6,0.7-4.8,2.2
	s-1.7,3.6-1.7,6.3c0,2.6,0.5,4.8,1.7,6.3c1.3,1.5,2.6,2.4,4.5,2.4c0.7,0,2-0.2,3.4-0.7c1.5-0.5,2.6-0.7,3.4-0.7
	c0.9,0,1.7,0.2,2.4,0.9c0.5,0.5,0.9,1.3,0.9,2.2s-0.2,1.7-0.9,2.4c-0.5,0.5-1.3,0.7-2.4,0.7c-0.7,0-2-0.2-3.4-0.9
	c-1.5-0.5-2.6-0.9-3.4-0.9c-2,0-3.6,0.7-4.8,2.4c-1.3,1.7-1.7,3.8-1.7,6.7c0,3.1,0.9,5.6,2.6,7.5c1.7,2,4.1,2.8,7.1,2.8
	c2.6,0,4.8-0.7,6.7-2.2c2-1.5,3.6-3.8,5.1-7.1l2.6,1.3c-1.7,3.8-3.8,7.1-6.7,8.8c-2.8,2-6.3,2.8-10.6,2.8c-4.8,0-8.4-1.3-11.3-3.6
	c-2.8-2.4-4.3-5.6-4.3-9.6c0-2.8,0.7-5.3,2.4-7.3C299,632,301.4,630.4,304.6,629.4z"/>
<path fill="#1ABC9C" d="M345.9,496c-7.8,0.5-13.7-1.3-18.3-4.8c-4.5-3.6-7.1-8.8-7.5-15.9c-0.2-6.3,1.5-11.6,5.8-15.4
	c4.1-4.1,9.9-6.3,16.9-6.7c7.3-0.2,13.4,1.3,18.3,4.8c4.8,3.6,7.5,8.4,7.8,14.4c0.2,2.6-0.2,5.3-1.3,7.8c-0.9,2.6-2.4,4.8-4.3,6.5
	l27-1.5l0.5,8.4L345.9,496z M323.1,477c0.2,3.6,2,6.5,5.3,8.1c3.4,2,7.9,2.6,13.7,2.4c7.3-0.2,13.2-2,17.6-4.8
	c4.3-2.8,6.5-6.3,6.3-10.3c-0.2-3.8-2-6.7-4.8-8.4c-3.1-1.7-7.5-2.4-13.4-2.2c-7.5,0.5-13.4,2.2-18.1,4.8
	C325,469.4,323.1,472.7,323.1,477z"/>
<path fill="#1ABC9C" d="M449.4,259.2c0,0.5,0,1.3,0,2.2c-0.2,7.1-0.2,12-0.2,15.2v3.1c0,5.6,0.2,9.2,0.9,10.6c0.7,1.5,2,2.2,3.6,2.2
	c2.2,0,3.8-0.9,5.1-2.8c1.3-2,1.7-4.8,2-8.8h2.4v0.7c0,5.3-0.9,9.2-2.8,11.6c-2,2.4-5.1,3.6-9.2,3.6c-4.3,0-7.3-1.3-8.8-3.6
	c-1.7-2.4-2.4-7.9-2.4-16.6c0-1.3,0-3.6,0-6.7s0.2-6.7,0.2-10.6c-0.2,0-0.2,0-0.7,0c-2.4-0.2-4.1-0.2-5.1-0.2
	c-2.6,0-5.1,0.5-6.7,1.5s-2.6,2.2-3.1,3.8h-2.2c0.2-4.3,1.7-7.5,4.1-9.4c2.6-2,7.1-2.6,13.2-2.6c1.7,0,4.1,0,7.8,0.2
	c3.4,0.2,6,0.2,7.9,0.2c3.1,0,5.3-0.2,6.7-0.7s2.2-1.3,2.2-2.2l0,0h2c0,3.6-0.9,6.3-2.6,7.8c-1.7,1.5-5.1,2.2-9.6,2.2
	C452.7,259.3,451.2,259.3,449.4,259.2L449.4,259.2L449.4,259.2z"/>
<path fill="#1ABC9C" d="M200.4,677.9c1.3-4.8,0.7-9.2-1.3-12.7c-2-3.6-5.3-6.5-9.9-8.6c-3.6-1.5-7.8-2.4-12-2.6
	c-4.3-0.2-7.3-0.5-7.9-0.9c-1.5-0.7-2.4-1.5-2.8-2.4c-0.5-0.9-0.2-2.4,0.2-3.6c0.9-2.2,2.6-3.1,5.1-3.1c2.6,0,6.3,0.9,11.1,3.1
	c8.1,3.4,13.9,7.9,17.4,13.7c3.6,5.8,4.3,11.8,2.6,18.4l18.7,6.7l-4.1,9.4l-17.8-8.6c-3.6,7.1-7.5,11.6-11.8,13.4
	c-4.3,2-9.4,2-15.2-0.7c-2.2-0.9-4.8-2.4-8.1-4.1c-3.4-2-5.8-3.1-7.1-3.6c-1.7-0.7-3.1-0.9-4.1-0.7c-1.3,0.2-2,0.9-2.4,2
	c-0.7,1.5-0.5,2.8,0.5,4.3c0.9,1.3,2.6,2.4,5.3,3.6l1.5,0.5l-0.9,2.2c-0.2,0-0.5-0.2-0.7-0.2s-0.7-0.2-1.3-0.5
	c-3.6-1.5-5.8-3.4-7.1-5.8s-1.3-5.1,0.2-8.1c1.3-2.8,3.1-4.8,5.6-5.6c2.4-0.7,5.6-0.2,9.2,1.3c0.9,0.5,2.8,1.5,5.8,2.8
	c2.9,1.4,5.3,2.6,7.3,3.6c5.8,2.4,10.1,3.4,13.1,2.4c2.8-0.9,5.6-3.6,7.9-8.1l-48.8-23.9l0.9-2.4L200.4,677.9z"/>
<path fill="#1ABC9C" d="M430.3,686.5h-2.2c0-0.2,0-0.5,0-0.7s0-0.7,0-1.3c0-3.8,0.9-6.7,2.6-8.8c1.7-2,4.5-2.8,7.9-2.8
	s6,0.9,7.8,3.1c1.7,2,2.6,5.1,2.6,9.2c0,1.3-0.2,3.8-0.5,7.9c-0.2,4.1-0.5,7.5-0.5,10.3c0,4.1,0.9,7.3,2.6,9.2
	c1.7,2,4.3,2.8,7.9,2.8c4.3,0,7.8-1.5,10.6-4.5c2.6-2.8,4.1-7.1,4.1-11.8c0-3.6-0.9-7.8-3.1-12.3c-2.2-4.5-3.1-7.8-3.1-9.4
	s0.5-2.6,1.3-3.6c0.7-0.7,2.2-1.3,3.8-1.3c2.4,0,4.1,1.3,5.3,3.6c1.2,2.4,1.7,6.3,1.7,11.6c0,9.9-2,17.4-6,22.9
	c-4.1,5.6-9.6,8.1-16.9,8.1c-5.3,0-9.4-1.5-12.3-4.8c-2.8-3.1-4.3-7.5-4.3-13.1c0-2.4,0.2-5.8,0.7-9.9c0.5-4.1,0.7-7.3,0.7-8.8
	s-0.5-3.1-1.3-4.1c-0.7-0.9-2-1.5-3.1-1.5c-2,0-3.4,0.7-4.3,2.2c-0.9,1.5-1.5,3.4-1.5,6.3c0,0.2,0,0.5,0,0.7
	C430.3,685.9,430.3,686.2,430.3,686.5z"/>
<path fill="#1ABC9C" d="M598.2,475.7c0,4.5,0.5,7.5,1.3,8.6c0.7,1.3,2,2,3.8,2c2.2,0,3.8-0.9,4.8-2.6c0.9-1.7,1.5-4.5,1.5-8.1v-0.9
	h2.4v1.7c0,4.8-0.9,8.4-2.8,10.6c-2,2.2-4.8,3.4-8.8,3.4c-3.8,0-6.5-1.3-8.1-3.4c-1.7-2.2-2.6-5.8-2.6-10.8v-30.5h9.2L598.2,475.7
	L598.2,475.7z"/>
<path fill="#1ABC9C" d="M198.4,523.4c5.3,0,9.6,1.7,13.1,5.3s4.8,8.4,4.8,14.4c0,6.3-1.7,11.1-5.1,14.8c-3.4,3.6-7.9,5.6-13.4,5.6
	c-5.3,0-9.4-2-12.7-5.6c-3.4-3.6-5.1-8.4-5.1-14.4s1.7-10.8,5.3-14.6C188.3,525.3,192.8,523.4,198.4,523.4z M208.7,546.5
	c0-6.3-1.3-11.3-3.4-15.2c-2.2-3.8-5.1-5.8-8.6-5.8c-3.1,0-5.6,1.5-7.3,4.1s-2.6,6.5-2.6,11.3c0,6,1.3,10.8,3.4,14.4
	c2.2,3.8,5.1,5.6,8.4,5.6s5.8-1.3,7.5-3.6C208,555.3,208.7,551.7,208.7,546.5z"/>
<path fill="#1ABC9C" d="M142.4,339.8c-0.5,0.2-1.3,0.7-2,1.3c-6,3.4-10.3,5.8-12.7,7.3l-3.4,2.1c-4.5,2.6-7.5,4.8-8.4,6
	c-0.9,1.3-0.9,2.4-0.2,3.6c0.9,1.7,2.4,2.2,4.5,2.2c2.2-0.2,4.8-1.3,8.4-3.1l1.3,2.2l-0.5,0.2c-4.5,2.6-8.1,3.8-11.3,3.8
	c-2.8-0.2-5.3-1.7-7.3-4.8c-2-3.1-2.2-6-0.7-8.6c1.5-2.6,5.6-6,12.7-10.1c0.7-0.5,3.1-1.7,6.7-3.8c3.6-2,6.5-3.6,8.8-5.1
	c-0.5-0.9-1.5-2.4-2.4-4.3c-0.9-2-2.4-4.1-3.8-6.5c-13.1,7.8-22.1,12.3-27.2,13.7c-5.1,1.4-8.6,0.5-10.6-2.8c-1.3-2-1.3-3.8-0.2-5.8
	c0.9-2,3.1-3.8,6.3-5.8l1.7-0.8l1.3,2c-1.5,0.9-2.4,2-2.8,2.8c-0.4,0.8-0.2,2,0.2,2.8c1.5,2.4,4.1,2.8,8.1,1.7s11.3-4.5,21.7-10.6
	l-1.3-2c-1.3-2.2-2.6-3.6-4.1-4.3c-1.5-0.7-3.1-0.9-4.8-0.2l-1.3-2c3.8-2.2,7.3-2.6,9.9-1.7s5.6,3.8,8.4,8.8
	c0.5,0.9,2.2,3.8,4.8,8.6s5.1,9.2,7.5,13.1c1.3,2,2.2,3.1,3.1,3.8c0.9,0.7,2,0.7,2.6,0.2l0,0l1.3,2l-0.2,0.2
	c-2.8,1.7-5.3,2.4-7.5,1.7c-2.2-0.5-3.8-2.2-5.6-5.1c-0.2-0.5-0.5-0.9-0.7-1.3C142.6,340.5,142.4,340.3,142.4,339.8z"/>
<path fill="#1ABC9C" d="M567.5,231.6l-3.8,14.6c-0.7,2.6-1.5,5.1-2.4,7.5c-0.7,2.4-1.7,4.8-2.8,7.1c1.3,2.8,2.2,5.1,3.6,6.3
	c1.3,1.5,2.6,2.2,3.8,2.2c1.3,0,2-0.5,2.6-1.3c0.7-0.7,1.3-2,1.5-3.4h2v0.9c0,3.6-0.5,6.3-1.5,8.1c-0.9,1.7-2.6,2.6-4.5,2.6
	c-2.2,0-3.8-0.7-5.3-2.6c-1.3-1.7-2.4-5.1-3.6-9.9c-2.6,4.3-5.3,7.5-8.4,9.4c-2.8,2-6.5,2.8-10.6,2.8c-6.3,0-11.3-2.2-15.6-6.7
	c-4.1-4.3-6.3-10.1-6.3-16.9c0-6,2.2-11.3,6.3-15.9c4.3-4.5,9.4-6.7,15.2-6.7c4.5,0,8.1,1.5,11.1,4.1c2.8,2.6,4.8,6.7,6,12l3.6-14.6
	L567.5,231.6L567.5,231.6z M553.5,252.3c-1.5-6.7-3.4-11.6-5.6-14.4c-2.2-2.8-5.3-4.5-8.8-4.5c-3.8,0-7.1,2-9.4,5.3
	c-2.4,3.6-3.4,8.4-3.4,14.6c0,6.7,1.3,11.8,3.1,15.4c2.2,3.6,5.3,5.3,9.4,5.3c3.8,0,6.7-1.5,8.8-4.5
	C550,266.4,551.8,260.5,553.5,252.3z"/>
<path fill="#1ABC9C" d="M188.5,302.8c3.6,2,6.3,4.3,8.1,7.3c1.7,2.8,2.6,6.5,2.6,10.6c0,6.7-2.4,12.3-7.1,16.6
	c-4.8,4.3-10.8,6.5-18.4,6.5c-7.3,0-13.2-2.2-17.8-6.5c-4.6-4.3-7.1-9.6-7.1-16.3c0-7.3,2.4-13.1,7.3-17.4c4.8-4.3,11.1-6.5,19-6.5
	c1.7,0,4.5,0.2,8.8,0.2c4.3,0.2,7.9,0.2,10.6,0.2c2.7,0,4.5-0.2,5.8-0.7s2-0.9,2.2-2h2.2c0,3.1-0.7,5.3-2,6.5c-1.3,1.3-3.4,2-6.5,2
	c-0.7,0-1.5,0-2.4-0.2C192.8,303.3,191.3,303.1,188.5,302.8z M189.6,323.8c0-7.5-1.5-13.2-4.5-17.6c-3.1-4.3-7.1-6.5-12-6.5
	c-4.3,0-7.8,1.5-10.3,4.5c-2.4,3.1-3.6,7.5-3.6,13.2c0,7.1,1.5,12.5,4.5,16.9s7.1,6.5,12,6.5c4.8,0,8.1-1.5,10.6-4.3
	C188.3,333.6,189.6,329.3,189.6,323.8z"/>
<path fill="#1ABC9C" d="M585,225.9l-1.3-0.2c-11.8-2.6-18.4-6-20.2-10.1c-0.9-2.6-0.9-5.1,0.5-7.5c1.3-2.4,3.4-4.1,6.3-5.3
	c3.4-1.3,6.7-1.5,10.3-0.2c3.6,1.3,6.3,3.1,8.1,6l-2.4,0.9c-2-2.2-4.3-3.6-7.3-4.5c-2.8-0.7-5.6-0.7-7.9,0.2
	c-1.7,0.7-2.6,1.5-3.4,2.4c-0.7,0.9-0.7,2.2-0.2,3.4c0.9,2.4,4.5,4.3,10.8,5.6c2.2,0.5,3.6,0.7,4.8,0.9c7.1,1.7,12.7,4.3,17.1,7.8
	c4.3,3.4,7.5,7.8,9.6,13.1c2.4,6.5,2.6,12.3,0.5,17.4c-2.2,5.3-6.3,9.2-12.3,11.3c-5.6,2.2-10.8,2.2-15.9-0.2s-8.6-6.5-10.8-12.3
	c-2.4-6-2.6-11.8-0.5-16.9c2-5.3,5.8-8.8,11.3-11.1c0.5-0.2,0.9-0.2,1.3-0.5C584.3,225.9,584.7,225.9,585,225.9z M603.3,244.9
	c-2.4-6-5.3-10.6-9.2-13.4c-3.6-2.8-7.3-3.6-10.8-2.2c-3.1,1.3-5.1,3.6-6,6.7c-0.7,3.4-0.2,7.5,1.7,12.3c2.2,5.8,5.3,10.1,8.8,13.1
	c3.6,2.8,7.3,3.6,10.8,2.2c3.4-1.5,5.6-3.6,6.3-6.5C605.7,253.8,604.9,249.6,603.3,244.9z"/>
<path fill="#1ABC9C" d="M156.3,384.2c6.3,0.2,11.1,2.4,14.8,6.5c3.8,4.3,5.8,9.6,5.8,16.6c0,6.5-1.7,12-5.3,16.1
	c-3.6,4.1-8.1,6.5-14.1,7.1v19.7h-7.1v-19.8c-6-0.5-10.6-2.6-14.1-7.1c-3.6-4.3-5.3-9.6-5.3-16.1c0-6.7,2-12.3,5.8-16.3
	c3.8-4.3,8.6-6.5,14.8-6.7l0.5-19h3.8L156.3,384.2z M151.6,387c-3.6,0.5-6.5,2.4-8.8,6c-2.4,3.6-3.4,8.4-3.4,14.1
	c0,5.6,0.9,10.1,3.1,13.7c2.2,3.6,4.8,5.8,8.1,6.5L151.6,387z M156.3,387l0.9,40.3c3.4-0.7,6.3-2.8,8.1-6.5
	c2.2-3.6,3.1-8.1,3.1-13.7c0-5.8-1.3-10.3-3.4-14.1C163.1,389.4,160,387.3,156.3,387z"/>
<path fill="#1ABC9C" d="M451.7,503.1c-2-9.4-4.1-16.9-6.5-22.4c-2.4-5.6-4.5-8.1-6.5-8.1c-0.9,0-1.7,0.5-2.4,1.5
	c-0.7,0.9-0.9,2.4-1.3,4.1h-2.2v-2.8c0-3.8,0.5-6.7,1.7-8.6c1.3-2,2.8-2.8,5.1-2.8c4.3,0,8.6,10.3,13.2,31.3l0.9,4.1
	c3.1-7.5,5.3-15.6,6.3-24.5c0.2-1.3,0.2-2,0.2-2.4c0.5-2.8,0.9-5.1,1.7-6.3c0.9-1.3,2-2,3.4-2c1.5,0,2.4,0.2,3.1,1.3
	c0.7,0.7,1.3,2,1.3,3.1c0,2.6-2,7.9-6,16.1c-3.8,8.1-7.1,14.6-8.8,19.7c0.5,3.6,0.9,7.1,1.3,9.9c0.2,2.8,0.5,5.3,0.5,7.5
	c0,3.4-0.5,5.6-0.9,7.1c-0.7,1.5-1.7,2.2-3.1,2.2c-1.5,0-2.4-0.5-3.1-1.7c-0.7-1.3-1.3-2.8-1.3-5.3c0-2.4,0.2-5.1,0.9-8.4
	C449.6,511.2,450.5,507.2,451.7,503.1z"/>
<path fill="#1ABC9C" d="M198.4,194.6v-49.8c0-4.5-0.5-7.5-1.5-9.2c-0.9-1.7-2.8-2.4-5.3-2.4c-4.1,0-7.5,2.6-10.1,7.9
	c-2.6,5.3-3.8,12-3.8,19.9v12.7h-9.4v-32.1c0-2.8-0.2-5.1-0.9-6.5c-0.7-1.5-1.7-2.2-3.1-2.2c-1.4,0-2.6,0.7-3.6,2
	c-0.7,1.5-1.3,3.4-1.3,6v1.5h-2c0-0.2,0-0.5,0-0.7s0-0.7,0-1.3c0-3.6,0.7-6.5,2.4-8.6c1.7-2,3.8-2.8,6.7-2.8c3.6,0,6.3,1.5,7.9,4.3
	c1.7,2.8,2.6,7.3,2.6,13.2c1.7-6,3.8-10.6,6.5-13.2c2.6-2.8,6.3-4.3,10.3-4.3c4.8,0,8.1,1.7,10.1,4.8c2.2,3.1,3.1,8.4,3.1,16.1v44.7
	L198.4,194.6L198.4,194.6L198.4,194.6z"/>
<path fill="#1ABC9C" d="M302.2,150.8v-5.6c0-7.8,0.2-13.2,0.5-16.3c0.3-3.1,0.7-6,1.5-8.4c1.3-4.1,3.1-7.3,5.3-9.4
	c2.4-2.2,5.1-3.4,8.4-3.4c3.8,0,7.3,2,9.9,5.3c2.6,3.6,3.8,8.1,3.8,13.7c0,7.8-2,14.1-6,19c-4.1,4.8-9.4,7.5-16.1,7.8v19.7h-7.5
	v-19.5c-7.8-0.5-13.4-2.8-17.8-7.3c-4.1-4.3-6.3-10.1-6.3-17.4c0-6.7,1.5-12,4.1-15.9c3.1-3.4,6.7-5.3,11.6-5.3c2.2,0,4.3,0.7,6,1.7
	c1.7,1.3,3.4,2.8,4.5,5.3l-2.4,1.5c-0.9-1.7-2-2.8-3.1-3.6c-1.3-0.7-2.6-1.3-4.1-1.3c-2.6,0-4.5,1.5-5.8,3.8
	c-1.3,2.6-1.7,7.3-1.7,13.4c0,6.1,1.3,11.3,3.8,14.8C293.4,147.9,297.3,150.1,302.2,150.8z M309.5,150.8c5.6,0,9.9-2.2,13.4-6.5
	c3.6-4.3,5.3-10.1,5.3-17.1c0-4.8-0.9-8.6-2.6-11.6c-1.7-2.8-4.3-4.3-7.3-4.3c-3.1,0-5.6,1.5-6.7,4.3c-1.3,2.8-2,8.1-2,15.9
	L309.5,150.8L309.5,150.8z"/>
<path fill="#1ABC9C" d="M612,603.3v-2.1c-2.6-0.7-5.1-1.3-7.8-2c-2.4-0.7-4.8-1.7-7.3-2.4l0.5,19.5c0,0.5,0,0.9-0.2,1.3
	c0,0.2-0.2,0.2-0.5,0.2c-0.2,0-0.5,0-0.7-0.2c-0.2-0.2-0.7-0.5-0.7-0.7l-4.8-5.6c-5.3-5.8-9.2-9.6-11.6-11.3
	c-2.6-1.7-5.1-2.6-7.5-2.4c-1.7,0-3.1,0.5-4.1,1.3c-1.3,0.7-1.7,1.7-1.7,2.8c0,0.7,0.5,1.5,0.9,2.2c0.7,0.5,1.5,0.7,2.6,0.7
	c0.7,0,1.7-0.2,2.8-0.7c1.3-0.5,2-0.7,2.6-0.7c1.5,0,3.1,0.7,4.8,2c1.7,1.5,4.1,3.8,7.3,7.5l2.8,3.6l-14.6,20.6
	c-1.5,2.2-2.8,3.8-4.3,4.8c-1.5,1.3-2.8,1.7-4.3,1.7h-0.2v2l20.6-0.5v-2c-1.5,0-2.6,0-3.4-0.2s-0.9-0.5-0.9-0.9
	c0-0.5,0.2-0.9,0.5-1.5c0.3-0.5,0.7-1.5,1.5-2.4l11.6-15.9c0.2-0.2,0.5-0.5,0.7-0.7c0.2-0.2,0.5-0.2,0.7-0.2c0.2,0,0.2,0,0.2,0.2
	s0.2,0.5,0.2,0.7l0.5,22.4l8.1-0.2l-0.7-34.3c0-2.8,0.2-4.5,0.9-5.3s2-1.3,3.6-1.3c0.2,0,0.7,0,0.9,0
	C611.3,603.3,611.7,603.3,612,603.3z"/>
<path fill="#1ABC9C" d="M515.2,268.8l2.2-0.5v0.2c0.5,1.3,0.7,2,0.7,2.6c0.7,3.4,0.7,6-0.5,8.4c-0.9,2.4-2.6,3.8-5.1,4.3
	c-2.2,0.5-3.8,0.2-5.3-0.7c-1.5-0.9-3.1-2.6-4.8-5.6l-14.8-24l-7.3,37.1l-10.1,2.4l9.9-51.5l-3.4-5.3c-1.7-2.4-3.1-4.1-4.5-4.8
	c-1.5-0.7-3.1-0.9-5.1-0.5c-2,0.5-3.4,1.3-4.3,2.4c-0.9,1.3-1.3,2.4-0.9,4.1l-2,0.5c0-0.2-0.2-0.5-0.2-0.7c-0.2-0.2-0.2-0.5-0.2-0.7
	c-0.7-3.4-0.5-6,0.5-8.4c0.9-2.4,2.8-3.8,5.6-4.3c2.4-0.5,4.5-0.2,6.3,0.9c1.7,1.3,4.3,4.3,7.3,9.2l21.2,34.3
	c2.2,3.6,4.1,5.8,5.3,6.7c1.5,0.9,3.1,1.3,5.1,0.7c1.7-0.2,2.6-1.3,3.4-2.4C515.2,271.8,515.4,270.3,515.2,268.8z"/>
<path fill="#1ABC9C" d="M550.4,414.5c3.1-2.2,6-3.8,8.6-4.8c2.6-0.9,5.3-1.7,7.9-1.7c2.2,0,3.8,0.2,5.1,0.9c1.3,0.7,1.7,1.7,1.7,2.8
	c0,2-1.3,3.4-3.8,4.3c-2.6,0.9-6.3,1.7-10.6,1.7c-1.5,0-2.8,0-4.1-0.2c-1.3,0-2.4-0.2-3.8-0.5c-3.4,2.8-6,6.7-7.9,11.6
	c-2,4.8-2.8,9.9-2.8,15.2s1.3,9.4,3.6,11.6c2.4,2.4,6.5,3.6,12,3.6c0.9,0,2.4,0,4.1-0.2c2,0,3.4-0.2,4.3-0.2c4.8,0,8.4,0.9,10.6,2.6
	c2.2,1.7,3.4,4.3,3.4,7.9c0,4.8-2,8.6-5.8,11.3s-9.4,4.1-16.6,4.1c-2.2,0-3.8-0.2-5.1-0.9c-1.3-0.7-1.7-1.5-1.7-2.6
	c0-0.9,0.5-1.7,1.3-2.4c0.7-0.5,2-0.7,3.4-0.7c0.9,0,2.6,0.2,5.1,0.9c2.4,0.7,4.5,0.9,6.3,0.9c2.8,0,5.3-0.7,7.3-2.2
	c2-1.5,2.8-3.1,2.8-5.3c0-2-0.7-3.1-2.4-3.8c-1.5-0.7-4.1-1.3-7.8-1.3c-1.3,0-3.1,0-5.6,0.2c-2.4,0-4.1,0.2-5.1,0.2
	c-6.5,0-11.6-1.7-14.6-5.1c-3.1-3.4-4.5-8.6-4.5-15.6c0-5.8,0.9-11.3,3.1-16.1c2.2-5.1,5.3-9.6,9.4-13.9c-5.1-1.3-8.8-2.6-11.6-4.3
	c-2.6-2-3.8-3.8-3.8-6.3c0-2.6,1.3-4.5,3.8-6c2.4-1.5,6-2.2,10.6-2.2c0.9,0,1.7,0,2.2,0c0.5,0,1.3,0.2,1.7,0.2v2.4h-2.7
	c-2.8,0-5.1,0.5-6.5,1.5s-2.2,2.4-2.2,4.3c0,1.9,0.9,3.6,2.6,5.1C544.4,412.8,547,413.8,550.4,414.5z"/>
<path fill="#1ABC9C" d="M403.7,601.1c3.4,2.8,5.8,5.3,7.3,7.5c1.7,2,2.8,4.1,3.8,6.3c0.9,2.2,1.5,4.1,1.3,5.6c0,1.5-0.7,2.4-2,2.8
	c-1.5,0.5-2.8,0.2-4.3-1.5c-1.5-1.5-3.1-4.1-4.5-7.8c-1.3-2.6-2.2-6.3-3.1-10.8c0-0.2-0.2-0.5-0.2-0.7c-2.4-1.3-4.5-1.7-6.3-2
	c-2-0.2-3.6,0-5.1,0.5c-1.7,0.7-3.1,1.7-3.8,3.1c-0.7,1.3-1.5,3.1-1.7,5.6c1.7,2.6,3.1,5.1,4.3,7.3c1.3,2.2,2.2,4.3,3.1,6.3
	c1.5,3.1,2,5.8,2,7.5s-0.7,2.8-2,3.6c-1.5,0.5-2.8,0.2-4.3-1.3c-1.5-1.5-2.8-3.8-4.3-7.5c-0.9-2.6-2-5.1-2.4-7.8
	c-0.5-2.6-0.9-5.3-0.9-8.1c-2-2-4.3-3.1-6.7-3.6c-2.4-0.5-4.8-0.2-7.1,0.5c-2.8,1.3-4.8,3.4-5.3,6s0,6.3,2,10.6
	c0.2,0.5,0.7,1.5,1.3,2.8c0.5,1.5,0.9,2.4,1.5,3.1c2.4,5.6,3.1,9.9,2.4,13.1c-0.7,3.1-2.8,5.6-6.5,7.1c-4.3,1.7-8.4,1.5-12.5-0.9
	c-4.1-2.4-7.3-6.3-9.6-11.8c-1.3-2.6-1.7-4.8-1.5-6.5c0.2-1.5,0.9-2.6,2.2-3.1c0.7-0.2,1.3-0.2,2,0.2c0.7,0.2,1.3,0.9,1.5,1.7
	c0.2,0.7,0.7,2.6,0.9,5.3s0.7,4.8,1.5,6.7c1.3,2.8,2.8,4.8,4.8,6c2,1.3,4.1,1.3,6.5,0.2c2.2-0.9,3.1-2.2,3.4-3.8
	c0.2-1.7-0.5-4.5-2.2-8.4c-0.7-1.5-1.5-3.1-2.2-4.8c-0.9-1.7-1.3-2.8-1.5-3.1c-2.2-5.1-2.6-9.9-1.3-13.7c1.5-4.1,4.3-7.1,8.6-8.8
	c2.8-1.3,6-1.7,9.2-1.3c3.1,0.5,6,1.7,9.2,3.8c0.5-2.2,1.5-3.8,2.6-5.1c1.3-1.5,2.6-2.4,4.5-3.1c2.2-0.9,4.3-1.3,6.3-0.9
	c2.2,0.2,4.5,0.9,7.1,2.4c-0.7-4.3-0.9-7.8-0.2-10.3c0.7-2.6,2-4.3,4.1-5.1c2-0.9,4.1-0.5,6,0.9c2,1.5,3.6,3.8,5.1,7.5
	c0.5,1.3,0.7,2.2,1.3,3.1c0.2,0.9,0.5,2,0.5,2.8l-2,0.5c-0.2-0.9-0.5-1.7-0.7-2.4c-0.2-0.7-0.2-1.3-0.5-1.5c-0.9-2.2-2-3.8-3.4-4.5
	c-1.3-0.7-2.6-0.9-4.1-0.2c-1.7,0.7-2.6,2-3.1,3.8C403.2,595.6,403.2,597.9,403.7,601.1z"/>
<path fill="#1ABC9C" d="M118,442.5h9.9l-20.4,33.8l4.8,11.8c1.7,4.3,3.4,7.3,4.8,8.6c1.5,1.5,3.1,2.4,5.1,2.4c2,0,3.1-0.7,4.1-1.7
	c0.9-1.3,1.5-3.1,1.5-5.8h2.4c0,0.7,0,1.5,0.2,2c0,0.7,0,1.5,0,2.4c0,3.6-0.7,6.5-2.2,8.4c-1.5,2.2-3.4,3.1-6,3.1
	c-3.6,0-7.1-3.8-10.1-11.6c-0.7-1.5-1.3-2.8-1.5-3.6l-5.6-13.2l-16.5,28.1h-9.9l22.1-37.5l-3.8-9.6c-1.5-3.8-3.1-6.5-4.8-8.1
	c-1.8-1.7-3.6-2.4-6-2.4c-1.7,0-3.1,0.5-4.1,1.7c-0.9,1.3-1.5,2.6-1.5,4.5c0,0.2,0,0.2,0,0.5c0,0.3,0,0.5,0,0.7H78
	c0-0.5-0.2-1.3-0.2-2s0-1.5,0-2.4c0-3.6,0.7-6.3,2.2-8.4c1.5-2.1,3.6-3.1,6-3.1c2.4,0,4.3,0.9,6,2.8c1.7,2,3.8,6.3,6.7,13.4l4.1,9.9
	L118,442.5z"/>
<path fill="#1ABC9C" d="M147.4,179.3l3.6-3.4c1.7-1.7,2.8-3.1,3.1-4.3c0.2-1.3,0-2.8-0.9-4.5l1.7-1.5c2.6,3.1,4.1,6,3.8,8.8
	c0,2.6-1.5,5.6-4.5,8.1l-1.7,1.5l-39.6,37.5l-4.8-5.1l8.1-7.9c-2.8,0-5.6-0.5-7.9-1.7c-2.4-1.3-4.8-2.8-7.3-5.6
	c-4.5-4.8-7.3-9.9-7.8-15.2c-0.5-5.3,0.9-9.4,4.5-12.7c2-2,4.3-2.6,7.1-2.6c2.6,0,5.6,1.3,8.8,3.4c-2-3.4-2.8-6.5-2.8-8.8
	c0-2.6,0.9-4.8,3.1-6.7c3.6-3.4,7.9-4.5,13.2-3.6c5.3,0.7,10.1,3.6,14.4,8.1c2.4,2.6,4.1,5.1,5.1,7.9
	C147.7,173.7,148,176.6,147.4,179.3z M120,205.3l24-22.6c-0.9-2.2-2.2-4.1-3.6-6.3s-3.1-4.1-5.3-6.3c-4.3-4.5-8.1-7.8-11.8-9.2
	c-3.4-1.5-6.3-1.5-8.1,0.5c-1.5,1.5-2,3.4-1.5,6.3c0.5,2.6,2,5.1,4.1,7.5c0.7,0.7,2,2,4.1,3.6c2,1.7,3.6,3.1,4.8,4.1
	c1.3,1.3,1.7,2.4,2,3.4c0,0.9-0.2,2-1.3,2.8c-0.9,0.9-2,1.3-3.1,1.3c-0.9-0.2-2.2-0.9-3.4-2.2c-0.9-0.9-2.2-2.6-3.6-4.5
	c-1.5-2.2-2.6-3.6-3.4-4.3c-2.2-2.4-4.5-3.8-7.5-4.3c-2.6-0.5-4.8-0.2-6.3,1.3c-1.7,1.7-2,4.3-0.7,7.9c1.5,3.6,4.1,7.5,8.1,11.8
	c2.2,2.4,4.3,4.3,6.3,6C116,202.9,118.2,204.2,120,205.3z"/>
<path fill="#1ABC9C" d="M396.9,451.3c0.5,2,1.5,3.4,3.1,4.5c1.6,1.2,3.6,1.7,5.8,1.7c3.4,0,6-1.5,7.9-4.5c2-2.8,2.8-7.1,2.8-12.3
	c0-5.1-0.9-9.4-2.8-12.5c-2-3.1-4.5-5.6-8.4-6.5c-0.2,0-0.5,0.2-0.9,0.5c-2.4,0.9-4.3,1.5-5.6,1.5c-0.9,0-1.7-0.2-2.2-0.7
	c-0.5-0.5-0.7-1.5-0.7-2.4s0.2-1.7,0.7-2.2c0.5-0.5,1.5-0.7,2.4-0.7s2.6,0.5,5.3,1.5c0.5,0.2,0.9,0.5,1.5,0.5
	c2.2-0.9,3.6-2.4,4.8-4.3c0.9-2,1.5-4.5,1.5-7.8c0-4.1-0.9-7.3-2.6-9.6c-2-2.4-4.3-3.6-7.3-3.6c-3.6,0-6.3,1.5-7.8,4.3
	c-1.7,2.8-2.4,7.8-2.4,14.1v66.9h-8.6V422c0-9.9,1.7-17.4,5.3-22.6c3.6-5.3,8.4-7.9,14.8-7.9c5.3,0,9.4,1.5,12.5,4.1
	c3.1,2.6,4.8,6.3,4.8,10.8c0,3.1-1.3,6-3.4,8.4c-2.2,2.5-5.6,4.3-9.9,5.8c6,1.5,10.6,3.8,13.4,7.1c3.1,3.1,4.5,7.3,4.5,12
	c0,6-1.7,11.1-5.3,14.8s-8.1,5.8-13.4,5.8c-3.6,0-6.5-0.7-8.8-2.4c-2.4-1.7-3.6-3.6-4.1-6.3L396.9,451.3L396.9,451.3z"/>
<path fill="#1ABC9C" d="M336.5,100.1c-0.5-1.3-0.9-2.2-1.5-2.6c-0.5-0.5-1.3-0.7-1.7-0.7c-1.3,0-2.2,0.5-2.6,1.7s-0.7,2.8-0.7,5.6
	v0.9h-2.2c0-0.2,0-0.5,0-0.9c0-0.5,0-0.7,0-0.9c0-3.8,0.7-6.7,2.2-8.6c1.5-2,3.6-3.1,6.3-3.1c2.4,0,4.5,0.7,6,2.2
	c1.5,1.5,3.1,4.3,4.8,8.6l9.6,24.2c2.8-4.5,5.1-8.6,6.5-12.5c1.5-3.8,2-7.8,2-11.6v-2.4c0-3.1,0.5-5.3,1.5-6.7c0.9-1.3,2.4-2,4.8-2
	c1.5,0,2.4,0.2,3.4,0.9c0.7,0.7,1.3,1.7,1.3,2.8c0,2.2-2.6,8.1-7.9,17.6s-9.6,17.8-13.1,25h-2.6L336.5,100.1z"/>
<path fill="#1ABC9C" d="M294.7,198.2c0,4.5,0.5,7.8,1.5,9.2c0.9,1.7,2.6,2.4,4.8,2.4c3.8,0,7.1-2.6,9.4-7.9c2.4-5.3,3.6-12,3.6-19.9
	v-12.7h9.2v32.2c0,2.8,0.2,5.1,0.9,6.5c0.7,1.5,1.5,2.2,2.8,2.2c1.5,0,2.4-0.7,3.1-2.2c0.7-1.5,1.3-3.4,1.3-6v-1.5h2
	c0,0.2,0,0.5,0,0.9c0,0.2,0,0.7,0,1.3c0,3.6-0.7,6.5-2.4,8.4c-1.5,2-3.6,2.8-6.5,2.8c-3.4,0-5.8-1.5-7.5-4.1
	c-1.7-2.8-2.4-7.1-2.6-12.7c-1.5,5.8-3.6,10.1-6,12.7c-2.4,2.6-5.8,4.1-9.4,4.1c-2.8,0-5.3-0.9-7.3-2.6c-2-1.8-3.1-4.3-3.8-7.5
	c0,0.5,0,1.5,0,2.6c0,4.1,0.9,8.6,3.1,13.7c2.2,5.1,3.1,8.1,3.1,8.8c0,1.3-0.5,2.4-1.3,3.1c-0.7,0.7-1.7,0.9-3.1,0.9
	c-1.5,0-2.6-0.5-3.1-1.7c-0.7-0.9-0.9-2.8-0.9-5.3c0-0.5,0-2.4,0.2-5.8c0.2-3.1,0.2-6,0.2-8.6c0-2.4,0-5.8-0.2-9.9
	c0-4.3-0.2-7.5-0.2-9.4v-23.9h8.8L294.7,198.2L294.7,198.2z"/>
<path fill="#1ABC9C" d="M557.3,375.4v5.8h-34.9v-5.8H557.3z"/>
<path fill="#1ABC9C" d="M376,152.5c3.6,2.2,7.9,7.1,7.5,13.9c-0.2,4.3-2,8.1-5.8,10.1l5.8,0.2c5.3,0.2,13.9,0.5,18.1-0.2l-0.5,7.8
	c-2.8,0.9-9.9,0.9-17.6,0.5l-49.1-2.2l0.5-8.6l27.9,1.5c7.3,0.5,13.4-2.4,13.9-9.9c0.2-5.8-3.6-9.9-7.5-11.8
	c-1.3-0.5-2.8-0.9-4.5-0.9l-29-1.5l0.5-8.6l34.3,1.7c5.3,0.2,7.3-0.7,7.8-4.1l6.3,0.9c0.2,1.3,0.2,1.7,0.2,3.1
	c-0.2,4.3-2.6,7.5-8.8,7.9L376,152.5z"/>
<path fill="#1ABC9C" d="M80.9,639.2c-3.1-3.8-5.6-7.1-8.4-9.9l6-4.8l5.3,5.7h0.2c-0.9-4.8,0.7-11.8,6.7-16.6
	c5.1-4.1,15.6-7.5,25.7,5.3l17.6,22.1l-6.7,5.3l-17.1-21.4c-4.8-6-11.1-9.2-17.4-4.1c-4.3,3.4-5.3,9.4-3.6,13.9
	c0.2,1.3,1.3,2.4,2.2,3.6l17.8,22.4l-6.7,5.3L80.9,639.2z M74.1,617.7c-4.1-4.8-4.3-9.4-1.3-12c1.7-1.5,3.6-1.7,6-2.2
	c1.7-0.2,3.4-0.5,4.3-1.3c1.3-0.9,1.5-2.2-0.5-4.8l3.6-2.8c4.1,5.1,4.5,9.2,0.9,12c-1.7,1.5-3.8,1.7-6,2.2c-2.2,0.5-3.4,0.5-4.3,1.3
	c-1.3,0.9-0.7,2.8,0.7,5.1L74.1,617.7z"/>
<path fill="#1ABC9C" d="M434.6,107.2c-0.7-0.2-2-0.5-2.8-0.5c-1.7,0-3.4,0.7-4.5,2.2c-2,2.4-2.8,6.7-2.8,15.4
	c0,14.1,1.3,31.3,1.3,46.1c0,9.6-1.7,15.4-4.1,18.4c-2.2,3.1-5.6,4.8-9.4,4.8c-2.2,0-4.3-0.5-5.3-0.9l0.9-5.6
	c0.9,0.2,2.2,0.5,3.6,0.5c1.5,0,3.1-0.7,4.3-2.2c1.7-2.2,3.1-5.8,3.1-15.2c0-14.8-1.3-32.5-1.3-46.7c0-9.9,1.7-15.4,5.1-19.2
	c2.4-2.6,5.3-3.6,8.6-3.6c1.7,0,3.4,0.2,4.3,0.7L434.6,107.2z"/>
<path fill="#1ABC9C" d="M48.9,405.4h-6.3L27,363.6l-7.3,3.1l-2-4.5l13.4-5.6l12.1,33.9c0.7,2.2,1.5,4.5,2,6.3l0,0
	c0.2-1.7,0.7-4.1,1.5-6.3L65,314.8h6.5L48.9,405.4z"/>
<path fill="#1ABC9C" d="M93.1,251.9c-1.5,1.7-5.1,4.8-10.3,7.3l-0.9,4.3c3.6-0.7,7.5,0.5,9.2,4.1c2.2,5.6-1.5,9.4-6.5,11.3
	c-2.2,0.7-4.8,1.5-7.1,0.9l-0.2-4.5c1.7,0.2,3.6,0,5.6-0.7c2.2-0.7,3.6-2.4,2.6-4.5c-0.9-2.4-4.1-2.2-8.6-0.9l0.9-8.4
	c-11.8,3.1-22.4-2.6-27.2-14.8c-5.3-13.2,0-27,14.4-32.8c4.8-2,9.4-2.4,12-2.2l0.7,6.7c-2.4-0.2-5.8,0-10.1,1.7
	c-10.1,4.1-12.5,13.7-8.8,22.9c4.1,10.1,13.1,13.7,21.9,10.3c4.5-2,7.3-4.1,8.8-6L93.1,251.9z"/>
<path fill="#1ABC9C" d="M286,728.5l-1.7,8.6l-3.1-0.7l3.1-14.8l2.6,0.5c1.5,5.3,5.6,10.3,11.8,11.6c5.8,1.3,13.1-2,14.6-10.3
	c1.7-8.4-3.4-14.4-9.4-15.6c-5.8-1.3-12.3,2-15.4,6l-2.4-0.5l3.1-14.8l3.1,0.7l-1.7,8.6h0.2c3.4-3.4,8.8-6.3,14.6-5.3
	c8.8,2,13.4,11.1,11.3,21.7c-2.4,11.1-10.1,16.6-18.3,14.8C291.8,738.1,287.9,733.2,286,728.5L286,728.5L286,728.5z"/>
<path fill="#1ABC9C" d="M69.8,302.3l3.6,2.2v-0.2c-0.7-3.1-0.2-7.1,2.6-10.6c4.1-5.1,9.6-5.3,13.7-2.2c5.6,4.3,4.5,12.5-3.6,22.4
	l0.7,0.5c1.3,0.9,5.3,3.1,9.4-2c2-2.4,3.1-5.3,3.1-8.1l4.1,1.5c0,3.6-1.7,7.5-4.3,10.8c-6,7.8-13.1,5.6-18.4,1.3l-8.1-6.5
	c-2.2-1.7-4.3-3.1-6.3-4.3L69.8,302.3z M82.7,311.3c4.1-4.8,7.5-11.1,3.1-14.4c-2.6-2.2-5.8-1.3-7.5,1.5c-2,2.4-2.2,5.3-1.3,7.5
	c0.2,1.3,0.9,2,1.5,2.4L82.7,311.3z"/>
<path fill="#1ABC9C" d="M533.1,133.6l32.5,30c8.1,7.8,11.1,13.7,10.8,19.7c0,4.8-2,9.4-6,13.9c-6.3,6.7-16.1,8.8-24,1.5
	c-2.4-2.4-3.8-5.3-4.3-7.3c1.7-4.5,1.5-8.1-0.9-10.6c-2.4-2.4-5.3-2.2-9.6-2.2c-5.6,0.2-11.3,0.2-16.3-4.5
	c-6.7-6.3-7.1-15.4,0.5-23.6c2.4-2.6,5.6-5.1,8.6-6.3l3.8,5.6c-2.6,0.9-5.1,2.6-7.1,4.8c-4.3,4.5-3.8,9.6-0.5,12.7
	c3.1,2.8,6.3,3.4,11.1,3.1c5.8-0.2,10.8-0.5,14.6,3.4c3.6,3.4,4.8,8.6,2.8,14.6c0.5,1.3,1.5,2.4,2.6,3.4c5.1,4.5,10.6,4.3,14.6-0.2
	c5.1-5.6,4.1-12.3-6-21.7l-32.8-30L533.1,133.6z"/>
<path fill="#1ABC9C" d="M321.6,382.3c3.1-2.4,8.4-5.8,16.6-6c13.7-0.5,26.4,11.1,27.5,33.7c0.9,25-11.1,38.2-24.7,38.8
	c-13.2,0.5-19.9-9.4-20.4-19.7c-0.5-13.2,8.1-24.2,20.4-24.7c8.1-0.2,14.1,4.1,16.3,7.9l0,0c0-0.9,0-2.2,0-3.1
	c-0.7-17.4-10.3-25.5-19.5-25.3c-6.5,0.2-10.8,2.4-13.2,4.5L321.6,382.3z M356.7,419.8c-2-4.8-7.5-9.2-14.1-8.8
	c-7.8,0.2-13.9,7.9-13.4,17.4c0.2,8.4,5.3,13.4,12.3,13.2C350.2,441.2,356,430.9,356.7,419.8z"/>
<path fill="#1ABC9C" d="M559.9,496.7l3.1,9.2l7.8-2c16.3-4.3,36.5-6.5,40.9,6c0.7,2.8,0.5,5.3-0.2,7.3l-11.1,2.2
	c0.5-1.7,0.7-3.6,0-5.3c-2.2-6.3-13.7-5.6-26-2.2l-8.4,2.2l3.8,11.1l-10.3,3.6l-4.1-11.8l-34.2,8.8c-21.9,5.8-37.5,6.7-41.1-4.1
	c-0.9-3.1-0.7-6,0.2-8.1l10.6-2c-0.7,2-0.7,3.8,0,5.8c2,5.8,11.6,4.8,28.6,0.2l33-8.6l-2.8-8.4L559.9,496.7z"/>
<path fill="#1ABC9C" d="M379.7,725.4l17.8-13.4l0.2,7.1l-17.8,13.4L361.6,720l-0.2-7.1L379.7,725.4z M379.4,709.6l17.8-13.4l0.2,7.1
	l-17.8,13.4l-18.3-12.5l-0.2-7.1L379.4,709.6z"/>
<path fill="#1ABC9C" d="M267,194.6l13.1,18.1H273l-13.1-18.1l13.1-18.1h7.1L267,194.6z"/>
<path fill="#1ABC9C" d="M264.5,665.1l3.3-1.3l58.3-0.9l-8.7,7.9l-35.7,28.8l-3.4,1.2L264.5,665.1z M301.1,676.2
	c2.7-2.3,7-5.2,9.5-7.1v-0.2c-2.6,0.2-7.6,0.3-11.1,0.5h-27.8l9.1,23.3L301.1,676.2z"/>
<path fill="#1ABC9C" d="M188.1,203.2v27.5h-6.3v-21.4h-44.3v-5.8C137.6,203.2,188.1,203.2,188.1,203.2z"/>
<path fill="#1ABC9C" d="M473.9,550.9c-0.2-9.9,4.8-14.6,11.6-14.6c4.1,0,7.3,1.3,13.9,4.3c4.8,2.4,8.4,4.1,12.3,4.1
	c3.6,0,5.3-2.8,5.3-8.1h5.8c0.5,10.8-5.1,14.8-11.1,14.8c-3.8,0-7.5-1.3-14.1-4.3c-4.5-2.2-8.1-4.3-11.8-4.3c-3.7,0-5.8,2.4-5.8,8.4
	L473.9,550.9L473.9,550.9z"/>
<path fill="#1ABC9C" d="M368.1,660.6h22.9c6.7,0,10.1-0.5,12-0.9v5.6c-1.3,0.7-4.8,0.9-11.3,0.9h-23.6v10.4
	c10.8,0.2,28.4,2.2,35.1,4.5v5.6c-7.9-2.4-24.2-4.3-35.1-4.5c0,2.6,0.2,4.8,0.7,6.5l-4.3,0.9c-1.3-1.5-2.2-4.1-2.2-9.4V655l5.8,0.5
	V660.6L368.1,660.6z"/>
<path fill="#1ABC9C" d="M316.4,732l2.6-19.2h-8.2V707h8.8l2-14.1h-8.4V687h9.4l2.6-18.7h5.8l-2.6,18.7h10.3l2.4-18.7h5.8l-2.4,18.7
	h7.9v5.8h-8.8l-1.7,14.1h8.4v5.8h-9.4l-2.6,19.2h-5.8l2.6-19.2H325l-2.4,19.2L316.4,732L316.4,732L316.4,732z M335.5,707l2-14.1
	h-10.3l-2,14.1H335.5z"/>
<path fill="#1ABC9C" d="M151,248.1c0,13.4-7.1,20.2-15.2,20.2c-7.9,0-14.6-6.3-14.8-19c0-12.7,6.7-19.9,15.4-19.9
	C145.2,229,151,235.7,151,248.1z M127.8,248.6c-0.2,8.1,2.8,14.4,8.4,14.4c5.8,0,8.1-6,8.1-14.4c0-7.9-2.2-14.1-8.4-14.1
	C130.6,234.3,127.8,240.6,127.8,248.6z M135.1,294.9l37.5-66.1h5.6l-37.5,66.1H135.1z M192.6,274.5c0,13.4-7.1,20.2-15.2,20.2
	c-7.9,0-14.8-6.3-14.8-19.2c0-12.7,7.1-19.9,15.4-19.9C186.9,255.5,192.6,262.3,192.6,274.5z M169.4,275c-0.2,8.1,2.8,14.4,8.4,14.4
	c5.8,0,8.1-6,8.1-14.4c0-7.8-2.2-14.1-8.4-14.1C172.2,260.5,169.4,267.1,169.4,275z"/>
<path fill="#1ABC9C" d="M57.7,507.5c-2-2-3.6-3.8-6.3-6.3c-5.8,5.1-12,7.5-19.2,7.5c-12.7,0-20.2-8.6-20.2-18.4
	c0-9.2,5.3-15.2,13.1-19.2v-0.2c-3.4-4.3-5.6-9.2-5.6-13.9c0-8.1,5.8-16.3,16.9-16.3c8.1,0,14.6,5.3,14.6,13.9
	c0,7.1-4.1,12.5-14.4,17.6v0.5c5.6,6.5,11.8,13.4,16.1,18.3c3.1-4.5,5.1-11.1,6.3-19.2h7.9c-1.7,10.3-4.5,18.4-9.4,24.2
	c3.6,3.8,7.1,7.5,10.8,11.8L57.7,507.5L57.7,507.5L57.7,507.5z M47.4,496c-3.8-4.3-11.3-12.3-18.4-21c-3.6,2.4-8.4,6.5-8.4,13.4
	c0,7.5,5.6,13.2,13.7,13.2C39.5,502.1,44.3,499.5,47.4,496z M27.2,455.8c0,4.8,2.2,8.4,5.1,12c6.7-3.8,11.1-7.3,11.1-13.1
	c0-4.1-2.2-8.4-7.8-8.4C30,446.1,27.2,450.5,27.2,455.8z"/>
<path fill="#1ABC9C" d="M515.5,599.2l27.2-71h6.7l-27.4,71H515.5z"/>
<path fill="#1ABC9C" d="M32.5,331.6c-8.4,7.3-14.8,17.6-17.4,33c-2.2,15.2,1.5,26.8,7.1,36l-6.5-0.9c-5.1-7.9-10.1-19.7-7.8-36
	c2.4-16.6,10.6-26.4,17.8-32.9L32.5,331.6z"/>
<path fill="#1ABC9C" d="M446.2,390.6c-10.1-6.3-23.2-10.6-40.7-9.4c-17.6,1.3-29.6,7.5-39,14.8l-0.5-6.7c7.5-6.7,19.7-14.1,39-15.6
	c19.2-1.3,32.2,4.3,40.9,10.1L446.2,390.6z"/>
<path fill="#1ABC9C" d="M335.3,198.5l0.9-5.8l49.8,8.6l-0.9,5.8L335.3,198.5z M332.2,217.2l0.9-5.8l49.8,8.6l-0.9,5.8L332.2,217.2z"
	/>
<path fill="#1ABC9C" d="M66.4,454.4l-0.9-2.4c-2.2-4.8-2.4-10.8,0.5-18.1c2.6-6.3,3.6-10.8,2.2-14.8c-1.7-4.8-5.6-7.1-11.6-5.1
	c-3.4,1.3-6.7,3.6-8.4,6l-4.1-5.1c2.4-3.4,7.3-6.5,12-8.1c10.6-3.6,17.8,1.5,20.2,8.4c2.2,6.3,0,12-2.6,18.7
	c-2.4,6.3-2.6,10.8-0.7,15.6l0.9,2.2L66.4,454.4z M68.8,468c-1.3-3.4,0.2-6.5,3.6-7.8s6.3,0.5,7.5,4.1c0.9,3.4-0.2,6.5-3.6,7.8
	C73.1,473.2,70,471.1,68.8,468z"/>
<path fill="#1ABC9C" d="M26,425.4c0,7.9-6.3,13.2-13.2,13.2c-7.8,0-12.8-5.9-12.8-13c0-7.5,5.8-13.2,13.2-13.2
	C21.2,412.5,26,418.4,26,425.4z M5.3,425.7c0,4.5,3.1,7.9,7.8,7.9s7.8-3.6,7.8-8.4c0-3.6-2.2-8.1-7.9-8.1
	C7.8,417.2,5.3,421.4,5.3,425.7z"/>
<path fill="#1ABC9C" d="M405.8,98.2c0,3.4-2.2,6-5.8,6c-3.4,0-5.8-2.6-5.8-6c0-3.6,2.4-6.3,5.8-6.3
	C403.4,92.2,405.8,94.6,405.8,98.2z M395.3,159.2l1.5-46.7h6.7l1.5,46.7H395.3z"/>
<path fill="#1ABC9C" d="M248.2,594.3c-2.4,1.7-5.1,5.1-6.7,9.9c-2,5.6-0.7,10.6,3.4,12c4.8,1.7,8.1-2.4,13.1-8.4
	c5.8-7.5,11.6-12.7,19.7-9.9c4.8,1.7,7.5,5.3,9.2,9.9c2-0.9,5.6-2,9.4-0.5c9.6,3.4,10.6,13.7,7.8,22.4c-2,5.6-5.3,10.6-8.8,13.2
	l-4.5-4.1c2.4-1.7,6-5.6,7.9-11.1c2.2-5.8,0.9-11.1-3.8-13.1c-4.3-1.5-7.8,0.2-13.7,7.9c-6.5,8.1-12.3,13.7-20.2,10.8
	c-3.6-1.3-7.1-4.5-8.4-10.6c-2.2,1.5-5.8,1.7-8.8,0.7c-8.1-2.8-10.6-12-7.3-21.7c2-5.3,4.8-9.2,7.5-11.8L248.2,594.3z M274.2,620.1
	c3.4-4.1,6-7.3,8.1-8.8c-0.9-2.8-2.8-5.1-5.8-6c-3.6-1.3-7.3,0-11.6,5.1c-2.6,3.1-5.8,7.3-8.6,9.6c0.9,3.6,2.8,5.8,5.8,6.7
	C265.4,628,269,626.6,274.2,620.1z"/>
<path fill="#1ABC9C" d="M424.7,235.2c-5.1,4.8-10.1,10.3-18.3,10.3s-13.9-6-13.9-14.4c0-7.9,6.3-14.4,14.6-14.4
	c7.5,0,12.7,5.8,17.6,10.3c5.1-5.1,10.1-10.3,18.3-10.3c8.1,0,13.9,6,13.9,14.4c0,7.8-6.3,14.4-14.8,14.4
	C434.9,245.5,429.3,239.8,424.7,235.2z M420.7,231.1c-3.8-3.6-7.9-8.6-13.4-8.6c-4.8,0-8.6,4.1-8.6,8.6c0,4.8,3.6,8.4,8.4,8.4
	C412.5,239.8,417.2,235.1,420.7,231.1z M450.8,231.1c0-5.1-3.6-8.6-8.4-8.6c-5.6,0-10.1,4.8-13.7,8.6c3.8,3.4,7.9,8.4,13.7,8.4
	C447.2,239.8,450.8,235.7,450.8,231.1z"/>
<path fill="#1ABC9C" d="M145.4,633.5c-0.7-4.8,0.5-11.6,4.5-16.1c3.8-4.1,7.9-5.3,11.3-6.7c2.8-1.5,6.7-2.4,10.1-5.8
	c3.1-3.4,3.8-8.4,3.6-12.3l5.3,0.2c0.5,4.8-0.5,11.6-4.8,16.1c-3.8,4.1-7.9,5.3-11.1,6.5c-2.8,1.5-6.7,2.4-10.1,5.8
	c-3.1,3.4-3.8,8.6-3.6,12.3H145.4L145.4,633.5z M131.1,620.9c-0.7-5.1,0.5-11.8,4.5-16.1c3.8-4.1,7.9-5.3,11.1-6.7
	c2.8-1.5,6.7-2.2,10.1-6c3.1-3.1,3.8-8.4,3.6-12.3l5.3,0.5c0.5,4.8-0.7,11.6-4.8,16.1c-3.8,4.1-7.9,5.3-11.1,6.7
	c-2.8,1.5-6.7,2.4-10.1,5.8c-3.1,3.4-3.8,8.4-3.6,12.3L131.1,620.9z"/>
<path fill="#1ABC9C" d="M84.7,387.5l-13.4-4.1l-1.7-6.3l13.4,4.5l-3.6-13.7l5.8-1.5l4.5,17.4l15.4,5.1l-6.7-26l5.8-1.5l7.8,29.3
	l13.4,4.1l1.7,6.3l-13.4-4.5l3.6,13.7l-5.8,1.5l-4.5-17.4l-15.4-4.8l6.6,25.8l-5.8,1.5L84.7,387.5z"/>
<path fill="#1ABC9C" d="M167.1,534.3l-13.9,13.1l15.2,16.3l-4.3,4.1l-15.2-16.1l-14.4,13.2l-4.3-4.5l14.4-13.4l-15.2-16.1l4.3-4.1
	l15.2,16.1l13.9-13.1L167.1,534.3z M145.8,584.5l-4.3,4.1l-34.3-37.1l4.3-4.1L145.8,584.5z"/>
<path fill="#1ABC9C" d="M406.1,726v-78.3h18.1v5.3h-11.2v67.3h11.1v5.3L406.1,726L406.1,726z"/>
<path fill="#1ABC9C" d="M189.3,366.6v78.1h-17.8v-5.6h11.1v-67.3h-11.1v-5.3H189.3L189.3,366.6z"/>
<path fill="#1ABC9C" d="M411.6,492c0-3.6,2.4-6.3,5.8-6.3c3.4,0,5.8,2.6,5.8,6.3c0,3.4-2.4,6-6,6C414,498,411.6,495.2,411.6,492z"/>
<path fill="#1ABC9C" d="M494.3,188.1c0-3.6,2.4-6.3,5.8-6.3s5.8,2.6,5.8,6.3c0,3.4-2.4,6-6,6C496.5,194.2,494.3,191.5,494.3,188.1z"
	/>
<path fill="#1ABC9C" d="M545.3,583.5c0-3.6,2.4-6.3,5.8-6.3s5.8,2.6,5.8,6.3c0,3.4-2.4,6-6,6C547.8,589.7,545.3,586.8,545.3,583.5z"
	/>
<path fill="#1ABC9C" d="M445.5,445.5c0-3.6,2.4-6.3,5.8-6.3s5.8,2.6,5.8,6.3c0,3.4-2.4,6-6,6C447.9,451.5,445.5,448.9,445.5,445.5z"
	/>
<g>
	<path fill="#1ABC9C" d="M213.8,666.6H211l1.5-19.9h57.9l-46.7,71.4h24.1c7.8,0,13.1-1.3,16.1-3.4c3.1-2.4,5.3-6.7,6.7-13.1h2.8
		l-3.6,21.2h-63.3l46.4-71.4h-20.6c-7.1,0-11.6,0.9-13.9,3.1C216.2,656.5,214.7,660.6,213.8,666.6z"/>
</g>
<path fill="#1ABC9C" d="M49.8,511.2c1.5,5.8,5.1,5.8,7.9,5.1c2.4-0.7,4.5-1.5,6.5-2.4c2.4-0.9,4.5-2,6.7-2.4
	c7.5-2.2,12,2.2,13.9,9.2l0.5,1.7l-4.5,1.3l-0.2-1.5c-1.5-4.8-4.3-5.8-8.8-4.5c-2,0.5-3.8,1.5-5.8,2.2c-2,0.9-3.8,1.7-6,2.4
	c-5.3,1.5-8.4-0.2-10.6-3.6h-0.2c0,3.8-2.2,7.1-7.3,8.4c-2.2,0.5-4.3,0.9-6.5,0.9c-2.2,0.2-4.1,0.5-6,0.9c-4.5,1.3-6.5,3.8-5.3,8.4
	l0.2,1.5l-4.5,1.3l-0.5-1.7c-2-6.7-0.2-12.7,7.9-14.8c2.2-0.5,4.5-0.9,7.1-0.9c2.4-0.5,4.5-0.7,6.7-1.3c2.6-0.7,6-2.4,4.3-8.1
	L49.8,511.2z"/>
<path fill="#1ABC9C" d="M297.1,90.9c0.2,4.1,3.1,4.5,5.1,4.5c1.7,0,3.6-0.2,5.3-0.7c1.7-0.2,3.6-0.7,5.3-0.7
	c6.7-0.2,9.2,3.4,9.4,8.1v1.3l-3.6,0.2v-0.9c-0.2-3.4-2.2-4.5-6-4.5c-1.5,0-3.1,0.2-4.8,0.5c-1.7,0.2-3.4,0.7-5.1,0.7
	c-4.3,0.2-6.5-1.5-7.5-4.1h-0.2c-0.7,2.6-2.6,4.3-7.1,4.5c-1.7,0-3.4,0-5.1-0.2c-1.7,0-3.1-0.2-4.8-0.2c-3.6,0-5.6,1.5-5.6,4.8v0.9
	l-3.1,0.5v-1.3c-0.2-5.1,2.2-8.6,8.4-8.8c1.7,0,3.6,0,5.6,0.2c1.7,0.2,3.6,0.2,5.6,0.2c2.4,0,4.8-0.7,4.8-5.1H297.1L297.1,90.9z"/>
<path fill="#1ABC9C" d="M129.3,661.2c0,6.5-3.4,9.9-7.5,9.9c-3.8,0-7.3-3.1-7.5-9.4c0-6.3,3.4-9.9,7.8-9.9
	C126.5,651.8,129.3,655.2,129.3,661.2z M118,661.4c0,4.1,1.5,7.1,4.1,7.1c2.8,0,4.1-3.1,4.1-7.3c0-3.8-1.3-7.1-4.1-7.1
	C119.3,654.5,118,657.6,118,661.4z M121.7,684.4l18.4-32.8h2.6l-18.4,32.8H121.7z M149.9,674.4c0,6.7-3.4,9.9-7.5,9.9
	c-4.1,0-7.3-3.1-7.5-9.4c0-6.3,3.4-9.9,7.8-9.9C147.2,664.8,149.9,668.2,149.9,674.4z M138.4,674.6c0,4.1,1.5,7.1,4.1,7.1
	c2.8,0,4.1-3.1,4.1-7.3c0-3.8-1.3-7.1-4.1-7.1C140,667.4,138.4,670.7,138.4,674.6z"/>
<path fill="#1ABC9C" d="M129.1,430.9l-19.9,9.4c-5.1,2.4-8.4,2.4-11.1,1.5c-2.4-0.9-4.1-2.6-5.3-5.3c-2-4.1-0.9-9.2,3.8-11.3
	c1.5-0.7,3.1-0.7,4.1-0.7c1.7,1.7,3.6,2.2,5.1,1.5c1.5-0.7,2-2,2.8-4.1c0.9-2.6,2-5.3,5.1-6.7c4.1-2,8.4-0.2,10.8,4.5
	c0.7,1.7,1.5,3.6,1.3,5.1l-3.4,0.7c0-1.5-0.2-2.8-0.9-4.1c-1.5-2.8-3.6-3.6-5.8-2.6c-2,0.9-2.6,2.4-3.4,4.5
	c-0.9,2.6-1.7,5.1-4.3,6.3c-2.2,0.9-4.8,0.5-7.3-1.5c-0.7,0-1.5,0.2-2.2,0.5c-3.1,1.5-3.8,4.1-2.6,6.7c1.7,3.4,4.8,4.1,11.1,1.3
	l20.2-9.4L129.1,430.9z"/>
<path fill="#1ABC9C" d="M105.6,512.4c0.2,0.2,0.7,0.5,0.9,0.7c3.1,2.4,5.3,4.1,6.5,5.1l1.7,1.3c2.4,1.7,4.1,2.8,4.8,3.1
	c0.7,0.2,1.5,0,2-0.7c0.7-0.7,0.7-1.7,0-2.8c-0.5-0.9-1.7-2.2-3.4-3.6l0.7-1.3l0.2,0.2c2.4,1.7,3.8,3.4,4.3,5.1
	c0.5,1.7,0.2,3.1-0.9,4.8c-1.3,1.7-2.6,2.4-4.3,2.2c-1.7-0.2-4.3-1.7-8.1-4.3c-0.5-0.2-1.7-1.3-3.4-2.6c-2-1.5-3.4-2.6-4.5-3.6
	c-0.5,0.5-0.9,1.3-1.7,2.2c-0.7,0.9-1.7,2-2.6,3.4c6.7,5.1,11.1,8.6,13.1,11.1c2,2.4,2.2,4.3,0.9,6c-0.7,0.9-1.7,1.5-2.8,1.5
	c-1.2,0-2.6-0.7-4.3-2l-0.7-0.7l0.7-0.9c0.7,0.5,1.5,0.7,2.2,0.9c0.5,0,0.9-0.2,1.5-0.7c0.9-1.3,0.7-2.6-0.9-4.5
	c-1.5-2-4.8-4.8-10.3-8.8l-0.7,0.8c-0.7,1.3-1.3,2.2-1.5,3.1c0,0.9,0.2,1.7,0.9,2.4l-0.7,0.9c-2-1.7-2.8-3.1-2.8-4.8
	c0-1.7,0.9-3.6,2.6-6.3c0.5-0.5,1.5-2,3.4-4.3c1.9-2.3,3.6-4.5,5.1-6.7c0.7-0.9,1.3-1.7,1.3-2.4c0-0.7,0-1.3-0.5-1.5l0,0l0.7-0.9
	l0,0c1.5,1.3,2.4,2.2,2.6,3.4c0.3,1.3-0.2,2.6-1.5,4.1c-0.2,0.2-0.2,0.5-0.5,0.7C105.8,512,105.8,512.2,105.6,512.4z"/>
<path fill="#1ABC9C" d="M93.1,586.3l-1.5,0.2c0,0,0,0,0-0.2c-0.2-0.7-0.2-1.3-0.5-1.7c-0.2-2-0.2-3.6,0.5-5.1
	c0.7-1.5,1.7-2.2,3.1-2.4c1.3-0.2,2.4,0,3.1,0.5c0.9,0.5,2,1.7,2.6,3.4l8.1,14.8l5.6-22.1l6-0.9l-7.8,30.8l2,3.4
	c0.9,1.7,1.7,2.6,2.6,3.1c0.9,0.5,2,0.7,3.1,0.5c1.2-0.2,2.2-0.7,2.6-1.3c0.5-0.7,0.7-1.5,0.7-2.4l1.3-0.2c0,0.2,0,0.2,0,0.5
	s0,0.2,0,0.5c0.2,2,0.2,3.6-0.5,5.1c-0.7,1.5-2,2.2-3.4,2.4c-1.5,0.2-2.8,0-3.8-0.7s-2.4-2.6-4.1-5.8L101,587.3
	c-1.3-2.2-2.2-3.6-3.1-4.3c-0.7-0.7-2-0.7-2.8-0.7c-0.9,0.2-1.7,0.7-2.2,1.3C93.1,584.5,92.8,585.6,93.1,586.3z"/>
<path fill="#1ABC9C" d="M574.7,669.4c-2.4-3.4-5.1-2.2-6.7-0.9c-1.5,0.9-2.6,2.2-4.1,3.4c-1.5,1.3-2.6,2.4-4.3,3.6
	c-5.6,3.8-9.6,2.2-12.3-1.7l-0.7-0.9l3.1-2.2l0.5,0.9c2,2.6,4.3,2.6,7.5,0.5c1.3-0.9,2.4-2,3.6-3.1c1.3-1.3,2.4-2.4,3.8-3.4
	c3.4-2.4,6.3-2.4,8.4-0.5h0.2c-0.9-2.6,0-5.1,3.4-7.8c1.5-0.9,2.8-1.7,4.3-2.4s2.8-1.5,4.1-2.4c2.8-2.2,3.8-4.1,2-7.3l-0.5-0.7
	l3.1-2.2l0.7,0.9c2.8,4.1,2.6,8.4-2.4,12c-1.5,0.9-3.1,2-4.8,2.8c-1.7,0.7-3.4,1.7-4.8,2.6c-2,1.3-3.6,3.4-1.5,6.7L574.7,669.4z"/>
</svg>
