<?xml version="1.0" encoding="utf-8"?>
<!-- Generator: Adobe Illustrator 18.1.1, SVG Export Plug-In . SVG Version: 6.00 Build 0)  -->
<svg version="1.1" id="Layer_2" xmlns="http://www.w3.org/2000/svg" xmlns:xlink="http://www.w3.org/1999/xlink" x="0px" y="0px"
	 viewBox="0 20.6 581.1 612.5" enable-background="new 0 20.6 581.1 612.5" xml:space="preserve">
<text transform="matrix(1 0 0 1 -168.5386 1234.9609)" display="none" fill="#E6E6E6" enable-background="new    " font-family="'Arial-Black'" font-size="605.4023">G</text>
<path fill="#1ABC9C" d="M481.1,345.6c9.1,0,16.5,2.9,22,8.9c5.7,6,8.4,13.7,8.4,23.3c0,9.6-2.7,17.4-8.4,23.3c-5.5,6-13,8.7-22,8.7
	c-9.1,0-16.5-2.9-22.2-8.7c-5.5-6-8.4-13.7-8.4-23.3c0-9.6,2.7-17.4,8.4-23.3C464.6,348.5,471.9,345.6,481.1,345.6z M500.9,377.6
	c0-8.7-1.9-15.8-5.5-21c-3.6-5.3-8.4-7.7-14.4-7.7c-6.2,0-11,2.5-14.6,7.7c-3.6,5.3-5.5,12.1-5.5,21c0,8.7,1.9,15.8,5.5,20.8
	c3.6,5.3,8.4,7.7,14.6,7.7c6,0,11-2.5,14.4-7.7C499.1,393.3,500.9,386.5,500.9,377.6z M477.2,373.7h7.5c2.9,0,4.8-0.5,6-1.4
	c0.9-0.9,1.6-2.5,1.6-5h2.3v19.1h-2.3c-0.2-2.5-0.7-4.1-1.6-5c-0.9-0.9-2.9-1.4-6-1.4h-7.5c-2.9,0-5,0.5-6,1.4
	c-0.9,0.9-1.6,2.5-1.6,5h-2.3v-19.2h2.3c0.2,2.5,0.7,4.1,1.6,5C472.2,373.2,474.2,373.7,477.2,373.7z"/>
<path fill="#1ABC9C" d="M248.2,152.8c2.5-2.1,3.6-3.6,3.9-5.3c0.2-1.6-0.7-3.6-2.5-6.2l1.6-1.4l10.3,12.7l-19.6,16l-10.5-12.8
	c3.2-3.6,4.6-8,4.3-12.7c-0.2-4.8-2.1-9.1-5.5-13.7c-4.1-5-8.7-8-13.9-8.7c-5.3-0.7-10.3,0.7-15.1,4.6c-4.8,3.9-7.4,8.4-7.7,13.7
	c-0.5,5.3,1.4,10.5,5.5,15.5c3.4,4.3,7.5,7.1,12.1,8.4c4.6,1.2,8.9,0.7,13.4-1.6l10.5,13l-19.6,16l-10.4-12.7l1.6-1.4
	c2.1,2.3,3.9,3.6,5.5,3.6c1.6,0.2,3.4-0.7,6-2.7l8.9-7.1l-3.4-4.3c-6.7,3.6-12.7,5-18.5,4.3c-5.7-0.7-10.7-3.6-14.6-8.4
	c-4.6-5.7-6.2-12.4-4.6-19.4s6-13.7,13.2-19.4c7.4-6,14.6-8.9,22-8.9s13.2,2.9,18,8.7c3.9,4.8,5.7,10.3,5.3,16
	c-0.5,5.7-3.2,11.7-8,17.2l3.4,4.3L248.2,152.8z"/>
<path fill="#1ABC9C" d="M502.1,526l22.2,1.9c2.3,0.2,4.1-0.2,5-0.9c0.9-0.9,1.4-2.7,1.9-5.5l1.4,0.2l-1.9,21.7l-1.4-0.2
	c0.2-2.7-0.2-4.8-0.9-5.7c-0.7-0.9-2.3-1.6-4.8-1.9l-22.2-1.9c0,4.3,0.7,7.5,2.3,9.4c1.6,1.9,4.6,2.7,9.1,3.2l6.2,0.5
	c4.3,0.2,7.4,1.4,8.9,2.7c1.6,1.6,2.3,3.9,2.1,7.4c0,0.7-0.2,1.4-0.2,2.1s-0.2,1.2-0.5,1.9l-1.6-0.2l0.2-1.4
	c0.2-1.6-0.2-2.5-1.2-3.2c-0.9-0.7-2.7-1.2-6-1.4l-7.7-0.7c-4.8-0.5-8.2-2.3-10.5-5.7c-2.3-3.4-3.2-8.4-2.9-14.8l-6.9-0.5
	c-2.5-0.2-4.1,0.2-5,0.9c-0.9,0.9-1.6,2.7-1.9,5.5l-1.4-0.2l1.9-21.7l1.4,0.2c-0.2,2.9,0.2,4.8,0.9,5.7c0.7,0.9,2.3,1.6,4.8,1.9
	l6.9,0.5c0.7-6.4,2.5-11.2,5.3-14.1c2.7-2.9,6.7-4.3,11.4-3.9l7.7,0.7c3.2,0.2,5.3,0.2,6.2-0.5c0.9-0.5,1.4-1.6,1.6-2.9l0.2-1.4
	l1.6,0.2c0,0.5,0,1.2,0,1.9c0,0.7,0,1.4-0.2,2.1c-0.2,3.4-1.4,5.7-3.2,6.9c-1.9,1.4-4.8,1.9-9.1,1.4l-6.2-0.5
	c-4.6-0.5-7.7,0.2-9.6,1.6C503.9,518.8,502.5,521.8,502.1,526z"/>
<path fill="#1ABC9C" d="M419.8,471.8c-1.2,2.5-1.9,4.3-1.9,5.3c0,0.9,0.2,1.6,1.2,2.1c0.5,0.2,0.9,0.5,1.6,0.5s1.4,0,2.5,0l24.4-1.6
	L437,458.8l0,0c-1.6-2.9-2.7-4.6-3.4-5c-0.7-0.5-1.6-0.5-2.3,0c-0.7,0.5-1.9,1.9-3.4,3.9l-1.6-0.9l9.1-16.2l1.6,0.9
	c-0.7,1.9-0.9,3.4-0.7,4.8c0.2,1.6,1.2,3.9,2.7,6.9l13.9,25.4l16.5,9.1c2.3,1.4,4.1,1.6,5.5,1.2c1.4-0.5,2.9-2.3,4.8-5l1.6,0.9
	l-13,23.3l-1.6-0.9l0.2-0.5c1.6-2.7,2.1-4.8,1.6-6.4s-1.9-2.9-4.3-4.3l-14.8-8.2l-33.5,2.9c-2.1,0.2-3.6,0.7-5,1.4
	c-1.4,0.9-2.5,2.1-3.6,3.9l-1.6-0.9l13.2-23.7L419.8,471.8z"/>
<path fill="#1ABC9C" d="M96.9,159.5c0-3.2-0.5-5.5-1.6-6.4c-1.2-1.2-3.2-1.6-6.7-1.9v-1.9h25.8v1.9c-3.2,0-5.5,0.7-6.7,1.9
	c-1.2,1.2-1.6,3.2-1.6,6.4v41.1c0,3.2,0.5,5.5,1.6,6.4c1.2,1.2,3.2,1.9,6.7,1.9v1.9H88.6v-1.9c3.2,0,5.5-0.7,6.7-1.6
	c1.2-1.2,1.6-3.2,1.6-6.7V159.5z"/>
<path fill="#1ABC9C" d="M403.8,529.4c0-9.6,2.7-17.4,8.2-23.3s12.5-8.7,21.7-8.7c8.9,0,16,2.9,21.5,8.9s8.2,13.7,8.2,23.3
	s-2.7,17.4-8.2,23.3c-5.5,6-12.5,8.9-21.5,8.9s-16-2.9-21.7-8.7C406.6,547.1,403.8,539.2,403.8,529.4z M433.5,500.7
	c-6,0-10.7,2.5-14.1,7.7c-3.6,5.3-5.3,12.1-5.3,20.8s1.9,15.8,5.3,21c3.4,5.2,8.2,7.7,14.1,7.7s10.5-2.5,13.9-7.7
	c3.4-5.3,5.3-12.1,5.3-21s-1.9-15.8-5.3-21C444.3,503.4,439.5,500.7,433.5,500.7z"/>
<path fill="#1ABC9C" d="M249.4,25.5c-2.9,1.4-4.8,2.5-5.5,3.9c-0.7,1.4-0.5,3.2,0.5,6l13,34.2c1.2,2.7,2.3,4.3,3.6,4.8
	c1.4,0.5,3.4,0.2,6.7-0.9l0.7,1.6L244.9,84l-0.7-1.6c2.9-1.2,4.8-2.5,5.5-3.9c0.7-1.4,0.5-3.4-0.5-6l-12.5-32.8
	c-1.2-2.7-2.3-4.3-3.6-4.8s-3.9,0-7.5,1.2l-7.4,2.7c-3.6,1.4-5.7,2.7-6.4,4.1c-0.7,1.4-0.7,3.4,0.5,6.2L225,82
	c0.9,2.7,2.3,4.3,3.6,4.8s3.6,0.2,6.7-0.9l0.7,1.6l-23.5,8.9l-0.7-1.6c2.9-1.4,5-2.5,5.5-3.9c0.7-1.4,0.5-3.2-0.7-6l-13-34.2
	c-0.9-2.5-2.3-4.1-3.4-4.8c-1.4-0.5-3.6-0.2-6.7,0.7l-0.9-1.2l56.4-21.6L249.4,25.5z"/>
<path fill="#1ABC9C" d="M581.1,304.4h-2.3c-0.5-4.6-1.9-7.7-4.6-10.1c-2.5-2.3-6.4-3.4-11.2-3.4h-17.5l22.4,24.7v1.4l-24,23h27.5
	c2.7,0,4.8-0.5,5.7-1.6c0.9-1.2,1.6-3.2,1.9-6.4h2.3v16.9h-49.6v-2.5l28.1-27.2l-27-29.7v-2.1h48.2L581.1,304.4L581.1,304.4z"/>
<path fill="#1ABC9C" d="M518.7,579.9l-47.9,23.5l-4.6-67.4l1.9-0.9L518.7,579.9z M474.9,596.8l31.1-15.3l-34.5-30.6L474.9,596.8z"/>
<path fill="#1ABC9C" d="M77.6,433c-3.6,0-6.2,0.7-7.4,1.6c-1.2,0.9-1.9,2.9-1.9,6v0.5c8.7,0.2,15.3,2.3,20.1,6
	c4.8,3.6,7.4,8.4,7.4,14.6c0,5.7-2.5,10.5-7.4,14.1c-4.8,3.6-11.7,5.7-20.1,6.4v0.9c0,2.7,0.7,4.8,1.9,6c1.4,1.2,3.6,1.6,7.4,1.6
	v1.9h-28v-1.9c3.6,0,6-0.7,7.4-1.9c1.4-1.2,1.9-3.2,1.9-6v-0.7c-8.4-0.7-15.3-2.7-20.1-6.4c-4.8-3.6-7.4-8.4-7.4-14.1
	c0-6.2,2.5-11,7.4-14.6s11.7-5.5,20.3-6v-0.5c0-2.9-0.7-5-1.9-6.2c-1.2-1.2-3.6-1.6-7.5-1.6v-1.6h28.1L77.6,433L77.6,433L77.6,433z
	 M58.7,443.6c-5.5,0.5-9.8,2.3-12.5,5.5c-2.7,2.9-4.1,7.4-4.1,12.7c0,5.5,1.4,9.8,4.1,12.7c2.7,2.9,6.9,4.8,12.5,5.3V443.6z
	 M68.5,443.6v36.3c5.5-0.5,9.6-2.1,12.4-5.3c2.7-2.9,4.1-7.4,4.1-12.7c0-5.5-1.4-9.8-4.1-12.7C78.1,446.1,74,444.3,68.5,443.6z"/>
<path fill="#1ABC9C" d="M456.6,92.7l0.7-1.9c4.6,0.2,8.2-0.2,11-1.9c2.7-1.4,4.8-3.9,6.2-7.1l3.6-9.1c0.9-2.5,1.4-4.3,1.2-5.3
	c-0.2-1.2-1.9-2.1-4.3-3.2l-38.3-15.5c-2.9-1.2-5.3-1.4-6.9-0.5s-3.2,2.9-4.6,6.7l-1.9-0.7l11.2-27.6l1.9,0.7
	c-1.4,3.6-1.9,6.2-1.4,7.5c0.5,1.6,2.3,2.9,5.7,4.3l37,14.8c3.4,1.4,6,1.9,7.5,1.2s3.2-2.7,4.3-6l0.2-0.5l1.6,0.7l-18.9,47.3
	L456.6,92.7z"/>
<path fill="#1ABC9C" d="M177.6,415.1c1.4-2.3,1.9-4.3,1.4-6.2c-0.5-1.9-1.9-3.4-4.1-4.8c-0.2,0.2-0.5,0.7-0.7,1.4
	c-1.2,2.1-1.9,3.4-2.3,4.1c-5.5,9.1-11.2,15.1-17.2,18c-6,2.9-12.1,2.5-18-1.2c-5.3-3.2-8.4-7.1-9.1-11.7s0.9-10.1,4.6-16.5l4.1-7.1
	c1.4-2.3,2.3-4.3,2.3-5.7c0.2-1.4-0.5-2.5-1.6-3.2c-1.4-0.7-2.5-0.9-3.9-0.2s-2.5,2.1-3.6,3.9l-1.6-0.9c0.2-0.2,0.5-0.7,0.7-1.2
	c1.6-2.5,3.4-4.1,5.7-4.8c2.3-0.9,4.6-0.5,6.7,0.7c3.2,1.9,4.8,4.3,5.3,7.4c0.2,2.9-0.9,6.7-3.6,11.2l-5.7,9.4
	c-2.5,4.1-3.6,7.5-3.2,10.3c0.2,2.7,1.9,5,4.8,6.9c3.4,2.1,6.7,2.1,9.6,0.2c3.2-1.9,6.7-6.2,10.7-13l7.7-12.7l-1.2-0.7
	c-6.4-3.9-10.7-8-13.2-12.7c-2.3-4.6-2.5-8.9,0-12.7c1.9-3.2,4.6-5,8.2-5.7c3.4-0.7,7.1,0,10.5,2.3c5.3,3.2,8.4,7.5,9.4,13.2
	c0.9,5.5-0.5,12.1-4.1,19.4c3.2,2.1,5,4.1,5.7,6.4c0.7,2.3,0.2,5-1.6,8L177.6,415.1z M167.8,397.1l0.9-1.4c3.6-6.2,5.7-11,6-15.1
	c0.2-3.9-1.2-6.9-4.1-8.7c-2.1-1.4-4.1-1.6-6-0.9c-1.9,0.7-3.6,2.1-5,4.3c-2.5,4.1-2.9,7.7-1.9,11.4c1.4,3.6,4.3,6.9,9.1,9.8
	L167.8,397.1z"/>
<path fill="#1ABC9C" d="M537.1,459.1c-3.4-3.4-6-5.5-7.7-6.2c-1.9-0.9-3.6-0.9-5.5,0l-0.7-1.9l22.8-9.6l0.7,1.9
	c-2.5,1.2-3.9,2.1-4.6,2.9c-0.7,0.7-0.7,1.6-0.5,2.7c0.9,2.1,8.7,10.3,23.7,24.9l7.5,7.4v-38.3c0-1.4,0-2.5-0.2-3.4
	c0-1.2-0.2-1.9-0.5-2.3c-0.5-1.4-1.4-2.1-2.3-2.3c-0.9-0.2-2.7,0.2-5.3,1.2l-0.7-1.9l16.5-6.9l0.7,1.9c-1.4,0.7-2.5,1.6-2.9,3.2
	c-0.5,1.4-0.9,4.3-0.7,8.4l0.2,56l-2.1,0.9L537.1,459.1z"/>
<path fill="#1ABC9C" d="M439.2,297.5l-0.7,29.2c0,3.2,0.5,5.3,1.4,6.4c1.2,1.2,3.2,1.9,6.4,2.1v2.1l-16.9-0.5l1.2-50l16.9,0.5v2.1
	c-3.2,0.2-5.3,0.7-6.4,1.9C439.9,292.2,439.2,294.3,439.2,297.5z M473.9,337.5v-2.1c3.2-0.2,5.3-0.7,6.4-1.9
	c1.1-1.2,1.9-2.9,1.9-6.2l0.7-29c0-3.2-0.5-5.3-1.6-6.4c-1.2-1.2-3.2-1.9-6.4-2.1v-2.1l16.9,0.5l-1.2,49.3L473.9,337.5z
	 M465.1,307.8l-0.2,9.1c0,3.4,0.2,5.5,1.2,6.7c0.7,1.2,2.3,1.6,4.6,1.9v2.1l-19.9-0.5V325c2.5,0,4.1-0.7,5-1.6
	c0.9-1.2,1.4-3.2,1.4-6.4l0.2-9.1c0-3.2-0.2-5.5-1.2-6.4c-0.9-1.2-2.5-1.9-4.8-2.1v-2.1l19.9,0.5v2.1c-2.3,0-3.9,0.7-4.8,1.6
	C465.5,302.5,465.1,304.4,465.1,307.8z"/>
<path fill="#1ABC9C" d="M186.6,503.4l-15.3-21c-2.3-3.2-4.3-5.5-5.7-6.4c-1.6-0.9-3.2-1.6-5.3-1.6h-0.9v-1.9h27.6v1.9h-0.7
	c-2.1,0-3.6,0.2-4.6,0.5c-0.9,0.5-1.4,0.9-1.4,1.9c0,0.5,0.2,0.9,0.2,1.4c0.2,0.5,0.7,1.2,1.4,2.1l11,15.5l10.7-13.4
	c0.9-0.9,1.4-2.1,2.1-2.9c0.5-0.9,0.7-1.9,0.7-2.3c0-0.9-0.5-1.4-1.4-1.9c-0.9-0.5-2.5-0.7-5-0.7v-1.9h22.6v1.9h-1.1
	c-2.1,0-4.1,0.5-5.7,1.4c-1.6,0.9-3.6,2.7-5.7,5.5l-14.8,17.7l18.2,25.8c1.9,2.5,3.4,4.3,5,5.3c1.6,1.2,3.6,1.6,5.7,1.9v1.9H196
	v-1.9c0.2,0,0.2,0,0.5,0c4.6-0.2,7.1-1.4,7.1-2.9c0-0.5-0.2-1.2-0.7-2.1c-0.5-0.9-1.2-2.1-2.3-3.4l-11.7-16.7l-12.7,15.8
	c-1.6,1.9-2.5,3.2-2.9,4.3c-0.5,0.9-0.7,1.9-0.7,2.5c0,0.9,0.5,1.6,1.4,2.1c0.9,0.5,2.7,0.7,5.3,0.7v1.9h-20.6v-1.8
	c1.6,0,3.2-0.2,4.6-1.2c1.4-0.7,2.9-2.3,5.3-5L186.6,503.4z"/>
<path fill="#1ABC9C" d="M526,134.4l1.2,1.9c-2.9,1.6-5.5,2.1-7.5,1.6c-2.1-0.7-4.1-2.5-6-5.5l-0.2-0.2c-0.2-0.5-0.7-1.4-1.4-2.7
	c-0.7-1.4-1.4-2.5-1.9-3.4c-2.1-3.6-5-6-8.4-6.9s-7.1-0.5-10.5,1.6c-3.6,2.3-6,5-6.2,8.2c-0.5,3.2,1.2,8,4.3,14.6
	c2.1,3.9,2.7,7.1,2.3,9.4c-0.5,2.3-2.1,4.3-5,6c-3.9,2.3-7.7,2.7-11.9,1.2c-4.1-1.6-7.7-4.8-10.5-9.6c-1.6-2.7-2.5-4.8-2.7-6.2
	c-0.2-1.4,0.2-2.5,1.2-3.2c0.9-0.5,1.6-0.5,2.3-0.2c0.7,0.2,1.4,0.9,2.1,2.1c0.5,0.7,0.9,2.1,1.4,4.3c0.5,2.3,1.2,4.1,2.1,5.5
	c1.4,2.3,3.2,3.9,5.5,4.8c2.3,0.9,4.3,0.9,6,0c1.4-0.9,2.3-1.9,2.5-2.9c0.3-1.1,0.2-2.5-0.5-4.6c-0.5-1.2-1.2-2.9-2.5-5.3
	c-1.2-2.3-2.1-4.1-2.5-5.5c-1.6-3.9-1.6-7.7,0-11.2c1.6-3.4,4.8-6.4,9.6-9.4c6.2-3.6,11.7-5.3,16.7-4.6c4.8,0.7,8.9,3.4,11.9,8.2
	c0.7,1.2,1.6,2.7,2.5,4.6c0.9,1.9,1.6,2.9,1.9,3.6c0.7,1.4,1.6,2.3,2.5,2.7C524.6,134.5,525.3,134.5,526,134.4z"/>
<path fill="#1ABC9C" d="M46.4,178c6.2,1.6,10.3,5.5,12.4,11.4c2.1,6,1.9,13.7-0.7,23.3c-2.7,10.3-6.4,17.8-11,22.4
	c-4.8,4.6-10.1,6.2-16.2,4.6c-6.7-1.6-10.7-5.5-12.5-11.7c-2.3-6-1.9-14.1,0.9-24.4c2.5-9.6,6.2-16.7,11-21
	C34.7,178,40.2,176.7,46.4,178z M49.8,207.8c0-0.5,0.2-0.9,0.5-1.9c0.2-0.7,0.5-1.2,0.5-1.6c2.1-7.5,2.5-13.2,1.9-17.2
	c-0.7-3.9-2.9-6.4-6.7-7.4c-3.6-0.9-7.1,0.2-9.8,3.9c-2.7,3.4-5.3,9.6-7.5,18.5L49.8,207.8z M27.6,205.6l-0.5,2.1
	c-2.5,10.1-3.6,17.2-2.9,21.7c0.7,4.3,2.9,7.1,6.7,8c3.9,1.2,7.4-0.2,9.8-3.6c2.5-3.4,5.3-11,8.2-22.6L27.6,205.6z"/>
<path fill="#1ABC9C" d="M455.9,105.9h2.5c-0.7,6.2-2.9,10.7-6.9,13.9s-9.4,4.6-16,4.6c-6.4-0.2-11.7-1.9-15.5-5.3
	c-3.9-3.2-5.7-7.4-5.7-12.4c0-2.9,1.2-5.3,2.9-7.4c2.1-1.9,5-3.4,8.9-4.3c-3.9-1.2-6.9-2.7-8.7-4.8s-2.7-4.6-2.7-7.5
	c0.2-5,2.3-8.9,6.4-12.1c4.1-2.9,9.4-4.6,15.8-4.3c6.7,0.2,11.9,2.1,15.8,5.5c3.6,3.4,5.7,8.2,6.2,14.4h-2.5c0-3.6-1.4-6.4-4.1-8
	c-2.5-1.6-7.1-2.5-13.4-2.7c-7.5-0.2-12.7,0.2-16,1.6c-3.2,1.4-4.8,3.6-4.8,6.7c0,2.7,1.2,4.8,3.4,6.4s5.7,2.5,9.8,2.5
	c2.1,0,5-0.2,8.4-0.7c3.4-0.5,6-0.7,7.1-0.7c1.6,0,2.7,0.5,3.4,1.2c0.7,0.7,1.2,1.9,1.2,3.2s-0.5,2.5-1.4,3.2s-2.1,1.2-3.4,1.2
	c-1.4,0-3.6-0.5-7.4-1.2c-3.4-0.7-6.4-1.2-8.4-1.2c-4.1,0-7.5,0.7-9.8,2.1s-3.6,3.4-3.6,6.2c0,3.2,1.4,5.5,4.6,6.9
	c2.9,1.4,8.2,2.3,15.1,2.5c6.9,0.2,11.7-0.5,14.4-1.9C454,112.3,455.7,109.5,455.9,105.9z"/>
<path fill="#1ABC9C" d="M289.2,528.9c-2.7-0.9-4.8-2.1-6.4-3.6c-1.4-1.6-2.3-3.6-2.3-6c0-3.2,1.4-5.7,4.1-7.7
	c2.7-2.1,6.4-2.9,10.7-2.9c3.9,0,7.1,0.7,9.8,2.1c2.7,1.4,3.9,2.9,3.9,5c0,0.9-0.2,1.9-0.9,2.3c-0.7,0.7-1.4,0.9-2.5,0.9
	c-0.9,0-1.9-0.2-2.5-0.7c-0.7-0.5-1.4-1.4-2.1-2.7c-0.9-1.6-1.6-2.5-2.5-3.2c-0.9-0.7-2.1-0.9-3.6-0.9c-2.1,0-3.4,0.7-4.6,2.1
	c-1.2,1.4-1.6,3.4-1.6,6c0,2.5,0.5,4.6,1.6,6c1.2,1.4,2.5,2.3,4.3,2.3c0.7,0,1.9-0.2,3.2-0.7c1.4-0.5,2.5-0.7,3.2-0.7
	c0.9,0,1.6,0.2,2.3,0.9c0.5,0.5,0.9,1.2,0.9,2.1s-0.2,1.6-0.9,2.3c-0.5,0.5-1.2,0.7-2.3,0.7c-0.7,0-1.9-0.2-3.2-0.9
	c-1.4-0.5-2.5-0.9-3.2-0.9c-1.9,0-3.4,0.7-4.6,2.3s-1.6,3.6-1.6,6.4c0,2.9,0.9,5.3,2.5,7.1c1.6,1.9,3.9,2.7,6.7,2.7
	c2.5,0,4.6-0.7,6.4-2.1c1.9-1.4,3.4-3.6,4.8-6.7l2.5,1.2c-1.6,3.6-3.6,6.7-6.4,8.4c-2.7,1.9-6,2.7-10.1,2.7c-4.6,0-8-1.2-10.7-3.4
	c-2.7-2.3-4.1-5.3-4.1-9.1c0-2.7,0.7-5,2.3-6.9C283.9,531.4,286.2,529.9,289.2,528.9z"/>
<path fill="#1ABC9C" d="M328.4,402.2c-7.4,0.5-13-1.2-17.4-4.6c-4.3-3.4-6.7-8.4-7.1-15.1c-0.2-6,1.4-11,5.5-14.6
	c3.9-3.9,9.4-6,16-6.4c6.9-0.2,12.7,1.2,17.4,4.6c4.6,3.4,7.1,8,7.4,13.7c0.2,2.5-0.2,5-1.2,7.4c-0.9,2.5-2.3,4.6-4.1,6.2l25.6-1.4
	l0.5,8L328.4,402.2z M306.8,384.2c0.2,3.4,1.9,6.2,5,7.7c3.2,1.9,7.5,2.5,13,2.3c6.9-0.2,12.5-1.9,16.7-4.6c4.1-2.7,6.2-6,6-9.8
	c-0.2-3.6-1.9-6.4-4.6-8c-2.9-1.6-7.1-2.3-12.7-2.1c-7.1,0.5-12.7,2.1-17.2,4.6C308.6,377,306.8,380.1,306.8,384.2z"/>
<path fill="#1ABC9C" d="M426.7,177.4c0,0.5,0,1.2,0,2.1c-0.2,6.7-0.2,11.4-0.2,14.4v2.9c0,5.3,0.2,8.7,0.9,10.1
	c0.7,1.4,1.9,2.1,3.4,2.1c2.1,0,3.6-0.9,4.8-2.7c1.2-1.9,1.6-4.6,1.9-8.4h2.3v0.7c0,5-0.9,8.7-2.7,11c-1.9,2.3-4.8,3.4-8.7,3.4
	c-4.1,0-6.9-1.2-8.4-3.4c-1.6-2.3-2.3-7.5-2.3-15.8c0-1.2,0-3.4,0-6.4s0.2-6.4,0.2-10.1c-0.2,0-0.2,0-0.7,0
	c-2.3-0.2-3.9-0.2-4.8-0.2c-2.5,0-4.8,0.5-6.4,1.4c-1.6,0.9-2.5,2.1-2.9,3.6h-2.1c0.2-4.1,1.6-7.1,3.9-8.9c2.5-1.9,6.7-2.5,12.5-2.5
	c1.6,0,3.9,0,7.4,0.2c3.2,0.2,5.7,0.2,7.5,0.2c2.9,0,5-0.2,6.4-0.7c1.4-0.5,2.1-1.2,2.1-2.1l0,0h1.9c0,3.4-0.9,6-2.5,7.4
	c-1.6,1.4-4.8,2.1-9.1,2.1C429.8,177.5,428.4,177.5,426.7,177.4L426.7,177.4L426.7,177.4z"/>
<path fill="#1ABC9C" d="M190.3,575c1.2-4.6,0.7-8.7-1.2-12.1c-1.9-3.4-5-6.2-9.4-8.2c-3.4-1.4-7.4-2.3-11.4-2.5
	c-4.1-0.2-6.9-0.5-7.5-0.9c-1.4-0.7-2.3-1.4-2.7-2.3c-0.5-0.9-0.2-2.3,0.2-3.4c0.9-2.1,2.5-2.9,4.8-2.9c2.5,0,6,0.9,10.5,2.9
	c7.7,3.2,13.2,7.5,16.5,13c3.4,5.5,4.1,11.2,2.5,17.5l17.8,6.4l-3.9,8.9l-16.9-8.2c-3.4,6.7-7.1,11-11.2,12.7
	c-4.1,1.9-8.9,1.9-14.4-0.7c-2.1-0.9-4.6-2.3-7.7-3.9c-3.2-1.9-5.5-2.9-6.7-3.4c-1.6-0.7-2.9-0.9-3.9-0.7c-1.2,0.2-1.9,0.9-2.3,1.9
	c-0.7,1.4-0.5,2.7,0.5,4.1c0.9,1.2,2.5,2.3,5,3.4l1.4,0.5l-0.9,2.1c-0.2,0-0.5-0.2-0.7-0.2s-0.7-0.2-1.2-0.5
	c-3.4-1.4-5.5-3.2-6.7-5.5s-1.2-4.8,0.2-7.7c1.2-2.7,2.9-4.6,5.3-5.3c2.3-0.7,5.3-0.2,8.7,1.2c0.9,0.5,2.7,1.4,5.5,2.7
	s5,2.5,6.9,3.4c5.5,2.3,9.6,3.2,12.4,2.3c2.7-0.9,5.3-3.4,7.5-7.7L141,559.2l0.9-2.3L190.3,575z"/>
<path fill="#1ABC9C" d="M408.6,583.1h-2.1c0-0.2,0-0.5,0-0.7c0-0.2,0-0.7,0-1.2c0-3.6,0.9-6.4,2.5-8.4c1.6-1.9,4.3-2.7,7.5-2.7
	s5.7,0.9,7.4,2.9c1.6,1.9,2.5,4.8,2.5,8.7c0,1.2-0.2,3.6-0.5,7.5c-0.2,3.9-0.5,7.1-0.5,9.8c0,3.9,0.9,6.9,2.5,8.7
	c1.6,1.9,4.1,2.7,7.5,2.7c4.1,0,7.4-1.4,10.1-4.3c2.5-2.7,3.9-6.7,3.9-11.2c0-3.4-0.9-7.4-2.9-11.7c-2.1-4.3-2.9-7.4-2.9-8.9
	s0.5-2.5,1.2-3.4c0.7-0.7,2.1-1.2,3.6-1.2c2.3,0,3.9,1.2,5,3.4c1.1,2.3,1.6,6,1.6,11c0,9.4-1.9,16.5-5.7,21.7
	c-3.9,5.3-9.1,7.7-16,7.7c-5,0-8.9-1.4-11.7-4.6c-2.7-2.9-4.1-7.1-4.1-12.4c0-2.3,0.2-5.5,0.7-9.4s0.7-6.9,0.7-8.4s-0.5-2.9-1.2-3.9
	c-0.7-0.9-1.9-1.4-2.9-1.4c-1.9,0-3.2,0.7-4.1,2.1c-0.9,1.4-1.4,3.2-1.4,6c0,0.2,0,0.5,0,0.7C408.6,582.6,408.6,582.8,408.6,583.1z"
	/>
<path fill="#1ABC9C" d="M568,383c0,4.3,0.5,7.1,1.2,8.2c0.7,1.2,1.9,1.9,3.6,1.9c2.1,0,3.6-0.9,4.6-2.5c0.9-1.6,1.4-4.3,1.4-7.7V382
	h2.3v1.6c0,4.6-0.9,8-2.7,10.1c-1.9,2.1-4.6,3.2-8.4,3.2c-3.6,0-6.2-1.2-7.7-3.2c-1.6-2.1-2.5-5.5-2.5-10.3v-29h8.7L568,383L568,383
	z"/>
<path fill="#1ABC9C" d="M188.4,428.3c5,0,9.1,1.6,12.4,5s4.6,8,4.6,13.7c0,6-1.6,10.5-4.8,14.1c-3.2,3.4-7.5,5.3-12.7,5.3
	c-5,0-8.9-1.9-12.1-5.3c-3.2-3.4-4.8-8-4.8-13.7c0-5.7,1.6-10.3,5-13.9C178.8,430.1,183.1,428.3,188.4,428.3z M198.2,450.2
	c0-6-1.2-10.7-3.2-14.4c-2.1-3.6-4.8-5.5-8.2-5.5c-2.9,0-5.3,1.4-6.9,3.9c-1.6,2.5-2.5,6.2-2.5,10.7c0,5.7,1.2,10.3,3.2,13.7
	c2.1,3.6,4.8,5.3,8,5.3c3.2,0,5.5-1.2,7.1-3.4C197.5,458.5,198.2,455.1,198.2,450.2z"/>
<path fill="#1ABC9C" d="M135.2,253.9c-0.5,0.2-1.2,0.7-1.9,1.2c-5.7,3.2-9.8,5.5-12.1,6.9L118,264c-4.3,2.5-7.1,4.6-8,5.7
	c-0.9,1.2-0.9,2.3-0.2,3.4c0.9,1.6,2.3,2.1,4.3,2.1c2.1-0.2,4.6-1.2,8-2.9l1.2,2.1l-0.5,0.2c-4.3,2.5-7.7,3.6-10.7,3.6
	c-2.7-0.2-5-1.6-6.9-4.6c-1.9-2.9-2.1-5.7-0.7-8.2s5.3-5.7,12.1-9.6c0.7-0.5,2.9-1.6,6.4-3.6c3.4-1.9,6.2-3.4,8.4-4.8
	c-0.5-0.9-1.4-2.3-2.3-4.1c-0.9-1.9-2.3-3.9-3.6-6.2c-12.4,7.4-21,11.7-25.8,13s-8.2,0.5-10.1-2.7c-1.2-1.9-1.2-3.6-0.2-5.5
	c0.9-1.9,2.9-3.6,6-5.5l1.6-0.8l1.2,1.9c-1.4,0.9-2.3,1.9-2.7,2.7s-0.2,1.9,0.2,2.7c1.4,2.3,3.9,2.7,7.7,1.6s10.7-4.3,20.6-10.1
	l-1.2-1.9c-1.2-2.1-2.5-3.4-3.9-4.1c-1.4-0.7-2.9-0.9-4.6-0.2l-1.2-1.9c3.6-2.1,6.9-2.5,9.4-1.6s5.3,3.6,8,8.4
	c0.5,0.9,2.1,3.6,4.6,8.2c2.5,4.6,4.8,8.7,7.1,12.4c1.2,1.9,2.1,2.9,2.9,3.6c0.9,0.7,1.9,0.7,2.5,0.2l0,0l1.2,1.9l-0.2,0.2
	c-2.7,1.6-5,2.3-7.1,1.6c-2.1-0.5-3.6-2.1-5.3-4.8c-0.2-0.5-0.5-0.9-0.7-1.2C135.4,254.6,135.2,254.4,135.2,253.9z"/>
<path fill="#1ABC9C" d="M538.8,151.2l-3.6,13.9c-0.7,2.5-1.4,4.8-2.3,7.1c-0.7,2.3-1.6,4.6-2.7,6.7c1.2,2.7,2.1,4.8,3.4,6
	c1.2,1.4,2.5,2.1,3.6,2.1c1.2,0,1.9-0.5,2.5-1.2c0.7-0.7,1.2-1.9,1.4-3.2h1.9v0.9c0,3.4-0.5,6-1.4,7.7c-0.9,1.6-2.5,2.5-4.3,2.5
	c-2.1,0-3.6-0.7-5-2.5c-1.2-1.6-2.3-4.8-3.4-9.4c-2.5,4.1-5,7.1-8,8.9c-2.7,1.9-6.2,2.7-10.1,2.7c-6,0-10.7-2.1-14.8-6.4
	c-3.9-4.1-6-9.6-6-16c0-5.7,2.1-10.7,6-15.1c4.1-4.3,8.9-6.4,14.4-6.4c4.3,0,7.7,1.4,10.5,3.9c2.7,2.5,4.6,6.4,5.7,11.4l3.4-13.9
	L538.8,151.2L538.8,151.2z M525.6,170.8c-1.4-6.4-3.2-11-5.3-13.7c-2.1-2.7-5-4.3-8.4-4.3c-3.6,0-6.7,1.9-8.9,5
	c-2.3,3.4-3.2,8-3.2,13.9c0,6.4,1.2,11.2,2.9,14.6c2.1,3.4,5,5,8.9,5c3.6,0,6.4-1.4,8.4-4.3C522.2,184.2,523.9,178.6,525.6,170.8z"
	/>
<path fill="#1ABC9C" d="M179,218.8c3.4,1.9,6,4.1,7.7,6.9c1.6,2.7,2.5,6.2,2.5,10.1c0,6.4-2.3,11.7-6.7,15.8
	c-4.6,4.1-10.3,6.2-17.5,6.2c-6.9,0-12.5-2.1-16.9-6.2s-6.7-9.1-6.7-15.5c0-6.9,2.3-12.4,6.9-16.5s10.5-6.2,18-6.2
	c1.6,0,4.3,0.2,8.4,0.2c4.1,0.2,7.5,0.2,10.1,0.2s4.3-0.2,5.5-0.7c1.2-0.5,1.9-0.9,2.1-1.9h2.1c0,2.9-0.7,5-1.9,6.2
	s-3.2,1.9-6.2,1.9c-0.7,0-1.4,0-2.3-0.2C183.1,219.3,181.6,219.1,179,218.8z M180,238.7c0-7.1-1.4-12.5-4.3-16.7
	c-2.9-4.1-6.7-6.2-11.4-6.2c-4.1,0-7.4,1.4-9.8,4.3c-2.3,2.9-3.4,7.1-3.4,12.5c0,6.7,1.4,11.9,4.3,16s6.7,6.2,11.4,6.2
	c4.6,0,7.7-1.4,10.1-4.1C178.8,248,180,244,180,238.7z"/>
<path fill="#1ABC9C" d="M555.5,145.8l-1.2-0.2c-11.2-2.5-17.5-5.7-19.2-9.6c-0.9-2.5-0.9-4.8,0.5-7.1c1.2-2.3,3.2-3.9,6-5
	c3.2-1.2,6.4-1.4,9.8-0.2c3.4,1.2,6,2.9,7.7,5.7l-2.3,0.9c-1.9-2.1-4.1-3.4-6.9-4.3c-2.7-0.7-5.3-0.7-7.5,0.2
	c-1.6,0.7-2.5,1.4-3.2,2.3s-0.7,2.1-0.2,3.2c0.9,2.3,4.3,4.1,10.3,5.3c2.1,0.5,3.4,0.7,4.6,0.9c6.7,1.6,12.1,4.1,16.2,7.4
	c4.1,3.2,7.1,7.4,9.1,12.4c2.3,6.2,2.5,11.7,0.5,16.5c-2.1,5-6,8.7-11.7,10.7c-5.3,2.1-10.3,2.1-15.1-0.2
	c-4.8-2.3-8.2-6.2-10.3-11.7c-2.3-5.7-2.5-11.2-0.5-16c1.9-5,5.5-8.4,10.7-10.5c0.5-0.2,0.9-0.2,1.2-0.5
	C554.8,145.8,555.2,145.8,555.5,145.8z M572.8,163.8c-2.3-5.7-5-10.1-8.7-12.7c-3.4-2.7-6.9-3.4-10.3-2.1c-2.9,1.2-4.8,3.4-5.7,6.4
	c-0.7,3.2-0.2,7.1,1.6,11.7c2.1,5.5,5,9.6,8.4,12.4c3.4,2.7,6.9,3.4,10.3,2.1c3.2-1.4,5.3-3.4,6-6.2
	C575.1,172.3,574.4,168.3,572.8,163.8z"/>
<path fill="#1ABC9C" d="M148.4,296.1c6,0.2,10.5,2.3,14.1,6.2c3.6,4.1,5.5,9.1,5.5,15.8c0,6.2-1.6,11.4-5,15.3
	c-3.4,3.9-7.7,6.2-13.4,6.7v18.7h-6.7V340c-5.7-0.5-10.1-2.5-13.4-6.7c-3.4-4.1-5-9.1-5-15.3c0-6.4,1.9-11.7,5.5-15.5
	c3.6-4.1,8.2-6.2,14.1-6.4l0.5-18h3.6L148.4,296.1z M143.9,298.7c-3.4,0.5-6.2,2.3-8.4,5.7c-2.3,3.4-3.2,8-3.2,13.4
	c0,5.3,0.9,9.6,2.9,13c2.1,3.4,4.6,5.5,7.7,6.2L143.9,298.7z M148.4,298.7l0.9,38.3c3.2-0.7,6-2.7,7.7-6.2c2.1-3.4,2.9-7.7,2.9-13
	c0-5.5-1.2-9.8-3.2-13.4C154.9,301,151.9,299,148.4,298.7z"/>
<path fill="#1ABC9C" d="M428.9,409c-1.9-8.9-3.9-16-6.2-21.3c-2.3-5.3-4.3-7.7-6.2-7.7c-0.9,0-1.6,0.5-2.3,1.4s-0.9,2.3-1.2,3.9
	h-2.1v-2.7c0-3.6,0.5-6.4,1.6-8.2c1.2-1.9,2.7-2.7,4.8-2.7c4.1,0,8.2,9.8,12.5,29.7l0.9,3.9c2.9-7.1,5-14.8,6-23.3
	c0.2-1.2,0.2-1.9,0.2-2.3c0.5-2.7,0.9-4.8,1.6-6c0.9-1.2,1.9-1.9,3.2-1.9c1.4,0,2.3,0.2,2.9,1.2c0.7,0.7,1.2,1.9,1.2,2.9
	c0,2.5-1.9,7.5-5.7,15.3c-3.6,7.7-6.7,13.9-8.4,18.7c0.5,3.4,0.9,6.7,1.2,9.4c0.2,2.7,0.5,5,0.5,7.1c0,3.2-0.5,5.3-0.9,6.7
	c-0.7,1.4-1.6,2.1-2.9,2.1c-1.4,0-2.3-0.5-2.9-1.6c-0.7-1.2-1.2-2.7-1.2-5s0.2-4.8,0.9-8C426.9,416.7,427.8,412.9,428.9,409z"/>
<path fill="#1ABC9C" d="M188.4,116.1V68.8c0-4.3-0.5-7.1-1.4-8.7c-0.9-1.6-2.7-2.3-5-2.3c-3.9,0-7.1,2.5-9.6,7.5s-3.6,11.4-3.6,18.9
	v12.1h-8.9V65.8c0-2.7-0.2-4.8-0.9-6.2c-0.7-1.4-1.6-2.1-2.9-2.1s-2.5,0.7-3.4,1.9c-0.7,1.4-1.2,3.2-1.2,5.7v1.4h-1.9
	c0-0.2,0-0.5,0-0.7c0-0.2,0-0.7,0-1.2c0-3.4,0.7-6.2,2.3-8.2c1.6-1.9,3.6-2.7,6.4-2.7c3.4,0,6,1.4,7.5,4.1c1.6,2.7,2.5,6.9,2.5,12.5
	c1.6-5.7,3.6-10.1,6.2-12.5c2.5-2.7,6-4.1,9.8-4.1c4.6,0,7.7,1.6,9.6,4.6c2.1,2.9,2.9,8,2.9,15.3V116L188.4,116.1L188.4,116.1
	L188.4,116.1z"/>
<path fill="#1ABC9C" d="M286.9,74.5v-5.3c0-7.4,0.2-12.5,0.5-15.5c0.3-2.9,0.7-5.7,1.4-8c1.2-3.9,2.9-6.9,5-8.9
	c2.3-2.1,4.8-3.2,8-3.2c3.6,0,6.9,1.9,9.4,5c2.5,3.4,3.6,7.7,3.6,13c0,7.4-1.9,13.4-5.7,18c-3.9,4.6-8.9,7.1-15.3,7.4v18.7h-7.1
	V77.2c-7.4-0.5-12.7-2.7-16.9-6.9c-3.9-4.1-6-9.6-6-16.5c0-6.4,1.4-11.4,3.9-15.1c2.9-3.2,6.4-5,11-5c2.1,0,4.1,0.7,5.7,1.6
	c1.6,1.2,3.2,2.7,4.3,5l-2.3,1.4c-0.9-1.6-1.9-2.7-2.9-3.4c-1.2-0.7-2.5-1.2-3.9-1.2c-2.5,0-4.3,1.4-5.5,3.6
	c-1.2,2.5-1.6,6.9-1.6,12.7s1.2,10.7,3.6,14.1C278.6,71.7,282.3,73.8,286.9,74.5z M293.9,74.5c5.3,0,9.4-2.1,12.7-6.2
	c3.4-4.1,5-9.6,5-16.2c0-4.6-0.9-8.2-2.5-11c-1.6-2.7-4.1-4.1-6.9-4.1c-2.9,0-5.3,1.4-6.4,4.1c-1.2,2.7-1.9,7.7-1.9,15.1L293.9,74.5
	L293.9,74.5z"/>
<path fill="#1ABC9C" d="M581.1,504.1v-2c-2.5-0.7-4.8-1.2-7.4-1.9c-2.3-0.7-4.6-1.6-6.9-2.3l0.5,18.5c0,0.5,0,0.9-0.2,1.2
	c0,0.2-0.2,0.2-0.5,0.2c-0.2,0-0.5,0-0.7-0.2c-0.2-0.2-0.7-0.5-0.7-0.7l-4.6-5.3c-5-5.5-8.7-9.1-11-10.7c-2.5-1.6-4.8-2.5-7.1-2.3
	c-1.6,0-2.9,0.5-3.9,1.2c-1.2,0.7-1.6,1.6-1.6,2.7c0,0.7,0.5,1.4,0.9,2.1c0.7,0.5,1.4,0.7,2.5,0.7c0.7,0,1.6-0.2,2.7-0.7
	c1.2-0.5,1.9-0.7,2.5-0.7c1.4,0,2.9,0.7,4.6,1.9c1.6,1.4,3.9,3.6,6.9,7.1l2.7,3.4l-13.9,19.6c-1.4,2.1-2.7,3.6-4.1,4.6
	c-1.4,1.2-2.7,1.6-4.1,1.6h-0.2v1.9l19.6-0.5v-1.9c-1.4,0-2.5,0-3.2-0.2s-0.9-0.5-0.9-0.9c0-0.5,0.2-0.9,0.5-1.4
	c0.3-0.5,0.7-1.4,1.4-2.3l11-15.1c0.2-0.2,0.5-0.5,0.7-0.7c0.2-0.2,0.5-0.2,0.7-0.2c0.2,0,0.2,0,0.2,0.2s0.2,0.5,0.2,0.7l0.5,21.3
	l7.7-0.2l-0.7-32.6c0-2.7,0.2-4.3,0.9-5c0.7-0.7,1.9-1.2,3.4-1.2c0.2,0,0.7,0,0.9,0C580.4,504.1,580.8,504.1,581.1,504.1z"/>
<path fill="#1ABC9C" d="M489.2,186.5l2.1-0.5v0.2c0.5,1.2,0.7,1.9,0.7,2.5c0.7,3.2,0.7,5.7-0.5,8c-0.9,2.3-2.5,3.6-4.8,4.1
	c-2.1,0.5-3.6,0.2-5-0.7c-1.4-0.9-2.9-2.5-4.6-5.3l-14.1-22.8l-6.9,35.2l-9.6,2.3l9.4-48.9l-3.2-5c-1.6-2.3-2.9-3.9-4.3-4.6
	c-1.4-0.7-2.9-0.9-4.8-0.5c-1.9,0.5-3.2,1.2-4.1,2.3c-0.9,1.2-1.2,2.3-0.9,3.9l-1.9,0.5c0-0.2-0.2-0.5-0.2-0.7
	c-0.2-0.2-0.2-0.5-0.2-0.7c-0.7-3.2-0.5-5.7,0.5-8c0.9-2.3,2.7-3.6,5.3-4.1c2.3-0.5,4.3-0.2,6,0.9c1.6,1.2,4.1,4.1,6.9,8.7
	l20.1,32.6c2.1,3.4,3.9,5.5,5,6.4c1.4,0.9,2.9,1.2,4.8,0.7c1.6-0.2,2.5-1.2,3.2-2.3C489.2,189.4,489.4,187.9,489.2,186.5z"/>
<path fill="#1ABC9C" d="M522.6,324.9c2.9-2.1,5.7-3.6,8.2-4.6c2.5-0.9,5-1.6,7.5-1.6c2.1,0,3.6,0.2,4.8,0.9c1.2,0.7,1.6,1.6,1.6,2.7
	c0,1.9-1.2,3.2-3.6,4.1c-2.5,0.9-6,1.6-10.1,1.6c-1.4,0-2.7,0-3.9-0.2c-1.2,0-2.3-0.2-3.6-0.5c-3.2,2.7-5.7,6.4-7.5,11
	c-1.9,4.6-2.7,9.4-2.7,14.4s1.2,8.9,3.4,11c2.3,2.3,6.2,3.4,11.4,3.4c0.9,0,2.3,0,3.9-0.2c1.9,0,3.2-0.2,4.1-0.2
	c4.6,0,8,0.9,10.1,2.5c2.1,1.6,3.2,4.1,3.2,7.5c0,4.6-1.9,8.2-5.5,10.7c-3.6,2.5-8.9,3.9-15.8,3.9c-2.1,0-3.6-0.2-4.8-0.9
	c-1.2-0.7-1.6-1.4-1.6-2.5c0-0.9,0.5-1.6,1.2-2.3c0.7-0.5,1.9-0.7,3.2-0.7c0.9,0,2.5,0.2,4.8,0.9c2.3,0.7,4.3,0.9,6,0.9
	c2.7,0,5-0.7,6.9-2.1c1.9-1.4,2.7-2.9,2.7-5c0-1.9-0.7-2.9-2.3-3.6c-1.4-0.7-3.9-1.2-7.4-1.2c-1.2,0-2.9,0-5.3,0.2
	c-2.3,0-3.9,0.2-4.8,0.2c-6.2,0-11-1.6-13.9-4.8c-2.9-3.2-4.3-8.2-4.3-14.8c0-5.5,0.9-10.7,2.9-15.3c2.1-4.8,5-9.1,8.9-13.2
	c-4.8-1.2-8.4-2.5-11-4.1c-2.5-1.9-3.6-3.6-3.6-6c0-2.5,1.2-4.3,3.6-5.7c2.3-1.4,5.7-2.1,10.1-2.1c0.9,0,1.6,0,2.1,0
	c0.5,0,1.2,0.2,1.6,0.2v2.3h-2.6c-2.7,0-4.8,0.5-6.2,1.4c-1.4,0.9-2.1,2.3-2.1,4.1s0.9,3.4,2.5,4.8
	C516.9,323.2,519.4,324.2,522.6,324.9z"/>
<path fill="#1ABC9C" d="M383.3,502c3.2,2.7,5.5,5,6.9,7.1c1.6,1.9,2.7,3.9,3.6,6c0.9,2.1,1.4,3.9,1.2,5.3c0,1.4-0.7,2.3-1.9,2.7
	c-1.4,0.5-2.7,0.2-4.1-1.4c-1.4-1.4-2.9-3.9-4.3-7.4c-1.2-2.5-2.1-6-2.9-10.3c0-0.2-0.2-0.5-0.2-0.7c-2.3-1.2-4.3-1.6-6-1.9
	c-1.9-0.2-3.4,0-4.8,0.5c-1.6,0.7-2.9,1.6-3.6,2.9c-0.7,1.2-1.4,2.9-1.6,5.3c1.6,2.5,2.9,4.8,4.1,6.9c1.2,2.1,2.1,4.1,2.9,6
	c1.4,2.9,1.9,5.5,1.9,7.1c0,1.6-0.7,2.7-1.9,3.4c-1.4,0.5-2.7,0.2-4.1-1.2c-1.4-1.4-2.7-3.6-4.1-7.1c-0.9-2.5-1.9-4.8-2.3-7.4
	c-0.5-2.5-0.9-5-0.9-7.7c-1.9-1.9-4.1-2.9-6.4-3.4c-2.3-0.5-4.6-0.2-6.7,0.5c-2.7,1.2-4.6,3.2-5,5.7s0,6,1.9,10.1
	c0.2,0.5,0.7,1.4,1.2,2.7c0.5,1.4,0.9,2.3,1.4,2.9c2.3,5.3,2.9,9.4,2.3,12.4c-0.7,2.9-2.7,5.3-6.2,6.7c-4.1,1.6-8,1.4-11.9-0.9
	c-3.9-2.3-6.9-6-9.1-11.2c-1.2-2.5-1.6-4.6-1.4-6.2c0.2-1.4,0.9-2.5,2.1-2.9c0.7-0.2,1.2-0.2,1.9,0.2c0.7,0.2,1.2,0.9,1.4,1.6
	c0.2,0.7,0.7,2.5,0.9,5c0.2,2.5,0.7,4.6,1.4,6.4c1.2,2.7,2.7,4.6,4.6,5.7c1.9,1.2,3.9,1.2,6.2,0.2c2.1-0.9,2.9-2.1,3.2-3.6
	c0.2-1.6-0.5-4.3-2.1-8c-0.7-1.4-1.4-2.9-2.1-4.6c-0.9-1.6-1.2-2.7-1.4-2.9c-2.1-4.8-2.5-9.4-1.2-13c1.4-3.9,4.1-6.7,8.2-8.4
	c2.7-1.2,5.7-1.6,8.7-1.2c2.9,0.5,5.7,1.6,8.7,3.6c0.5-2.1,1.4-3.6,2.5-4.8c1.2-1.4,2.5-2.3,4.3-2.9c2.1-0.9,4.1-1.2,6-0.9
	c2.1,0.2,4.3,0.9,6.7,2.3c-0.7-4.1-0.9-7.4-0.2-9.8c0.7-2.5,1.9-4.1,3.9-4.8c1.9-0.9,3.9-0.5,5.7,0.9c1.9,1.4,3.4,3.6,4.8,7.1
	c0.5,1.2,0.7,2.1,1.2,2.9c0.2,0.9,0.5,1.9,0.5,2.7l-1.9,0.5c-0.2-0.9-0.5-1.6-0.7-2.3c-0.2-0.7-0.2-1.2-0.5-1.4
	c-0.9-2.1-1.9-3.6-3.2-4.3c-1.2-0.7-2.5-0.9-3.9-0.2c-1.6,0.7-2.5,1.9-2.9,3.6C382.8,496.8,382.8,499,383.3,502z"/>
<path fill="#1ABC9C" d="M112,351.4h9.4L102,383.5l4.6,11.2c1.6,4.1,3.2,6.9,4.6,8.2c1.4,1.4,2.9,2.3,4.8,2.3s2.9-0.7,3.9-1.6
	c0.9-1.2,1.4-2.9,1.4-5.5h2.3c0,0.7,0,1.4,0.2,1.9c0,0.7,0,1.4,0,2.3c0,3.4-0.7,6.2-2.1,8c-1.4,2.1-3.2,2.9-5.7,2.9
	c-3.4,0-6.7-3.6-9.6-11c-0.7-1.4-1.2-2.7-1.4-3.4l-5.3-12.5L84,413h-9.4l21-35.6l-3.6-9.1c-1.4-3.6-2.9-6.2-4.6-7.7
	c-1.7-1.6-3.4-2.3-5.7-2.3c-1.6,0-2.9,0.5-3.9,1.6c-0.9,1.2-1.4,2.5-1.4,4.3c0,0.2,0,0.2,0,0.5c0,0.3,0,0.5,0,0.7h-2.3
	c0-0.5-0.2-1.2-0.2-1.9c0-0.7,0-1.4,0-2.3c0-3.4,0.7-6,2.1-8s3.4-2.9,5.7-2.9s4.1,0.9,5.7,2.7c1.6,1.9,3.6,6,6.4,12.7l3.9,9.4
	L112,351.4z"/>
<path fill="#1ABC9C" d="M140,101.5l3.4-3.2c1.6-1.6,2.7-2.9,2.9-4.1s0-2.7-0.9-4.3l1.6-1.4c2.5,2.9,3.9,5.7,3.6,8.4
	c0,2.5-1.4,5.3-4.3,7.7l-1.6,1.4l-37.6,35.6l-4.6-4.8l7.7-7.5c-2.7,0-5.3-0.5-7.5-1.6c-2.3-1.2-4.6-2.7-6.9-5.3
	c-4.3-4.6-6.9-9.4-7.4-14.4s0.9-8.9,4.3-12.1c1.9-1.9,4.1-2.5,6.7-2.5c2.5,0,5.3,1.2,8.4,3.2c-1.9-3.2-2.7-6.2-2.7-8.4
	c0-2.5,0.9-4.6,2.9-6.4c3.4-3.2,7.5-4.3,12.5-3.4c5,0.7,9.6,3.4,13.7,7.7c2.3,2.5,3.9,4.8,4.8,7.5C140.2,96.2,140.5,99,140,101.5z
	 M113.9,126.2l22.8-21.5c-0.9-2.1-2.1-3.9-3.4-6s-2.9-3.9-5-6c-4.1-4.3-7.7-7.4-11.2-8.7c-3.2-1.4-6-1.4-7.7,0.5
	c-1.4,1.4-1.9,3.2-1.4,6c0.5,2.5,1.9,4.8,3.9,7.1c0.7,0.7,1.9,1.9,3.9,3.4c1.9,1.6,3.4,2.9,4.6,3.9c1.2,1.2,1.6,2.3,1.9,3.2
	c0,0.9-0.2,1.9-1.2,2.7c-0.9,0.9-1.9,1.2-2.9,1.2c-0.9-0.2-2.1-0.9-3.2-2.1c-0.9-0.9-2.1-2.5-3.4-4.3c-1.4-2.1-2.5-3.4-3.2-4.1
	c-2.1-2.3-4.3-3.6-7.1-4.1c-2.5-0.5-4.6-0.2-6,1.2c-1.6,1.6-1.9,4.1-0.7,7.5c1.4,3.4,3.9,7.1,7.7,11.2c2.1,2.3,4.1,4.1,6,5.7
	C110.1,123.9,112.2,125.2,113.9,126.2z"/>
<path fill="#1ABC9C" d="M376.9,359.8c0.5,1.9,1.4,3.2,2.9,4.3s3.4,1.6,5.5,1.6c3.2,0,5.7-1.4,7.5-4.3c1.9-2.7,2.7-6.7,2.7-11.7
	c0-4.8-0.9-8.9-2.7-11.9c-1.9-2.9-4.3-5.3-8-6.2c-0.2,0-0.5,0.2-0.9,0.5c-2.3,0.9-4.1,1.4-5.3,1.4c-0.9,0-1.6-0.2-2.1-0.7
	s-0.7-1.4-0.7-2.3s0.2-1.6,0.7-2.1s1.4-0.7,2.3-0.7s2.5,0.5,5,1.4c0.5,0.2,0.9,0.5,1.4,0.5c2.1-0.9,3.4-2.3,4.6-4.1
	c0.9-1.9,1.4-4.3,1.4-7.4c0-3.9-0.9-6.9-2.5-9.1c-1.9-2.3-4.1-3.4-6.9-3.4c-3.4,0-6,1.4-7.4,4.1c-1.6,2.7-2.3,7.4-2.3,13.4v63.5
	h-8.2V332c0-9.4,1.6-16.5,5-21.5c3.4-5,8-7.5,14.1-7.5c5,0,8.9,1.4,11.9,3.9c2.9,2.5,4.6,6,4.6,10.3c0,2.9-1.2,5.7-3.2,8
	c-2.1,2.4-5.3,4.1-9.4,5.5c5.7,1.4,10.1,3.6,12.7,6.7c2.9,2.9,4.3,6.9,4.3,11.4c0,5.7-1.6,10.5-5,14.1c-3.4,3.6-7.7,5.5-12.7,5.5
	c-3.4,0-6.2-0.7-8.4-2.3c-2.3-1.6-3.4-3.4-3.9-6L376.9,359.8L376.9,359.8z"/>
<path fill="#1ABC9C" d="M319.5,26.3c-0.5-1.2-0.9-2.1-1.4-2.5c-0.5-0.5-1.2-0.7-1.6-0.7c-1.2,0-2.1,0.5-2.5,1.6s-0.7,2.7-0.7,5.3
	v0.9h-2.1c0-0.2,0-0.5,0-0.9c0-0.5,0-0.7,0-0.9c0-3.6,0.7-6.4,2.1-8.2c1.4-1.9,3.4-2.9,6-2.9c2.3,0,4.3,0.7,5.7,2.1
	c1.4,1.4,2.9,4.1,4.6,8.2l9.1,23c2.7-4.3,4.8-8.2,6.2-11.9c1.4-3.6,1.9-7.4,1.9-11v-2.3c0-2.9,0.5-5,1.4-6.4
	c0.9-1.2,2.3-1.9,4.6-1.9c1.4,0,2.3,0.2,3.2,0.9c0.7,0.7,1.2,1.6,1.2,2.7c0,2.1-2.5,7.7-7.5,16.7s-9.1,16.9-12.4,23.7h-2.5
	L319.5,26.3z"/>
<path fill="#1ABC9C" d="M279.8,119.5c0,4.3,0.5,7.4,1.4,8.7c0.9,1.6,2.5,2.3,4.6,2.3c3.6,0,6.7-2.5,8.9-7.5c2.3-5,3.4-11.4,3.4-18.9
	V92h8.7v30.6c0,2.7,0.2,4.8,0.9,6.2c0.7,1.4,1.4,2.1,2.7,2.1c1.4,0,2.3-0.7,2.9-2.1c0.7-1.4,1.2-3.2,1.2-5.7v-1.4h1.9
	c0,0.2,0,0.5,0,0.9c0,0.2,0,0.7,0,1.2c0,3.4-0.7,6.2-2.3,8c-1.4,1.9-3.4,2.7-6.2,2.7c-3.2,0-5.5-1.4-7.1-3.9
	c-1.6-2.7-2.3-6.7-2.5-12.1c-1.4,5.5-3.4,9.6-5.7,12.1c-2.3,2.5-5.5,3.9-8.9,3.9c-2.7,0-5-0.9-6.9-2.5c-1.9-1.7-2.9-4.1-3.6-7.1
	c0,0.5,0,1.4,0,2.5c0,3.9,0.9,8.2,2.9,13c2.1,4.8,2.9,7.7,2.9,8.4c0,1.2-0.5,2.3-1.2,2.9c-0.7,0.7-1.6,0.9-2.9,0.9
	c-1.4,0-2.5-0.5-2.9-1.6c-0.7-0.9-0.9-2.7-0.9-5c0-0.5,0-2.3,0.2-5.5c0.2-2.9,0.2-5.7,0.2-8.2c0-2.3,0-5.5-0.2-9.4
	c0-4.1-0.2-7.1-0.2-8.9V91.3h8.4L279.8,119.5L279.8,119.5z"/>
<path fill="#1ABC9C" d="M529.2,287.7v5.5h-33.1v-5.5H529.2z"/>
<path fill="#1ABC9C" d="M357,76.1c3.4,2.1,7.5,6.7,7.1,13.2c-0.2,4.1-1.9,7.7-5.5,9.6l5.5,0.2c5,0.2,13.2,0.5,17.2-0.2l-0.5,7.4
	c-2.7,0.9-9.4,0.9-16.7,0.5l-46.6-2.1l0.5-8.2l26.5,1.4c6.9,0.5,12.7-2.3,13.2-9.4c0.2-5.5-3.4-9.4-7.1-11.2
	c-1.2-0.5-2.7-0.9-4.3-0.9L318.8,75l0.5-8.2l32.6,1.6c5,0.2,6.9-0.7,7.4-3.9l6,0.9c0.2,1.2,0.2,1.6,0.2,2.9
	c-0.2,4.1-2.5,7.1-8.4,7.5L357,76.1z"/>
<path fill="#1ABC9C" d="M76.8,538.2c-2.9-3.6-5.3-6.7-8-9.4l5.7-4.6l5,5.4h0.2c-0.9-4.6,0.7-11.2,6.4-15.8c4.8-3.9,14.8-7.1,24.4,5
	l16.7,21l-6.4,5l-16.2-20.3c-4.6-5.7-10.5-8.7-16.5-3.9c-4.1,3.2-5,8.9-3.4,13.2c0.2,1.2,1.2,2.3,2.1,3.4l16.9,21.3l-6.4,5
	L76.8,538.2z M70.4,517.8c-3.9-4.6-4.1-8.9-1.2-11.4c1.6-1.4,3.4-1.6,5.7-2.1c1.6-0.2,3.2-0.5,4.1-1.2c1.2-0.9,1.4-2.1-0.5-4.6
	l3.4-2.7c3.9,4.8,4.3,8.7,0.9,11.4c-1.6,1.4-3.6,1.6-5.7,2.1c-2.1,0.5-3.2,0.5-4.1,1.2c-1.2,0.9-0.7,2.7,0.7,4.8L70.4,517.8z"/>
<path fill="#1ABC9C" d="M412.7,33.1c-0.7-0.2-1.9-0.5-2.7-0.5c-1.6,0-3.2,0.7-4.3,2.1c-1.9,2.3-2.7,6.4-2.7,14.6
	c0,13.4,1.2,29.7,1.2,43.8c0,9.1-1.6,14.6-3.9,17.5c-2.1,2.9-5.3,4.6-8.9,4.6c-2.1,0-4.1-0.5-5-0.9l0.9-5.3c0.9,0.2,2.1,0.5,3.4,0.5
	c1.4,0,2.9-0.7,4.1-2.1c1.6-2.1,2.9-5.5,2.9-14.4c0-14.1-1.2-30.9-1.2-44.3c0-9.4,1.6-14.6,4.8-18.2c2.3-2.5,5-3.4,8.2-3.4
	c1.6,0,3.2,0.2,4.1,0.7L412.7,33.1z"/>
<path fill="#1ABC9C" d="M46.4,316.2h-6l-14.8-39.7l-6.9,2.9l-1.9-4.3l12.7-5.3L41,302c0.7,2.1,1.4,4.3,1.9,6l0,0
	c0.2-1.6,0.7-3.9,1.4-6l17.4-71.8h6.2L46.4,316.2z"/>
<path fill="#1ABC9C" d="M88.4,170.5c-1.4,1.6-4.8,4.6-9.8,6.9l-0.9,4.1c3.4-0.7,7.1,0.5,8.7,3.9c2.1,5.3-1.4,8.9-6.2,10.7
	c-2.1,0.7-4.6,1.4-6.7,0.9l-0.2-4.3c1.6,0.2,3.4,0,5.3-0.7c2.1-0.7,3.4-2.3,2.5-4.3c-0.9-2.3-3.9-2.1-8.2-0.9l0.9-8
	c-11.2,2.9-21.3-2.5-25.8-14.1c-5-12.5,0-25.6,13.7-31.1c4.6-1.9,8.9-2.3,11.4-2.1l0.7,6.4c-2.3-0.2-5.5,0-9.6,1.6
	c-9.6,3.9-11.9,13-8.4,21.7c3.9,9.6,12.4,13,20.8,9.8c4.3-1.9,6.9-3.9,8.4-5.7L88.4,170.5z"/>
<path fill="#1ABC9C" d="M271.6,623l-1.6,8.2l-2.9-0.7l2.9-14.1l2.5,0.5c1.4,5,5.3,9.8,11.2,11c5.5,1.2,12.4-1.9,13.9-9.8
	c1.6-8-3.2-13.7-8.9-14.8c-5.5-1.2-11.7,1.9-14.6,5.7l-2.3-0.5l2.9-14.1l2.9,0.7l-1.6,8.2h0.2c3.2-3.2,8.4-6,13.9-5
	c8.4,1.9,12.7,10.5,10.7,20.6c-2.3,10.5-9.6,15.8-17.4,14.1C277.1,632.1,273.4,627.5,271.6,623L271.6,623L271.6,623z"/>
<path fill="#1ABC9C" d="M66.3,218.3l3.4,2.1v-0.2c-0.7-2.9-0.2-6.7,2.5-10.1c3.9-4.8,9.1-5,13-2.1c5.3,4.1,4.3,11.9-3.4,21.3
	l0.7,0.5c1.2,0.9,5,2.9,8.9-1.9c1.9-2.3,2.9-5,2.9-7.7l3.9,1.4c0,3.4-1.6,7.1-4.1,10.3c-5.7,7.4-12.4,5.3-17.5,1.2l-7.7-6.2
	c-2.1-1.6-4.1-2.9-6-4.1L66.3,218.3z M78.5,226.9c3.9-4.6,7.1-10.5,2.9-13.7c-2.5-2.1-5.5-1.2-7.1,1.4c-1.9,2.3-2.1,5-1.2,7.1
	c0.2,1.2,0.9,1.9,1.4,2.3L78.5,226.9z"/>
<path fill="#1ABC9C" d="M506.2,58.1l30.9,28.5c7.7,7.4,10.5,13,10.3,18.7c0,4.6-1.9,8.9-5.7,13.2c-6,6.4-15.3,8.4-22.8,1.4
	c-2.3-2.3-3.6-5-4.1-6.9c1.6-4.3,1.4-7.7-0.9-10.1c-2.3-2.3-5-2.1-9.1-2.1c-5.3,0.2-10.7,0.2-15.5-4.3c-6.4-6-6.7-14.6,0.5-22.4
	c2.3-2.5,5.3-4.8,8.2-6l3.6,5.3c-2.5,0.9-4.8,2.5-6.7,4.6c-4.1,4.3-3.6,9.1-0.5,12.1c2.9,2.7,6,3.2,10.5,2.9
	c5.5-0.2,10.3-0.5,13.9,3.2c3.4,3.2,4.6,8.2,2.7,13.9c0.5,1.2,1.4,2.3,2.5,3.2c4.8,4.3,10.1,4.1,13.9-0.2c4.8-5.3,3.9-11.7-5.7-20.6
	L501.1,64L506.2,58.1z"/>
<path fill="#1ABC9C" d="M305.4,294.3c2.9-2.3,8-5.5,15.8-5.7c13-0.5,25.1,10.5,26.1,32c0.9,23.7-10.5,36.3-23.5,36.8
	c-12.5,0.5-18.9-8.9-19.4-18.7c-0.5-12.5,7.7-23,19.4-23.5c7.7-0.2,13.4,3.9,15.5,7.5l0,0c0-0.9,0-2.1,0-2.9
	c-0.7-16.5-9.8-24.2-18.5-24c-6.2,0.2-10.3,2.3-12.5,4.3L305.4,294.3z M338.7,329.9c-1.9-4.6-7.1-8.7-13.4-8.4
	c-7.4,0.2-13.2,7.5-12.7,16.5c0.2,8,5,12.7,11.7,12.5C332.5,350.2,338,340.4,338.7,329.9z"/>
<path fill="#1ABC9C" d="M531.6,402.9l2.9,8.7l7.4-1.9c15.5-4.1,34.7-6.2,38.8,5.7c0.7,2.7,0.5,5-0.2,6.9l-10.5,2.1
	c0.5-1.6,0.7-3.4,0-5c-2.1-6-13-5.3-24.7-2.1l-8,2.1l3.6,10.5l-9.8,3.4l-3.9-11.2l-32.5,8.4c-20.8,5.5-35.6,6.4-39-3.9
	c-0.9-2.9-0.7-5.7,0.2-7.7l10.1-1.9c-0.7,1.9-0.7,3.6,0,5.5c1.9,5.5,11,4.6,27.2,0.2l31.3-8.2l-2.7-8L531.6,402.9z"/>
<path fill="#1ABC9C" d="M360.5,620.1l16.9-12.7l0.2,6.7l-16.9,12.7l-17.4-11.9l-0.2-6.7L360.5,620.1z M360.2,605.1l16.9-12.7
	l0.2,6.7l-16.9,12.7L343,599.9l-0.2-6.7L360.2,605.1z"/>
<path fill="#1ABC9C" d="M253.5,116.1l12.4,17.2h-6.7l-12.4-17.2l12.4-17.2h6.7L253.5,116.1z"/>
<path fill="#1ABC9C" d="M251.1,562.8l3.1-1.2l55.4-0.9l-8.3,7.5l-33.9,27.3l-3.2,1.1L251.1,562.8z M285.9,573.3
	c2.6-2.2,6.6-4.9,9-6.7v-0.2c-2.5,0.2-7.2,0.3-10.5,0.5H258l8.6,22.1L285.9,573.3z"/>
<path fill="#1ABC9C" d="M178.6,124.2v26.1h-6V130h-42.1v-5.5C130.7,124.2,178.6,124.2,178.6,124.2z"/>
<path fill="#1ABC9C" d="M450,454.4c-0.2-9.4,4.6-13.9,11-13.9c3.9,0,6.9,1.2,13.2,4.1c4.6,2.3,8,3.9,11.7,3.9c3.4,0,5-2.7,5-7.7h5.5
	c0.5,10.3-4.8,14.1-10.5,14.1c-3.6,0-7.1-1.2-13.4-4.1c-4.3-2.1-7.7-4.1-11.2-4.1s-5.5,2.3-5.5,8L450,454.4L450,454.4z"/>
<path fill="#1ABC9C" d="M349.5,558.5h21.7c6.4,0,9.6-0.5,11.4-0.9v5.3c-1.2,0.7-4.6,0.9-10.7,0.9h-22.4v9.9
	c10.3,0.2,27,2.1,33.3,4.3v5.3c-7.5-2.3-23-4.1-33.3-4.3c0,2.5,0.2,4.6,0.7,6.2l-4.1,0.9c-1.2-1.4-2.1-3.9-2.1-8.9v-24l5.5,0.5
	L349.5,558.5L349.5,558.5z"/>
<path fill="#1ABC9C" d="M300.4,626.3l2.5-18.2h-7.8v-5.5h8.4l1.9-13.4h-8v-5.6h8.9l2.5-17.8h5.5l-2.5,17.8h9.8l2.3-17.8h5.5
	l-2.3,17.8h7.5v5.5h-8.4l-1.6,13.4h8v5.5h-8.9l-2.5,18.2h-5.5l2.5-18.2h-9.6l-2.3,18.2L300.4,626.3L300.4,626.3L300.4,626.3z
	 M318.6,602.6l1.9-13.4h-9.8l-1.9,13.4H318.6z"/>
<path fill="#1ABC9C" d="M143.4,166.9c0,12.7-6.7,19.2-14.4,19.2c-7.5,0-13.9-6-14.1-18c0-12.1,6.4-18.9,14.6-18.9
	C137.9,148.7,143.4,155.1,143.4,166.9z M121.3,167.3c-0.2,7.7,2.7,13.7,8,13.7c5.5,0,7.7-5.7,7.7-13.7c0-7.5-2.1-13.4-8-13.4
	C124,153.8,121.3,159.7,121.3,167.3z M128.3,211.3l35.6-62.8h5.3l-35.6,62.8H128.3z M182.9,191.9c0,12.7-6.7,19.2-14.4,19.2
	c-7.5,0-14.1-6-14.1-18.2c0-12.1,6.7-18.9,14.6-18.9C177.5,173.9,182.9,180.3,182.9,191.9z M160.8,192.4c-0.2,7.7,2.7,13.7,8,13.7
	c5.5,0,7.7-5.7,7.7-13.7c0-7.4-2.1-13.4-8-13.4C163.5,178.6,160.8,184.9,160.8,192.4z"/>
<path fill="#1ABC9C" d="M54.8,413.2c-1.9-1.9-3.4-3.6-6-6c-5.5,4.8-11.4,7.1-18.2,7.1c-12.1,0-19.2-8.2-19.2-17.5
	c0-8.7,5-14.4,12.4-18.2v-0.2c-3.2-4.1-5.3-8.7-5.3-13.2c0-7.7,5.5-15.5,16-15.5c7.7,0,13.9,5,13.9,13.2c0,6.7-3.9,11.9-13.7,16.7
	v0.5c5.3,6.2,11.2,12.7,15.3,17.4c2.9-4.3,4.8-10.5,6-18.2h7.5c-1.6,9.8-4.3,17.5-8.9,23c3.4,3.6,6.7,7.1,10.3,11.2L54.8,413.2
	L54.8,413.2L54.8,413.2z M45,402.2c-3.6-4.1-10.7-11.7-17.5-19.9c-3.4,2.3-8,6.2-8,12.7c0,7.1,5.3,12.5,13,12.5
	C37.5,408,42.1,405.6,45,402.2z M25.8,364.1c0,4.6,2.1,8,4.8,11.4c6.4-3.6,10.5-6.9,10.5-12.4c0-3.9-2.1-8-7.4-8
	C28.5,354.9,25.8,359,25.8,364.1z"/>
<path fill="#1ABC9C" d="M489.5,500.2l25.8-67.4h6.4l-26,67.4H489.5z"/>
<path fill="#1ABC9C" d="M30.9,246.1c-8,6.9-14.1,16.7-16.5,31.3c-2.1,14.4,1.4,25.4,6.7,34.2l-6.2-0.9c-4.8-7.5-9.6-18.7-7.4-34.2
	c2.3-15.8,10.1-25.1,16.9-31.2L30.9,246.1z"/>
<path fill="#1ABC9C" d="M423.7,302.2c-9.6-6-22-10.1-38.6-8.9c-16.7,1.2-28.1,7.1-37,14.1l-0.5-6.4c7.1-6.4,18.7-13.4,37-14.8
	c18.2-1.2,30.6,4.1,38.8,9.6L423.7,302.2z"/>
<path fill="#1ABC9C" d="M318.4,119.8l0.9-5.5l47.3,8.2l-0.9,5.5L318.4,119.8z M315.4,137.5l0.9-5.5l47.3,8.2l-0.9,5.5L315.4,137.5z"
	/>
<path fill="#1ABC9C" d="M63,362.7l-0.9-2.3c-2.1-4.6-2.3-10.3,0.5-17.2c2.5-6,3.4-10.3,2.1-14.1c-1.6-4.6-5.3-6.7-11-4.8
	c-3.2,1.2-6.4,3.4-8,5.7l-3.9-4.8c2.3-3.2,6.9-6.2,11.4-7.7c10.1-3.4,16.9,1.4,19.2,8c2.1,6,0,11.4-2.5,17.8
	c-2.3,6-2.5,10.3-0.7,14.8l0.9,2.1L63,362.7z M65.3,375.7c-1.2-3.2,0.2-6.2,3.4-7.4s6,0.5,7.1,3.9c0.9,3.2-0.2,6.2-3.4,7.4
	C69.4,380.6,66.5,378.6,65.3,375.7z"/>
<path fill="#1ABC9C" d="M24.7,335.2c0,7.5-6,12.5-12.5,12.5c-7.4,0-12.2-5.6-12.2-12.3c0-7.1,5.5-12.5,12.5-12.5
	C20.1,323,24.7,328.6,24.7,335.2z M5,335.5c0,4.3,2.9,7.5,7.4,7.5s7.4-3.4,7.4-8c0-3.4-2.1-7.7-7.5-7.7C7.4,327.4,5,331.4,5,335.5z"
	/>
<path fill="#1ABC9C" d="M385.3,24.5c0,3.2-2.1,5.7-5.5,5.7c-3.2,0-5.5-2.5-5.5-5.7c0-3.4,2.3-6,5.5-6
	C383,18.8,385.3,21.1,385.3,24.5z M375.3,82.4l1.4-44.3h6.4l1.4,44.3H375.3z"/>
<path fill="#1ABC9C" d="M235.7,495.6c-2.3,1.6-4.8,4.8-6.4,9.4c-1.9,5.3-0.7,10.1,3.2,11.4c4.6,1.6,7.7-2.3,12.4-8
	c5.5-7.1,11-12.1,18.7-9.4c4.6,1.6,7.1,5,8.7,9.4c1.9-0.9,5.3-1.9,8.9-0.5c9.1,3.2,10.1,13,7.4,21.3c-1.9,5.3-5,10.1-8.4,12.5
	l-4.3-3.9c2.3-1.6,5.7-5.3,7.5-10.5c2.1-5.5,0.9-10.5-3.6-12.4c-4.1-1.4-7.4,0.2-13,7.5c-6.2,7.7-11.7,13-19.2,10.3
	c-3.4-1.2-6.7-4.3-8-10.1c-2.1,1.4-5.5,1.6-8.4,0.7c-7.7-2.7-10.1-11.4-6.9-20.6c1.9-5,4.6-8.7,7.1-11.2L235.7,495.6z M260.4,520.1
	c3.2-3.9,5.7-6.9,7.7-8.4c-0.9-2.7-2.7-4.8-5.5-5.7c-3.4-1.2-6.9,0-11,4.8c-2.5,2.9-5.5,6.9-8.2,9.1c0.9,3.4,2.7,5.5,5.5,6.4
	C252,527.6,255.4,526.2,260.4,520.1z"/>
<path fill="#1ABC9C" d="M403.3,154.6c-4.8,4.6-9.6,9.8-17.4,9.8s-13.2-5.7-13.2-13.7c0-7.5,6-13.7,13.9-13.7
	c7.1,0,12.1,5.5,16.7,9.8c4.8-4.8,9.6-9.8,17.4-9.8c7.7,0,13.2,5.7,13.2,13.7c0,7.4-6,13.7-14.1,13.7
	C412.9,164.4,407.6,159,403.3,154.6z M399.5,150.7c-3.6-3.4-7.5-8.2-12.7-8.2c-4.6,0-8.2,3.9-8.2,8.2c0,4.6,3.4,8,8,8
	C391.7,159,396.1,154.5,399.5,150.7z M428,150.7c0-4.8-3.4-8.2-8-8.2c-5.3,0-9.6,4.6-13,8.2c3.6,3.2,7.5,8,13,8
	C424.6,159,428,155.1,428,150.7z"/>
<path fill="#1ABC9C" d="M138.1,532.8c-0.7-4.6,0.5-11,4.3-15.3c3.6-3.9,7.5-5,10.7-6.4c2.7-1.4,6.4-2.3,9.6-5.5
	c2.9-3.2,3.6-8,3.4-11.7l5,0.2c0.5,4.6-0.5,11-4.6,15.3c-3.6,3.9-7.5,5-10.5,6.2c-2.7,1.4-6.4,2.3-9.6,5.5
	c-2.9,3.2-3.6,8.2-3.4,11.7L138.1,532.8L138.1,532.8z M124.5,520.8c-0.7-4.8,0.5-11.2,4.3-15.3c3.6-3.9,7.5-5,10.5-6.4
	c2.7-1.4,6.4-2.1,9.6-5.7c2.9-2.9,3.6-8,3.4-11.7l5,0.5c0.5,4.6-0.7,11-4.6,15.3c-3.6,3.9-7.5,5-10.5,6.4c-2.7,1.4-6.4,2.3-9.6,5.5
	c-2.9,3.2-3.6,8-3.4,11.7L124.5,520.8z"/>
<path fill="#1ABC9C" d="M80.4,299.2l-12.7-3.9l-1.6-6l12.7,4.3l-3.4-13l5.5-1.4l4.3,16.5l14.6,4.8l-6.4-24.7l5.5-1.4l7.4,27.8
	l12.7,3.9l1.6,6l-12.7-4.3l3.4,13l-5.5,1.4l-4.3-16.5l-14.6-4.6l6.3,24.5l-5.5,1.4L80.4,299.2z"/>
<path fill="#1ABC9C" d="M158.7,438.6L145.5,451l14.4,15.5l-4.1,3.9l-14.4-15.3l-13.7,12.5l-4.1-4.3l13.7-12.7l-14.4-15.3l4.1-3.9
	l14.4,15.3l13.2-12.4L158.7,438.6z M138.4,486.3l-4.1,3.9L101.7,455l4.1-3.9L138.4,486.3z"/>
<path fill="#1ABC9C" d="M385.6,620.6v-74.3h17.2v5h-10.6v63.9h10.5v5L385.6,620.6L385.6,620.6z"/>
<path fill="#1ABC9C" d="M179.7,279.4v74.2h-16.9v-5.3h10.5v-63.9h-10.5v-5H179.7L179.7,279.4z"/>
<path fill="#1ABC9C" d="M390.8,398.4c0-3.4,2.3-6,5.5-6c3.2,0,5.5,2.5,5.5,6c0,3.2-2.3,5.7-5.7,5.7
	C393.1,404.1,390.8,401.5,390.8,398.4z"/>
<path fill="#1ABC9C" d="M469.3,109.9c0-3.4,2.3-6,5.5-6c3.2,0,5.5,2.5,5.5,6c0,3.2-2.3,5.7-5.7,5.7
	C471.4,115.7,469.3,113.1,469.3,109.9z"/>
<path fill="#1ABC9C" d="M517.8,485.3c0-3.4,2.3-6,5.5-6s5.5,2.5,5.5,6c0,3.2-2.3,5.7-5.7,5.7C520.1,491.2,517.8,488.5,517.8,485.3z"
	/>
<path fill="#1ABC9C" d="M423,354.3c0-3.4,2.3-6,5.5-6s5.5,2.5,5.5,6c0,3.2-2.3,5.7-5.7,5.7C425.3,360,423,357.5,423,354.3z"/>
<g>
	<path fill="#1ABC9C" d="M203,564.2h-2.7l1.4-18.9h55l-44.3,67.8h22.9c7.4,0,12.4-1.2,15.3-3.2c2.9-2.3,5-6.4,6.4-12.4h2.7
		l-3.4,20.1h-60.1l44.1-67.8h-19.6c-6.7,0-11,0.9-13.2,2.9C205.3,554.6,203.9,558.5,203,564.2z"/>
</g>
<path fill="#1ABC9C" d="M47.3,416.7c1.4,5.5,4.8,5.5,7.5,4.8c2.3-0.7,4.3-1.4,6.2-2.3c2.3-0.9,4.3-1.9,6.4-2.3
	c7.1-2.1,11.4,2.1,13.2,8.7l0.5,1.6l-4.3,1.2l-0.2-1.4c-1.4-4.6-4.1-5.5-8.4-4.3c-1.9,0.5-3.6,1.4-5.5,2.1c-1.9,0.9-3.6,1.6-5.7,2.3
	c-5,1.4-8-0.2-10.1-3.4h-0.2c0,3.6-2.1,6.7-6.9,8c-2.1,0.5-4.1,0.9-6.2,0.9c-2.1,0.2-3.9,0.5-5.7,0.9c-4.3,1.2-6.2,3.6-5,8l0.2,1.4
	l-4.3,1.2l-0.5-1.6c-1.9-6.4-0.2-12.1,7.5-14.1c2.1-0.5,4.3-0.9,6.7-0.9c2.3-0.5,4.3-0.7,6.4-1.2c2.5-0.7,5.7-2.3,4.1-7.7
	L47.3,416.7z"/>
<path fill="#1ABC9C" d="M282.1,17.6c0.2,3.9,2.9,4.3,4.8,4.3c1.6,0,3.4-0.2,5-0.7c1.6-0.2,3.4-0.7,5-0.7c6.4-0.2,8.7,3.2,8.9,7.7
	v1.2l-3.4,0.2v-0.9c-0.2-3.2-2.1-4.3-5.7-4.3c-1.4,0-2.9,0.2-4.6,0.5c-1.6,0.2-3.2,0.7-4.8,0.7c-4.1,0.2-6.2-1.4-7.1-3.9H280
	c-0.7,2.5-2.5,4.1-6.7,4.3c-1.6,0-3.2,0-4.8-0.2c-1.6,0-2.9-0.2-4.6-0.2c-3.4,0-5.3,1.4-5.3,4.6v0.9l-2.9,0.5v-1.2
	c-0.2-4.8,2.1-8.2,8-8.4c1.6,0,3.4,0,5.3,0.2c1.6,0.2,3.4,0.2,5.3,0.2c2.3,0,4.6-0.7,4.6-4.8H282.1L282.1,17.6z"/>
<path fill="#1ABC9C" d="M122.8,559.1c0,6.2-3.2,9.4-7.1,9.4c-3.6,0-6.9-2.9-7.1-8.9c0-6,3.2-9.4,7.4-9.4
	C120.1,550.2,122.8,553.4,122.8,559.1z M112,559.3c0,3.9,1.4,6.7,3.9,6.7c2.7,0,3.9-2.9,3.9-6.9c0-3.6-1.2-6.7-3.9-6.7
	C113.3,552.7,112,555.7,112,559.3z M115.6,581.1l17.5-31.1h2.5l-17.5,31.1H115.6z M142.3,571.6c0,6.4-3.2,9.4-7.1,9.4
	c-3.9,0-6.9-2.9-7.1-8.9c0-6,3.2-9.4,7.4-9.4C139.8,562.5,142.3,565.7,142.3,571.6z M131.4,571.8c0,3.9,1.4,6.7,3.9,6.7
	c2.7,0,3.9-2.9,3.9-6.9c0-3.6-1.2-6.7-3.9-6.7C132.9,565,131.4,568.1,131.4,571.8z"/>
<path fill="#1ABC9C" d="M122.6,340.4l-18.9,8.9c-4.8,2.3-8,2.3-10.5,1.4c-2.3-0.9-3.9-2.5-5-5c-1.9-3.9-0.9-8.7,3.6-10.7
	c1.4-0.7,2.9-0.7,3.9-0.7c1.6,1.6,3.4,2.1,4.8,1.4s1.9-1.9,2.7-3.9c0.9-2.5,1.9-5,4.8-6.4c3.9-1.9,8-0.2,10.3,4.3
	c0.7,1.6,1.4,3.4,1.2,4.8l-3.2,0.7c0-1.4-0.2-2.7-0.9-3.9c-1.4-2.7-3.4-3.4-5.5-2.5c-1.9,0.9-2.5,2.3-3.2,4.3
	c-0.9,2.5-1.6,4.8-4.1,6c-2.1,0.9-4.6,0.5-6.9-1.4c-0.7,0-1.4,0.2-2.1,0.5c-2.9,1.4-3.6,3.9-2.5,6.4c1.6,3.2,4.6,3.9,10.5,1.2
	l19.2-8.9L122.6,340.4z"/>
<path fill="#1ABC9C" d="M100.3,417.8c0.2,0.2,0.7,0.5,0.9,0.7c2.9,2.3,5,3.9,6.2,4.8l1.6,1.2c2.3,1.6,3.9,2.7,4.6,2.9
	c0.7,0.2,1.4,0,1.9-0.7c0.7-0.7,0.7-1.6,0-2.7c-0.5-0.9-1.6-2.1-3.2-3.4l0.7-1.2l0.2,0.2c2.3,1.6,3.6,3.2,4.1,4.8s0.2,2.9-0.9,4.6
	c-1.2,1.6-2.5,2.3-4.1,2.1c-1.6-0.2-4.1-1.6-7.7-4.1c-0.5-0.2-1.6-1.2-3.2-2.5c-1.9-1.4-3.2-2.5-4.3-3.4c-0.5,0.5-0.9,1.2-1.6,2.1
	s-1.6,1.9-2.5,3.2c6.4,4.8,10.5,8.2,12.4,10.5s2.1,4.1,0.9,5.7c-0.7,0.9-1.6,1.4-2.7,1.4s-2.5-0.7-4.1-1.9l-0.7-0.7l0.7-0.9
	c0.7,0.5,1.4,0.7,2.1,0.9c0.5,0,0.9-0.2,1.4-0.7c0.9-1.2,0.7-2.5-0.9-4.3c-1.4-1.9-4.6-4.6-9.8-8.4l-0.7,0.8
	c-0.7,1.2-1.2,2.1-1.4,2.9c0,0.9,0.2,1.6,0.9,2.3l-0.7,0.9c-1.9-1.6-2.7-2.9-2.7-4.6c0-1.6,0.9-3.4,2.5-6c0.5-0.5,1.4-1.9,3.2-4.1
	s3.4-4.3,4.8-6.4c0.7-0.9,1.2-1.6,1.2-2.3s0-1.2-0.5-1.4l0,0l0.7-0.9l0,0c1.4,1.2,2.3,2.1,2.5,3.2c0.3,1.2-0.2,2.5-1.4,3.9
	c-0.2,0.2-0.2,0.5-0.5,0.7C100.5,417.4,100.5,417.6,100.3,417.8z"/>
<path fill="#1ABC9C" d="M88.4,488l-1.4,0.2c0,0,0,0,0-0.2c-0.2-0.7-0.2-1.2-0.5-1.6c-0.2-1.9-0.2-3.4,0.5-4.8
	c0.7-1.4,1.6-2.1,2.9-2.3c1.2-0.2,2.3,0,2.9,0.5c0.9,0.5,1.9,1.6,2.5,3.2l7.7,14.1l5.3-21l5.7-0.9l-7.4,29.2l1.9,3.2
	c0.9,1.6,1.6,2.5,2.5,2.9c0.9,0.5,1.9,0.7,2.9,0.5c1.1-0.2,2.1-0.7,2.5-1.2c0.5-0.7,0.7-1.4,0.7-2.3l1.2-0.2c0,0.2,0,0.2,0,0.5
	c0,0.3,0,0.2,0,0.5c0.2,1.9,0.2,3.4-0.5,4.8s-1.9,2.1-3.2,2.3c-1.4,0.2-2.7,0-3.6-0.7c-0.9-0.7-2.3-2.5-3.9-5.5l-11.2-20.3
	c-1.2-2.1-2.1-3.4-2.9-4.1c-0.7-0.7-1.9-0.7-2.7-0.7c-0.9,0.2-1.6,0.7-2.1,1.2C88.4,486.3,88.1,487.3,88.4,488z"/>
<path fill="#1ABC9C" d="M545.7,566.9c-2.3-3.2-4.8-2.1-6.4-0.9c-1.4,0.9-2.5,2.1-3.9,3.2c-1.4,1.2-2.5,2.3-4.1,3.4
	c-5.3,3.6-9.1,2.1-11.7-1.6l-0.7-0.9l2.9-2.1l0.5,0.9c1.9,2.5,4.1,2.5,7.1,0.5c1.2-0.9,2.3-1.9,3.4-2.9c1.2-1.2,2.3-2.3,3.6-3.2
	c3.2-2.3,6-2.3,8-0.5h0.2c-0.9-2.5,0-4.8,3.2-7.4c1.4-0.9,2.7-1.6,4.1-2.3c1.4-0.7,2.7-1.4,3.9-2.3c2.7-2.1,3.6-3.9,1.9-6.9
	l-0.5-0.7l2.9-2.1l0.7,0.9c2.7,3.9,2.5,8-2.3,11.4c-1.4,0.9-2.9,1.9-4.6,2.7c-1.6,0.7-3.2,1.6-4.6,2.5c-1.9,1.2-3.4,3.2-1.4,6.4
	L545.7,566.9z"/>
</svg>
