<?xml version="1.0" encoding="utf-8"?>
<!-- Generator: Adobe Illustrator 18.1.1, SVG Export Plug-In . SVG Version: 6.00 Build 0)  -->
<svg version="1.1" id="Layer_2" xmlns="http://www.w3.org/2000/svg" xmlns:xlink="http://www.w3.org/1999/xlink" x="0px" y="0px"
	 viewBox="16.4 0 74.5 79.1" enable-background="new 16.4 0 74.5 79.1" xml:space="preserve">
<text transform="matrix(1 0 0 1 -10.3421 157.5332)" display="none" fill="#E6E6E6" enable-background="new    " font-family="'Arial-Black'" font-size="77.9685">G</text>
<path fill="#FFFFFF" d="M78.3,43c1.2,0,2.1,0.4,2.8,1.1c0.7,0.8,1.1,1.8,1.1,3s-0.4,2.2-1.1,3c-0.7,0.8-1.7,1.1-2.8,1.1
	c-1.2,0-2.1-0.4-2.9-1.1c-0.7-0.8-1.1-1.8-1.1-3s0.4-2.2,1.1-3C76.2,43.4,77.1,43,78.3,43z M80.9,47.1c0-1.1-0.2-2-0.7-2.7
	c-0.5-0.7-1.1-1-1.9-1c-0.8,0-1.4,0.3-1.9,1c-0.5,0.7-0.7,1.6-0.7,2.7c0,1.1,0.2,2,0.7,2.7c0.5,0.7,1.1,1,1.9,1c0.8,0,1.4-0.3,1.9-1
	C80.6,49.1,80.9,48.3,80.9,47.1z M77.8,46.6h1c0.4,0,0.6-0.1,0.8-0.2c0.1-0.1,0.2-0.3,0.2-0.6h0.3v2.5h-0.3c0-0.3-0.1-0.5-0.2-0.6
	c-0.1-0.1-0.4-0.2-0.8-0.2h-1c-0.4,0-0.6,0.1-0.8,0.2c-0.1,0.1-0.2,0.3-0.2,0.6h-0.3v-2.5h0.3c0,0.3,0.1,0.5,0.2,0.6
	C77.2,46.6,77.4,46.6,77.8,46.6z"/>
<path fill="#FFFFFF" d="M48.3,18.2c0.3-0.3,0.5-0.5,0.5-0.7c0-0.2-0.1-0.5-0.3-0.8l0.2-0.2l1.3,1.6l-2.5,2.1l-1.4-1.7
	c0.4-0.5,0.6-1,0.6-1.6c0-0.6-0.3-1.2-0.7-1.8c-0.5-0.6-1.1-1-1.8-1.1c-0.7-0.1-1.3,0.1-1.9,0.6s-0.9,1.1-1,1.8
	c-0.1,0.7,0.2,1.4,0.7,2c0.4,0.6,1,0.9,1.6,1.1c0.6,0.2,1.1,0.1,1.7-0.2l1.4,1.7L44.1,23l-1.3-1.6l0.2-0.2c0.3,0.3,0.5,0.5,0.7,0.5
	c0.2,0,0.4-0.1,0.8-0.4l1.1-0.9l-0.4-0.6c-0.9,0.5-1.6,0.6-2.4,0.6c-0.7-0.1-1.4-0.5-1.9-1.1c-0.6-0.7-0.8-1.6-0.6-2.5
	c0.2-0.9,0.8-1.8,1.7-2.5c0.9-0.8,1.9-1.1,2.8-1.1c0.9,0,1.7,0.4,2.3,1.1c0.5,0.6,0.7,1.3,0.7,2.1c-0.1,0.7-0.4,1.5-1,2.2l0.4,0.6
	L48.3,18.2z"/>
<path fill="#FFFFFF" d="M81,66.2l2.9,0.2c0.3,0,0.5,0,0.6-0.1c0.1-0.1,0.2-0.4,0.2-0.7l0.2,0l-0.2,2.8l-0.2,0c0-0.4,0-0.6-0.1-0.7
	s-0.3-0.2-0.6-0.2l-2.9-0.2c0,0.6,0.1,1,0.3,1.2c0.2,0.2,0.6,0.4,1.2,0.4l0.8,0.1c0.6,0,0.9,0.2,1.1,0.4c0.2,0.2,0.3,0.5,0.3,0.9
	c0,0.1,0,0.2,0,0.3c0,0.1,0,0.2-0.1,0.2l-0.2,0l0-0.2c0-0.2,0-0.3-0.2-0.4c-0.1-0.1-0.4-0.2-0.8-0.2l-1-0.1
	c-0.6-0.1-1.1-0.3-1.4-0.7c-0.3-0.4-0.4-1.1-0.4-1.9l-0.9-0.1c-0.3,0-0.5,0-0.6,0.1c-0.1,0.1-0.2,0.4-0.2,0.7l-0.2,0l0.2-2.8l0.2,0
	c0,0.4,0,0.6,0.1,0.7c0.1,0.1,0.3,0.2,0.6,0.2l0.9,0.1c0.1-0.8,0.3-1.4,0.7-1.8c0.4-0.4,0.9-0.6,1.5-0.5l1,0.1c0.4,0,0.7,0,0.8-0.1
	c0.1-0.1,0.2-0.2,0.2-0.4l0-0.2l0.2,0c0,0.1,0,0.2,0,0.2s0,0.2,0,0.3c0,0.4-0.2,0.7-0.4,0.9c-0.2,0.2-0.6,0.2-1.2,0.2l-0.8-0.1
	c-0.6-0.1-1,0-1.2,0.2C81.3,65.3,81.1,65.7,81,66.2z"/>
<path fill="#FFFFFF" d="M70.4,59.2c-0.2,0.3-0.2,0.6-0.2,0.7c0,0.1,0,0.2,0.2,0.3c0.1,0,0.1,0.1,0.2,0.1c0.1,0,0.2,0,0.3,0l3.1-0.2
	l-1.4-2.5l0,0c-0.2-0.4-0.4-0.6-0.4-0.6c-0.1-0.1-0.2-0.1-0.3,0c-0.1,0.1-0.2,0.2-0.4,0.5l-0.2-0.1l1.2-2.1l0.2,0.1
	c-0.1,0.2-0.1,0.4-0.1,0.6c0,0.2,0.2,0.5,0.4,0.9l1.8,3.3l2.1,1.2c0.3,0.2,0.5,0.2,0.7,0.2c0.2-0.1,0.4-0.3,0.6-0.6l0.2,0.1l-1.7,3
	l-0.2-0.1l0-0.1c0.2-0.4,0.3-0.6,0.2-0.8c-0.1-0.2-0.2-0.4-0.6-0.6l-1.9-1.1l-4.3,0.4c-0.3,0-0.5,0.1-0.6,0.2
	c-0.2,0.1-0.3,0.3-0.5,0.5l-0.2-0.1l1.7-3.1L70.4,59.2z"/>
<path fill="#FFFFFF" d="M28.8,19c0-0.4-0.1-0.7-0.2-0.8c-0.2-0.2-0.4-0.2-0.9-0.2v-0.2h3.3V18c-0.4,0-0.7,0.1-0.9,0.2
	C30.1,18.4,30,18.6,30,19v5.3c0,0.4,0.1,0.7,0.2,0.8c0.2,0.2,0.4,0.2,0.9,0.2v0.2h-3.3v-0.2c0.4,0,0.7-0.1,0.9-0.2
	c0.2-0.2,0.2-0.4,0.2-0.9V19z"/>
<path fill="#FFFFFF" d="M68.4,66.7c0-1.2,0.4-2.2,1.1-3s1.6-1.1,2.8-1.1c1.1,0,2.1,0.4,2.8,1.1c0.7,0.8,1.1,1.8,1.1,3
	c0,1.2-0.4,2.2-1.1,3c-0.7,0.8-1.6,1.1-2.8,1.1c-1.1,0-2.1-0.4-2.8-1.1C68.7,68.9,68.4,67.9,68.4,66.7z M72.2,63
	c-0.8,0-1.4,0.3-1.8,1c-0.5,0.7-0.7,1.6-0.7,2.7s0.2,2,0.7,2.7s1.1,1,1.8,1c0.8,0,1.4-0.3,1.8-1c0.4-0.7,0.7-1.6,0.7-2.7
	c0-1.1-0.2-2-0.7-2.7C73.6,63.3,73,63,72.2,63z"/>
<path fill="#FFFFFF" d="M48.5,1.8c-0.4,0.2-0.6,0.3-0.7,0.5c-0.1,0.2-0.1,0.4,0.1,0.8l1.7,4.4C49.7,7.8,49.8,8,50,8.1s0.4,0,0.9-0.1
	l0.1,0.2l-3,1.1l-0.1-0.2c0.4-0.2,0.6-0.3,0.7-0.5c0.1-0.2,0.1-0.4-0.1-0.8l-1.6-4.2C46.7,3.2,46.6,3,46.4,3c-0.2-0.1-0.5,0-1,0.2
	l-0.9,0.4C44,3.7,43.7,3.8,43.6,4c-0.1,0.2-0.1,0.4,0.1,0.8L45.3,9c0.1,0.4,0.3,0.6,0.5,0.6s0.5,0,0.9-0.1l0.1,0.2l-3,1.1l-0.1-0.2
	c0.4-0.2,0.6-0.3,0.7-0.5c0.1-0.2,0.1-0.4-0.1-0.8L42.6,5c-0.1-0.3-0.3-0.5-0.4-0.6c-0.2-0.1-0.5,0-0.9,0.1l-0.1-0.2l7.3-2.8
	L48.5,1.8z"/>
<path fill="#FFFFFF" d="M91.2,37.7h-0.3c-0.1-0.6-0.2-1-0.6-1.3c-0.3-0.3-0.8-0.4-1.4-0.4h-2.3l2.9,3.2v0.2l-3.1,3h3.5
	c0.4,0,0.6-0.1,0.7-0.2c0.1-0.2,0.2-0.4,0.2-0.8h0.3v2.2h-6.4v-0.3l3.6-3.5L85,35.8v-0.3h6.2L91.2,37.7L91.2,37.7z"/>
<path fill="#FFFFFF" d="M83.2,73.2l-6.2,3l-0.6-8.7l0.2-0.1L83.2,73.2z M77.5,75.3l4-2l-4.4-3.9L77.5,75.3z"/>
<path fill="#FFFFFF" d="M26.4,54.3c-0.5,0-0.8,0.1-0.9,0.2c-0.2,0.1-0.2,0.4-0.2,0.8v0.1c1.1,0,2,0.3,2.6,0.8
	c0.6,0.5,0.9,1.1,0.9,1.9c0,0.7-0.3,1.4-0.9,1.8c-0.6,0.5-1.5,0.7-2.6,0.8v0.1c0,0.4,0.1,0.6,0.2,0.8c0.2,0.2,0.5,0.2,0.9,0.2v0.2
	h-3.6v-0.2c0.5,0,0.8-0.1,0.9-0.2c0.2-0.2,0.2-0.4,0.2-0.8v-0.1c-1.1-0.1-2-0.4-2.6-0.8c-0.6-0.5-0.9-1.1-0.9-1.8
	c0-0.8,0.3-1.4,0.9-1.9c0.6-0.5,1.5-0.7,2.6-0.8v-0.1c0-0.4-0.1-0.6-0.2-0.8s-0.5-0.2-1-0.2V54h3.6L26.4,54.3L26.4,54.3L26.4,54.3z
	 M23.9,55.6c-0.7,0.1-1.3,0.3-1.6,0.7c-0.4,0.4-0.5,0.9-0.5,1.6c0,0.7,0.2,1.3,0.5,1.6s0.9,0.6,1.6,0.7V55.6z M25.2,55.6v4.7
	c0.7-0.1,1.2-0.3,1.6-0.7c0.4-0.4,0.5-0.9,0.5-1.6c0-0.7-0.2-1.3-0.5-1.6C26.4,55.9,25.9,55.7,25.2,55.6z"/>
<path fill="#FFFFFF" d="M75.2,10.4l0.1-0.2c0.6,0,1.1,0,1.4-0.2C77,9.8,77.3,9.4,77.5,9l0.5-1.2c0.1-0.3,0.2-0.6,0.2-0.7
	c0-0.2-0.2-0.3-0.6-0.4l-4.9-2c-0.4-0.2-0.7-0.2-0.9-0.1s-0.4,0.4-0.6,0.9l-0.2-0.1l1.4-3.6L72.6,2c-0.2,0.5-0.2,0.8-0.2,1
	c0.1,0.2,0.3,0.4,0.7,0.6l4.8,1.9c0.4,0.2,0.8,0.2,1,0.2c0.2-0.1,0.4-0.4,0.6-0.8l0-0.1l0.2,0.1l-2.4,6.1L75.2,10.4z"/>
<path fill="#FFFFFF" d="M39.2,51.9c0.2-0.3,0.2-0.6,0.2-0.8c-0.1-0.2-0.2-0.4-0.5-0.6c0,0-0.1,0.1-0.1,0.2c-0.2,0.3-0.2,0.4-0.3,0.5
	c-0.7,1.2-1.4,1.9-2.2,2.3s-1.6,0.3-2.3-0.2c-0.7-0.4-1.1-0.9-1.2-1.5c-0.1-0.6,0.1-1.3,0.6-2.1l0.5-0.9c0.2-0.3,0.3-0.6,0.3-0.7
	c0-0.2-0.1-0.3-0.2-0.4c-0.2-0.1-0.3-0.1-0.5,0c-0.2,0.1-0.3,0.3-0.5,0.5l-0.2-0.1c0,0,0.1-0.1,0.1-0.2c0.2-0.3,0.4-0.5,0.7-0.6
	c0.3-0.1,0.6-0.1,0.9,0.1c0.4,0.2,0.6,0.6,0.7,0.9c0,0.4-0.1,0.9-0.5,1.4L34,51c-0.3,0.5-0.5,1-0.4,1.3c0,0.4,0.2,0.6,0.6,0.9
	c0.4,0.3,0.9,0.3,1.2,0c0.4-0.2,0.9-0.8,1.4-1.7l1-1.6l-0.2-0.1c-0.8-0.5-1.4-1-1.7-1.6c-0.3-0.6-0.3-1.1,0-1.6
	c0.2-0.4,0.6-0.6,1.1-0.7c0.4-0.1,0.9,0,1.4,0.3c0.7,0.4,1.1,1,1.2,1.7c0.1,0.7-0.1,1.6-0.5,2.5c0.4,0.3,0.6,0.5,0.7,0.8
	c0.1,0.3,0,0.6-0.2,1L39.2,51.9z M38,49.6l0.1-0.2c0.5-0.8,0.7-1.4,0.8-1.9c0-0.5-0.2-0.9-0.5-1.1c-0.3-0.2-0.5-0.2-0.8-0.1
	s-0.5,0.3-0.6,0.6c-0.3,0.5-0.4,1-0.2,1.5c0.2,0.5,0.6,0.9,1.2,1.3L38,49.6z"/>
<path fill="#FFFFFF" d="M85.5,57.6c-0.4-0.4-0.8-0.7-1-0.8c-0.2-0.1-0.5-0.1-0.7,0l-0.1-0.2l2.9-1.2l0.1,0.2
	c-0.3,0.2-0.5,0.3-0.6,0.4c-0.1,0.1-0.1,0.2-0.1,0.4c0.1,0.3,1.1,1.3,3.1,3.2l1,0.9v-4.9c0-0.2,0-0.3,0-0.4c0-0.2,0-0.2-0.1-0.3
	c-0.1-0.2-0.2-0.3-0.3-0.3c-0.1,0-0.4,0-0.7,0.2L89,54.4l2.1-0.9l0.1,0.2c-0.2,0.1-0.3,0.2-0.4,0.4c-0.1,0.2-0.1,0.6-0.1,1.1l0,7.2
	l-0.3,0.1L85.5,57.6z"/>
<path fill="#FFFFFF" d="M72.9,36.8l-0.1,3.8c0,0.4,0.1,0.7,0.2,0.8c0.2,0.2,0.4,0.2,0.8,0.3v0.3l-2.2-0.1l0.2-6.4l2.2,0.1v0.3
	c-0.4,0-0.7,0.1-0.8,0.2C73,36.1,72.9,36.4,72.9,36.8z M77.4,41.9v-0.3c0.4,0,0.7-0.1,0.8-0.2c0.1-0.2,0.2-0.4,0.2-0.8l0.1-3.7
	c0-0.4-0.1-0.7-0.2-0.8c-0.2-0.2-0.4-0.2-0.8-0.3v-0.3l2.2,0.1L79.5,42L77.4,41.9z M76.3,38.1l0,1.2c0,0.4,0,0.7,0.2,0.9
	c0.1,0.2,0.3,0.2,0.6,0.2v0.3l-2.6-0.1v-0.3c0.3,0,0.5-0.1,0.6-0.2c0.1-0.2,0.2-0.4,0.2-0.8l0-1.2c0-0.4,0-0.7-0.2-0.8
	c-0.1-0.2-0.3-0.2-0.6-0.3v-0.3l2.6,0.1v0.3c-0.3,0-0.5,0.1-0.6,0.2C76.3,37.4,76.3,37.7,76.3,38.1z"/>
<path fill="#FFFFFF" d="M40.4,63.3l-2-2.7c-0.3-0.4-0.6-0.7-0.7-0.8c-0.2-0.1-0.4-0.2-0.7-0.2h-0.1v-0.2h3.6v0.2h-0.1
	c-0.3,0-0.5,0-0.6,0.1c-0.1,0.1-0.2,0.1-0.2,0.2c0,0.1,0,0.1,0,0.2c0,0.1,0.1,0.2,0.2,0.3l1.4,2l1.4-1.7c0.1-0.1,0.2-0.3,0.3-0.4
	c0.1-0.1,0.1-0.2,0.1-0.3c0-0.1-0.1-0.2-0.2-0.2c-0.1-0.1-0.3-0.1-0.6-0.1v-0.2H45v0.2h-0.1c-0.3,0-0.5,0.1-0.7,0.2
	c-0.2,0.1-0.5,0.4-0.7,0.7l-1.9,2.3l2.3,3.3c0.2,0.3,0.4,0.6,0.6,0.7c0.2,0.2,0.5,0.2,0.7,0.2v0.2h-3.6V67c0,0,0,0,0.1,0
	c0.6,0,0.9-0.2,0.9-0.4c0-0.1,0-0.2-0.1-0.3c-0.1-0.1-0.2-0.3-0.3-0.4l-1.5-2.1l-1.6,2c-0.2,0.2-0.3,0.4-0.4,0.6
	c-0.1,0.1-0.1,0.2-0.1,0.3c0,0.1,0.1,0.2,0.2,0.3c0.1,0.1,0.4,0.1,0.7,0.1v0.2h-2.7v-0.2c0.2,0,0.4,0,0.6-0.2
	c0.2-0.1,0.4-0.3,0.7-0.6L40.4,63.3z"/>
<path fill="#FFFFFF" d="M84.1,15.8l0.2,0.2c-0.4,0.2-0.7,0.3-1,0.2c-0.3-0.1-0.5-0.3-0.8-0.7l0,0c0-0.1-0.1-0.2-0.2-0.4
	c-0.1-0.2-0.2-0.3-0.2-0.4c-0.3-0.5-0.6-0.8-1.1-0.9c-0.4-0.1-0.9-0.1-1.4,0.2c-0.5,0.3-0.8,0.6-0.8,1.1c-0.1,0.4,0.2,1,0.6,1.9
	c0.3,0.5,0.4,0.9,0.3,1.2c-0.1,0.3-0.3,0.6-0.6,0.8c-0.5,0.3-1,0.4-1.5,0.2s-1-0.6-1.4-1.2c-0.2-0.4-0.3-0.6-0.4-0.8
	c0-0.2,0-0.3,0.2-0.4c0.1-0.1,0.2-0.1,0.3,0c0.1,0,0.2,0.1,0.3,0.3c0.1,0.1,0.1,0.3,0.2,0.6c0.1,0.3,0.2,0.5,0.3,0.7
	c0.2,0.3,0.4,0.5,0.7,0.6s0.6,0.1,0.8,0c0.2-0.1,0.3-0.2,0.3-0.4s0-0.3-0.1-0.6c-0.1-0.2-0.2-0.4-0.3-0.7c-0.2-0.3-0.3-0.5-0.3-0.7
	c-0.2-0.5-0.2-1,0-1.4s0.6-0.8,1.2-1.2c0.8-0.5,1.5-0.7,2.1-0.6c0.6,0.1,1.1,0.4,1.5,1.1c0.1,0.2,0.2,0.4,0.3,0.6
	c0.1,0.2,0.2,0.4,0.2,0.5c0.1,0.2,0.2,0.3,0.3,0.4C83.9,15.8,84,15.8,84.1,15.8z"/>
<path fill="#FFFFFF" d="M22.3,21.4c0.8,0.2,1.3,0.7,1.6,1.5c0.3,0.8,0.2,1.8-0.1,3c-0.4,1.3-0.8,2.3-1.4,2.9
	c-0.6,0.6-1.3,0.8-2.1,0.6c-0.9-0.2-1.4-0.7-1.6-1.5c-0.3-0.8-0.2-1.8,0.1-3.1c0.3-1.2,0.8-2.1,1.4-2.7
	C20.8,21.4,21.5,21.2,22.3,21.4z M22.8,25.3c0-0.1,0-0.1,0.1-0.2c0-0.1,0.1-0.2,0.1-0.2c0.3-1,0.3-1.7,0.2-2.2
	c-0.1-0.5-0.4-0.8-0.9-0.9c-0.5-0.1-0.9,0-1.3,0.5c-0.4,0.4-0.7,1.2-1,2.4L22.8,25.3z M19.9,25l-0.1,0.3c-0.3,1.3-0.5,2.2-0.4,2.8
	c0.1,0.6,0.4,0.9,0.9,1c0.5,0.2,0.9,0,1.3-0.5c0.3-0.4,0.7-1.4,1.1-2.9L19.9,25z"/>
<path fill="#FFFFFF" d="M75.1,12.1h0.3c-0.1,0.8-0.4,1.4-0.9,1.8s-1.2,0.6-2.1,0.6c-0.8,0-1.5-0.2-2-0.7c-0.5-0.4-0.7-0.9-0.7-1.6
	c0-0.4,0.2-0.7,0.4-0.9c0.3-0.2,0.6-0.4,1.1-0.6c-0.5-0.2-0.9-0.4-1.1-0.6c-0.2-0.3-0.4-0.6-0.4-1c0-0.6,0.3-1.1,0.8-1.6
	c0.5-0.4,1.2-0.6,2-0.6c0.9,0,1.5,0.3,2,0.7c0.5,0.4,0.7,1.1,0.8,1.9h-0.3c0-0.5-0.2-0.8-0.5-1c-0.3-0.2-0.9-0.3-1.7-0.4
	c-1,0-1.6,0-2.1,0.2c-0.4,0.2-0.6,0.5-0.6,0.9c0,0.4,0.2,0.6,0.4,0.8c0.3,0.2,0.7,0.3,1.3,0.3c0.3,0,0.6,0,1.1-0.1s0.8-0.1,0.9-0.1
	c0.2,0,0.4,0.1,0.4,0.2c0.1,0.1,0.2,0.2,0.2,0.4c0,0.2-0.1,0.3-0.2,0.4c-0.1,0.1-0.3,0.2-0.4,0.2s-0.5-0.1-0.9-0.2
	c-0.4-0.1-0.8-0.2-1.1-0.2c-0.5,0-1,0.1-1.3,0.3c-0.3,0.2-0.5,0.4-0.5,0.8c0,0.4,0.2,0.7,0.6,0.9c0.4,0.2,1.1,0.3,1.9,0.3
	c0.9,0,1.5-0.1,1.9-0.2C74.8,12.9,75.1,12.6,75.1,12.1z"/>
<path fill="#FFFFFF" d="M53.6,66.6c-0.4-0.1-0.6-0.3-0.8-0.5c-0.2-0.2-0.3-0.5-0.3-0.8c0-0.4,0.2-0.7,0.5-1c0.4-0.3,0.8-0.4,1.4-0.4
	c0.5,0,0.9,0.1,1.3,0.3c0.4,0.2,0.5,0.4,0.5,0.6c0,0.1,0,0.2-0.1,0.3c-0.1,0.1-0.2,0.1-0.3,0.1c-0.1,0-0.2,0-0.3-0.1
	c-0.1-0.1-0.2-0.2-0.3-0.4c-0.1-0.2-0.2-0.3-0.3-0.4c-0.1-0.1-0.3-0.1-0.5-0.1c-0.3,0-0.4,0.1-0.6,0.3c-0.2,0.2-0.2,0.4-0.2,0.8
	s0.1,0.6,0.2,0.8c0.2,0.2,0.3,0.3,0.6,0.3c0.1,0,0.2,0,0.4-0.1c0.2-0.1,0.3-0.1,0.4-0.1c0.1,0,0.2,0,0.3,0.1
	c0.1,0.1,0.1,0.2,0.1,0.3s0,0.2-0.1,0.3C55.4,67,55.3,67,55.1,67c-0.1,0-0.2,0-0.4-0.1c-0.2-0.1-0.3-0.1-0.4-0.1
	c-0.2,0-0.4,0.1-0.6,0.3c-0.2,0.2-0.2,0.5-0.2,0.8c0,0.4,0.1,0.7,0.3,0.9c0.2,0.2,0.5,0.4,0.9,0.4c0.3,0,0.6-0.1,0.8-0.3
	c0.2-0.2,0.4-0.5,0.6-0.9l0.3,0.2c-0.2,0.5-0.5,0.9-0.8,1.1c-0.4,0.2-0.8,0.4-1.3,0.4c-0.6,0-1-0.2-1.4-0.4
	c-0.4-0.3-0.5-0.7-0.5-1.2c0-0.4,0.1-0.6,0.3-0.9C52.9,66.9,53.2,66.7,53.6,66.6z"/>
<path fill="#FFFFFF" d="M58.7,50.3c-0.9,0.1-1.7-0.2-2.2-0.6c-0.6-0.4-0.9-1.1-0.9-1.9c0-0.8,0.2-1.4,0.7-1.9
	c0.5-0.5,1.2-0.8,2.1-0.8c0.9,0,1.6,0.2,2.2,0.6c0.6,0.4,0.9,1,0.9,1.8c0,0.3,0,0.6-0.2,0.9c-0.1,0.3-0.3,0.6-0.5,0.8l3.3-0.2l0.1,1
	L58.7,50.3z M55.9,48c0,0.4,0.2,0.8,0.6,1c0.4,0.2,1,0.3,1.7,0.3c0.9,0,1.6-0.2,2.1-0.6s0.8-0.8,0.8-1.3c0-0.5-0.2-0.8-0.6-1
	c-0.4-0.2-0.9-0.3-1.6-0.3c-0.9,0.1-1.6,0.3-2.2,0.6C56.1,47,55.9,47.4,55.9,48z"/>
<path fill="#FFFFFF" d="M71.3,21.3c0,0.1,0,0.2,0,0.3c0,0.9,0,1.5,0,1.9v0.4c0,0.7,0,1.1,0.1,1.3c0.1,0.2,0.2,0.3,0.4,0.3
	c0.3,0,0.5-0.1,0.6-0.4c0.2-0.2,0.2-0.6,0.2-1.1H73V24c0,0.6-0.1,1.1-0.4,1.4c-0.2,0.3-0.6,0.4-1.1,0.4c-0.5,0-0.9-0.2-1.1-0.4
	c-0.2-0.3-0.3-1-0.3-2c0-0.2,0-0.4,0-0.8s0-0.8,0-1.3c0,0,0,0-0.1,0c-0.3,0-0.5,0-0.6,0c-0.3,0-0.6,0.1-0.8,0.2
	c-0.2,0.1-0.3,0.3-0.4,0.5H68c0-0.5,0.2-0.9,0.5-1.1c0.3-0.2,0.9-0.3,1.6-0.3c0.2,0,0.5,0,0.9,0c0.4,0,0.7,0,1,0
	c0.4,0,0.6,0,0.8-0.1c0.2-0.1,0.3-0.2,0.3-0.3l0,0h0.2c0,0.4-0.1,0.8-0.3,0.9c-0.2,0.2-0.6,0.3-1.2,0.3
	C71.7,21.4,71.5,21.4,71.3,21.3L71.3,21.3L71.3,21.3z"/>
<path fill="#FFFFFF" d="M40.9,72.5c0.2-0.6,0.1-1.1-0.2-1.6c-0.2-0.4-0.6-0.8-1.2-1.1c-0.4-0.2-0.9-0.3-1.5-0.3
	c-0.5,0-0.9-0.1-1-0.1c-0.2-0.1-0.3-0.2-0.4-0.3c-0.1-0.1,0-0.3,0-0.4c0.1-0.3,0.3-0.4,0.6-0.4c0.3,0,0.8,0.1,1.4,0.4
	c1,0.4,1.7,1,2.1,1.7c0.4,0.7,0.5,1.4,0.3,2.3l2.3,0.8L43,74.7l-2.2-1.1c-0.4,0.9-0.9,1.4-1.4,1.6c-0.5,0.2-1.1,0.2-1.9-0.1
	c-0.3-0.1-0.6-0.3-1-0.5c-0.4-0.2-0.7-0.4-0.9-0.4c-0.2-0.1-0.4-0.1-0.5-0.1c-0.2,0-0.2,0.1-0.3,0.2c-0.1,0.2-0.1,0.4,0.1,0.5
	c0.1,0.2,0.3,0.3,0.6,0.4l0.2,0.1l-0.1,0.3c0,0-0.1,0-0.1,0s-0.1,0-0.2-0.1c-0.4-0.2-0.7-0.4-0.9-0.7s-0.2-0.6,0-1
	c0.2-0.4,0.4-0.6,0.7-0.7c0.3-0.1,0.7,0,1.1,0.2c0.1,0.1,0.4,0.2,0.7,0.4c0.4,0.2,0.6,0.3,0.9,0.4c0.7,0.3,1.2,0.4,1.6,0.3
	c0.4-0.1,0.7-0.4,1-1l-6-2.9l0.1-0.3L40.9,72.5z"/>
<path fill="#FFFFFF" d="M69,73.6h-0.3c0,0,0-0.1,0-0.1s0-0.1,0-0.2c0-0.5,0.1-0.8,0.3-1.1c0.2-0.2,0.6-0.4,1-0.4
	c0.4,0,0.7,0.1,0.9,0.4c0.2,0.2,0.3,0.6,0.3,1.1c0,0.2,0,0.5-0.1,1c0,0.5-0.1,0.9-0.1,1.3c0,0.5,0.1,0.9,0.3,1.1
	c0.2,0.2,0.5,0.4,1,0.4c0.5,0,0.9-0.2,1.3-0.6c0.3-0.4,0.5-0.9,0.5-1.4c0-0.4-0.1-0.9-0.4-1.5s-0.4-0.9-0.4-1.1s0.1-0.3,0.2-0.4
	c0.1-0.1,0.3-0.2,0.5-0.2c0.3,0,0.5,0.2,0.6,0.4c0.1,0.3,0.2,0.8,0.2,1.4c0,1.2-0.2,2.1-0.7,2.8c-0.5,0.7-1.2,1-2.1,1
	c-0.6,0-1.1-0.2-1.5-0.6c-0.4-0.4-0.5-0.9-0.5-1.6c0-0.3,0-0.7,0.1-1.2c0.1-0.5,0.1-0.9,0.1-1.1s-0.1-0.4-0.2-0.5
	c-0.1-0.1-0.2-0.2-0.4-0.2c-0.2,0-0.4,0.1-0.5,0.3c-0.1,0.2-0.2,0.4-0.2,0.8c0,0,0,0.1,0,0.1C69,73.5,69,73.5,69,73.6z"/>
<path fill="#FFFFFF" d="M89.5,47.8c0,0.6,0.1,0.9,0.2,1.1c0.1,0.2,0.2,0.2,0.5,0.2c0.3,0,0.5-0.1,0.6-0.3c0.1-0.2,0.2-0.6,0.2-1
	v-0.1h0.3v0.2c0,0.6-0.1,1-0.4,1.3c-0.2,0.3-0.6,0.4-1.1,0.4c-0.5,0-0.8-0.2-1-0.4c-0.2-0.3-0.3-0.7-0.3-1.3v-3.7h1.1L89.5,47.8
	L89.5,47.8z"/>
<path fill="#FFFFFF" d="M40.6,53.6c0.6,0,1.2,0.2,1.6,0.6s0.6,1,0.6,1.8c0,0.8-0.2,1.4-0.6,1.8c-0.4,0.4-1,0.7-1.6,0.7
	c-0.6,0-1.1-0.2-1.6-0.7c-0.4-0.4-0.6-1-0.6-1.8s0.2-1.3,0.6-1.8C39.4,53.9,39.9,53.6,40.6,53.6z M41.9,56.5c0-0.8-0.2-1.4-0.4-1.9
	c-0.3-0.5-0.6-0.7-1.1-0.7c-0.4,0-0.7,0.2-0.9,0.5c-0.2,0.3-0.3,0.8-0.3,1.4c0,0.7,0.2,1.3,0.4,1.8c0.3,0.5,0.6,0.7,1,0.7
	s0.7-0.2,0.9-0.4C41.8,57.5,41.9,57.1,41.9,56.5z"/>
<path fill="#FFFFFF" d="M33.8,31.2c-0.1,0-0.2,0.1-0.2,0.2c-0.7,0.4-1.3,0.7-1.6,0.9l-0.4,0.3c-0.6,0.3-0.9,0.6-1,0.7
	c-0.1,0.2-0.1,0.3,0,0.4c0.1,0.2,0.3,0.3,0.6,0.3c0.3,0,0.6-0.2,1-0.4l0.2,0.3l-0.1,0c-0.6,0.3-1,0.5-1.4,0.5
	c-0.4,0-0.6-0.2-0.9-0.6c-0.2-0.4-0.3-0.7-0.1-1.1c0.2-0.3,0.7-0.7,1.6-1.2c0.1-0.1,0.4-0.2,0.8-0.5c0.4-0.2,0.8-0.4,1.1-0.6
	c-0.1-0.1-0.2-0.3-0.3-0.5c-0.1-0.2-0.3-0.5-0.5-0.8c-1.6,0.9-2.7,1.5-3.3,1.7c-0.6,0.2-1.1,0.1-1.3-0.4c-0.2-0.2-0.2-0.5,0-0.7
	c0.1-0.2,0.4-0.5,0.8-0.7l0.2-0.1l0.2,0.2c-0.2,0.1-0.3,0.2-0.4,0.4c-0.1,0.1,0,0.2,0,0.4c0.2,0.3,0.5,0.4,1,0.2s1.4-0.6,2.7-1.3
	l-0.2-0.2c-0.2-0.3-0.3-0.4-0.5-0.5c-0.2-0.1-0.4-0.1-0.6,0l-0.2-0.2c0.5-0.3,0.9-0.3,1.2-0.2c0.3,0.1,0.7,0.5,1,1.1
	c0.1,0.1,0.3,0.5,0.6,1.1c0.3,0.6,0.6,1.1,0.9,1.6c0.2,0.2,0.3,0.4,0.4,0.5c0.1,0.1,0.2,0.1,0.3,0l0,0l0.2,0.2l0,0
	c-0.4,0.2-0.6,0.3-0.9,0.2c-0.3-0.1-0.5-0.3-0.7-0.6c0-0.1-0.1-0.1-0.1-0.2C33.8,31.3,33.8,31.3,33.8,31.2z"/>
<path fill="#FFFFFF" d="M85.8,18l-0.5,1.8c-0.1,0.3-0.2,0.6-0.3,0.9c-0.1,0.3-0.2,0.6-0.4,0.9c0.2,0.4,0.3,0.6,0.4,0.8
	c0.2,0.2,0.3,0.3,0.5,0.3c0.2,0,0.2-0.1,0.3-0.2c0.1-0.1,0.2-0.2,0.2-0.4h0.2v0.1c0,0.4-0.1,0.8-0.2,1c-0.1,0.2-0.3,0.3-0.6,0.3
	c-0.3,0-0.5-0.1-0.6-0.3c-0.2-0.2-0.3-0.6-0.4-1.2c-0.3,0.5-0.6,0.9-1,1.1c-0.4,0.2-0.8,0.4-1.3,0.4c-0.8,0-1.4-0.3-1.9-0.8
	c-0.5-0.5-0.8-1.2-0.8-2.1c0-0.7,0.3-1.4,0.8-1.9c0.5-0.6,1.1-0.8,1.9-0.8c0.6,0,1,0.2,1.4,0.5c0.4,0.3,0.6,0.8,0.7,1.5l0.4-1.8
	L85.8,18L85.8,18z M84.1,20.5c-0.2-0.8-0.4-1.4-0.7-1.8c-0.3-0.4-0.6-0.6-1.1-0.6c-0.5,0-0.9,0.2-1.1,0.6c-0.3,0.4-0.4,1-0.4,1.8
	c0,0.8,0.2,1.4,0.4,1.9c0.3,0.4,0.6,0.6,1.1,0.6c0.5,0,0.8-0.2,1.1-0.6C83.6,22.2,83.8,21.5,84.1,20.5z"/>
<path fill="#FFFFFF" d="M39.4,26.7c0.4,0.2,0.8,0.5,1,0.9c0.2,0.4,0.3,0.8,0.3,1.3c0,0.8-0.3,1.5-0.9,2c-0.6,0.5-1.3,0.8-2.3,0.8
	c-0.9,0-1.6-0.3-2.2-0.8c-0.6-0.5-0.9-1.2-0.9-2c0-0.9,0.3-1.6,0.9-2.1s1.4-0.8,2.3-0.8c0.2,0,0.6,0,1.1,0c0.5,0,1,0,1.3,0
	c0.3,0,0.6,0,0.7-0.1s0.2-0.1,0.3-0.2h0.3c0,0.4-0.1,0.6-0.2,0.8c-0.2,0.2-0.4,0.2-0.8,0.2c-0.1,0-0.2,0-0.3,0
	C39.9,26.7,39.7,26.7,39.4,26.7z M39.5,29.2c0-0.9-0.2-1.6-0.6-2.1s-0.9-0.8-1.5-0.8c-0.5,0-0.9,0.2-1.3,0.6
	c-0.3,0.4-0.4,0.9-0.4,1.6c0,0.9,0.2,1.5,0.6,2.1c0.4,0.5,0.9,0.8,1.5,0.8c0.6,0,1-0.2,1.3-0.5C39.4,30.4,39.5,29.9,39.5,29.2z"/>
<path fill="#FFFFFF" d="M87.9,17.3l-0.2,0c-1.4-0.3-2.3-0.7-2.5-1.2c-0.1-0.3-0.1-0.6,0.1-0.9c0.2-0.3,0.4-0.5,0.8-0.6
	c0.4-0.2,0.8-0.2,1.3,0s0.8,0.4,1,0.7l-0.3,0.1c-0.2-0.3-0.5-0.4-0.9-0.6c-0.4-0.1-0.7-0.1-1,0c-0.2,0.1-0.3,0.2-0.4,0.3
	c-0.1,0.1-0.1,0.3,0,0.4c0.1,0.3,0.6,0.5,1.3,0.7c0.3,0.1,0.4,0.1,0.6,0.1c0.9,0.2,1.6,0.5,2.1,0.9s0.9,0.9,1.2,1.6
	c0.3,0.8,0.3,1.5,0.1,2.1c-0.3,0.6-0.8,1.1-1.5,1.4c-0.7,0.3-1.3,0.3-1.9,0c-0.6-0.3-1.1-0.8-1.3-1.5c-0.3-0.7-0.3-1.4-0.1-2.1
	c0.2-0.6,0.7-1.1,1.4-1.4c0.1,0,0.1,0,0.2-0.1C87.8,17.3,87.9,17.3,87.9,17.3z M90.1,19.6c-0.3-0.7-0.6-1.3-1.1-1.6
	c-0.4-0.4-0.9-0.4-1.3-0.3c-0.4,0.2-0.6,0.4-0.7,0.8c-0.1,0.4,0,0.9,0.2,1.5c0.3,0.7,0.6,1.2,1.1,1.6s0.9,0.4,1.3,0.3
	c0.4-0.2,0.7-0.4,0.8-0.8C90.4,20.7,90.3,20.2,90.1,19.6z"/>
<path fill="#FFFFFF" d="M35.5,36.6c0.8,0,1.4,0.3,1.8,0.8c0.5,0.5,0.7,1.2,0.7,2c0,0.8-0.2,1.5-0.6,2c-0.4,0.5-1,0.8-1.7,0.9v2.4
	h-0.9v-2.4c-0.7-0.1-1.3-0.3-1.7-0.9c-0.4-0.5-0.6-1.2-0.6-2c0-0.8,0.2-1.5,0.7-2c0.5-0.5,1.1-0.8,1.8-0.8l0.1-2.3h0.5L35.5,36.6z
	 M34.9,37c-0.4,0.1-0.8,0.3-1.1,0.7s-0.4,1-0.4,1.7c0,0.7,0.1,1.2,0.4,1.7c0.3,0.4,0.6,0.7,1,0.8L34.9,37z M35.5,37l0.1,4.9
	c0.4-0.1,0.8-0.4,1-0.8c0.3-0.4,0.4-1,0.4-1.7c0-0.7-0.2-1.3-0.4-1.7C36.3,37.2,35.9,37,35.5,37z"/>
<path fill="#FFFFFF" d="M71.6,51.2c-0.2-1.1-0.5-2.1-0.8-2.7s-0.6-1-0.8-1c-0.1,0-0.2,0.1-0.3,0.2c-0.1,0.1-0.1,0.3-0.2,0.5h-0.3
	v-0.4c0-0.5,0.1-0.8,0.2-1.1c0.2-0.2,0.4-0.4,0.6-0.4c0.5,0,1.1,1.3,1.6,3.8l0.1,0.5c0.4-0.9,0.6-1.9,0.8-3c0-0.2,0-0.2,0-0.3
	c0.1-0.4,0.1-0.6,0.2-0.8c0.1-0.2,0.2-0.2,0.4-0.2s0.3,0,0.4,0.2c0.1,0.1,0.2,0.2,0.2,0.4c0,0.3-0.2,1-0.7,2c-0.5,1-0.9,1.8-1.1,2.4
	c0.1,0.4,0.1,0.9,0.2,1.2c0,0.4,0.1,0.6,0.1,0.9c0,0.4-0.1,0.7-0.1,0.9c-0.1,0.2-0.2,0.3-0.4,0.3s-0.3-0.1-0.4-0.2
	c-0.1-0.2-0.2-0.4-0.2-0.6s0-0.6,0.1-1C71.3,52.1,71.5,51.7,71.6,51.2z"/>
<path fill="#FFFFFF" d="M40.6,13.4V7.3c0-0.6-0.1-0.9-0.2-1.1c-0.1-0.2-0.4-0.3-0.6-0.3c-0.5,0-0.9,0.3-1.2,1
	c-0.3,0.6-0.5,1.5-0.5,2.4v1.6H37V7c0-0.4,0-0.6-0.1-0.8s-0.2-0.3-0.4-0.3c-0.2,0-0.3,0.1-0.4,0.2c-0.1,0.2-0.2,0.4-0.2,0.7V7h-0.2
	c0,0,0-0.1,0-0.1c0,0,0-0.1,0-0.2c0-0.4,0.1-0.8,0.3-1.1c0.2-0.2,0.5-0.4,0.8-0.4c0.4,0,0.8,0.2,1,0.5C37.9,6.3,38,6.8,38,7.5
	c0.2-0.7,0.5-1.3,0.8-1.6c0.3-0.4,0.8-0.5,1.3-0.5c0.6,0,1,0.2,1.2,0.6c0.3,0.4,0.4,1,0.4,2v5.5L40.6,13.4L40.6,13.4L40.6,13.4z"/>
<path fill="#FFFFFF" d="M53.3,8.1V7.4c0-0.9,0-1.6,0.1-2c0-0.4,0.1-0.7,0.2-1c0.2-0.5,0.4-0.9,0.6-1.1c0.3-0.3,0.6-0.4,1-0.4
	c0.5,0,0.9,0.2,1.2,0.6c0.3,0.4,0.5,1,0.5,1.7c0,0.9-0.2,1.7-0.7,2.3c-0.5,0.6-1.1,0.9-2,0.9v2.4h-0.9V8.4c-0.9-0.1-1.6-0.4-2.2-0.9
	c-0.5-0.5-0.8-1.2-0.8-2.1c0-0.8,0.2-1.5,0.5-1.9c0.4-0.4,0.8-0.6,1.4-0.6c0.3,0,0.5,0.1,0.7,0.2c0.2,0.2,0.4,0.4,0.6,0.6l-0.3,0.2
	c-0.1-0.2-0.2-0.4-0.4-0.4c-0.2-0.1-0.3-0.2-0.5-0.2c-0.3,0-0.6,0.2-0.7,0.5c-0.2,0.3-0.2,0.9-0.2,1.6s0.2,1.4,0.5,1.8
	C52.2,7.7,52.7,8,53.3,8.1z M54.2,8.1c0.7,0,1.2-0.3,1.6-0.8c0.4-0.5,0.6-1.2,0.6-2.1c0-0.6-0.1-1.1-0.3-1.4
	c-0.2-0.4-0.5-0.5-0.9-0.5c-0.4,0-0.7,0.2-0.8,0.5c-0.2,0.4-0.2,1-0.2,1.9L54.2,8.1L54.2,8.1z"/>
<path fill="#FFFFFF" d="M91.2,63.4v-0.3c-0.3-0.1-0.6-0.2-0.9-0.2c-0.3-0.1-0.6-0.2-0.9-0.3l0.1,2.4c0,0.1,0,0.1,0,0.2
	c0,0,0,0-0.1,0c0,0-0.1,0-0.1,0s-0.1-0.1-0.1-0.1l-0.6-0.7c-0.6-0.7-1.1-1.2-1.4-1.4c-0.3-0.2-0.6-0.3-0.9-0.3
	c-0.2,0-0.4,0.1-0.5,0.2c-0.2,0.1-0.2,0.2-0.2,0.4c0,0.1,0.1,0.2,0.1,0.3c0.1,0.1,0.2,0.1,0.3,0.1c0.1,0,0.2,0,0.4-0.1
	c0.2-0.1,0.2-0.1,0.3-0.1c0.2,0,0.4,0.1,0.6,0.2c0.2,0.2,0.5,0.5,0.9,0.9l0.4,0.4l-1.8,2.5c-0.2,0.3-0.4,0.5-0.5,0.6
	c-0.2,0.2-0.4,0.2-0.5,0.2h0v0.2l2.5-0.1v-0.2c-0.2,0-0.3,0-0.4,0c-0.1,0-0.1-0.1-0.1-0.1c0-0.1,0-0.1,0.1-0.2s0.1-0.2,0.2-0.3
	l1.4-1.9c0,0,0.1-0.1,0.1-0.1s0.1,0,0.1,0s0,0,0,0s0,0.1,0,0.1l0.1,2.7l1,0l-0.1-4.2c0-0.4,0-0.6,0.1-0.6c0.1-0.1,0.2-0.2,0.4-0.2
	C91,63.4,91.1,63.4,91.2,63.4C91.1,63.4,91.2,63.4,91.2,63.4z"/>
<path fill="#FFFFFF" d="M79.4,22.5l0.3-0.1v0c0.1,0.2,0.1,0.2,0.1,0.3c0.1,0.4,0.1,0.7-0.1,1c-0.1,0.3-0.3,0.5-0.6,0.5
	c-0.3,0.1-0.5,0-0.6-0.1s-0.4-0.3-0.6-0.7L76,20.6l-0.9,4.5l-1.2,0.3l1.2-6.3l-0.4-0.6c-0.2-0.3-0.4-0.5-0.6-0.6
	c-0.2-0.1-0.4-0.1-0.6-0.1c-0.2,0.1-0.4,0.2-0.5,0.3c-0.1,0.2-0.2,0.3-0.1,0.5l-0.2,0.1c0,0,0-0.1,0-0.1c0,0,0-0.1,0-0.1
	c-0.1-0.4-0.1-0.7,0.1-1c0.1-0.3,0.4-0.5,0.7-0.5c0.3-0.1,0.6,0,0.8,0.1c0.2,0.2,0.5,0.5,0.9,1.1l2.6,4.2c0.3,0.4,0.5,0.7,0.6,0.8
	c0.2,0.1,0.4,0.2,0.6,0.1c0.2,0,0.3-0.2,0.4-0.3C79.4,22.9,79.4,22.7,79.4,22.5z"/>
<path fill="#FFFFFF" d="M83.7,40.3c0.4-0.3,0.7-0.5,1.1-0.6c0.3-0.1,0.6-0.2,1-0.2c0.3,0,0.5,0,0.6,0.1c0.2,0.1,0.2,0.2,0.2,0.4
	c0,0.2-0.2,0.4-0.5,0.5c-0.3,0.1-0.8,0.2-1.3,0.2c-0.2,0-0.4,0-0.5,0c-0.2,0-0.3,0-0.5-0.1c-0.4,0.4-0.7,0.8-1,1.4
	c-0.2,0.6-0.4,1.2-0.4,1.9s0.2,1.1,0.4,1.4c0.3,0.3,0.8,0.4,1.5,0.4c0.1,0,0.3,0,0.5,0c0.2,0,0.4,0,0.5,0c0.6,0,1,0.1,1.3,0.3
	c0.3,0.2,0.4,0.5,0.4,1c0,0.6-0.2,1.1-0.7,1.4c-0.5,0.3-1.1,0.5-2,0.5c-0.3,0-0.5,0-0.6-0.1c-0.2-0.1-0.2-0.2-0.2-0.3
	c0-0.1,0.1-0.2,0.2-0.3c0.1-0.1,0.2-0.1,0.4-0.1c0.1,0,0.3,0,0.6,0.1c0.3,0.1,0.6,0.1,0.8,0.1c0.4,0,0.6-0.1,0.9-0.3
	c0.2-0.2,0.4-0.4,0.4-0.6c0-0.2-0.1-0.4-0.3-0.5c-0.2-0.1-0.5-0.2-0.9-0.2c-0.2,0-0.4,0-0.7,0c-0.3,0-0.5,0-0.6,0
	c-0.8,0-1.4-0.2-1.8-0.6c-0.4-0.4-0.6-1.1-0.6-1.9c0-0.7,0.1-1.4,0.4-2c0.3-0.6,0.6-1.2,1.1-1.7c-0.6-0.2-1.1-0.3-1.4-0.5
	c-0.3-0.2-0.5-0.5-0.5-0.8c0-0.3,0.2-0.6,0.5-0.7c0.3-0.2,0.7-0.3,1.3-0.3c0.1,0,0.2,0,0.3,0c0.1,0,0.2,0,0.2,0v0.3h-0.3
	c-0.4,0-0.6,0.1-0.8,0.2c-0.2,0.1-0.3,0.3-0.3,0.5s0.1,0.4,0.3,0.6C82.9,40.1,83.3,40.2,83.7,40.3z"/>
<path fill="#FFFFFF" d="M65.7,63.1c0.4,0.4,0.7,0.6,0.9,0.9c0.2,0.2,0.4,0.5,0.5,0.8c0.1,0.3,0.2,0.5,0.2,0.7c0,0.2-0.1,0.3-0.2,0.4
	c-0.2,0.1-0.4,0-0.5-0.2c-0.2-0.2-0.4-0.5-0.6-0.9c-0.2-0.3-0.3-0.8-0.4-1.3c0,0,0-0.1,0-0.1c-0.3-0.2-0.6-0.2-0.8-0.2
	c-0.2,0-0.4,0-0.6,0.1c-0.2,0.1-0.4,0.2-0.5,0.4c-0.1,0.2-0.2,0.4-0.2,0.7c0.2,0.3,0.4,0.6,0.5,0.9c0.2,0.3,0.3,0.5,0.4,0.8
	c0.2,0.4,0.2,0.7,0.2,0.9c0,0.2-0.1,0.4-0.2,0.4c-0.2,0.1-0.4,0-0.5-0.2s-0.4-0.5-0.5-0.9c-0.1-0.3-0.2-0.6-0.3-0.9
	c-0.1-0.3-0.1-0.6-0.1-1c-0.2-0.2-0.5-0.4-0.8-0.4c-0.3-0.1-0.6,0-0.9,0.1c-0.4,0.2-0.6,0.4-0.6,0.7s0,0.8,0.2,1.3
	c0,0.1,0.1,0.2,0.2,0.4c0.1,0.2,0.1,0.3,0.2,0.4c0.3,0.7,0.4,1.2,0.3,1.6c-0.1,0.4-0.4,0.7-0.8,0.9c-0.5,0.2-1,0.2-1.5-0.1
	c-0.5-0.3-0.9-0.8-1.2-1.4c-0.2-0.3-0.2-0.6-0.2-0.8c0-0.2,0.1-0.3,0.3-0.4c0.1,0,0.2,0,0.2,0c0.1,0,0.2,0.1,0.2,0.2
	s0.1,0.3,0.1,0.6c0,0.3,0.1,0.6,0.2,0.8c0.2,0.4,0.4,0.6,0.6,0.7c0.2,0.2,0.5,0.2,0.8,0c0.3-0.1,0.4-0.3,0.4-0.5
	c0-0.2-0.1-0.6-0.3-1c-0.1-0.2-0.2-0.4-0.3-0.6c-0.1-0.2-0.2-0.4-0.2-0.4c-0.3-0.6-0.3-1.2-0.2-1.7c0.2-0.5,0.5-0.9,1.1-1.1
	c0.4-0.2,0.7-0.2,1.1-0.2c0.4,0.1,0.7,0.2,1.1,0.5c0.1-0.3,0.2-0.5,0.3-0.6c0.2-0.2,0.3-0.3,0.6-0.4c0.3-0.1,0.5-0.2,0.8-0.1
	c0.3,0,0.6,0.1,0.9,0.3c-0.1-0.5-0.1-0.9,0-1.3c0.1-0.3,0.2-0.5,0.5-0.6c0.2-0.1,0.5-0.1,0.7,0.1c0.2,0.2,0.4,0.5,0.6,0.9
	c0.1,0.2,0.1,0.3,0.2,0.4c0,0.1,0.1,0.2,0.1,0.4l-0.2,0.1c0-0.1-0.1-0.2-0.1-0.3c0-0.1,0-0.2-0.1-0.2c-0.1-0.3-0.2-0.5-0.4-0.6
	c-0.2-0.1-0.3-0.1-0.5,0c-0.2,0.1-0.3,0.2-0.4,0.5C65.7,62.5,65.7,62.8,65.7,63.1z"/>
<path fill="#FFFFFF" d="M30.8,43.7H32l-2.5,4.1l0.6,1.4c0.2,0.5,0.4,0.9,0.6,1.1c0.2,0.2,0.4,0.3,0.6,0.3c0.2,0,0.4-0.1,0.5-0.2
	c0.1-0.2,0.2-0.4,0.2-0.7h0.3c0,0.1,0,0.2,0,0.2c0,0.1,0,0.2,0,0.3c0,0.4-0.1,0.8-0.3,1c-0.2,0.3-0.4,0.4-0.7,0.4
	c-0.4,0-0.9-0.5-1.2-1.4c-0.1-0.2-0.2-0.4-0.2-0.4l-0.7-1.6l-2,3.4H26l2.7-4.6l-0.5-1.2c-0.2-0.5-0.4-0.8-0.6-1
	c-0.2-0.2-0.4-0.3-0.7-0.3c-0.2,0-0.4,0.1-0.5,0.2c-0.1,0.2-0.2,0.3-0.2,0.6c0,0,0,0,0,0.1c0,0,0,0.1,0,0.1h-0.3c0-0.1,0-0.2,0-0.2
	c0-0.1,0-0.2,0-0.3c0-0.4,0.1-0.8,0.3-1s0.4-0.4,0.7-0.4c0.3,0,0.5,0.1,0.7,0.4s0.5,0.8,0.8,1.6l0.5,1.2L30.8,43.7z"/>
<path fill="#FFFFFF" d="M34.4,11.6l0.4-0.4c0.2-0.2,0.4-0.4,0.4-0.5s0-0.4-0.1-0.6l0.2-0.2c0.3,0.4,0.5,0.7,0.5,1.1
	c0,0.3-0.2,0.7-0.6,1L35,12.1l-4.8,4.6l-0.6-0.6l1-1c-0.4,0-0.7-0.1-1-0.2c-0.3-0.2-0.6-0.4-0.9-0.7c-0.6-0.6-0.9-1.2-0.9-1.9
	c-0.1-0.6,0.1-1.1,0.6-1.6c0.2-0.2,0.5-0.3,0.9-0.3s0.7,0.2,1.1,0.4c-0.2-0.4-0.4-0.8-0.4-1.1c0-0.3,0.1-0.6,0.4-0.8
	c0.4-0.4,1-0.6,1.6-0.4c0.6,0.1,1.2,0.4,1.8,1c0.3,0.3,0.5,0.6,0.6,1C34.4,10.9,34.5,11.2,34.4,11.6z M31,14.7L34,12
	c-0.1-0.3-0.3-0.5-0.4-0.8c-0.2-0.3-0.4-0.5-0.6-0.8c-0.5-0.6-1-0.9-1.4-1.1c-0.4-0.2-0.8-0.2-1,0.1c-0.2,0.2-0.2,0.4-0.2,0.8
	c0.1,0.3,0.2,0.6,0.5,0.9c0.1,0.1,0.2,0.2,0.5,0.4c0.2,0.2,0.4,0.4,0.6,0.5c0.2,0.2,0.2,0.3,0.2,0.4c0,0.1,0,0.2-0.2,0.4
	c-0.1,0.1-0.2,0.2-0.4,0.2c-0.1,0-0.3-0.1-0.4-0.3c-0.1-0.1-0.3-0.3-0.4-0.6c-0.2-0.3-0.3-0.4-0.4-0.5c-0.3-0.3-0.6-0.5-0.9-0.5
	c-0.3-0.1-0.6,0-0.8,0.2c-0.2,0.2-0.2,0.5-0.1,1c0.2,0.4,0.5,0.9,1,1.4c0.3,0.3,0.5,0.5,0.8,0.7C30.5,14.4,30.8,14.6,31,14.7z"/>
<path fill="#FFFFFF" d="M64.9,44.8c0.1,0.2,0.2,0.4,0.4,0.6s0.4,0.2,0.7,0.2c0.4,0,0.7-0.2,1-0.6c0.2-0.4,0.4-0.9,0.4-1.5
	c0-0.6-0.1-1.1-0.4-1.5c-0.2-0.4-0.6-0.7-1-0.8c0,0-0.1,0-0.1,0.1c-0.3,0.1-0.5,0.2-0.7,0.2c-0.1,0-0.2,0-0.3-0.1
	c-0.1-0.1-0.1-0.2-0.1-0.3c0-0.1,0-0.2,0.1-0.3c0.1-0.1,0.2-0.1,0.3-0.1c0.1,0,0.3,0.1,0.6,0.2c0.1,0,0.1,0.1,0.2,0.1
	c0.3-0.1,0.4-0.3,0.6-0.5c0.1-0.2,0.2-0.6,0.2-0.9c0-0.5-0.1-0.9-0.3-1.2c-0.2-0.3-0.5-0.4-0.9-0.4c-0.4,0-0.8,0.2-0.9,0.5
	c-0.2,0.4-0.3,0.9-0.3,1.7v8.2h-1.1v-7.1c0-1.2,0.2-2.1,0.6-2.8c0.4-0.6,1-1,1.8-1c0.6,0,1.1,0.2,1.5,0.5c0.4,0.3,0.6,0.8,0.6,1.3
	c0,0.4-0.2,0.7-0.4,1c-0.3,0.3-0.7,0.5-1.2,0.7c0.7,0.2,1.3,0.5,1.6,0.9c0.4,0.4,0.6,0.9,0.6,1.5c0,0.7-0.2,1.4-0.6,1.8
	c-0.4,0.5-1,0.7-1.6,0.7c-0.4,0-0.8-0.1-1.1-0.3c-0.3-0.2-0.4-0.4-0.5-0.8L64.9,44.8L64.9,44.8z"/>
<path fill="#FFFFFF" d="M57.5,1.9c-0.1-0.2-0.1-0.3-0.2-0.3c-0.1-0.1-0.2-0.1-0.2-0.1c-0.2,0-0.3,0.1-0.3,0.2
	c-0.1,0.1-0.1,0.4-0.1,0.7v0.1h-0.3c0,0,0-0.1,0-0.1c0-0.1,0-0.1,0-0.1c0-0.5,0.1-0.8,0.3-1.1c0.2-0.2,0.4-0.4,0.8-0.4
	c0.3,0,0.6,0.1,0.7,0.3c0.2,0.2,0.4,0.5,0.6,1.1l1.2,3c0.4-0.6,0.6-1.1,0.8-1.5C61,3.1,61,2.6,61,2.1V1.8c0-0.4,0.1-0.6,0.2-0.8
	c0.1-0.2,0.3-0.2,0.6-0.2c0.2,0,0.3,0,0.4,0.1c0.1,0.1,0.2,0.2,0.2,0.4c0,0.3-0.3,1-1,2.1s-1.2,2.2-1.6,3.1h-0.3L57.5,1.9z"/>
<path fill="#FFFFFF" d="M52.4,13.9c0,0.6,0.1,0.9,0.2,1.1c0.1,0.2,0.3,0.3,0.6,0.3c0.5,0,0.9-0.3,1.1-1c0.3-0.6,0.4-1.5,0.4-2.4
	v-1.6h1.1v3.9c0,0.4,0,0.6,0.1,0.8c0.1,0.2,0.2,0.3,0.4,0.3s0.3-0.1,0.4-0.3c0.1-0.2,0.2-0.4,0.2-0.7v-0.2h0.2c0,0,0,0.1,0,0.1
	c0,0,0,0.1,0,0.2c0,0.4-0.1,0.8-0.3,1c-0.2,0.2-0.4,0.4-0.8,0.4c-0.4,0-0.7-0.2-0.9-0.5c-0.2-0.4-0.3-0.9-0.3-1.6
	c-0.2,0.7-0.4,1.2-0.7,1.6c-0.3,0.3-0.7,0.5-1.1,0.5c-0.4,0-0.6-0.1-0.9-0.3c-0.2-0.2-0.4-0.5-0.5-0.9c0,0.1,0,0.2,0,0.3
	c0,0.5,0.1,1.1,0.4,1.7c0.3,0.6,0.4,1,0.4,1.1c0,0.2-0.1,0.3-0.2,0.4c-0.1,0.1-0.2,0.1-0.4,0.1c-0.2,0-0.3-0.1-0.4-0.2
	c-0.1-0.1-0.1-0.4-0.1-0.6c0-0.1,0-0.3,0-0.7c0-0.4,0-0.7,0-1.1c0-0.3,0-0.7,0-1.2c0-0.5,0-0.9,0-1.1v-2.9h1.1L52.4,13.9L52.4,13.9z
	"/>
<path fill="#FFFFFF" d="M84.5,35.5v0.7h-4.3v-0.7H84.5z"/>
<path fill="#FFFFFF" d="M62.3,8.3c0.4,0.3,1,0.9,0.9,1.7c0,0.5-0.2,1-0.7,1.2l0.7,0c0.6,0,1.7,0.1,2.2,0l-0.1,0.9
	c-0.4,0.1-1.2,0.1-2.1,0.1l-6-0.3l0.1-1.1l3.4,0.2c0.9,0.1,1.6-0.3,1.7-1.2c0-0.7-0.4-1.2-0.9-1.4c-0.2-0.1-0.4-0.1-0.6-0.1
	l-3.5-0.2l0.1-1.1l4.2,0.2c0.6,0,0.9-0.1,0.9-0.5l0.8,0.1c0,0.2,0,0.2,0,0.4C63.4,7.8,63.1,8.2,62.3,8.3L62.3,8.3z"/>
<path fill="#FFFFFF" d="M26.3,67.8c-0.4-0.5-0.7-0.9-1-1.2l0.7-0.6l0.6,0.7h0c-0.1-0.6,0.1-1.4,0.8-2c0.6-0.5,1.9-0.9,3.1,0.6
	l2.1,2.7l-0.8,0.6L29.8,66c-0.6-0.7-1.4-1.1-2.1-0.5c-0.5,0.4-0.6,1.1-0.4,1.7c0,0.2,0.2,0.3,0.3,0.4l2.2,2.7l-0.8,0.6L26.3,67.8z
	 M25.4,65.2c-0.5-0.6-0.5-1.1-0.2-1.5c0.2-0.2,0.4-0.2,0.7-0.3c0.2,0,0.4-0.1,0.5-0.2c0.2-0.1,0.2-0.3-0.1-0.6l0.4-0.4
	c0.5,0.6,0.6,1.1,0.1,1.5c-0.2,0.2-0.5,0.2-0.7,0.3s-0.4,0.1-0.5,0.2c-0.2,0.1-0.1,0.4,0.1,0.6L25.4,65.2z"/>
<path fill="#FFFFFF" d="M69.5,2.8c-0.1,0-0.2-0.1-0.4-0.1c-0.2,0-0.4,0.1-0.6,0.3c-0.2,0.3-0.4,0.8-0.4,1.9c0,1.7,0.2,3.8,0.2,5.6
	c0,1.2-0.2,1.9-0.5,2.3c-0.3,0.4-0.7,0.6-1.1,0.6c-0.3,0-0.5-0.1-0.6-0.1l0.1-0.7c0.1,0,0.3,0.1,0.4,0.1s0.4-0.1,0.5-0.3
	c0.2-0.3,0.4-0.7,0.4-1.9c0-1.8-0.2-4-0.2-5.7c0-1.2,0.2-1.9,0.6-2.3C68.3,2.1,68.7,2,69.1,2c0.2,0,0.4,0,0.5,0.1L69.5,2.8z"/>
<path fill="#FFFFFF" d="M22.3,39.2h-0.8l-1.9-5.1l-0.9,0.4l-0.2-0.6l1.6-0.7l1.5,4.1c0.1,0.3,0.2,0.6,0.2,0.8l0,0
	c0-0.2,0.1-0.5,0.2-0.8l2.2-9.2h0.8L22.3,39.2z"/>
<path fill="#FFFFFF" d="M27.8,20.4c-0.2,0.2-0.6,0.6-1.3,0.9l-0.1,0.5c0.4-0.1,0.9,0.1,1.1,0.5c0.3,0.7-0.2,1.1-0.8,1.4
	c-0.3,0.1-0.6,0.2-0.9,0.1l0-0.6c0.2,0,0.4,0,0.7-0.1c0.3-0.1,0.4-0.3,0.3-0.6c-0.1-0.3-0.5-0.3-1.1-0.1l0.1-1
	c-1.4,0.4-2.7-0.3-3.3-1.8c-0.6-1.6,0-3.3,1.8-4c0.6-0.2,1.1-0.3,1.5-0.3l0.1,0.8c-0.3,0-0.7,0-1.2,0.2c-1.2,0.5-1.5,1.7-1.1,2.8
	c0.5,1.2,1.6,1.7,2.7,1.3c0.6-0.2,0.9-0.5,1.1-0.7L27.8,20.4z"/>
<path fill="#FFFFFF" d="M51.3,78.7l-0.2,1.1l-0.4-0.1l0.4-1.8l0.3,0.1c0.2,0.6,0.7,1.3,1.4,1.4c0.7,0.2,1.6-0.2,1.8-1.3
	c0.2-1-0.4-1.8-1.1-1.9c-0.7-0.2-1.5,0.2-1.9,0.7l-0.3-0.1l0.4-1.8l0.4,0.1l-0.2,1.1h0c0.4-0.4,1.1-0.8,1.8-0.6
	c1.1,0.2,1.6,1.4,1.4,2.7c-0.3,1.4-1.2,2-2.2,1.8C52,79.9,51.6,79.3,51.3,78.7L51.3,78.7L51.3,78.7z"/>
<path fill="#FFFFFF" d="M24.9,26.6l0.4,0.3v0c-0.1-0.4,0-0.9,0.3-1.3c0.5-0.6,1.2-0.6,1.7-0.3c0.7,0.5,0.6,1.5-0.4,2.7l0.1,0.1
	c0.2,0.1,0.6,0.4,1.1-0.2c0.2-0.3,0.4-0.6,0.4-1L29,27c0,0.4-0.2,0.9-0.5,1.3c-0.7,0.9-1.6,0.7-2.3,0.2l-1-0.8
	c-0.3-0.2-0.5-0.4-0.8-0.5L24.9,26.6z M26.5,27.7c0.5-0.6,0.9-1.4,0.4-1.8c-0.3-0.3-0.7-0.2-0.9,0.2c-0.2,0.3-0.3,0.6-0.2,0.9
	c0,0.2,0.1,0.2,0.2,0.3L26.5,27.7z"/>
<path fill="#FFFFFF" d="M81.6,6l4,3.7c1,0.9,1.4,1.7,1.3,2.4c0,0.6-0.2,1.1-0.7,1.7c-0.8,0.8-2,1.1-2.9,0.2
	c-0.3-0.3-0.5-0.6-0.5-0.9c0.2-0.6,0.2-1-0.1-1.3c-0.3-0.3-0.6-0.3-1.2-0.3c-0.7,0-1.4,0-2-0.6c-0.8-0.8-0.9-1.9,0.1-2.9
	c0.3-0.3,0.7-0.6,1.1-0.8L81,8c-0.3,0.1-0.6,0.3-0.9,0.6c-0.5,0.6-0.5,1.2-0.1,1.6c0.4,0.4,0.8,0.4,1.4,0.4c0.7,0,1.3-0.1,1.8,0.4
	c0.4,0.4,0.6,1.1,0.4,1.8c0.1,0.2,0.2,0.3,0.3,0.4c0.6,0.6,1.3,0.5,1.8,0c0.6-0.7,0.5-1.5-0.7-2.7l-4-3.7L81.6,6z"/>
<path fill="#FFFFFF" d="M55.7,36.4c0.4-0.3,1-0.7,2-0.7c1.7-0.1,3.2,1.4,3.4,4.1c0.1,3.1-1.4,4.7-3,4.7c-1.6,0.1-2.4-1.1-2.5-2.4
	c-0.1-1.6,1-3,2.5-3c1,0,1.7,0.5,2,1l0,0c0-0.1,0-0.3,0-0.4c-0.1-2.1-1.3-3.1-2.4-3.1c-0.8,0-1.3,0.3-1.6,0.6L55.7,36.4z M60,41
	c-0.2-0.6-0.9-1.1-1.7-1.1c-0.9,0-1.7,1-1.6,2.1c0,1,0.6,1.6,1.5,1.6C59.2,43.6,59.9,42.3,60,41z"/>
<path fill="#FFFFFF" d="M84.8,50.4l0.4,1.1l0.9-0.2c2-0.5,4.5-0.8,5,0.7c0.1,0.4,0.1,0.6,0,0.9l-1.4,0.3c0.1-0.2,0.1-0.4,0-0.6
	c-0.3-0.8-1.7-0.7-3.2-0.3l-1,0.3l0.5,1.4l-1.3,0.4l-0.5-1.4l-4.2,1.1c-2.7,0.7-4.6,0.8-5-0.5c-0.1-0.4-0.1-0.7,0-1l1.3-0.2
	c-0.1,0.2-0.1,0.5,0,0.7c0.2,0.7,1.4,0.6,3.5,0l4-1.1l-0.4-1L84.8,50.4z"/>
<path fill="#FFFFFF" d="M62.8,78.3l2.2-1.6l0,0.9l-2.2,1.6l-2.2-1.5l0-0.9L62.8,78.3z M62.8,76.4l2.2-1.6l0,0.9l-2.2,1.6l-2.2-1.5
	l0-0.9L62.8,76.4z"/>
<path fill="#FFFFFF" d="M49,13.4l1.6,2.2h-0.9l-1.6-2.2l1.6-2.2h0.9L49,13.4z"/>
<path fill="#FFFFFF" d="M48.7,71l0.4-0.2l7.1-0.1l-1.1,1l-4.4,3.5l-0.4,0.1L48.7,71z M53.2,72.3c0.3-0.3,0.8-0.6,1.2-0.9v0
	c-0.3,0-0.9,0-1.4,0.1h-3.4l1.1,2.8L53.2,72.3z"/>
<path fill="#FFFFFF" d="M39.4,14.5v3.4h-0.8v-2.6h-5.4v-0.7C33.2,14.5,39.4,14.5,39.4,14.5z"/>
<path fill="#FFFFFF" d="M74.3,57c0-1.2,0.6-1.8,1.4-1.8c0.5,0,0.9,0.2,1.7,0.5c0.6,0.3,1,0.5,1.5,0.5c0.4,0,0.6-0.4,0.6-1h0.7
	c0.1,1.3-0.6,1.8-1.4,1.8c-0.5,0-0.9-0.2-1.7-0.5c-0.6-0.3-1-0.5-1.4-0.5s-0.7,0.3-0.7,1L74.3,57L74.3,57z"/>
<path fill="#FFFFFF" d="M61.4,70.4h2.8c0.8,0,1.2-0.1,1.5-0.1V71c-0.2,0.1-0.6,0.1-1.4,0.1h-2.9v1.3c1.3,0,3.5,0.3,4.3,0.6v0.7
	c-1-0.3-3-0.5-4.3-0.6c0,0.3,0,0.6,0.1,0.8L60.9,74c-0.2-0.2-0.3-0.5-0.3-1.1v-3.1l0.7,0.1L61.4,70.4L61.4,70.4z"/>
<path fill="#FFFFFF" d="M55.1,79.1l0.3-2.3h-1v-0.7h1.1l0.2-1.7h-1v-0.7h1.1l0.3-2.3h0.7l-0.3,2.3h1.3l0.3-2.3h0.7l-0.3,2.3h1v0.7
	h-1.1l-0.2,1.7h1v0.7h-1.1l-0.3,2.3H57l0.3-2.3h-1.2l-0.3,2.3L55.1,79.1L55.1,79.1L55.1,79.1z M57.4,76.1l0.2-1.7h-1.3l-0.2,1.7
	H57.4z"/>
<path fill="#FFFFFF" d="M34.8,20c0,1.6-0.9,2.5-1.9,2.5c-1,0-1.8-0.8-1.8-2.3c0-1.6,0.8-2.4,1.9-2.4C34.1,17.6,34.8,18.5,34.8,20z
	 M32,20c0,1,0.4,1.8,1,1.8c0.7,0,1-0.7,1-1.8c0-1-0.3-1.7-1-1.7C32.3,18.3,32,19.1,32,20z M32.9,25.7l4.6-8.1h0.7l-4.6,8.1H32.9z
	 M39.9,23.2c0,1.6-0.9,2.5-1.9,2.5c-1,0-1.8-0.8-1.8-2.3c0-1.6,0.9-2.4,1.9-2.4C39.2,20.9,39.9,21.7,39.9,23.2z M37.1,23.3
	c0,1,0.4,1.8,1,1.8c0.7,0,1-0.7,1-1.8c0-0.9-0.3-1.7-1-1.7C37.4,21.5,37.1,22.3,37.1,23.3z"/>
<path fill="#FFFFFF" d="M23.4,51.7c-0.2-0.2-0.4-0.5-0.8-0.8c-0.7,0.6-1.5,0.9-2.3,0.9c-1.6,0-2.5-1.1-2.5-2.3
	c0-1.1,0.6-1.9,1.6-2.3v0c-0.4-0.5-0.7-1.1-0.7-1.7c0-1,0.7-2,2.1-2c1,0,1.8,0.6,1.8,1.7c0,0.9-0.5,1.5-1.8,2.1v0.1
	c0.7,0.8,1.4,1.6,2,2.2c0.4-0.6,0.6-1.4,0.8-2.3h1c-0.2,1.3-0.6,2.3-1.1,3c0.4,0.5,0.9,0.9,1.3,1.4L23.4,51.7L23.4,51.7L23.4,51.7z
	 M22.2,50.3c-0.5-0.5-1.4-1.5-2.3-2.6c-0.4,0.3-1,0.8-1,1.6c0,0.9,0.7,1.6,1.7,1.6C21.2,51,21.8,50.7,22.2,50.3z M19.7,45.4
	c0,0.6,0.3,1,0.6,1.5c0.8-0.5,1.4-0.9,1.4-1.6c0-0.5-0.3-1-0.9-1C20,44.2,19.7,44.7,19.7,45.4z"/>
<path fill="#FFFFFF" d="M79.4,62.9l3.3-8.7h0.8l-3.3,8.7H79.4z"/>
<path fill="#FFFFFF" d="M20.3,30.2c-1,0.9-1.8,2.1-2.1,4c-0.3,1.9,0.2,3.3,0.9,4.4l-0.8-0.1c-0.6-1-1.2-2.4-0.9-4.4
	c0.3-2,1.3-3.2,2.2-4L20.3,30.2z"/>
<path fill="#FFFFFF" d="M70.9,37.4c-1.2-0.8-2.8-1.3-5-1.1c-2.1,0.2-3.6,0.9-4.8,1.8l-0.1-0.8c0.9-0.8,2.4-1.7,4.8-1.9
	c2.3-0.2,3.9,0.5,5,1.2L70.9,37.4z"/>
<path fill="#FFFFFF" d="M57.4,13.9l0.1-0.7l6.1,1.1L63.5,15L57.4,13.9z M57,16.2l0.1-0.7l6.1,1.1l-0.1,0.7L57,16.2z"/>
<path fill="#FFFFFF" d="M24.5,45.2l-0.1-0.3c-0.3-0.6-0.3-1.3,0.1-2.2c0.3-0.8,0.4-1.3,0.3-1.8c-0.2-0.6-0.7-0.9-1.4-0.6
	c-0.4,0.2-0.8,0.4-1,0.7l-0.5-0.6c0.3-0.4,0.9-0.8,1.5-1c1.3-0.4,2.2,0.2,2.5,1c0.3,0.8,0,1.5-0.3,2.3c-0.3,0.8-0.3,1.3-0.1,1.9
	l0.1,0.3L24.5,45.2z M24.8,46.9c-0.2-0.4,0-0.8,0.4-0.9c0.4-0.2,0.8,0.1,0.9,0.5c0.1,0.4,0,0.8-0.4,0.9
	C25.3,47.5,24.9,47.2,24.8,46.9z"/>
<path fill="#FFFFFF" d="M19.5,41.7c0,1-0.8,1.6-1.6,1.6c-0.9,0-1.6-0.7-1.6-1.6c0-0.9,0.7-1.6,1.6-1.6C19,40.1,19.5,40.8,19.5,41.7z
	 M17,41.7c0,0.6,0.4,1,0.9,1c0.6,0,0.9-0.4,0.9-1c0-0.4-0.3-1-1-1C17.3,40.6,17,41.2,17,41.7z"/>
<path fill="#FFFFFF" d="M66,1.6c0,0.4-0.3,0.7-0.7,0.7c-0.4,0-0.7-0.3-0.7-0.7c0-0.4,0.3-0.8,0.7-0.8C65.7,0.9,66,1.2,66,1.6z
	 M64.7,9.1l0.2-5.7h0.8l0.2,5.7H64.7z"/>
<path fill="#FFFFFF" d="M46.7,62.3c-0.3,0.2-0.6,0.6-0.8,1.2c-0.2,0.7-0.1,1.3,0.4,1.5c0.6,0.2,1-0.3,1.6-1c0.7-0.9,1.4-1.6,2.4-1.2
	c0.6,0.2,0.9,0.6,1.1,1.2c0.2-0.1,0.7-0.2,1.1-0.1c1.2,0.4,1.3,1.7,0.9,2.7c-0.2,0.7-0.6,1.3-1.1,1.6l-0.6-0.5
	c0.3-0.2,0.7-0.7,1-1.4c0.3-0.7,0.1-1.4-0.5-1.6c-0.5-0.2-0.9,0-1.7,1c-0.8,1-1.5,1.7-2.5,1.3c-0.4-0.2-0.9-0.6-1-1.3
	c-0.3,0.2-0.7,0.2-1.1,0.1c-1-0.4-1.3-1.5-0.9-2.7c0.2-0.6,0.6-1.1,0.9-1.4L46.7,62.3z M49.9,65.5c0.4-0.5,0.7-0.9,1-1.1
	c-0.1-0.4-0.4-0.6-0.7-0.7c-0.4-0.2-0.9,0-1.4,0.6c-0.3,0.4-0.7,0.9-1.1,1.2c0.1,0.4,0.4,0.7,0.7,0.8C48.8,66.4,49.3,66.2,49.9,65.5
	z"/>
<path fill="#FFFFFF" d="M68.3,18.4c-0.6,0.6-1.2,1.3-2.2,1.3c-1,0-1.7-0.7-1.7-1.8c0-1,0.8-1.8,1.8-1.8c0.9,0,1.6,0.7,2.1,1.3
	c0.6-0.6,1.2-1.3,2.2-1.3s1.7,0.7,1.7,1.8c0,0.9-0.8,1.8-1.8,1.8C69.5,19.7,68.9,19,68.3,18.4z M67.8,17.9c-0.5-0.4-1-1.1-1.6-1.1
	c-0.6,0-1.1,0.5-1.1,1.1c0,0.6,0.4,1,1,1C66.8,19,67.4,18.4,67.8,17.9z M71.5,17.9c0-0.6-0.4-1.1-1-1.1c-0.7,0-1.2,0.6-1.7,1.1
	c0.5,0.4,1,1,1.7,1C71,19,71.5,18.5,71.5,17.9z"/>
<path fill="#FFFFFF" d="M34.2,67.1c-0.1-0.6,0.1-1.4,0.6-2c0.5-0.5,1-0.6,1.4-0.8c0.4-0.2,0.8-0.3,1.2-0.7c0.4-0.4,0.5-1,0.4-1.5
	l0.6,0c0.1,0.6-0.1,1.4-0.6,2c-0.5,0.5-1,0.6-1.4,0.8c-0.4,0.2-0.8,0.3-1.2,0.7c-0.4,0.4-0.5,1.1-0.4,1.5L34.2,67.1L34.2,67.1z
	 M32.4,65.6c-0.1-0.6,0.1-1.4,0.6-2c0.5-0.5,1-0.6,1.4-0.8c0.4-0.2,0.8-0.3,1.2-0.7c0.4-0.4,0.5-1,0.4-1.5l0.6,0.1
	c0.1,0.6-0.1,1.4-0.6,2c-0.5,0.5-1,0.6-1.4,0.8c-0.4,0.2-0.8,0.3-1.2,0.7c-0.4,0.4-0.5,1-0.4,1.5L32.4,65.6z"/>
<path fill="#FFFFFF" d="M26.7,37l-1.6-0.5l-0.2-0.8l1.6,0.6l-0.4-1.7l0.7-0.2l0.6,2.1l1.9,0.6L28.4,34l0.7-0.2l0.9,3.6l1.6,0.5
	l0.2,0.8l-1.6-0.6l0.4,1.7L30,40l-0.6-2.1l-1.9-0.6l0.8,3.2l-0.7,0.2L26.7,37z"/>
<path fill="#FFFFFF" d="M36.8,55l-1.7,1.6l1.9,2l-0.5,0.5l-1.9-2l-1.8,1.6l-0.5-0.6l1.8-1.6l-1.9-2l0.5-0.5l1.9,2l1.7-1.6L36.8,55z
	 M34.2,61.1l-0.5,0.5l-4.2-4.5l0.5-0.5L34.2,61.1z"/>
<path fill="#FFFFFF" d="M66,78.4v-9.6h2.2v0.6h-1.4v8.2h1.4v0.6L66,78.4L66,78.4z"/>
<path fill="#FFFFFF" d="M39.5,34.5V44h-2.2v-0.7h1.4v-8.2h-1.4v-0.6H39.5L39.5,34.5z"/>
<path fill="#FFFFFF" d="M66.7,49.8c0-0.4,0.3-0.8,0.7-0.8c0.4,0,0.7,0.3,0.7,0.8c0,0.4-0.3,0.7-0.7,0.7C67,50.5,66.7,50.2,66.7,49.8
	z"/>
<path fill="#FFFFFF" d="M76.8,12.6c0-0.4,0.3-0.8,0.7-0.8s0.7,0.3,0.7,0.8c0,0.4-0.3,0.7-0.7,0.7C77.1,13.4,76.8,13.1,76.8,12.6z"/>
<path fill="#FFFFFF" d="M83.1,61c0-0.4,0.3-0.8,0.7-0.8s0.7,0.3,0.7,0.8c0,0.4-0.3,0.7-0.7,0.7C83.3,61.7,83.1,61.4,83.1,61z"/>
<path fill="#FFFFFF" d="M70.8,44.1c0-0.4,0.3-0.8,0.7-0.8s0.7,0.3,0.7,0.8c0,0.4-0.3,0.7-0.7,0.7C71.1,44.8,70.8,44.5,70.8,44.1z"/>
<g>
	<path fill="#FFFFFF" d="M42.5,71.1h-0.4l0.2-2.4h7.1l-5.7,8.7h3c0.9,0,1.6-0.2,2-0.4c0.4-0.3,0.6-0.8,0.8-1.6h0.4L49.4,78h-7.7
		l5.7-8.7h-2.5c-0.9,0-1.4,0.1-1.7,0.4C42.8,69.9,42.6,70.4,42.5,71.1z"/>
</g>
<path fill="#FFFFFF" d="M22.4,52.1c0.2,0.7,0.6,0.7,1,0.6c0.3-0.1,0.6-0.2,0.8-0.3c0.3-0.1,0.6-0.2,0.8-0.3c0.9-0.3,1.5,0.3,1.7,1.1
	l0.1,0.2l-0.6,0.2l0-0.2c-0.2-0.6-0.5-0.7-1.1-0.6c-0.2,0.1-0.5,0.2-0.7,0.3c-0.2,0.1-0.5,0.2-0.7,0.3c-0.6,0.2-1,0-1.3-0.4h0
	c0,0.5-0.3,0.9-0.9,1c-0.3,0.1-0.5,0.1-0.8,0.1c-0.3,0-0.5,0.1-0.7,0.1c-0.6,0.2-0.8,0.5-0.6,1l0,0.2l-0.6,0.2l-0.1-0.2
	c-0.2-0.8,0-1.6,1-1.8c0.3-0.1,0.6-0.1,0.9-0.1c0.3-0.1,0.6-0.1,0.8-0.2c0.3-0.1,0.7-0.3,0.5-1L22.4,52.1z"/>
<path fill="#FFFFFF" d="M52.7,0.8c0,0.5,0.4,0.6,0.6,0.6c0.2,0,0.4,0,0.6-0.1c0.2,0,0.4-0.1,0.6-0.1c0.8,0,1.1,0.4,1.1,1v0.2l-0.4,0
	V2.2c0-0.4-0.3-0.6-0.7-0.6c-0.2,0-0.4,0-0.6,0.1c-0.2,0-0.4,0.1-0.6,0.1c-0.5,0-0.8-0.2-0.9-0.5h0c-0.1,0.3-0.3,0.5-0.9,0.6
	c-0.2,0-0.4,0-0.6,0c-0.2,0-0.4,0-0.6,0c-0.4,0-0.7,0.2-0.7,0.6v0.1l-0.4,0.1V2.4c0-0.6,0.3-1.1,1-1.1c0.2,0,0.4,0,0.7,0
	c0.2,0,0.4,0,0.7,0c0.3,0,0.6-0.1,0.6-0.6L52.7,0.8L52.7,0.8z"/>
<path fill="#FFFFFF" d="M32.2,70.5c0,0.8-0.4,1.2-0.9,1.2c-0.5,0-0.9-0.4-0.9-1.1c0-0.8,0.4-1.2,0.9-1.2
	C31.8,69.3,32.2,69.8,32.2,70.5z M30.8,70.5c0,0.5,0.2,0.9,0.5,0.9c0.4,0,0.5-0.4,0.5-0.9c0-0.5-0.2-0.9-0.5-0.9
	C31,69.7,30.8,70.1,30.8,70.5z M31.3,73.3l2.3-4h0.3l-2.3,4H31.3z M34.7,72.1c0,0.8-0.4,1.2-0.9,1.2c-0.5,0-0.9-0.4-0.9-1.1
	c0-0.8,0.4-1.2,0.9-1.2C34.4,70.9,34.7,71.3,34.7,72.1z M33.3,72.1c0,0.5,0.2,0.9,0.5,0.9c0.4,0,0.5-0.4,0.5-0.9
	c0-0.5-0.2-0.9-0.5-0.9C33.5,71.2,33.3,71.7,33.3,72.1z"/>
<path fill="#FFFFFF" d="M32.2,42.3l-2.4,1.1c-0.6,0.3-1,0.3-1.4,0.2c-0.3-0.1-0.5-0.3-0.6-0.6c-0.2-0.5-0.1-1.1,0.5-1.4
	c0.2-0.1,0.4-0.1,0.5-0.1c0.2,0.2,0.4,0.3,0.6,0.2c0.2-0.1,0.2-0.2,0.4-0.5c0.1-0.3,0.2-0.6,0.6-0.8c0.5-0.2,1,0,1.3,0.6
	c0.1,0.2,0.2,0.4,0.2,0.6l-0.4,0.1c0-0.2,0-0.4-0.1-0.5c-0.2-0.4-0.4-0.4-0.7-0.3c-0.2,0.1-0.3,0.3-0.4,0.6
	c-0.1,0.3-0.2,0.6-0.5,0.8c-0.3,0.1-0.6,0.1-0.9-0.2c-0.1,0-0.2,0-0.3,0.1c-0.4,0.2-0.5,0.5-0.3,0.8c0.2,0.4,0.6,0.5,1.4,0.2
	l2.5-1.1L32.2,42.3z"/>
<path fill="#FFFFFF" d="M29.3,52.3c0,0,0.1,0.1,0.1,0.1c0.4,0.3,0.6,0.5,0.8,0.6l0.2,0.2c0.3,0.2,0.5,0.4,0.6,0.4s0.2,0,0.2-0.1
	c0.1-0.1,0.1-0.2,0-0.4c-0.1-0.1-0.2-0.3-0.4-0.4l0.1-0.2l0,0c0.3,0.2,0.5,0.4,0.5,0.6s0,0.4-0.1,0.6C31.2,53.9,31,54,30.8,54
	s-0.5-0.2-1-0.5c-0.1,0-0.2-0.2-0.4-0.3c-0.2-0.2-0.4-0.3-0.6-0.4c-0.1,0.1-0.1,0.2-0.2,0.3c-0.1,0.1-0.2,0.2-0.3,0.4
	c0.8,0.6,1.4,1.1,1.6,1.4c0.2,0.3,0.3,0.5,0.1,0.7c-0.1,0.1-0.2,0.2-0.4,0.2s-0.3-0.1-0.5-0.2L29,55.3l0.1-0.1
	c0.1,0.1,0.2,0.1,0.3,0.1c0.1,0,0.1,0,0.2-0.1c0.1-0.2,0.1-0.3-0.1-0.6c-0.2-0.2-0.6-0.6-1.3-1.1l-0.1,0.1C28,53.8,28,54,27.9,54.1
	c0,0.1,0,0.2,0.1,0.3L28,54.5c-0.2-0.2-0.4-0.4-0.4-0.6c0-0.2,0.1-0.4,0.3-0.8c0.1-0.1,0.2-0.2,0.4-0.5c0.2-0.3,0.4-0.6,0.6-0.8
	c0.1-0.1,0.2-0.2,0.2-0.3c0-0.1,0-0.2-0.1-0.2l0,0l0.1-0.1l0,0c0.2,0.2,0.3,0.3,0.3,0.4c0,0.2,0,0.3-0.2,0.5c0,0,0,0.1-0.1,0.1
	C29.3,52.2,29.3,52.3,29.3,52.3z"/>
<path fill="#FFFFFF" d="M27.8,61.3l-0.2,0c0,0,0,0,0,0c0-0.1,0-0.2-0.1-0.2c0-0.2,0-0.4,0.1-0.6c0.1-0.2,0.2-0.3,0.4-0.3
	c0.2,0,0.3,0,0.4,0.1c0.1,0.1,0.2,0.2,0.3,0.4l1,1.8l0.7-2.7l0.7-0.1l-0.9,3.8l0.2,0.4c0.1,0.2,0.2,0.3,0.3,0.4
	c0.1,0.1,0.2,0.1,0.4,0.1c0.1,0,0.3-0.1,0.3-0.2c0.1-0.1,0.1-0.2,0.1-0.3l0.2,0c0,0,0,0,0,0.1c0,0,0,0,0,0.1c0,0.2,0,0.4-0.1,0.6
	c-0.1,0.2-0.2,0.3-0.4,0.3c-0.2,0-0.4,0-0.5-0.1c-0.1-0.1-0.3-0.3-0.5-0.7l-1.4-2.6c-0.2-0.3-0.3-0.4-0.4-0.5
	c-0.1-0.1-0.2-0.1-0.4-0.1c-0.1,0-0.2,0.1-0.3,0.2C27.8,61.1,27.7,61.2,27.8,61.3z"/>
<path fill="#FFFFFF" d="M86.6,71.5c-0.3-0.4-0.6-0.3-0.8-0.1c-0.2,0.1-0.3,0.3-0.5,0.4c-0.2,0.2-0.3,0.3-0.5,0.4
	c-0.7,0.5-1.2,0.3-1.5-0.2l-0.1-0.1l0.4-0.3l0.1,0.1c0.2,0.3,0.5,0.3,0.9,0.1c0.2-0.1,0.3-0.2,0.4-0.4c0.2-0.2,0.3-0.3,0.5-0.4
	c0.4-0.3,0.8-0.3,1-0.1h0c-0.1-0.3,0-0.6,0.4-0.9c0.2-0.1,0.4-0.2,0.5-0.3c0.2-0.1,0.4-0.2,0.5-0.3c0.4-0.3,0.5-0.5,0.2-0.9
	l-0.1-0.1l0.4-0.3l0.1,0.1c0.4,0.5,0.3,1-0.3,1.5c-0.2,0.1-0.4,0.2-0.6,0.4c-0.2,0.1-0.4,0.2-0.6,0.3c-0.2,0.2-0.4,0.4-0.2,0.8
	L86.6,71.5z"/>
</svg>
