<?xml version="1.0" encoding="utf-8"?>
<!-- Generator: Adobe Illustrator 18.1.1, SVG Export Plug-In . SVG Version: 6.00 Build 0)  -->
<svg version="1.1" id="Layer_1" xmlns="http://www.w3.org/2000/svg" xmlns:xlink="http://www.w3.org/1999/xlink" x="0px" y="0px"
	 viewBox="0 0 497.5 451" enable-background="new 0 0 497.5 451" xml:space="preserve">
<text transform="matrix(1.3347 0 0 1 360.5142 126.5564)" fill="#1C1D26" font-family="'MyriadPro-Regular'" font-size="112.9154">?</text>
<text transform="matrix(1.3347 0 0 1 403.9714 275.7281)" fill="#1C1D26" font-family="'MyriadPro-Regular'" font-size="164.0241">?</text>
<text transform="matrix(1.3347 0 0 1 316.4044 424.9)" fill="#1C1D26" font-family="'MyriadPro-Regular'" font-size="154.6798">?</text>
<text transform="matrix(1.3347 0 0 1 212.8333 451.0262)" fill="#1C1D26" font-family="'MyriadPro-Regular'" font-size="154.6798">?</text>
<text transform="matrix(1.3347 0 0 1 87.1874 435.0264)" fill="#1C1D26" font-family="'MyriadPro-Regular'" font-size="154.6798">?</text>
<text transform="matrix(1.3347 0 0 1 1.576098e-04 290.2297)" fill="#1C1D26" font-family="'MyriadPro-Regular'" font-size="154.6798">?</text>
<text transform="matrix(1.3347 0 0 1 56.8075 163.6517)" fill="#1C1D26" font-family="'MyriadPro-Regular'" font-size="131.319">?</text>
<text transform="matrix(1.3347 0 0 1 167.2577 72.3923)" fill="#1C1D26" font-family="'MyriadPro-Regular'" font-size="91.2887">?</text>
<text transform="matrix(1.3347 0 0 1 270.7321 64.0372)" fill="#1C1D26" font-family="'MyriadPro-Regular'" font-size="89.27">?</text>
<text transform="matrix(1.4 0 0 1 141.9439 306.5216)" fill="#1ABC9C" font-family="'MyriadPro-Regular'" font-size="299.0778">¥</text>
<text transform="matrix(0.6376 -0.5765 0.6707 0.7417 131.7366 314.4815)" fill="#1C1D26" font-family="'MyriadPro-Regular'" font-size="106.0731">€</text>
<text transform="matrix(0.9326 0.3608 -0.3608 0.9326 351.8471 249.7237)" fill="#1C1D26" font-family="'MyriadPro-Regular'" font-size="72">$</text>
</svg>
