<?xml version="1.0" encoding="utf-8"?>
<!-- Generator: Adobe Illustrator 18.1.1, SVG Export Plug-In . SVG Version: 6.00 Build 0)  -->
<svg version="1.1" id="Layer_1" xmlns="http://www.w3.org/2000/svg" xmlns:xlink="http://www.w3.org/1999/xlink" x="0px" y="0px"
	 viewBox="0 117.1 624.6 603" enable-background="new 0 117.1 624.6 603" xml:space="preserve">
<g enable-background="new    ">
	<path fill="#1C1D26" d="M476.7,256.7c-0.1-1.6-0.1-2.8-0.1-3.6c0-4.7,0.9-8.8,2.7-12.2c1.3-2.6,3.4-5.2,6.3-7.8
		c2.1-1.9,6-4.7,11.5-8.3c5.5-3.7,9.1-6.6,10.8-8.7c1.7-2.2,2.5-4.5,2.5-7.1c0-4.7-2.4-8.7-7.3-12.3c-4.9-3.5-10.8-5.3-17.8-5.3
		c-6.8,0-12.5,1.6-17,4.8c-4.6,3.2-7.5,8.2-9,15l-16.4-1.5c1.5-9.1,5.9-16,13.2-20.9c7.3-4.8,17-7.2,29-7.2
		c12.7,0,22.9,2.6,30.4,7.8c7.6,5.2,11.4,11.5,11.4,18.8c0,4.3-1.3,8.2-4,11.8c-2.7,3.6-7.9,8-15.6,13.1c-5.2,3.5-8.6,6-10.2,7.6
		c-1.6,1.6-2.8,3.5-3.6,5.7c-0.8,2.1-1.2,5.6-1.3,10.4H476.7z M475.7,280.7V267h18.2v13.6H475.7z"/>
</g>
<g enable-background="new    ">
	<path fill="#1C1D26" d="M535.1,428.5c-0.1-2.1-0.1-3.7-0.1-4.8c0-6.3,1.2-11.7,3.6-16.2c1.7-3.4,4.5-6.9,8.4-10.4
		c2.8-2.5,8-6.3,15.3-11.1c7.4-4.9,12.2-8.8,14.4-11.7c2.2-2.9,3.3-6.1,3.3-9.5c0-6.2-3.2-11.7-9.7-16.4c-6.5-4.7-14.4-7.1-23.8-7.1
		c-9.1,0-16.7,2.1-22.7,6.4c-6.1,4.3-10.1,10.9-12,20l-21.9-2c2-12.1,7.8-21.4,17.6-27.9c9.7-6.4,22.6-9.7,38.7-9.7
		c17,0,30.5,3.5,40.6,10.4c10.1,6.9,15.2,15.3,15.2,25.1c0,5.7-1.8,10.9-5.3,15.7c-3.6,4.8-10.5,10.6-20.8,17.5
		c-6.9,4.6-11.5,8-13.6,10.2s-3.7,4.7-4.7,7.5c-1,2.8-1.6,7.5-1.8,13.8H535.1z M533.8,460.6v-18.2H558v18.2H533.8z"/>
</g>
<g enable-background="new    ">
	<path fill="#1C1D26" d="M438.7,609.3c-0.1-1.8-0.1-3.2-0.1-4.1c0-5.4,1-10,3.1-14c1.5-2.9,3.9-5.9,7.2-8.9
		c2.4-2.2,6.8-5.4,13.2-9.6c6.3-4.2,10.5-7.5,12.4-10c1.9-2.5,2.9-5.2,2.9-8.2c0-5.3-2.8-10-8.3-14.1c-5.6-4-12.4-6.1-20.5-6.1
		c-7.8,0-14.3,1.8-19.5,5.5c-5.2,3.7-8.7,9.4-10.3,17.2l-18.8-1.7c1.7-10.4,6.7-18.4,15.1-24c8.4-5.5,19.5-8.3,33.2-8.3
		c14.6,0,26.2,3,34.9,8.9c8.7,6,13,13.1,13,21.6c0,4.9-1.5,9.4-4.6,13.5c-3.1,4.1-9,9.1-17.9,15c-6,4-9.9,6.9-11.7,8.8
		c-1.8,1.9-3.2,4-4.1,6.5c-0.9,2.4-1.4,6.4-1.5,11.9H438.7z M437.5,636.8v-15.6h20.9v15.6H437.5z"/>
</g>
<g enable-background="new    ">
	<path fill="#1C1D26" d="M314.1,681.1c-0.1-2.2-0.1-3.8-0.1-4.9c0-6.4,1.2-12,3.6-16.7c1.8-3.5,4.7-7.1,8.6-10.7
		c2.9-2.6,8.2-6.4,15.7-11.4c7.6-5,12.5-9,14.8-12c2.3-3,3.4-6.2,3.4-9.7c0-6.4-3.3-12-10-16.8c-6.6-4.8-14.8-7.2-24.4-7.2
		c-9.3,0-17.1,2.2-23.3,6.6c-6.2,4.4-10.3,11.2-12.3,20.5l-22.5-2c2-12.4,8-22,18.1-28.6c10-6.6,23.2-9.9,39.7-9.9
		c17.4,0,31.3,3.6,41.7,10.7c10.4,7.1,15.6,15.7,15.6,25.8c0,5.8-1.8,11.2-5.5,16.1c-3.6,4.9-10.8,10.9-21.4,17.9
		c-7.1,4.7-11.8,8.2-14,10.5c-2.2,2.2-3.8,4.8-4.9,7.7c-1.1,2.9-1.7,7.7-1.8,14.2H314.1z M312.7,714v-18.7h24.9V714H312.7z"/>
</g>
<g enable-background="new    ">
	<path fill="#1C1D26" d="M165,608.1c-0.1-1.7-0.1-3-0.1-3.8c0-5,0.9-9.3,2.8-12.9c1.4-2.7,3.6-5.5,6.7-8.2c2.3-2,6.3-5,12.2-8.8
		c5.9-3.9,9.7-7,11.4-9.3c1.8-2.3,2.6-4.8,2.6-7.5c0-4.9-2.6-9.3-7.7-13c-5.1-3.7-11.4-5.6-18.9-5.6c-7.2,0-13.2,1.7-18,5.1
		c-4.8,3.4-8,8.7-9.5,15.8l-17.4-1.5c1.6-9.6,6.2-17,13.9-22.1c7.7-5.1,18-7.7,30.7-7.7c13.5,0,24.2,2.7,32.2,8.2
		c8,5.5,12,12.1,12,19.9c0,4.5-1.4,8.7-4.2,12.5c-2.8,3.8-8.3,8.4-16.5,13.9c-5.5,3.7-9.1,6.4-10.8,8.1c-1.7,1.7-2.9,3.7-3.8,6
		c-0.8,2.3-1.3,5.9-1.4,11H165z M163.9,633.5V619h19.3v14.4H163.9z"/>
</g>
<g enable-background="new    ">
	<path fill="#1C1D26" d="M52.7,446.5c-0.1-2-0.1-3.4-0.1-4.4c0-5.8,1.1-10.8,3.3-15c1.6-3.2,4.2-6.4,7.8-9.6
		c2.6-2.3,7.3-5.8,14.1-10.3c6.8-4.5,11.2-8.1,13.3-10.8c2-2.7,3.1-5.6,3.1-8.8c0-5.7-3-10.8-9-15.1c-6-4.3-13.3-6.5-21.9-6.5
		c-8.4,0-15.4,2-21,5.9c-5.6,3.9-9.3,10.1-11,18.4l-20.2-1.8c1.8-11.2,7.2-19.7,16.2-25.7c9-5.9,20.9-8.9,35.7-8.9
		c15.7,0,28.1,3.2,37.5,9.6c9.3,6.4,14,14.1,14,23.2c0,5.2-1.6,10.1-4.9,14.5c-3.3,4.4-9.7,9.8-19.2,16.1
		c-6.4,4.3-10.6,7.4-12.6,9.4c-2,2-3.4,4.3-4.4,7c-0.9,2.6-1.5,6.9-1.6,12.8H52.7z M51.5,476.1v-16.8h22.4v16.8H51.5z"/>
</g>
<g enable-background="new    ">
	<path fill="#1C1D26" d="M96.2,284.5c-0.1-1.9-0.1-3.2-0.1-4.2c0-5.5,1-10.2,3.1-14.2c1.5-3,4-6,7.3-9c2.5-2.2,6.9-5.5,13.4-9.7
		c6.4-4.3,10.6-7.6,12.5-10.2c1.9-2.5,2.9-5.3,2.9-8.3c0-5.4-2.8-10.2-8.5-14.3c-5.6-4.1-12.6-6.1-20.7-6.1
		c-7.9,0-14.5,1.9-19.8,5.6c-5.3,3.7-8.8,9.5-10.4,17.4l-19.1-1.7c1.7-10.6,6.8-18.7,15.3-24.3c8.5-5.6,19.7-8.4,33.7-8.4
		c14.8,0,26.6,3,35.4,9c8.8,6,13.2,13.3,13.2,21.9c0,4.9-1.5,9.5-4.6,13.7c-3.1,4.2-9.2,9.3-18.2,15.2c-6.1,4-10,7-11.9,8.9
		c-1.9,1.9-3.2,4.1-4.1,6.6c-0.9,2.5-1.4,6.5-1.5,12.1H96.2z M95.1,312.4v-15.9h21.2v15.9H95.1z"/>
</g>
<g enable-background="new    ">
	<path fill="#1C1D26" d="M235.6,195.9c0-1.3-0.1-2.3-0.1-2.9c0-3.8,0.7-7.1,2.2-9.8c1.1-2.1,2.8-4.2,5.1-6.3
		c1.7-1.5,4.8-3.8,9.3-6.7c4.5-3,7.4-5.3,8.7-7.1c1.3-1.8,2-3.7,2-5.8c0-3.8-2-7.1-5.9-9.9c-3.9-2.8-8.7-4.3-14.4-4.3
		c-5.5,0-10.1,1.3-13.8,3.9c-3.7,2.6-6.1,6.6-7.2,12.1l-13.3-1.2c1.2-7.3,4.7-13,10.7-16.9c5.9-3.9,13.7-5.9,23.4-5.9
		c10.3,0,18.5,2.1,24.6,6.3c6.1,4.2,9.2,9.3,9.2,15.2c0,3.4-1.1,6.6-3.2,9.5c-2.2,2.9-6.4,6.4-12.6,10.6c-4.2,2.8-7,4.9-8.3,6.2
		c-1.3,1.3-2.2,2.8-2.9,4.6c-0.6,1.7-1,4.5-1.1,8.4H235.6z M234.8,215.3v-11h14.7v11H234.8z"/>
</g>
<g enable-background="new    ">
	<path fill="#1C1D26" d="M359.6,186.3c0-1.3-0.1-2.2-0.1-2.8c0-3.7,0.7-6.9,2.1-9.6c1-2,2.7-4.1,5-6.2c1.7-1.5,4.7-3.7,9.1-6.6
		c4.4-2.9,7.2-5.2,8.5-6.9c1.3-1.7,2-3.6,2-5.6c0-3.7-1.9-6.9-5.8-9.7c-3.8-2.8-8.5-4.2-14.1-4.2c-5.4,0-9.9,1.3-13.5,3.8
		c-3.6,2.5-6,6.5-7.1,11.8l-13-1.2c1.2-7.2,4.6-12.7,10.4-16.5c5.8-3.8,13.4-5.7,22.9-5.7c10.1,0,18.1,2,24.1,6.2s9,9.1,9,14.9
		c0,3.4-1.1,6.5-3.2,9.3c-2.1,2.8-6.2,6.3-12.3,10.4c-4.1,2.7-6.8,4.7-8.1,6c-1.3,1.3-2.2,2.8-2.8,4.5c-0.6,1.7-1,4.4-1.1,8.2H359.6
		z M358.9,205.3v-10.8h14.4v10.8H358.9z"/>
</g>
<g enable-background="new    ">
	<path fill="#1ABC9C" d="M288.8,505.7v-57.2H186.5V424h102.3v-25.2H186.5v-26.1h84.1L170.4,247.5h49.3l71.5,90.9
		c8.1,10.3,14.3,19.4,18.7,27.1c3.8-6.2,10.5-15.8,20.2-28.7l67.6-89.3h52.8l-99.9,125.2h84.1v26.1H333.2V424h101.6v24.5H333.2v57.2
		H288.8z"/>
</g>
<g enable-background="new    ">
	<path fill="#1C1D26" d="M144.2,436.3c-3.5,3.2-5.6,6.9-6.2,11.1c-0.4,2.5-0.2,5.3,0.6,8.5c0.8,3.3,2.1,6.1,3.7,8.3l21.6-19.5
		l3.6,5.7l-21.2,19.2c0.4,0.5,0.9,1,1.3,1.5c1.7,1.9,2.7,3,3.1,3.4l20.4-18.4l3.6,5.7l-18.8,17c6,4.8,11.7,6.9,17.2,6.2
		c4-0.5,7.4-2,10.2-4.6c3.9-3.6,5.9-7.6,6-12l6.9,7.6c-1.4,3.8-3.6,7.2-6.8,10c-9.5,8.6-20.2,9.8-31.9,3.6c-2.4-1.3-5-3-7.9-5.2
		l-4.8,4.4L141,483l3.3-3c-1-1-2-2.1-3.1-3.3c-0.4-0.5-0.9-1-1.3-1.5l-4.1,3.7l-3.6-5.7l3.7-3.3c-5.9-9.2-7.7-18-5.4-26.5
		c1.4-5.2,4.2-9.7,8.3-13.4c3.9-3.5,8.1-5.5,12.6-6l4.9,8C151.5,431.9,147.5,433.3,144.2,436.3z"/>
</g>
<g enable-background="new    ">
	<path fill="#1C1D26" d="M465.3,507.2l2.8-7.1c-3.4-1.8-6-3.7-7.8-5.8c-1.8-2-3-4.6-3.6-7.8c-0.6-3.2-0.4-6.7,0.8-10.5l7.7,1.4
		c-0.9,4-1,7.2-0.3,9.6c1,3.3,2.9,5.6,5.6,7l8.8-22.7c-2.7-1.7-5.3-4-7.7-6.9c-1.8-2.1-2.8-4.6-3.2-7.3c-0.4-2.7,0-5.5,1.1-8.3
		c2-5.1,5.3-8.5,10.1-10.2c3.2-1.2,7.3-1.1,12.2,0.3l1.3-3.4l4.2,1.6l-1.3,3.4c4,2,6.8,4.5,8.4,7.4c2.1,3.8,2.6,8.1,1.5,12.8
		l-7.8-1.7c0.7-3,0.6-5.4-0.1-7.4s-2.2-3.7-4.3-5.1l-7.9,20.5c3.2,2.3,5.3,3.9,6.3,4.8c1.8,1.8,3.2,3.7,4,5.7c0.9,1.9,1.3,4,1.3,6.2
		c0,2.2-0.4,4.4-1.3,6.7c-1.9,4.9-5.1,8.4-9.5,10.5c-4.4,2.1-9.2,2.3-14.2,0.6l-2.8,7.2L465.3,507.2z M474.5,495.7
		c2.9,0.7,5.7,0.4,8.3-0.9s4.5-3.6,5.7-6.6c1-2.6,1.2-4.9,0.5-7c-0.7-2.1-2.7-4.5-6-7.2L474.5,495.7z M489.4,444.9
		c-2.9-0.6-5.5-0.4-7.8,0.8c-2.3,1.2-3.9,3-4.9,5.4c-0.9,2.4-1,4.7-0.3,6.9c0.7,2.2,2.5,4.4,5.4,6.6L489.4,444.9z"/>
</g>
</svg>
