<?xml version="1.0" encoding="utf-8"?>
<!-- Generator: Adobe Illustrator 17.1.0, SVG Export Plug-In . SVG Version: 6.00 Build 0)  -->
<!DOCTYPE svg PUBLIC "-//W3C//DTD SVG 1.1//EN" "http://www.w3.org/Graphics/SVG/1.1/DTD/svg11.dtd">
<svg version="1.1" id="Layer_1" xmlns="http://www.w3.org/2000/svg" xmlns:xlink="http://www.w3.org/1999/xlink" x="0px" y="0px"
	 viewBox="0 0 612 792" enable-background="new 0 0 612 792" xml:space="preserve">
<path fill="#33485D" d="M223.2,362.7c1-0.6,1.3-1.9,0.8-2.9c0,0-0.1-0.1-0.1-0.1l0,0L197,313.1l0,0c-0.2-0.4-0.6-0.6-0.9-0.8l0,0
	l-11-6.4v0c-0.6-0.3-1.2-0.4-1.8-0.1l0,0L183,306c0,0,0,0,0,0c0,0,0,0,0,0l-21.2,12.2c-0.7,0.4-1,1.1-1,1.8l0,0v12.7l0,0
	c0,0.4,0,0.9,0.3,1.3c0,0,0,0,0,0.1l0,0l26.8,46.4c0,0.1,0,0.1,0.1,0.2c0.6,1,1.8,1.3,2.8,0.8l0,0L223.2,362.7L223.2,362.7z
	 M178.9,323.1c-1.8,1.1-4.2,0.4-5.3-1.4c-1.1-1.8-0.4-4.2,1.4-5.3s4.2-0.4,5.3,1.4C181.3,319.6,180.7,322,178.9,323.1z"/>
<path fill="#33485D" stroke="#FFFFFF" d="M213.4,227c0,0,0.1-0.1,0.1-0.1c0-0.1-0.1-0.2-0.2-0.2v0H213h-0.3H205
	c-0.2,0-0.4,0.1-0.5,0.3h0l-9.2,14.9l-9.2-14.9h0c-0.1-0.2-0.3-0.3-0.5-0.3h-7.7h-0.3h-0.4c-0.1,0-0.2,0.1-0.2,0.2
	c0,0.1,0,0.1,0.1,0.1h0l11.4,17.6h-9.8v0c0,0,0,0,0,0c-0.4,0-0.8,0.4-0.8,0.8l0,0v2.8l0,0l0,0v0h0c0,0.4,0.4,0.8,0.8,0.8
	c0,0,0,0,0,0v0h12.7v4.5h-12.7v0c0,0,0,0,0,0c-0.4,0-0.8,0.4-0.8,0.8v2.8c0,0.4,0.4,0.8,0.8,0.8c0,0,0,0,0,0v0h12.7v6.4c0,0,0,0,0,0
	c0,0.4,0.4,0.8,0.8,0.8c0,0,0,0,0,0h0h6.3l0,0c0.4,0,0.8-0.4,0.8-0.8c0,0,0,0,0,0v-6.4H212v0c0,0,0,0,0,0c0.4,0,0.8-0.4,0.8-0.8
	v-2.8c0-0.4-0.4-0.8-0.8-0.8c0,0,0,0,0,0v0h-12.8V249H212v0c0,0,0,0,0,0c0.4,0,0.8-0.4,0.8-0.8v-2.9h0c0-0.4-0.4-0.8-0.8-0.8
	c0,0,0,0,0,0v0h-9.9L213.4,227C213.5,227,213.4,227,213.4,227z"/>
<text transform="matrix(0.8598 -0.5106 0.5106 0.8598 192.2372 368.0385)" fill="#FFFFFF" font-family="'MyriadPro-Regular'" font-size="48">?</text>
<path fill="none" stroke="#33485D" d="M195.8,263c0,0-31,62.8-15.5,54.7L195.8,263z"/>
<path fill="#33485D" d="M320.3,362.7c1-0.6,1.3-1.9,0.8-2.9c0,0-0.1-0.1-0.1-0.1l0,0l-26.9-46.6l0,0c-0.2-0.4-0.6-0.6-0.9-0.8l0,0
	l-11-6.4v0c-0.6-0.3-1.2-0.4-1.8-0.1l0,0l-0.2,0.1c0,0,0,0,0,0s0,0,0,0l-21.2,12.2c-0.7,0.4-1,1.1-1,1.8l0,0v12.7l0,0
	c0,0.4,0,0.9,0.3,1.3c0,0,0,0,0,0.1l0,0l26.8,46.4c0,0.1,0,0.1,0.1,0.2c0.6,1,1.8,1.3,2.8,0.8l0,0L320.3,362.7L320.3,362.7z
	 M276,323.1c-1.8,1.1-4.2,0.4-5.3-1.4c-1.1-1.8-0.4-4.2,1.4-5.3s4.2-0.4,5.3,1.4C278.4,319.6,277.8,322,276,323.1z"/>
<path fill="#33485D" d="M292.3,242.2v-7.1c2.3,0.6,4.6,1.6,6.4,3.3l0,0c0.1,0.1,0.3,0.2,0.5,0.2c0.3,0,0.5-0.1,0.6-0.3l0,0l3-4.2
	l0,0c0.1-0.1,0.2-0.3,0.2-0.5c0-0.2-0.1-0.4-0.3-0.6c-2.8-2.6-6.3-4.1-10.5-4.6v-4.1h0c0-0.4-0.4-0.8-0.8-0.8h-3.2
	c-0.4,0-0.8,0.4-0.8,0.8v4c-6.9,0.7-11,5.1-11,10.3c0,7,5.8,9,11,10.3v8c-3.4-0.6-6.2-2.4-8.1-4.3c0,0,0,0,0,0c0,0,0,0,0,0l0,0
	c-0.1-0.1-0.3-0.2-0.5-0.2c-0.3,0-0.6,0.2-0.7,0.4l0,0l-2.9,4.3l0,0c-0.1,0.1-0.2,0.3-0.2,0.5c0,0.3,0.1,0.5,0.3,0.6l0,0
	c2.8,2.8,6.8,4.9,12.2,5.3v3.8c0,0.4,0.4,0.8,0.8,0.8l0,0h3.2c0.4,0,0.8-0.4,0.8-0.8h0v-3.8c7.6-0.8,11.3-5.2,11.3-10.9
	C303.6,245.6,297.7,243.6,292.3,242.2z M287.5,241.1c-2.1-0.7-3.5-1.4-3.5-2.9c0-1.7,1.3-3,3.5-3.3V241.1z M292.3,257v-6.9
	c2.3,0.7,3.9,1.5,3.9,3.2C296.2,255,294.9,256.5,292.3,257z"/>
<path fill="none" stroke="#33485D" d="M292.8,262c0,0-31,62.8-15.5,54.7L292.8,262z"/>
<text transform="matrix(0.8598 -0.5106 0.5106 0.8598 288.7372 368.0385)" fill="#1ABC9C" font-family="'MyriadPro-Regular'" font-size="48">?</text>
<path fill="#33485D" d="M417.4,362.7c1-0.6,1.3-1.9,0.8-2.9c0,0-0.1-0.1-0.1-0.1l0,0l-26.9-46.6l0,0c-0.2-0.4-0.6-0.6-0.9-0.8l0,0
	l-11-6.4v0c-0.6-0.3-1.2-0.4-1.8-0.1l0,0l-0.2,0.1c0,0,0,0,0,0s0,0,0,0L356,318.2c-0.7,0.4-1,1.1-1,1.8l0,0v12.7l0,0
	c0,0.4,0,0.9,0.3,1.3c0,0,0,0,0,0.1l0,0l26.8,46.4c0,0.1,0,0.1,0.1,0.2c0.6,1,1.8,1.3,2.8,0.8l0,0L417.4,362.7L417.4,362.7z
	 M373,323.1c-1.8,1.1-4.2,0.4-5.3-1.4c-1.1-1.8-0.4-4.2,1.4-5.3c1.8-1.1,4.2-0.4,5.3,1.4C375.5,319.6,374.9,322,373,323.1z"/>
<g>
	<path fill="#33485D" d="M400.7,255C400.7,255,400.7,255,400.7,255L400.7,255l-4.9-2.6l0,0c-0.3-0.2-0.7,0-0.9,0.3c0,0,0,0.1,0,0.1
		c-1.4,3-4.4,5.3-7.8,5.3c-4.2,0-7.6-2.4-9.3-6.2H390c0,0,0,0,0,0c0.4,0,0.7-0.4,0.7-0.8v-2.8c0-0.4-0.3-0.8-0.7-0.8v0h-13.6
		c-0.1-0.5-0.1-1.1-0.1-1.6c0-0.6,0-1.2,0.1-1.8H390c0,0,0,0,0,0c0,0,0,0,0,0h0v0c0.4,0,0.7-0.4,0.7-0.8v-2.8c0-0.4-0.3-0.8-0.7-0.8
		c0,0,0,0,0,0h-12.3c1.8-3.7,5.1-6,9.3-6c3.4,0,6.5,2.4,7.9,5.4l0,0c0.2,0.3,0.6,0.5,0.9,0.3l0,0l4.9-2.6l0,0c0,0,0,0,0.1,0
		c0.3-0.2,0.4-0.7,0.3-1l0,0c0,0,0,0,0,0c0,0,0,0,0,0c0,0,0,0,0,0c-2.4-4.7-6.7-9-14-9c-8.2,0-14.9,5.1-17.1,13h-2.6c0,0,0,0,0,0
		c-0.4,0-0.7,0.4-0.7,0.8v2.8c0,0.4,0.3,0.8,0.7,0.8c0,0,0,0,0,0h1.9c-0.1,0.6-0.1,1.2-0.1,1.8c0,0.6,0,1.1,0.1,1.6h-1.9v0
		c-0.4,0-0.7,0.4-0.7,0.8v2.8c0,0.4,0.3,0.8,0.7,0.8c0,0,0,0,0,0h2.5c2.2,8.1,8.9,13.2,17.2,13.2c7.3,0,11.6-4.5,14-9c0,0,0,0,0,0
		c0,0,0,0,0,0c0,0,0,0,0,0l0,0C401.2,255.7,401.1,255.2,400.7,255z"/>
</g>
<path fill="none" stroke="#33485D" d="M388.8,263c0,0-31,62.8-15.5,54.7L388.8,263z"/>
<text transform="matrix(0.8598 -0.5106 0.5106 0.8598 385.2372 368.0385)" fill="#FFFFFF" font-family="'MyriadPro-Regular'" font-size="48">?</text>
</svg>
