<?xml version="1.0" encoding="utf-8"?>
<!-- Generator: Adobe Illustrator 17.1.0, SVG Export Plug-In . SVG Version: 6.00 Build 0)  -->
<!DOCTYPE svg PUBLIC "-//W3C//DTD SVG 1.1//EN" "http://www.w3.org/Graphics/SVG/1.1/DTD/svg11.dtd">
<svg version="1.1" id="Layer_1" xmlns="http://www.w3.org/2000/svg" xmlns:xlink="http://www.w3.org/1999/xlink" x="0px" y="0px"
	 viewBox="11.1 205 587.9 350" enable-background="new 11.1 205 587.9 350" xml:space="preserve">
<path fill="#33485D" d="M159.3,509.8c2.4-1.4,3.1-4.5,1.9-6.9l-0.2-0.2l0,0L97,392l0,0c-0.5-0.9-1.4-1.4-2.1-1.9l0,0l-26.1-15.2l0,0
	c-1.4-0.7-2.8-0.9-4.3-0.2l0,0l-0.7,0.5l0,0l0,0l-50.3,29c-1.7,0.9-2.4,2.6-2.4,4.3l0,0v30.2l0,0c0,0.9,0,2.1,0.7,3.1c0,0,0,0,0,0.2
	l0,0l63.6,110.2c0,0.2,0,0.2,0.2,0.5c1.4,2.4,4.3,3.1,6.6,1.9l0,0L159.3,509.8L159.3,509.8z M54.1,415.7c-4.3,2.6-10,0.9-12.6-3.3
	c-2.6-4.3-0.9-10,3.3-12.6c4.3-2.6,10-0.9,12.6,3.3C59.8,407.4,58.3,413.1,54.1,415.7z"/>
<path fill="#33485D" stroke="#FFFFFF" d="M122.5,212.1l0.2-0.2c0-0.2-0.2-0.3-0.3-0.3l0,0h-0.5h-0.5H108c-0.3,0-0.7,0.2-0.9,0.5l0,0
	l-15.9,25.8l-15.9-25.8l0,0c-0.2-0.3-0.5-0.5-0.9-0.5H61.1h-0.5h-0.7c-0.2,0-0.3,0.2-0.3,0.3c0,0.2,0,0.2,0.2,0.2l0,0l19.7,30.4h-17
	l0,0l0,0c-0.7,0-1.4,0.7-1.4,1.4l0,0v4.8l0,0l0,0l0,0l0,0c0,0.7,0.7,1.4,1.4,1.4l0,0l0,0h22v7.8h-22l0,0l0,0c-0.7,0-1.4,0.7-1.4,1.4
	v4.8c0,0.7,0.7,1.4,1.4,1.4l0,0l0,0h22v11.1l0,0c0,0.7,0.7,1.4,1.4,1.4l0,0l0,0h10.9l0,0c0.7,0,1.4-0.7,1.4-1.4l0,0v-11.1h22l0,0
	l0,0c0.7,0,1.4-0.7,1.4-1.4v-4.8c0-0.7-0.7-1.4-1.4-1.4l0,0l0,0H97.9v-7.8h22.1l0,0l0,0c0.7,0,1.4-0.7,1.4-1.4v-5l0,0
	c0-0.7-0.7-1.4-1.4-1.4l0,0l0,0H103L122.5,212.1C122.7,212.1,122.5,212.1,122.5,212.1z"/>
<g enable-background="new    ">
	<path fill="#FFFFFF" d="M88.4,482.5l-1.2-1.8c-2.7-3.6-3.9-8.5-2.9-14.9c1-5.7,1.1-9.5-0.8-12.7c-2.2-3.6-5.9-4.7-10.4-2.1
		c-2.6,1.5-4.9,4.1-5.9,6.5l-4.4-3.5c1.3-3.1,4.7-6.6,8.5-8.9c8.2-4.9,14.9-2,18.1,3.4c2.9,4.8,2.2,9.9,1.2,16
		c-0.9,5.6-0.2,9.4,2.2,12.9l1.2,1.8L88.4,482.5z M92.7,493.4c-1.6-2.6-0.9-5.5,1.6-7c2.5-1.5,5.3-0.6,6.9,2c1.5,2.5,1,5.4-1.6,6.9
		C97.1,496.8,94.2,495.8,92.7,493.4z"/>
</g>
<path fill="none" stroke="#33485D" d="M94.2,273c0,0-73.6,149.1-36.8,129.9L94.2,273z"/>
<path fill="#33485D" d="M378.9,509.8c2.4-1.4,3.1-4.5,1.9-6.9l-0.2-0.2l0,0L316.6,392l0,0c-0.5-0.9-1.4-1.4-2.1-1.9l0,0l-26.1-15.2
	l0,0c-1.4-0.7-2.8-0.9-4.3-0.2l0,0l-0.5,0.2l0,0l0,0l-50.3,29c-1.7,0.9-2.4,2.6-2.4,4.3l0,0v30.2l0,0c0,0.9,0,2.1,0.7,3.1
	c0,0,0,0,0,0.2l0,0l63.6,110.2c0,0.2,0,0.2,0.2,0.5c1.4,2.4,4.3,3.1,6.6,1.9l0,0L378.9,509.8L378.9,509.8z M273.7,415.7
	c-4.3,2.6-10,0.9-12.6-3.3c-2.6-4.3-0.9-10,3.3-12.6c4.3-2.6,10-0.9,12.6,3.3C279.4,407.4,277.9,413.1,273.7,415.7z"/>
<path fill="#33485D" d="M313.4,238.6v-12.8c4.1,1.1,8.3,2.9,11.5,5.9l0,0c0.2,0.2,0.5,0.4,0.9,0.4c0.5,0,0.9-0.2,1.1-0.5l0,0
	l5.4-7.5l0,0c0.2-0.2,0.4-0.5,0.4-0.9s-0.2-0.7-0.5-1.1c-5-4.7-11.3-7.4-18.9-8.3v-7.4l0,0c0-0.7-0.7-1.4-1.4-1.4H306
	c-0.7,0-1.4,0.7-1.4,1.4v7.2c-12.4,1.3-19.8,9.2-19.8,18.5c0,12.6,10.4,16.2,19.8,18.5V265c-6.1-1.1-11.1-4.3-14.6-7.7l0,0l0,0l0,0
	c-0.2-0.2-0.5-0.4-0.9-0.4c-0.5,0-1.1,0.4-1.3,0.7l0,0l-5.2,7.7l0,0c-0.2,0.2-0.4,0.5-0.4,0.9c0,0.5,0.2,0.9,0.5,1.1l0,0
	c5,5,12.2,8.8,21.9,9.5v6.8c0,0.7,0.7,1.4,1.4,1.4l0,0h5.8c0.7,0,1.4-0.7,1.4-1.4l0,0v-6.8c13.7-1.4,20.3-9.3,20.3-19.6
	C333.7,244.7,323.1,241.1,313.4,238.6z M304.7,236.6c-3.8-1.3-6.3-2.5-6.3-5.2c0-3.1,2.3-5.4,6.3-5.9V236.6z M313.4,265.2v-12.4
	c4.1,1.3,7,2.7,7,5.8C320.4,261.6,318,264.3,313.4,265.2z"/>
<path fill="none" stroke="#33485D" d="M313.6,270.6c0,0-73.6,149.1-36.8,129.9L313.6,270.6z"/>
<path fill="#33485D" d="M596.5,509.8c2.4-1.4,3.1-4.5,1.9-6.9l-0.2-0.2l0,0L534.2,392l0,0c-0.5-0.9-1.4-1.4-2.1-1.9l0,0L506,374.9
	l0,0c-1.4-0.7-2.8-0.9-4.3-0.2l0,0l-0.5,0.2l0,0l0,0l-50.6,29.2c-1.7,0.9-2.4,2.6-2.4,4.3l0,0v30.2l0,0c0,0.9,0,2.1,0.7,3.1
	c0,0,0,0,0,0.2l0,0l63.6,110.2c0,0.2,0,0.2,0.2,0.5c1.4,2.4,4.3,3.1,6.6,1.9l0,0L596.5,509.8L596.5,509.8z M491,415.7
	c-4.3,2.6-10,0.9-12.6-3.3c-2.6-4.3-0.9-10,3.3-12.6c4.3-2.6,10-0.9,12.6,3.3C497,407.4,495.5,413.1,491,415.7z"/>
<g>
	<path fill="#33485D" d="M547.1,261.1L547.1,261.1L547.1,261.1l-8.3-4.4l0,0c-0.5-0.3-1.2,0-1.5,0.5v0.2c-2.4,5.1-7.4,8.9-13.1,8.9
		c-7.1,0-12.8-4-15.7-10.4h20.5l0,0c0.7,0,1.2-0.7,1.2-1.3v-4.7c0-0.7-0.5-1.3-1.2-1.3l0,0h-22.9c-0.2-0.8-0.2-1.9-0.2-2.7
		c0-1,0-2,0.2-3h22.9l0,0l0,0l0,0l0,0c0.7,0,1.2-0.7,1.2-1.3v-4.7c0-0.7-0.5-1.3-1.2-1.3l0,0h-20.7c3-6.2,8.6-10.1,15.7-10.1
		c5.7,0,10.9,4,13.3,9.1l0,0c0.3,0.5,1,0.8,1.5,0.5l0,0l8.3-4.4l0,0c0,0,0,0,0.2,0c0.5-0.3,0.7-1.2,0.5-1.7l0,0l0,0l0,0l0,0
		c-4-7.9-11.3-15.2-23.6-15.2c-13.8,0-25.1,8.6-28.8,21.9H491l0,0c-0.7,0-1.2,0.7-1.2,1.3v4.7c0,0.7,0.5,1.3,1.2,1.3l0,0h3.2
		c-0.2,1-0.2,2-0.2,3s0,1.9,0.2,2.7H491l0,0c-0.7,0-1.2,0.7-1.2,1.3v4.7c0,0.7,0.5,1.3,1.2,1.3l0,0h4.2c3.7,13.6,15,22.2,29,22.2
		c12.3,0,19.5-7.6,23.6-15.2l0,0l0,0l0,0l0,0C547.9,262.2,547.8,261.4,547.1,261.1z"/>
</g>
<path fill="none" stroke="#33485D" d="M528.5,273c0,0-73.6,149.1-36.8,129.9L528.5,273z"/>
<path fill="#1ABC9C" d="M307.9,482.5l-1.2-1.8c-2.7-3.6-3.9-8.5-2.9-14.9c1-5.7,1.1-9.5-0.8-12.7c-2.2-3.6-5.9-4.7-10.4-2.1
	c-2.6,1.5-4.9,4.1-5.9,6.5l-4.4-3.5c1.3-3.1,4.7-6.6,8.5-8.9c8.2-4.9,14.9-2,18.1,3.4c2.9,4.8,2.2,9.9,1.2,16
	c-0.9,5.6-0.2,9.4,2.2,12.9l1.2,1.8L307.9,482.5z M312.2,493.4c-1.6-2.6-0.9-5.5,1.6-7s5.3-0.6,6.9,2c1.5,2.5,1,5.4-1.6,6.9
	C316.6,496.8,313.7,495.8,312.2,493.4z"/>
<g enable-background="new    ">
	<path fill="#FFFFFF" d="M525.4,482.5l-1.2-1.8c-2.7-3.6-3.9-8.5-2.9-14.9c1-5.7,1.1-9.5-0.8-12.7c-2.2-3.6-5.9-4.7-10.4-2.1
		c-2.6,1.5-4.9,4.1-5.9,6.5l-4.4-3.5c1.3-3.1,4.7-6.6,8.5-8.9c8.2-4.9,14.9-2,18.1,3.4c2.9,4.8,2.2,9.9,1.2,16
		c-0.9,5.6-0.2,9.4,2.2,12.9l1.2,1.8L525.4,482.5z M529.7,493.4c-1.6-2.6-0.9-5.5,1.6-7c2.5-1.5,5.3-0.6,6.9,2
		c1.5,2.5,1,5.4-1.6,6.9C534.1,496.8,531.2,495.8,529.7,493.4z"/>
</g>
</svg>
