<?xml version="1.0" encoding="utf-8"?>
<!-- Generator: Adobe Illustrator 17.1.0, SVG Export Plug-In . SVG Version: 6.00 Build 0)  -->
<!DOCTYPE svg PUBLIC "-//W3C//DTD SVG 1.1//EN" "http://www.w3.org/Graphics/SVG/1.1/DTD/svg11.dtd">
<svg version="1.1" id="Layer_1" xmlns="http://www.w3.org/2000/svg" xmlns:xlink="http://www.w3.org/1999/xlink" x="0px" y="0px"
	 viewBox="117.6 194.5 375.2 375.2" enable-background="new 117.6 194.5 375.2 375.2" xml:space="preserve">
<g enable-background="new    ">
	<path fill="#33485D" d="M396.1,332.8l-25.3,25.3L396,467.4c0.5,1.9-0.3,3.9-1.9,5.2L374,487.7c-0.8,0.6-1.9,0.9-3,0.9
		c-0.3,0-0.6,0-1.1-0.2c-1.4-0.3-2.7-1.1-3.3-2.5l-43.8-79.8l-40.7,40.7l8.3,30.5c0.5,1.7,0,3.5-1.3,4.9l-15.1,15.1
		c-0.9,0.9-2.4,1.4-3.6,1.4c-0.2,0-0.2,0-0.3,0c-1.6-0.2-2.8-0.8-3.8-2l-29.7-39.6l-39.6-29.7c-1.3-0.8-1.9-2.2-2-3.6
		c-0.2-1.4,0.5-2.8,1.4-3.9l15.1-15.2c0.9-0.9,2.4-1.4,3.6-1.4c0.5,0,0.9,0,1.3,0.2l30.5,8.3l40.7-40.7l-79.8-43.8
		c-1.4-0.8-2.4-2.2-2.7-3.8c-0.2-1.4,0.3-3.1,1.4-4.2l20.1-20.1c1.3-1.1,3.1-1.7,4.7-1.3l104.5,25l25.1-25.1
		c15.1-15.1,40.2-25.1,50.3-15.1C421.3,292.6,411.2,317.7,396.1,332.8z"/>
</g>
</svg>
