<?xml version="1.0" encoding="utf-8"?>
<!-- Generator: Adobe Illustrator 17.1.0, SVG Export Plug-In . SVG Version: 6.00 Build 0)  -->
<!DOCTYPE svg PUBLIC "-//W3C//DTD SVG 1.1//EN" "http://www.w3.org/Graphics/SVG/1.1/DTD/svg11.dtd">
<svg version="1.1" id="Layer_1" xmlns="http://www.w3.org/2000/svg" xmlns:xlink="http://www.w3.org/1999/xlink" x="0px" y="0px"
	 viewBox="5 103 608 582" enable-background="new 5 103 608 582" xml:space="preserve">
<path fill="#33485D" d="M220.1,353.6h30.2c5,0,8.8,1.2,11.6,3.7c2.7,2.5,4.1,5.6,4.1,9.2c0,3.1-1,5.7-2.9,7.9
	c-1.3,1.4-3.1,2.6-5.6,3.5c3.7,1,6.4,2.5,8.2,4.7s2.6,4.9,2.6,8.2c0,2.7-0.6,5.1-1.9,7.3s-3,3.8-5.1,5.1c-1.3,0.8-3.3,1.3-6.1,1.7
	c-3.6,0.5-6.1,0.7-7.2,0.7h-27.8v-51.9H220.1z M236.3,374h7c2.5,0,4.3-0.5,5.2-1.3c1-0.8,1.4-2.1,1.4-3.7s-0.5-2.7-1.4-3.6
	c-1-0.8-2.7-1.3-5.1-1.3h-7.2L236.3,374L236.3,374z M236.3,394.6h8.2c2.7,0,4.8-0.5,5.8-1.4c1.2-1,1.7-2.3,1.7-3.9
	c0-1.6-0.6-2.7-1.7-3.7c-1.1-1-3.1-1.4-6-1.4h-8.2v10.5H236.3z"/>
<path fill="#33485D" d="M277.2,353.6h16.1v52.1h-16.1V353.6z"/>
<path fill="#33485D" d="M202.9,420.9h20.4c4.1,0,7.3,0.6,9.8,1.7c2.5,1.1,4.5,2.6,6.1,4.7c1.7,2,2.7,4.4,3.5,7.2
	c0.7,2.7,1.1,5.6,1.1,8.6c0,4.8-0.6,8.5-1.7,11.1c-1.1,2.6-2.6,4.8-4.5,6.6c-1.9,1.8-3.9,3-6.2,3.6c-3,0.8-5.7,1.2-8.2,1.2h-20.4
	v-44.5H202.9z M216.6,431.1v24.2h3.3c2.9,0,4.9-0.4,6.1-1s2.1-1.8,2.9-3.3c0.7-1.6,1.1-4.2,1.1-7.8c0-4.7-0.7-7.9-2.3-9.7
	c-1.6-1.8-4.1-2.6-7.6-2.6h-3.5V431.1z"/>
<path fill="#33485D" d="M275.7,458h-15.6l-2.1,7.3h-14l16.7-44.4h14.9l16.7,44.4H278L275.7,458z M272.8,448.5l-4.9-16l-4.9,16H272.8
	z"/>
<path fill="#33485D" d="M289.3,420.9h41.8v11h-14v33.4h-13.7v-33.4h-14v-11H289.3z"/>
<path fill="#33485D" d="M360.3,458h-15.6l-2.1,7.3h-14l16.7-44.4h14.9l16.7,44.4h-14.3L360.3,458z M357.4,448.5l-4.9-16l-4.9,16
	H357.4z"/>
<circle fill="none" stroke="#33485D" stroke-width="5" stroke-miterlimit="10" cx="286.1" cy="420.7" r="107.4"/>
<path fill="#33485D" d="M331.2,386.9v-10.9H356v22.2c-4.8,3.2-8.9,5.5-12.6,6.7s-8,1.8-13,1.8c-6.2,0-11.2-1.1-15.2-3.2
	c-3.9-2.1-6.9-5.2-9.1-9.4c-2.1-4.2-3.2-8.9-3.2-14.3c0-5.7,1.2-10.6,3.5-14.8c2.4-4.2,5.7-7.4,10.3-9.5c3.6-1.7,8.2-2.5,14.2-2.5
	c5.7,0,10,0.5,12.9,1.6c2.9,1.1,5.2,2.6,7.2,4.9c1.9,2.1,3.3,5,4.3,8.4l-15.5,2.7c-0.6-1.9-1.7-3.5-3.2-4.5
	c-1.6-1.1-3.5-1.6-5.8-1.6c-3.6,0-6.3,1.2-8.5,3.7c-2.1,2.5-3.1,6.3-3.1,11.7c0,5.6,1.1,9.7,3.2,12s5.1,3.6,8.8,3.6
	c1.8,0,3.5-0.2,5.1-0.8c1.7-0.5,3.5-1.4,5.6-2.6v-4.9h-10.6V386.9z"/>
<polyline fill="none" stroke="#33485D" stroke-width="2" stroke-miterlimit="10" points="279.2,312.5 245.8,256.4 245.8,213.5 "/>
<ellipse fill="none" stroke="#33485D" stroke-width="2" stroke-miterlimit="10" cx="244.8" cy="163.8" rx="52.5" ry="51.1"/>
<g>
	<path fill="#33485D" d="M219.4,177h53.4c2,0,3.7-1.7,3.7-3.7v-32.7c0-2-1.7-3.7-3.7-3.7h-53.4c-2,0-3.7,1.7-3.7,3.7v32.7
		C215.7,175.4,217.4,177,219.4,177z M223.1,144.3h46v25.3h-46V144.3z"/>
	<path fill="#33485D" d="M279.6,180.7h-67.3c-1,0-1.7,0.7-1.7,1.7v4.2c0,0.5,0.1,0.8,0.5,1.2l2.4,2.6c0.4,0.4,0.7,0.6,1.2,0.6H277
		c0.5,0,0.8-0.2,1.2-0.5l2.6-2.6c0.4-0.4,0.5-0.7,0.5-1.2v-4.2C281.4,181.5,280.6,180.7,279.6,180.7z M252.4,186.6
		c0,0.2-0.1,0.4-0.4,0.4h-12.3c-0.1,0-0.4-0.1-0.4-0.4V185c0-0.2,0.1-0.4,0.4-0.4h12.3c0.1,0,0.4,0.1,0.4,0.4V186.6z"/>
</g>
<g>
	<g>
		<g>
			<path fill="#1ABC9C" d="M250.4,161.3h-3.5c-0.2,0-0.4,0.1-0.4,0.4v5.4c0,0.2,0.1,0.4,0.4,0.4h3.5c0.2,0,0.4-0.1,0.4-0.4v-5.4
				C250.8,161.5,250.6,161.3,250.4,161.3z"/>
		</g>
		<g>
			<path fill="#1ABC9C" d="M255.8,150.2h-3.5c-0.2,0-0.4,0.1-0.4,0.4v16.5c0,0.2,0.1,0.4,0.4,0.4h3.5c0.2,0,0.4-0.1,0.4-0.4v-16.3
				C256.3,150.5,256,150.2,255.8,150.2z"/>
		</g>
		<g>
			<path fill="#1ABC9C" d="M261.3,155.3h-3.5c-0.2,0-0.4,0.1-0.4,0.4v11.5c0,0.2,0.1,0.4,0.4,0.4h3.5c0.2,0,0.4-0.1,0.4-0.4v-11.5
				C261.6,155.5,261.4,155.3,261.3,155.3z"/>
		</g>
		<g>
			<path fill="#1ABC9C" d="M245,155.3h-3.5c-0.2,0-0.4,0.1-0.4,0.4v11.5c0,0.2,0.1,0.4,0.4,0.4h3.5c0.2,0,0.4-0.1,0.4-0.4v-11.5
				C245.4,155.5,245.3,155.3,245,155.3z"/>
		</g>
	</g>
	<g>
		<g>
			<path fill="#1ABC9C" d="M239.7,161.3h-3.5c-0.2,0-0.4,0.1-0.4,0.4v5.4c0,0.2,0.1,0.4,0.4,0.4h3.5c0.2,0,0.4-0.1,0.4-0.4v-5.4
				C240,161.5,239.9,161.3,239.7,161.3z"/>
		</g>
		<g>
			<path fill="#1ABC9C" d="M234.3,155.3h-3.5c-0.2,0-0.4,0.1-0.4,0.4v11.5c0,0.2,0.1,0.4,0.4,0.4h3.5c0.2,0,0.4-0.1,0.4-0.4v-11.5
				C234.7,155.5,234.5,155.3,234.3,155.3z"/>
		</g>
	</g>
</g>
<g>
	<path fill="#33485D" d="M533.6,359.4c1.4,0,2.5-1.2,2.5-2.6v-26.5c0-1.4-1.2-2.6-2.5-2.6H497c-1.4,0-2.5,1.2-2.5,2.6v26.5
		c0,1.4,1.2,2.6,2.5,2.6H533.6z M531.1,354.2h-31.5v-21.4h31.5V354.2z"/>
</g>
<g>
	<g>
		<path fill="#1ABC9C" d="M511,351.9c-0.5,0-1-0.2-1.3-0.6l-2.5-2.5l-3.1,2.6c-0.8,0.6-1.9,0.5-2.6-0.2c-0.6-0.8-0.5-1.9,0.2-2.6
			l4.4-3.6c0.7-0.6,1.8-0.6,2.5,0.1l2.1,2.1l4.7-7.3c0.4-0.6,1-0.8,1.7-0.8c0.7,0,1.3,0.5,1.6,1.1l2.7,5.8l5.4-9.4
			c0.5-0.8,1.7-1.2,2.5-0.7c0.8,0.5,1.2,1.7,0.7,2.5l-7,12.4c-0.4,0.6-1,1-1.7,1c-0.7,0-1.3-0.5-1.6-1.1l-2.9-6.1l-4.2,6.4
			c-0.4,0.5-0.8,0.7-1.3,0.8C511.1,351.9,511.1,351.9,511,351.9z"/>
	</g>
</g>
<circle fill="none" stroke="#33485D" stroke-width="2" stroke-miterlimit="10" cx="515.4" cy="343.5" r="32.2"/>
<polyline fill="none" stroke="#33485D" stroke-width="2" stroke-miterlimit="10" points="375.8,365 440.2,365 483.2,354.2 "/>
<circle fill="none" stroke="#33485D" stroke-width="2" stroke-miterlimit="10" cx="70.3" cy="313.4" r="48.3"/>
<path fill="#33485D" d="M92.2,290.8L92.2,290.8L92.2,290.8L92.2,290.8c0.4-0.5,0.4-1.1,0-1.6l0,0l-1.6-1.6l0,0l0,0
	c-0.4-0.4-1.1-0.4-1.4,0l0,0l-6.4,6.4c-0.4,0.4-0.4,1.1,0,1.6l0,0l1.6,1.6l0,0c0.4,0.4,1.1,0.4,1.6,0L92.2,290.8L92.2,290.8z"/>
<path fill="#33485D" d="M69.2,291.1L69.2,291.1h2.1l0,0c0.6,0,1.1-0.5,1.1-1l0,0v-9.1c0-0.6-0.5-1.1-1.1-1.1l0,0h-2.1l0,0
	c-0.6,0-1.1,0.5-1.1,1.1v9.1l0,0C68.1,290.7,68.6,291.1,69.2,291.1z"/>
<path fill="#33485D" d="M100.4,306.2c0-0.6-0.5-1.1-1-1.1l0,0h-9.1c-0.6,0-1.1,0.5-1.1,1.1l0,0v2.1l0,0c0,0.6,0.5,1.1,1.1,1.1h9.1
	l0,0c0.6,0,1-0.5,1-1.1l0,0V306.2L100.4,306.2z"/>
<path fill="#1ABC9C" d="M70.3,294.7c-8.6,0-15.5,6.9-15.5,15.5c0,3.3,1.1,6.4,2.9,8.9l0,0c2.3,3.6,3.7,8.4,3.8,13.6
	c0.2,0.4,0.5,0.5,1,0.5h0.1l0,0h15.4l0,0H78c0.5,0,0.8-0.2,1-0.6c0.1-5.5,1.7-10.5,4.3-14.1c1.6-2.4,2.5-5.2,2.5-8.4
	C85.7,301.6,78.7,294.7,70.3,294.7z"/>
<path fill="#33485D" d="M78,342.3C78,342.3,77.9,342.3,78,342.3L78,342.3H62.5l0,0h-0.1c-0.6,0-1.1,0.5-1.1,1.1v2.5
	c0,0.6,0.5,1.1,1.1,1.1h0.1l0,0h15.4l0,0H78c0.6,0,1.1-0.5,1.1-1.1v-2.5C79.1,342.8,78.6,342.3,78,342.3z"/>
<path fill="#33485D" d="M78,335.5C78,335.5,77.9,335.5,78,335.5L78,335.5H62.5l0,0h-0.1c-0.6,0-1.1,0.5-1.1,1.1l0,0v2.5
	c0,0.6,0.5,1.1,1.1,1.1h0.1l0,0h15.4l0,0H78c0.6,0,1.1-0.5,1.1-1.1v-2.5C79.1,336,78.6,335.5,78,335.5z"/>
<path fill="#33485D" d="M50.1,305.9L50.1,305.9H41c-0.6,0-1.1,0.5-1.1,1.1v2.1c0,0.6,0.5,1.1,1.1,1.1h9.1l0,0c0.6,0,1-0.5,1-1.1l0,0
	V307l0,0C51.2,306.4,50.7,305.9,50.1,305.9z"/>
<path fill="#33485D" d="M48.6,290.4l6.4,6.4l0,0c0.4,0.4,1.1,0.4,1.4,0l0,0l1.6-1.6l0,0c0.4-0.4,0.4-1.1,0-1.4l0,0l-6.4-6.4
	c-0.4-0.4-1.1-0.4-1.6,0l0,0l0,0l-1.6,1.6l0,0C48.2,289.3,48.2,290.1,48.6,290.4z"/>
<polyline fill="none" stroke="#33485D" stroke-width="2" stroke-miterlimit="10" points="214.7,343.5 150.3,311.3 118.1,311.3 "/>
<circle fill="none" stroke="#33485D" stroke-width="2" stroke-miterlimit="10" cx="461.7" cy="544.6" r="42.9"/>
<g>
	<path fill="#1ABC9C" d="M440.1,561.9c0.4,0.4,1,0.4,1.4,0c0,0,0-0.1,0.1-0.1l0,0l16.5-16.5c0.4-0.4,0.4-1,0-1.4l-16.5-16.5l0,0
		c0,0,0-0.1-0.1-0.1c-0.4-0.4-1-0.4-1.4,0C430.7,537,430.7,552.3,440.1,561.9z"/>
</g>
<g>
	<path fill="#33485D" d="M448.1,527.3c-0.4,0.4-0.4,1,0,1.4l15.2,15.2c0.4,0.4,0.4,1,0,1.4l-15,15l0,0c0,0-0.1,0-0.1,0.1
		c-0.4,0.4-0.4,1,0,1.4l0,0l0,0c0.1,0.1,0.1,0.1,0.2,0.2c9.7,9.7,25.3,9.7,35,0c9.7-9.7,9.7-25.3,0-35s-25.3-9.7-35,0
		C448.2,527.2,448.1,527.3,448.1,527.3L448.1,527.3z"/>
</g>
<polyline fill="none" stroke="#33485D" stroke-width="2" stroke-miterlimit="10" points="375.8,481.9 386.5,524.8 418.7,546.3 "/>
<circle fill="none" stroke="#33485D" stroke-width="2" stroke-miterlimit="10" cx="128.8" cy="578.3" r="32.2"/>
<g>
	<path fill="#33485D" d="M147.6,561.1h-37.3c-1.4,0-2.6,1.2-2.6,2.6v22.8c0,1.4,1.2,2.6,2.6,2.6h14.1v3.9h-4.4
		c-0.4,0-0.7,0.4-0.7,0.7v0.8c0,0.4,0.4,0.7,0.7,0.7h17.5c0.4,0,0.7-0.4,0.7-0.7v-0.8c0-0.4-0.4-0.7-0.7-0.7h-3.9v-3.9h14.1
		c1.4,0,2.6-1.2,2.6-2.6v-22.8C150.2,562.3,149.1,561.1,147.6,561.1z M112.3,584.6v-18.8h33.3v18.8H112.3z"/>
</g>
<g>
	<path fill="#33485D" d="M141.7,577.2h-25.6c-0.2,0-0.5,0.1-0.5,0.2v1.8c0,0.1,0.2,0.2,0.5,0.2h25.6c0.2,0,0.5-0.1,0.5-0.2v-1.8
		C142.3,577.3,142.1,577.2,141.7,577.2z"/>
</g>
<g>
	<path fill="#1ABC9C" d="M131.1,574.5L131.1,574.5h-15c-0.2,0-0.5,0.1-0.5,0.2v1.8c0,0.1,0.2,0.2,0.5,0.2h15l0,0
		c0.2,0,0.4-0.1,0.4-0.1v-1.8C131.6,574.6,131.3,574.5,131.1,574.5z"/>
</g>
<g>
	<path fill="#1ABC9C" d="M134.6,580.1h-18.5c-0.2,0-0.5,0.1-0.5,0.2v1.8c0,0.1,0.2,0.2,0.5,0.2h18.4c0.2,0,0.5-0.1,0.5-0.2v-1.8
		C135,580.2,134.8,580.1,134.6,580.1z"/>
</g>
<g>
	<path fill="#1ABC9C" d="M141.7,569h-25.6c-0.2,0-0.5,0.1-0.5,0.2v1.8c0,0.1,0.2,0.2,0.5,0.2h25.6c0.2,0,0.5-0.1,0.5-0.2v-1.8
		C142.3,569.1,142.1,569,141.7,569z"/>
</g>
<g>
	<path fill="#33485D" d="M134.6,571.8h-18.5c-0.2,0-0.5,0.1-0.5,0.2v1.8c0,0.1,0.2,0.2,0.5,0.2h18.4c0.2,0,0.5-0.1,0.5-0.2v-1.8
		C135,571.8,134.8,571.8,134.6,571.8z"/>
</g>
<polyline fill="none" stroke="#33485D" stroke-width="2" stroke-miterlimit="10" points="236.2,515.3 193.3,569 161.1,569 "/>
<circle fill="none" stroke="#33485D" stroke-width="2" stroke-miterlimit="10" cx="446.4" cy="208.8" r="59.1"/>
<text transform="matrix(1 0 0 1 407.8145 188.9347)" font-family="'ArialMT'" font-size="21.4737">010010</text>
<text transform="matrix(1 0 0 1 407.8145 214.7036)" font-family="'ArialMT'" font-size="21.4737">100110</text>
<text transform="matrix(1 0 0 1 407.8145 240.4717)" font-family="'ArialMT'" font-size="21.4737">110010</text>
<polyline fill="none" stroke="#33485D" stroke-width="2" stroke-miterlimit="10" points="408,256.4 386.5,267.2 343.6,331.6 "/>
<circle fill="none" stroke="#33485D" stroke-width="2" stroke-miterlimit="10" cx="300.6" cy="632.2" r="42.9"/>
<g>
	<path fill="#33485D" d="M287.9,613.5L287.9,613.5c0-1.7-1.4-3.1-3.2-3.1l0,0H273l0,0c-1.7,0-3,1.4-3.1,3.1l0,0v38.1l0,0
		c0,1.7,1.3,3,3.1,3.1v0.1h11.7l0,0c1.8,0,3.2-1.4,3.2-3.2l0,0l0,0V613.5z M278.9,651.1c-2.5,0-4.7-2-4.7-4.7c0-2.5,2-4.7,4.7-4.7
		c2.5,0,4.7,2,4.7,4.7C283.6,648.9,281.5,651.1,278.9,651.1z M284.2,634.4h-10.5v-20.3h10.5V634.4z"/>
</g>
<g>
	<path fill="#1ABC9F" d="M309.6,613.5L309.6,613.5c0-1.7-1.4-3.1-3.2-3.1l0,0h-11.7l0,0c-1.7,0-3,1.4-3.1,3.1l0,0v38.1l0,0
		c0,1.7,1.3,3,3.1,3.1v0.1h11.7l0,0c1.8,0,3.2-1.4,3.2-3.2l0,0l0,0V613.5z M300.6,651.1c-2.5,0-4.7-2-4.7-4.7c0-2.5,2-4.7,4.7-4.7
		c2.5,0,4.7,2,4.7,4.7C305.3,649,303.1,651.1,300.6,651.1z M305.9,634.4h-10.5v-20.3h10.5V634.4L305.9,634.4z"/>
</g>
<g>
	<path fill="#33485D" d="M331.2,613.5L331.2,613.5c0-1.7-1.4-3.1-3.2-3.1l0,0h-11.7l0,0c-1.7,0-3,1.4-3.1,3.1l0,0v38.1l0,0
		c0,1.7,1.3,3,3.1,3.1v0.1H328l0,0c1.8,0,3.2-1.4,3.2-3.2l0,0l0,0C331.2,651.5,331.2,613.5,331.2,613.5z M322.2,651.1
		c-2.5,0-4.7-2-4.7-4.7c0-2.5,2-4.7,4.7-4.7c2.5,0,4.7,2,4.7,4.7C326.9,648.9,324.7,651.1,322.2,651.1z M327.5,634.4H317v-20.3h10.5
		V634.4z"/>
</g>
<polyline fill="none" stroke="#33485D" stroke-width="2" stroke-miterlimit="10" points="311.4,524.8 311.4,557.1 300.6,589.3 "/>
<circle fill="none" stroke="#33485D" stroke-width="2" stroke-miterlimit="10" cx="66.6" cy="458.8" r="53.7"/>
<g>
	<path fill="#1ABC9F" d="M30.1,452.9c0.1,16.2,13.4,29.2,29.6,29.2c5.6,0,10.7-1.6,15.2-4.3L89.1,492l0,0c1.4,1.6,3.6,2.4,5.8,2.4
		c4.5,0,8-3.7,8-8.1c0-2.3-1-4.3-2.5-5.8l0,0l-14.8-14.6c1.9-3.9,3.1-8.5,3-13.1c-0.1-16.2-13.4-29.2-29.6-29.2
		C43.1,423.4,29.9,436.7,30.1,452.9z M77.3,452.4c0.1,10.1-8.1,18.4-18.3,18.5c-10.1,0-18.4-8.1-18.5-18.3
		c-0.1-10.1,8.1-18.5,18.3-18.5C69,434.1,77.2,442.3,77.3,452.4z"/>
</g>
<g>
	<path fill="#33485D" d="M75.6,451.4l-7.6-7.6l0,0c-2.1-1.9-4.9-3.2-8-3.2c-3.5,0-6.7,1.6-8.8,3.9l-7,7l0,0
		c-0.2,0.2-0.4,0.5-0.4,0.8c0,0.4,0.2,0.7,0.5,1l7.6,7.6l0,0c2.1,1.9,4.9,3.1,8,3.1c3.5,0,6.6-1.6,8.8-3.9l0,0l7-7c0,0,0,0,0.1-0.1
		l0,0l0,0c0.2-0.2,0.4-0.5,0.4-0.8C76.2,452,76,451.6,75.6,451.4z M59.9,460.4c-4.4,0-8-3.6-8-8s3.6-8,8-8s8,3.6,8,8
		S64.3,460.4,59.9,460.4z"/>
	<circle fill="#33485D" cx="60" cy="452.4" r="3.8"/>
</g>
<polyline fill="none" stroke="#33485D" stroke-width="2" stroke-miterlimit="10" points="120.3,458.8 150.3,460.4 182.5,449.7 "/>
<circle fill="none" stroke="#33485D" stroke-width="2" stroke-miterlimit="10" cx="560.9" cy="463" r="42.9"/>
<g>
	<circle fill="none" stroke="#33485D" stroke-width="3" stroke-miterlimit="10" cx="543" cy="480.9" r="8.9"/>
	<circle fill="none" stroke="#33485D" stroke-width="3" stroke-miterlimit="10" cx="578.8" cy="472.1" r="8.9"/>
	<circle fill="none" stroke="#33485D" stroke-width="3" stroke-miterlimit="10" cx="547.6" cy="458.6" r="4.5"/>
	<circle fill="none" stroke="#33485D" stroke-width="3" stroke-miterlimit="10" cx="565.5" cy="440.7" r="4.5"/>
	<polyline fill="none" stroke="#33485D" stroke-miterlimit="10" points="552.1,480.9 570,472.1 552.1,458.6 565.5,445.2 	"/>
</g>
<polyline fill="none" stroke="#33485D" stroke-width="2" stroke-miterlimit="10" points="397.3,440.1 483.2,440.1 518.9,450.3 "/>
</svg>
