<?xml version="1.0" encoding="utf-8"?>
<!-- Generator: Adobe Illustrator 18.1.1, SVG Export Plug-In . SVG Version: 6.00 Build 0)  -->
<svg version="1.1" id="Layer_1" xmlns="http://www.w3.org/2000/svg" xmlns:xlink="http://www.w3.org/1999/xlink" x="0px" y="0px"
	 viewBox="0 0 513 486" enable-background="new 0 0 513 486" xml:space="preserve">
<path d="M184.5,207.5h25.3c4.2,0,7.4,1,9.7,3.1c2.3,2.1,3.4,4.7,3.4,7.7c0,2.6-0.8,4.8-2.4,6.6c-1.1,1.2-2.6,2.2-4.7,2.9
	c3.1,0.8,5.4,2.1,6.9,3.9c1.5,1.8,2.2,4.1,2.2,6.9c0,2.3-0.5,4.3-1.6,6.1c-1.1,1.8-2.5,3.2-4.3,4.3c-1.1,0.7-2.8,1.1-5.1,1.4
	c-3,0.4-5.1,0.6-6,0.6h-23.3V207.5z M198.1,224.6h5.9c2.1,0,3.6-0.4,4.4-1.1c0.8-0.7,1.2-1.8,1.2-3.1c0-1.3-0.4-2.3-1.2-3
	c-0.8-0.7-2.3-1.1-4.3-1.1h-6V224.6z M198.1,241.8h6.9c2.3,0,4-0.4,4.9-1.2c1-0.8,1.4-1.9,1.4-3.3c0-1.3-0.5-2.3-1.4-3.1
	c-0.9-0.8-2.6-1.2-5-1.2h-6.9V241.8z"/>
<path d="M232.4,207.5h13.5v43.7h-13.5V207.5z"/>
<path d="M170.1,263.9h17.1c3.4,0,6.1,0.5,8.2,1.4c2.1,0.9,3.8,2.2,5.1,3.9c1.4,1.7,2.3,3.7,2.9,6c0.6,2.3,0.9,4.7,0.9,7.2
	c0,4-0.5,7.1-1.4,9.3c-0.9,2.2-2.2,4-3.8,5.5c-1.6,1.5-3.3,2.5-5.2,3c-2.5,0.7-4.8,1-6.9,1h-17.1V263.9z M181.6,272.4v20.3h2.8
	c2.4,0,4.1-0.3,5.1-0.8s1.8-1.5,2.4-2.8c0.6-1.3,0.9-3.5,0.9-6.5c0-3.9-0.6-6.6-1.9-8.1c-1.3-1.5-3.4-2.2-6.4-2.2H181.6z"/>
<path d="M231.1,295H218l-1.8,6.1h-11.7l14-37.2H231l14,37.2h-12L231.1,295z M228.7,287l-4.1-13.4l-4.1,13.4H228.7z"/>
<path d="M242.5,263.9h35v9.2h-11.7v28h-11.5v-28h-11.7V263.9z"/>
<path d="M302,295h-13.1l-1.8,6.1h-11.7l14-37.2h12.5l14,37.2h-12L302,295z M299.6,287l-4.1-13.4l-4.1,13.4H299.6z"/>
<circle fill="none" stroke="#1C1D26" stroke-width="4" stroke-miterlimit="10" cx="239.8" cy="263.7" r="90"/>
<path d="M277.6,235.4v-9.1h20.8v18.6c-4,2.7-7.5,4.6-10.6,5.6c-3.1,1-6.7,1.5-10.9,1.5c-5.2,0-9.4-0.9-12.7-2.7
	c-3.3-1.8-5.8-4.4-7.6-7.9c-1.8-3.5-2.7-7.5-2.7-12c0-4.8,1-8.9,2.9-12.4c2-3.5,4.8-6.2,8.6-8c3-1.4,6.9-2.1,11.9-2.1
	c4.8,0,8.4,0.4,10.8,1.3c2.4,0.9,4.4,2.2,6,4.1c1.6,1.8,2.8,4.2,3.6,7l-13,2.3c-0.5-1.6-1.4-2.9-2.7-3.8c-1.3-0.9-2.9-1.3-4.9-1.3
	c-3,0-5.3,1-7.1,3.1c-1.8,2.1-2.6,5.3-2.6,9.8c0,4.7,0.9,8.1,2.7,10.1c1.8,2,4.3,3,7.4,3c1.5,0,2.9-0.2,4.3-0.7
	c1.4-0.4,2.9-1.2,4.7-2.2v-4.1H277.6z"/>
<polyline fill="none" stroke="#000000" stroke-width="2" stroke-miterlimit="10" points="234,173 206,126 206,90 "/>
<ellipse fill="none" stroke="#1E1E1E" stroke-width="2" stroke-miterlimit="10" cx="205.2" cy="48.4" rx="44" ry="42.8"/>
<g>
	<path fill="#1C1D26" d="M183.9,59.4h44.8c1.7,0,3.1-1.4,3.1-3.1V28.9c0-1.7-1.4-3.1-3.1-3.1h-44.8c-1.7,0-3.1,1.4-3.1,3.1v27.4
		C180.8,58.1,182.2,59.4,183.9,59.4z M187,32h38.6v21.2H187V32z"/>
	<path fill="#1C1D26" d="M234.4,62.5h-56.4c-0.8,0-1.4,0.6-1.4,1.4v3.5c0,0.4,0.1,0.7,0.4,1l2,2.2c0.3,0.3,0.6,0.5,1,0.5h52.2
		c0.4,0,0.7-0.2,1-0.4l2.2-2.2c0.3-0.3,0.4-0.6,0.4-1V64C235.9,63.2,235.2,62.5,234.4,62.5z M211.6,67.5c0,0.2-0.1,0.3-0.3,0.3
		h-10.3c-0.1,0-0.3-0.1-0.3-0.3v-1.4c0-0.2,0.1-0.3,0.3-0.3h10.3c0.1,0,0.3,0.1,0.3,0.3V67.5z"/>
</g>
<g>
	<g>
		<g>
			<path fill="#1ABC9C" d="M209.9,46.3H207c-0.2,0-0.3,0.1-0.3,0.3v4.5c0,0.2,0.1,0.3,0.3,0.3h2.9c0.2,0,0.3-0.1,0.3-0.3v-4.5
				C210.2,46.4,210.1,46.3,209.9,46.3z"/>
		</g>
		<g>
			<path fill="#1ABC9C" d="M214.4,37h-2.9c-0.2,0-0.3,0.1-0.3,0.3v13.8c0,0.2,0.1,0.3,0.3,0.3h2.9c0.2,0,0.3-0.1,0.3-0.3V37.4
				C214.8,37.2,214.6,37,214.4,37z"/>
		</g>
		<g>
			<path fill="#1ABC9C" d="M219,41.2h-2.9c-0.2,0-0.3,0.1-0.3,0.3v9.6c0,0.2,0.1,0.3,0.3,0.3h2.9c0.2,0,0.3-0.1,0.3-0.3v-9.6
				C219.3,41.4,219.1,41.2,219,41.2z"/>
		</g>
		<g>
			<path fill="#1ABC9C" d="M205.4,41.2h-2.9c-0.2,0-0.3,0.1-0.3,0.3v9.6c0,0.2,0.1,0.3,0.3,0.3h2.9c0.2,0,0.3-0.1,0.3-0.3v-9.6
				C205.7,41.4,205.6,41.2,205.4,41.2z"/>
		</g>
	</g>
	<g>
		<g>
			<path fill="#1ABC9C" d="M200.9,46.3H198c-0.2,0-0.3,0.1-0.3,0.3v4.5c0,0.2,0.1,0.3,0.3,0.3h2.9c0.2,0,0.3-0.1,0.3-0.3v-4.5
				C201.2,46.4,201.1,46.3,200.9,46.3z"/>
		</g>
		<g>
			<path fill="#1ABC9C" d="M196.4,41.2h-2.9c-0.2,0-0.3,0.1-0.3,0.3v9.6c0,0.2,0.1,0.3,0.3,0.3h2.9c0.2,0,0.3-0.1,0.3-0.3v-9.6
				C196.7,41.4,196.6,41.2,196.4,41.2z"/>
		</g>
	</g>
</g>
<g>
	<g>
		<path fill="#1C1D26" d="M447.3,212.3c1.2,0,2.1-1,2.1-2.2v-22.2c0-1.2-1-2.2-2.1-2.2h-30.7c-1.2,0-2.1,1-2.1,2.2v22.2
			c0,1.2,1,2.2,2.1,2.2H447.3z M445.2,208h-26.4v-17.9h26.4V208z"/>
	</g>
	<g>
		<g>
			<path fill="#1ABC9C" d="M428.3,206c-0.4,0-0.8-0.2-1.1-0.5l-2.1-2.1l-2.6,2.2c-0.7,0.5-1.6,0.4-2.2-0.2c-0.5-0.7-0.4-1.6,0.2-2.2
				l3.7-3c0.6-0.5,1.5-0.5,2.1,0.1l1.8,1.8l3.9-6.1c0.3-0.5,0.8-0.7,1.4-0.7c0.6,0,1.1,0.4,1.3,0.9l2.3,4.9l4.5-7.9
				c0.4-0.7,1.4-1,2.1-0.6c0.7,0.4,1,1.4,0.6,2.1l-5.9,10.4c-0.3,0.5-0.8,0.8-1.4,0.8c-0.6,0-1.1-0.4-1.3-0.9l-2.4-5.1l-3.5,5.4
				c-0.3,0.4-0.7,0.6-1.1,0.7C428.4,206,428.4,206,428.3,206z"/>
		</g>
	</g>
</g>
<circle fill="none" stroke="#1C1D26" stroke-width="2" stroke-miterlimit="10" cx="432" cy="199" r="27"/>
<polyline fill="none" stroke="#1C1D26" stroke-width="2" stroke-miterlimit="10" points="315,217 369,217 405,208 "/>
<circle fill="none" stroke="#1C1D26" stroke-width="2" stroke-miterlimit="10" cx="58.9" cy="173.8" r="40.5"/>
<g>
	<path fill="#1C1D26" d="M77.3,154.8L77.3,154.8L77.3,154.8L77.3,154.8c0.3-0.4,0.3-0.9,0-1.3l0,0l-1.3-1.3l0,0l0,0
		c-0.3-0.3-0.9-0.3-1.2,0l0,0l-5.4,5.4c-0.3,0.3-0.3,0.9,0,1.3l0,0l1.3,1.3h0c0.3,0.3,0.9,0.3,1.3,0L77.3,154.8L77.3,154.8z"/>
	<path fill="#1C1D26" d="M58,155.1L58,155.1l1.8,0v0c0.5,0,0.9-0.4,0.9-0.8h0v-7.6c0-0.5-0.4-0.9-0.9-0.9v0H58v0
		c-0.5,0-0.9,0.4-0.9,0.9v7.6h0C57.1,154.7,57.5,155.1,58,155.1z"/>
	<path fill="#1C1D26" d="M84.2,167.7c0-0.5-0.4-0.9-0.8-0.9v0h-7.6c-0.5,0-0.9,0.4-0.9,0.9l0,0v1.8l0,0c0,0.5,0.4,0.9,0.9,0.9h7.6v0
		c0.5,0,0.8-0.4,0.8-0.9l0,0V167.7L84.2,167.7z"/>
	<path fill="#1ABC9C" d="M58.9,158.1c-7.2,0-13,5.8-13,13c0,2.8,0.9,5.4,2.4,7.5h0c1.9,3,3.1,7,3.2,11.4c0.2,0.3,0.4,0.4,0.8,0.4
		c0,0,0.1,0,0.1,0v0h12.9v0c0,0,0.1,0,0.1,0c0.4,0,0.7-0.2,0.8-0.5c0.1-4.6,1.4-8.8,3.6-11.8c1.3-2,2.1-4.4,2.1-7
		C71.8,163.9,66,158.1,58.9,158.1z"/>
	<path fill="#1C1D26" d="M65.4,198C65.4,198,65.3,198,65.4,198L65.4,198h-13v0c0,0-0.1,0-0.1,0c-0.5,0-0.9,0.4-0.9,0.9v2.1
		c0,0.5,0.4,0.9,0.9,0.9c0,0,0.1,0,0.1,0v0h12.9v0c0,0,0.1,0,0.1,0c0.5,0,0.9-0.4,0.9-0.9v-2.1C66.3,198.4,65.9,198,65.4,198z"/>
	<path fill="#1C1D26" d="M65.4,192.3C65.4,192.3,65.3,192.3,65.4,192.3L65.4,192.3h-13v0c0,0-0.1,0-0.1,0c-0.5,0-0.9,0.4-0.9,0.9
		c0,0,0,0,0,0v2.1c0,0.5,0.4,0.9,0.9,0.9c0,0,0.1,0,0.1,0v0h12.9v0c0,0,0.1,0,0.1,0c0.5,0,0.9-0.4,0.9-0.9v-2.1
		C66.3,192.7,65.9,192.3,65.4,192.3z"/>
	<path fill="#1C1D26" d="M42,167.5L42,167.5l-7.6,0c-0.5,0-0.9,0.4-0.9,0.9v1.8c0,0.5,0.4,0.9,0.9,0.9H42v0c0.5,0,0.8-0.4,0.8-0.9
		l0,0v-1.8l0,0C42.9,167.9,42.5,167.5,42,167.5z"/>
	<path fill="#1C1D26" d="M40.7,154.5l5.4,5.4l0,0c0.3,0.3,0.9,0.3,1.2,0h0l1.3-1.3l0,0c0.3-0.3,0.3-0.9,0-1.2l0,0l-5.4-5.4
		c-0.3-0.3-0.9-0.3-1.3,0l0,0l0,0l-1.3,1.3l0,0C40.4,153.6,40.4,154.2,40.7,154.5z"/>
</g>
<polyline fill="none" stroke="#1C1D26" stroke-width="2" stroke-miterlimit="10" points="180,199 126,172 99,172 "/>
<circle fill="none" stroke="#1C1D26" stroke-width="2" stroke-miterlimit="10" cx="387" cy="367.6" r="36"/>
<g>
	<g>
		<path fill="#1ABC9C" d="M368.9,382.1c0.3,0.3,0.8,0.3,1.2,0c0,0,0-0.1,0.1-0.1l0,0l13.8-13.8c0.3-0.3,0.3-0.8,0-1.2l-13.8-13.8
			l0,0c0,0,0-0.1-0.1-0.1c-0.3-0.3-0.8-0.3-1.2,0C361,361.2,361,374,368.9,382.1z"/>
	</g>
	<g>
		<path d="M375.6,353.1c-0.3,0.3-0.3,0.8,0,1.2l12.7,12.7c0.3,0.3,0.3,0.8,0,1.2l-12.6,12.6l0,0c0,0-0.1,0-0.1,0.1
			c-0.3,0.3-0.3,0.8,0,1.2c0,0,0,0,0,0l0,0c0.1,0.1,0.1,0.1,0.2,0.2c8.1,8.1,21.2,8.1,29.3,0c8.1-8.1,8.1-21.2,0-29.3
			c-8.1-8.1-21.2-8.1-29.3,0C375.7,353,375.6,353.1,375.6,353.1C375.6,353.1,375.6,353.1,375.6,353.1z"/>
	</g>
</g>
<polyline fill="none" stroke="#1C1D26" stroke-width="2" stroke-miterlimit="10" points="315,315 324,351 351,369 "/>
<circle fill="none" stroke="#1C1D26" stroke-width="2" stroke-miterlimit="10" cx="108" cy="395.8" r="27"/>
<g>
	<g>
		<path d="M123.7,381.4H92.4c-1.2,0-2.2,1-2.2,2.2v19.1c0,1.2,1,2.2,2.2,2.2h11.8v3.3h-3.7c-0.3,0-0.6,0.3-0.6,0.6v0.7
			c0,0.3,0.3,0.6,0.6,0.6h14.7c0.3,0,0.6-0.3,0.6-0.6v-0.7c0-0.3-0.3-0.6-0.6-0.6h-3.3v-3.3h11.8c1.2,0,2.2-1,2.2-2.2v-19.1
			C125.9,382.4,125,381.4,123.7,381.4z M94.1,401.1v-15.8H122v15.8H94.1z"/>
	</g>
	<g>
		<g>
			<path d="M118.8,394.9H97.3c-0.2,0-0.4,0.1-0.4,0.2v1.5c0,0.1,0.2,0.2,0.4,0.2h21.5c0.2,0,0.4-0.1,0.4-0.2v-1.5
				C119.3,395,119.1,394.9,118.8,394.9z"/>
		</g>
		<g>
			<path fill="#1ABC9C" d="M109.9,392.6L109.9,392.6l-12.6,0c-0.2,0-0.4,0.1-0.4,0.2v1.5c0,0.1,0.2,0.2,0.4,0.2h12.6v0
				c0.2,0,0.3-0.1,0.3-0.1v-1.5C110.3,392.7,110.1,392.6,109.9,392.6z"/>
		</g>
		<g>
			<path fill="#1ABC9C" d="M112.8,397.3H97.3c-0.2,0-0.4,0.1-0.4,0.2v1.5c0,0.1,0.2,0.2,0.4,0.2h15.4c0.2,0,0.4-0.1,0.4-0.2v-1.5
				C113.2,397.4,113,397.3,112.8,397.3z"/>
		</g>
	</g>
	<g>
		<g>
			<path fill="#1ABC9C" d="M118.8,388H97.3c-0.2,0-0.4,0.1-0.4,0.2v1.5c0,0.1,0.2,0.2,0.4,0.2h21.5c0.2,0,0.4-0.1,0.4-0.2v-1.5
				C119.3,388.1,119.1,388,118.8,388z"/>
		</g>
		<g>
			<path d="M112.8,390.4H97.3c-0.2,0-0.4,0.1-0.4,0.2v1.5c0,0.1,0.2,0.2,0.4,0.2h15.4c0.2,0,0.4-0.1,0.4-0.2v-1.5
				C113.2,390.4,113,390.4,112.8,390.4z"/>
		</g>
	</g>
</g>
<polyline fill="none" stroke="#1A1D26" stroke-width="2" stroke-miterlimit="10" points="198,343 162,388 135,388 "/>
<circle fill="none" stroke="#000000" stroke-width="2" stroke-miterlimit="10" cx="374.2" cy="86.1" r="49.5"/>
<text transform="matrix(1 0 0 1 341.8447 69.431)"><tspan x="0" y="0" font-family="'AndaleMono'" font-size="18">010010</tspan><tspan x="0" y="21.6" font-family="'AndaleMono'" font-size="18">100110</tspan><tspan x="0" y="43.2" font-family="'AndaleMono'" font-size="18">110010</tspan></text>
<polyline fill="none" stroke="#000000" stroke-width="2" stroke-miterlimit="10" points="342,126 324,135 288,189 "/>
<circle fill="none" stroke="#1C1D26" stroke-width="2" stroke-miterlimit="10" cx="252" cy="441" r="36"/>
<g>
	<g>
		<path d="M241.3,425.3L241.3,425.3c0-1.4-1.2-2.6-2.7-2.6v0h-9.8v0c-1.4,0-2.5,1.2-2.6,2.6h0l0,31.9h0c0,1.4,1.1,2.5,2.6,2.6v0.1
			l9.8,0l0,0c1.5,0,2.7-1.2,2.7-2.7v0l0,0L241.3,425.3z M233.8,456.8c-2.1,0-3.9-1.7-3.9-3.9c0-2.1,1.7-3.9,3.9-3.9
			c2.1,0,3.9,1.7,3.9,3.9C237.7,455,236,456.8,233.8,456.8z M238.2,442.8l-8.8,0l0-17h8.8L238.2,442.8z"/>
	</g>
	<g>
		<path fill="#1ABC9F" d="M259.5,425.3L259.5,425.3c0-1.4-1.2-2.6-2.7-2.6v0H247v0c-1.4,0-2.5,1.2-2.6,2.6h0l0,31.9h0
			c0,1.4,1.1,2.5,2.6,2.6v0.1h9.8l0,0c1.5,0,2.7-1.2,2.7-2.7v0l0,0L259.5,425.3z M252,456.8c-2.1,0-3.9-1.7-3.9-3.9
			c0-2.1,1.7-3.9,3.9-3.9c2.1,0,3.9,1.7,3.9,3.9S254.1,456.8,252,456.8z M256.4,442.8h-8.8l0-17l8.8,0L256.4,442.8L256.4,442.8z"/>
	</g>
	<g>
		<path d="M277.6,425.3L277.6,425.3c0-1.4-1.2-2.6-2.7-2.6v0l-9.8,0v0c-1.4,0-2.5,1.2-2.6,2.6h0l0,31.9h0c0,1.4,1.1,2.5,2.6,2.6v0.1
			h9.8l0,0c1.5,0,2.7-1.2,2.7-2.7v0l0,0C277.6,457.2,277.6,425.3,277.6,425.3z M270.1,456.8c-2.1,0-3.9-1.7-3.9-3.9
			c0-2.1,1.7-3.9,3.9-3.9c2.1,0,3.9,1.7,3.9,3.9C274,455,272.2,456.8,270.1,456.8z M274.5,442.8l-8.8,0v-17h8.8L274.5,442.8z"/>
	</g>
</g>
<polyline fill="none" stroke="#1C1D26" stroke-width="2" stroke-miterlimit="10" points="261,351 261,378 252,405 "/>
<circle fill="none" stroke="#1C1D26" stroke-width="2" stroke-miterlimit="10" cx="55.8" cy="295.6" r="45"/>
<g>
	<path fill="#1ABC9F" d="M25.2,290.7c0.1,13.6,11.2,24.5,24.8,24.5c4.7,0,9-1.3,12.7-3.6l12,11.9l0,0c1.2,1.3,3,2,4.9,2
		c3.8,0,6.7-3.1,6.7-6.8c0-1.9-0.8-3.6-2.1-4.9l0,0l-12.4-12.2c1.6-3.3,2.6-7.1,2.5-11c-0.1-13.6-11.2-24.5-24.8-24.5
		C36.1,266,25.1,277.1,25.2,290.7z M64.8,290.3c0.1,8.5-6.8,15.4-15.3,15.5C41,305.8,34.1,299,34,290.5C33.9,282,40.8,275,49.3,275
		C57.8,274.9,64.7,281.8,64.8,290.3z"/>
</g>
<g>
	<path fill="#1C1D26" d="M63.4,289.4L57,283l0,0c-1.8-1.6-4.1-2.7-6.7-2.7c-2.9,0-5.6,1.3-7.4,3.3l-5.9,5.9l0,0
		c-0.2,0.2-0.3,0.4-0.3,0.7c0,0.3,0.2,0.6,0.4,0.8l6.4,6.4l0,0c1.8,1.6,4.1,2.6,6.7,2.6c2.9,0,5.5-1.3,7.4-3.3l0,0l5.9-5.9
		c0,0,0,0,0.1-0.1l0,0l0,0c0.2-0.2,0.3-0.4,0.3-0.7C63.9,289.9,63.7,289.6,63.4,289.4z M50.2,297c-3.7,0-6.7-3-6.7-6.7
		c0-3.7,3-6.7,6.7-6.7c3.7,0,6.7,3,6.7,6.7C56.9,294,53.9,297,50.2,297z"/>
	<circle fill="#1C1D26" cx="50.3" cy="290.3" r="3.2"/>
</g>
<polyline fill="none" stroke="#000000" stroke-width="2" stroke-miterlimit="10" points="100.8,295.6 126,297 153,288 "/>
<circle fill="none" stroke="#1C1D26" stroke-width="2" stroke-miterlimit="10" cx="470.2" cy="299.2" r="36"/>
<g>
	<circle fill="none" stroke="#1C1D26" stroke-width="3" stroke-miterlimit="10" cx="455.2" cy="314.2" r="7.5"/>
	<circle fill="none" stroke="#1C1D26" stroke-width="3" stroke-miterlimit="10" cx="485.2" cy="306.8" r="7.5"/>
	<circle fill="none" stroke="#1C1D26" stroke-width="3" stroke-miterlimit="10" cx="459" cy="295.5" r="3.8"/>
	<circle fill="none" stroke="#1C1D26" stroke-width="3" stroke-miterlimit="10" cx="474" cy="280.5" r="3.8"/>
	<polyline fill="none" stroke="#1C1D26" stroke-miterlimit="10" points="462.8,314.2 477.8,306.8 462.8,295.5 474,284.2 	"/>
</g>
<polyline fill="none" stroke="#1C1D26" stroke-width="2" stroke-miterlimit="10" points="333,280 405,280 435,288.5 "/>
</svg>
