<?xml version="1.0" encoding="utf-8"?>
<!-- Generator: Adobe Illustrator 17.1.0, SVG Export Plug-In . SVG Version: 6.00 Build 0)  -->
<!DOCTYPE svg PUBLIC "-//W3C//DTD SVG 1.1//EN" "http://www.w3.org/Graphics/SVG/1.1/DTD/svg11.dtd">
<svg version="1.1" id="Layer_1" xmlns="http://www.w3.org/2000/svg" xmlns:xlink="http://www.w3.org/1999/xlink" x="0px" y="0px"
	 viewBox="102.9 199.6 406.3 388.1" enable-background="new 102.9 199.6 406.3 388.1" xml:space="preserve">
<g enable-background="new    ">
	<path fill="#33485D" d="M346.3,401.8c0,1.9-1.4,4-3.3,4.3l-22.4,3.5c-1.2,3.8-2.7,7.4-4.6,11c4,5.8,8.4,11.1,13,16.6
		c0.6,0.9,1,1.7,1,2.9c0,1-0.3,2-1,2.7c-2.9,3.9-19.1,21.5-23.2,21.5c-1.2,0-2.2-0.4-3-1l-16.6-13c-3.6,1.9-7.2,3.3-11.1,4.5
		c-0.7,7.4-1.4,15.3-3.3,22.4c-0.6,2-2.3,3.5-4.3,3.5h-26.9c-2,0-4-1.6-4.3-3.6l-3.3-22.1c-3.8-1.2-7.4-2.7-10.8-4.5l-17,12.9
		c-0.7,0.7-1.9,1-2.9,1c-1.2,0-2.2-0.4-3-1.2c-3.8-3.5-20.8-18.9-20.8-23.1c0-1,0.4-1.9,1-2.7c4.2-5.5,8.5-10.8,12.7-16.5
		c-2-3.9-3.8-7.8-5.1-11.8l-21.9-3.5c-2-0.3-3.5-2.2-3.5-4.2v-26.7c0-1.9,1.4-4,3.3-4.3l22.4-3.5c1.2-3.8,2.7-7.4,4.6-11
		c-4-5.8-8.4-11.1-13-16.6c-0.6-0.9-1-1.9-1-2.9c0-1,0.3-2,1-2.9c2.9-3.9,19.1-21.4,23.2-21.4c1.2,0,2.2,0.4,3,1l16.6,13
		c3.6-1.9,7.2-3.3,11.1-4.6c0.7-7.2,1.4-15.2,3.3-22.2c0.6-2,2.3-3.5,4.3-3.5h26.9c2,0,4,1.6,4.3,3.6l3.3,22.1
		c3.8,1.2,7.4,2.7,10.8,4.5l17-12.9c0.9-0.7,1.9-1,2.9-1c1.2,0,2.2,0.4,3,1.2c3.8,3.5,20.8,19.1,20.8,23.1c0,1-0.4,1.9-1,2.7
		c-4.2,5.6-8.5,10.8-12.6,16.5c1.9,3.9,3.6,7.8,4.9,11.8l21.9,3.3c2,0.4,3.5,2.3,3.5,4.3V401.8z M253.9,351.3c-20.4,0-37,16.6-37,37
		c0,20.4,16.6,37,37,37s37-16.6,37-37C290.9,367.9,274.3,351.3,253.9,351.3z M438.7,324.4c0,2.2-18.6,4.2-21.5,4.5
		c-1.2,2.7-2.6,5.2-4.3,7.5c1.3,2.9,7.4,17.3,7.4,19.9c0,0.4-0.1,0.7-0.6,1c-1.7,1-17.2,10.3-17.9,10.3c-1.9,0-12.7-14.4-14.2-16.6
		c-1.4,0.1-2.9,0.3-4.3,0.3s-2.9-0.1-4.3-0.3c-1.4,2.2-12.3,16.6-14.2,16.6c-0.7,0-16.2-9.2-17.9-10.3c-0.4-0.3-0.6-0.7-0.6-1
		c0-2.5,6.1-17,7.4-19.9c-1.7-2.3-3.2-4.8-4.3-7.5c-2.9-0.3-21.5-2.3-21.5-4.5v-20.2c0-2.2,18.6-4.2,21.5-4.5
		c1.2-2.6,2.6-5.2,4.3-7.5c-1.3-2.9-7.4-17.5-7.4-19.9c0-0.3,0.1-0.7,0.6-1c1.7-0.9,17.2-10.1,17.9-10.1c1.9,0,12.7,14.3,14.2,16.5
		c1.4-0.1,2.9-0.3,4.3-0.3s2.9,0.1,4.3,0.3c4-5.6,8.4-11.3,13.3-16.2l0.9-0.3c0.7,0,16.2,9.1,17.9,10.1c0.4,0.3,0.6,0.7,0.6,1
		c0,2.6-6.1,17-7.4,19.9c1.7,2.3,3.2,4.9,4.3,7.5c2.9,0.3,21.5,2.3,21.5,4.5V324.4z M438.7,472.3c0,2.2-18.6,4.2-21.5,4.5
		c-1.2,2.7-2.6,5.2-4.3,7.5c1.3,2.9,7.4,17.3,7.4,19.9c0,0.4-0.1,0.7-0.6,1c-1.7,1-17.2,10.3-17.9,10.3c-1.9,0-12.7-14.4-14.2-16.6
		c-1.4,0.1-2.9,0.3-4.3,0.3s-2.9-0.1-4.3-0.3c-1.4,2.2-12.3,16.6-14.2,16.6c-0.7,0-16.2-9.2-17.9-10.3c-0.4-0.3-0.6-0.7-0.6-1
		c0-2.5,6.1-17,7.4-19.9c-1.7-2.3-3.2-4.8-4.3-7.5c-2.9-0.3-21.5-2.3-21.5-4.5v-20.2c0-2.2,18.6-4.2,21.5-4.5
		c1.2-2.6,2.6-5.2,4.3-7.5c-1.3-2.9-7.4-17.5-7.4-19.9c0-0.3,0.1-0.7,0.6-1c1.7-0.9,17.2-10.1,17.9-10.1c1.9,0,12.7,14.3,14.2,16.5
		c1.4-0.1,2.9-0.3,4.3-0.3s2.9,0.1,4.3,0.3c4-5.6,8.4-11.3,13.3-16.2l0.9-0.3c0.7,0,16.2,9.1,17.9,10.1c0.4,0.3,0.6,0.7,0.6,1
		c0,2.6-6.1,17-7.4,19.9c1.7,2.3,3.2,4.9,4.3,7.5c2.9,0.3,21.5,2.3,21.5,4.5V472.3z M383.3,295.8c-10.1,0-18.5,8.4-18.5,18.5
		c0,10.3,8.4,18.5,18.5,18.5c10.3,0,18.5-8.4,18.5-18.5C401.8,304.2,393.4,295.8,383.3,295.8z M383.3,443.7
		c-10.1,0-18.5,8.4-18.5,18.5c0,10.3,8.4,18.5,18.5,18.5c10.3,0,18.5-8.4,18.5-18.5C401.8,452.1,393.4,443.7,383.3,443.7z"/>
</g>
</svg>
