<?xml version="1.0" encoding="utf-8"?>
<!-- Generator: Adobe Illustrator 15.0.2, SVG Export Plug-In . SVG Version: 6.00 Build 0)  -->
<!DOCTYPE svg PUBLIC "-//W3C//DTD SVG 1.1//EN" "http://www.w3.org/Graphics/SVG/1.1/DTD/svg11.dtd">
<svg version="1.1" id="Layer_1" xmlns="http://www.w3.org/2000/svg" xmlns:xlink="http://www.w3.org/1999/xlink" x="0px" y="0px"
	 width="100px" height="100px" viewBox="0 0 100 100" enable-background="new 0 0 100 100" xml:space="preserve">
<g>
	<g>
		<path fill="none" stroke="#000000" stroke-miterlimit="10" d="M32.948,24.348h-0.011c-0.057-2.327-1.971-4.133-4.3-4.165v-0.006
			h-15.69v0.011c-2.307,0.057-4.067,1.852-4.119,4.161h-0.01v51.2h0.008c0.043,2.301,1.838,4.09,4.121,4.178v0.098h15.69l0,0
			c2.401-0.001,4.311-1.875,4.311-4.274v-0.001l0,0V24.348z M20.882,74.836c-3.443,0-6.233-2.792-6.233-6.234
			s2.791-6.233,6.233-6.233c3.444,0,6.235,2.791,6.235,6.233C27.117,72.045,24.326,74.836,20.882,74.836z M27.96,52.426H13.805
			V25.164H27.96V52.426z"/>
	</g>
	<g>
		<path fill="none" stroke="#000000" stroke-miterlimit="10" d="M62.064,24.348h-0.01c-0.058-2.327-1.972-4.133-4.301-4.165v-0.006
			h-15.69v0.011c-2.307,0.057-4.067,1.852-4.119,4.161h-0.01v51.2h0.008c0.043,2.301,1.838,4.09,4.121,4.178v0.098h15.69l0,0
			c2.4-0.001,4.311-1.875,4.311-4.274v-0.001l0,0V24.348z M49.999,74.836c-3.443,0-6.233-2.792-6.233-6.234s2.791-6.233,6.233-6.233
			c3.444,0,6.235,2.791,6.235,6.233C56.234,72.045,53.443,74.836,49.999,74.836z M57.077,52.426H42.923V25.164h14.155L57.077,52.426
			L57.077,52.426z"/>
	</g>
	<g>
		<path fill="none" stroke="#000000" stroke-miterlimit="10" d="M91.182,24.348h-0.011c-0.058-2.327-1.971-4.133-4.3-4.165v-0.006
			H71.182v0.011c-2.308,0.057-4.068,1.852-4.119,4.161h-0.011v51.2h0.009c0.043,2.301,1.838,4.09,4.121,4.178v0.098h15.689l0,0
			c2.4-0.001,4.311-1.875,4.311-4.274v-0.001l0,0V24.348z M79.117,74.836c-3.443,0-6.233-2.792-6.233-6.234s2.791-6.233,6.233-6.233
			c3.443,0,6.234,2.791,6.234,6.233C85.352,72.045,82.561,74.836,79.117,74.836z M86.195,52.426H72.04V25.164h14.155V52.426z"/>
	</g>
</g>
</svg>
