<?xml version="1.0" encoding="utf-8"?>
<!-- Generator: Adobe Illustrator 18.1.1, SVG Export Plug-In . SVG Version: 6.00 Build 0)  -->
<svg version="1.1" id="Layer_1" xmlns="http://www.w3.org/2000/svg" xmlns:xlink="http://www.w3.org/1999/xlink" x="0px" y="0px"
	 viewBox="0 0 100 100" enable-background="new 0 0 100 100" xml:space="preserve">
<g>
	<g>
		<path fill="none" stroke="#FFFFFF" stroke-miterlimit="10" d="M32.9,24.3L32.9,24.3c-0.1-2.3-2-4.1-4.3-4.2v0H12.9v0
			c-2.3,0.1-4.1,1.9-4.1,4.2h0v51.2h0c0,2.3,1.8,4.1,4.1,4.2v0.1h15.7l0,0c2.4,0,4.3-1.9,4.3-4.3v0l0,0V24.3z M20.9,74.8
			c-3.4,0-6.2-2.8-6.2-6.2c0-3.4,2.8-6.2,6.2-6.2c3.4,0,6.2,2.8,6.2,6.2C27.1,72,24.3,74.8,20.9,74.8z M28,52.4H13.8V25.2H28V52.4z"
			/>
	</g>
	<g>
		<path fill="none" stroke="#FFFFFF" stroke-miterlimit="10" d="M62.1,24.3L62.1,24.3c-0.1-2.3-2-4.1-4.3-4.2v0H42.1v0
			c-2.3,0.1-4.1,1.9-4.1,4.2h0v51.2h0c0,2.3,1.8,4.1,4.1,4.2v0.1h15.7l0,0c2.4,0,4.3-1.9,4.3-4.3v0l0,0V24.3z M50,74.8
			c-3.4,0-6.2-2.8-6.2-6.2c0-3.4,2.8-6.2,6.2-6.2c3.4,0,6.2,2.8,6.2,6.2C56.2,72,53.4,74.8,50,74.8z M57.1,52.4H42.9V25.2h14.2
			L57.1,52.4L57.1,52.4z"/>
	</g>
	<g>
		<path fill="none" stroke="#FFFFFF" stroke-miterlimit="10" d="M91.2,24.3L91.2,24.3c-0.1-2.3-2-4.1-4.3-4.2v0H71.2v0
			c-2.3,0.1-4.1,1.9-4.1,4.2h0v51.2h0c0,2.3,1.8,4.1,4.1,4.2v0.1h15.7l0,0c2.4,0,4.3-1.9,4.3-4.3v0l0,0V24.3z M79.1,74.8
			c-3.4,0-6.2-2.8-6.2-6.2c0-3.4,2.8-6.2,6.2-6.2c3.4,0,6.2,2.8,6.2,6.2C85.4,72,82.6,74.8,79.1,74.8z M86.2,52.4H72V25.2h14.2V52.4
			z"/>
	</g>
</g>
</svg>
