<?xml version="1.0" encoding="utf-8"?>
<!-- Generator: Adobe Illustrator 18.1.1, SVG Export Plug-In . SVG Version: 6.00 Build 0)  -->
<svg version="1.1" id="Layer_1" xmlns="http://www.w3.org/2000/svg" xmlns:xlink="http://www.w3.org/1999/xlink" x="0px" y="0px"
	 viewBox="-249 351 100 100" enable-background="new -249 351 100 100" xml:space="preserve">
<g>
	<g>
		<path fill="#33485D" d="M-216.1,375.3L-216.1,375.3c-0.1-2.3-2-4.1-4.3-4.2v0h-15.7v0c-2.3,0.1-4.1,1.9-4.1,4.2h0v51.2h0
			c0,2.3,1.8,4.1,4.1,4.2v0.1h15.7l0,0c2.4,0,4.3-1.9,4.3-4.3v0l0,0V375.3z M-228.1,425.8c-3.4,0-6.2-2.8-6.2-6.2
			c0-3.4,2.8-6.2,6.2-6.2c3.4,0,6.2,2.8,6.2,6.2S-224.7,425.8-228.1,425.8z M-221,403.4h-14.2v-27.3h14.2V403.4z"/>
	</g>
	<g>
		<path fill="#33485D" d="M-186.9,375.3L-186.9,375.3c-0.1-2.3-2-4.1-4.3-4.2v0h-15.7v0c-2.3,0.1-4.1,1.9-4.1,4.2h0v51.2h0
			c0,2.3,1.8,4.1,4.1,4.2v0.1h15.7l0,0c2.4,0,4.3-1.9,4.3-4.3v0l0,0V375.3z M-199,425.8c-3.4,0-6.2-2.8-6.2-6.2
			c0-3.4,2.8-6.2,6.2-6.2c3.4,0,6.2,2.8,6.2,6.2S-195.6,425.8-199,425.8z M-191.9,403.4h-14.2v-27.3h14.2L-191.9,403.4L-191.9,403.4
			z"/>
	</g>
	<g>
		<path fill="#33485D" d="M-157.8,375.3L-157.8,375.3c-0.1-2.3-2-4.1-4.3-4.2v0h-15.7v0c-2.3,0.1-4.1,1.9-4.1,4.2h0v51.2h0
			c0,2.3,1.8,4.1,4.1,4.2v0.1h15.7l0,0c2.4,0,4.3-1.9,4.3-4.3v0l0,0C-157.8,426.5-157.8,375.3-157.8,375.3z M-169.9,425.8
			c-3.4,0-6.2-2.8-6.2-6.2c0-3.4,2.8-6.2,6.2-6.2c3.4,0,6.2,2.8,6.2,6.2S-166.4,425.8-169.9,425.8z M-162.8,403.4H-177v-27.3h14.2
			V403.4z"/>
	</g>
</g>
</svg>
