<?xml version="1.0" encoding="utf-8"?>
<!-- Generator: Adobe Illustrator 18.1.1, SVG Export Plug-In . SVG Version: 6.00 Build 0)  -->
<svg version="1.1" id="Layer_1" xmlns="http://www.w3.org/2000/svg" xmlns:xlink="http://www.w3.org/1999/xlink" x="0px" y="0px"
	 viewBox="-249 351 100 100" enable-background="new -249 351 100 100" xml:space="preserve">
<g>
	<path fill="#33485D" d="M-163.1,371.2h-71.9c-1.4,0-2.6,1.1-2.6,2.6v5.1c0,0.2,0.3,0.5,0.5,0.6l37.8,21.6c0.1,0.1,0.2,0.1,0.3,0.1
		c0.1,0,0.2,0,0.3-0.1l36.6-21.6c0.2-0.1,0.8-0.4,1-0.6c0.2-0.2,0.5-0.3,0.5-0.6v-4.6C-160.5,372.3-161.6,371.2-163.1,371.2z"/>
	<path fill="#33485D" d="M-160.8,386.6c-0.2-0.1-0.4-0.1-0.6,0l-20.7,12.2c-0.2,0.1-0.3,0.3-0.3,0.5c0,0.2,0,0.4,0.2,0.5l20.7,22.4
		c0.1,0.1,0.3,0.2,0.5,0.2c0.1,0,0.2,0,0.2,0c0.2-0.1,0.4-0.3,0.4-0.6v-34.6C-160.5,387-160.6,386.8-160.8,386.6z"/>
	<path fill="#33485D" d="M-188.2,402.9c-0.2-0.2-0.5-0.3-0.8-0.1l-8.3,4.9c-1,0.6-2.2,0.6-3.2,0l-7.3-4.2c-0.2-0.1-0.5-0.1-0.8,0.1
		l-27.8,25.8c-0.1,0.1-0.2,0.3-0.2,0.5s0.1,0.4,0.3,0.5c0.4,0.3,0.8,0.4,1.3,0.4h71.2c0.3,0,0.5-0.2,0.6-0.4
		c0.1-0.2,0.1-0.5-0.1-0.7L-188.2,402.9z"/>
	<path fill="#33485D" d="M-214.7,400.6c0.2-0.1,0.2-0.3,0.2-0.5c0-0.2-0.1-0.4-0.3-0.5l-21.8-12.4c-0.2-0.1-0.4-0.1-0.6,0
		c-0.2,0.1-0.3,0.3-0.3,0.6v32.6c0,0.3,0.1,0.5,0.4,0.6c0.1,0,0.2,0.1,0.3,0.1c0.2,0,0.3-0.1,0.4-0.2L-214.7,400.6z"/>
</g>
</svg>
