<?xml version="1.0" encoding="utf-8"?>
<!-- Generator: Adobe Illustrator 18.1.1, SVG Export Plug-In . SVG Version: 6.00 Build 0)  -->
<svg version="1.1" id="Layer_1" xmlns="http://www.w3.org/2000/svg" xmlns:xlink="http://www.w3.org/1999/xlink" x="0px" y="0px"
	 viewBox="-249 351 100 100" enable-background="new -249 351 100 100" xml:space="preserve">
<g>
	<circle fill="#1C1D26" cx="-216" cy="432" r="5.9"/>
	<circle fill="#1C1D26" cx="-174.7" cy="432" r="5.9"/>
	<path fill="#1C1D26" d="M-175.5,406.2c1.4,0,2.6-0.8,3.1-2l0,0l14.6-25.3l0,0c0.2-0.4,0.3-0.9,0.3-1.5c0-1.9-1.5-3.5-3.5-3.5l0,0
		h-14.6h-28.6h-10.4v-6.5l0,0c0-1.9-1.5-3.5-3.5-3.5l0,0l0,0h-18.9v0c-0.1,0-0.2,0-0.3,0c-1.8,0-3.2,1.3-3.4,3h0v3.5l0,0
		c0,1.9,1.5,3.5,3.5,3.5c0.1,0,0.2,0,0.3,0v0h12.4v43.7h0c0,1.9,1.5,3.4,3.5,3.4c0,0,0,0,0,0l0,0h59.3v-0.1c1.6-0.1,2.9-1.3,3.2-2.9
		h0v-0.5c0,0,0,0,0,0c0,0,0,0,0,0v-3c0,0,0,0,0,0c0-1.8-1.4-3.3-3.2-3.4v0h-52.8v-5L-175.5,406.2L-175.5,406.2z"/>
</g>
</svg>
