<?xml version="1.0" encoding="utf-8"?>
<!-- Generator: Adobe Illustrator 18.1.1, SVG Export Plug-In . SVG Version: 6.00 Build 0)  -->
<svg version="1.1" id="Layer_1" xmlns="http://www.w3.org/2000/svg" xmlns:xlink="http://www.w3.org/1999/xlink" x="0px" y="0px"
	 viewBox="-249 351 100 100" enable-background="new -249 351 100 100" xml:space="preserve">
<g>
	<path fill="#1C1D26" d="M-154,398.5h-7.6c-1.2-18.7-16.2-33.7-34.9-34.9V356c0-1.4-1.1-2.5-2.5-2.5s-2.5,1.1-2.5,2.5v7.6
		c-18.7,1.2-33.7,16.2-34.9,34.9h-7.6c-1.4,0-2.5,1.1-2.5,2.5s1.1,2.5,2.5,2.5h7.6c1.2,18.7,16.2,33.7,34.9,34.9v7.6
		c0,1.4,1.1,2.5,2.5,2.5s2.5-1.1,2.5-2.5v-7.6c18.7-1.2,33.7-16.2,34.9-34.9h7.6c1.4,0,2.5-1.1,2.5-2.5
		C-151.5,399.6-152.6,398.5-154,398.5z M-201.5,428.4c-13.2-1.2-23.8-11.7-24.9-24.9h5c1.2,10.5,9.5,18.8,20,20V428.4z
		 M-201.5,378.5c-10.5,1.2-18.8,9.5-20,20h-5c1.2-13.2,11.7-23.8,24.9-24.9L-201.5,378.5L-201.5,378.5z M-196.5,373.6
		c13.2,1.2,23.8,11.7,24.9,24.9h-5c-1.2-10.5-9.5-18.8-20-20C-196.5,378.5-196.5,373.6-196.5,373.6z M-196.5,428.4v-5
		c10.5-1.2,18.8-9.5,20-20h5C-172.7,416.7-183.3,427.3-196.5,428.4z"/>
</g>
</svg>
