<?xml version="1.0" encoding="utf-8"?>
<!-- Generator: Adobe Illustrator 18.1.1, SVG Export Plug-In . SVG Version: 6.00 Build 0)  -->
<svg version="1.1" id="Layer_1" xmlns="http://www.w3.org/2000/svg" xmlns:xlink="http://www.w3.org/1999/xlink" x="0px" y="0px"
	 viewBox="-249 351 100 100" enable-background="new -249 351 100 100" xml:space="preserve">
<g>
	<path fill="#33485D" d="M-162.7,374.4l-3.9,3.9l-3.7,3.7l-4.8,4.8c-2.5,0.2-5.1-0.7-7-2.6c-1.9-1.9-2.8-4.5-2.6-7l4.8-4.8l3.7-3.7
		l3.9-3.9c0.3-0.3,0.3-0.7,0-0.9c0,0-0.1-0.1-0.2-0.1l0,0c0,0,0,0,0,0c0,0-0.1,0-0.1,0c-2.7-1.2-5.6-1.9-8.7-1.9
		c-11.9,0-21.6,9.7-21.6,21.6c0,2.3,0.4,4.5,1,6.5l-22.5,22.5c-7.5,0.1-13.6,6.3-13.6,13.8c0,7.6,6.2,13.9,13.9,13.9
		c7.6,0,13.7-6.1,13.8-13.6L-188,404c2.1,0.7,4.3,1,6.5,1c11.9,0,21.6-9.7,21.6-21.6c0-3.1-0.7-6.1-1.9-8.7c0,0,0-0.1-0.1-0.1
		c0,0,0,0,0-0.1l0,0c0,0,0-0.1-0.1-0.1C-162.1,374.2-162.5,374.2-162.7,374.4z M-218.6,426.3c0,3.2-2.6,5.7-5.7,5.7
		c-3.2,0-5.7-2.6-5.7-5.7c0-3.2,2.6-5.7,5.7-5.7C-221.2,420.6-218.6,423.2-218.6,426.3z"/>
</g>
</svg>
