<?xml version="1.0" encoding="utf-8"?>
<!-- Generator: Adobe Illustrator 18.1.1, SVG Export Plug-In . SVG Version: 6.00 Build 0)  -->
<svg version="1.1" id="Layer_1" xmlns="http://www.w3.org/2000/svg" xmlns:xlink="http://www.w3.org/1999/xlink" x="0px" y="0px"
	 viewBox="-249 351 100 100" enable-background="new -249 351 100 100" xml:space="preserve">
<g>
	<path fill="#33485D" d="M-172.7,373.8c0,0,0.1-0.1,0.1-0.2c0-0.1-0.1-0.2-0.2-0.3v0h-0.5h-0.5h-11c-0.3,0-0.6,0.2-0.8,0.5h0
		l-13.3,21.5l-13.3-21.5h0c-0.2-0.3-0.4-0.5-0.8-0.5h-11.1h-0.4h-0.5c-0.1,0-0.3,0.1-0.3,0.3c0,0.1,0,0.1,0.1,0.2h0l16.4,25.4H-223
		v0c0,0,0,0-0.1,0c-0.6,0-1.2,0.5-1.2,1.2l0,0v4l0,0l0,0v0.1h0c0,0.6,0.5,1.1,1.1,1.1c0,0,0,0,0.1,0v0h18.4v6.4H-223v0c0,0,0,0,0,0
		c-0.6,0-1.2,0.5-1.2,1.2v4c0,0.6,0.5,1.2,1.2,1.2c0,0,0,0,0,0v0h18.4v9.2c0,0,0,0,0,0.1c0,0.6,0.5,1.2,1.2,1.2c0,0,0,0,0,0l0,0h9.1
		v0c0.6,0,1.2-0.5,1.2-1.2c0,0,0,0,0,0v-9.2h18.4v0c0,0,0,0,0,0c0.6,0,1.2-0.5,1.2-1.2v-4c0-0.6-0.5-1.2-1.2-1.2c0,0,0,0,0,0v0
		h-18.4v-6.4h18.4v0c0,0,0,0,0,0c0.6,0,1.2-0.5,1.2-1.2v-4.1h0c0-0.6-0.5-1.1-1.1-1.1c0,0,0,0,0,0v0h-14.3L-172.7,373.8
		C-172.7,373.8-172.7,373.8-172.7,373.8z"/>
</g>
</svg>
