<?xml version="1.0" encoding="utf-8"?>
<!-- Generator: Adobe Illustrator 17.1.0, SVG Export Plug-In . SVG Version: 6.00 Build 0)  -->
<!DOCTYPE svg PUBLIC "-//W3C//DTD SVG 1.1//EN" "http://www.w3.org/Graphics/SVG/1.1/DTD/svg11.dtd">
<svg version="1.1" id="Layer_2" xmlns="http://www.w3.org/2000/svg" xmlns:xlink="http://www.w3.org/1999/xlink" x="0px" y="0px"
	 viewBox="0 0 612 792" enable-background="new 0 0 612 792" xml:space="preserve">
<text transform="matrix(1 0 0 1 -171.9095 1247.6602)" display="none" fill="#E6E6E6" enable-background="new    " font-family="'Arial-Black'" font-size="617.5103">G</text>
<path fill="#6F6F6F" d="M490.7,340.5c9.3,0,16.8,3,22.4,9.1c5.8,6.1,8.6,14,8.6,23.8s-2.8,17.7-8.6,23.8c-5.6,6.1-13.3,8.9-22.4,8.9
	c-9.3,0-16.8-3-22.6-8.9c-5.6-6.1-8.6-14-8.6-23.8s2.8-17.7,8.6-23.8C473.9,343.5,481.3,340.5,490.7,340.5z M510.9,373.2
	c0-8.9-1.9-16.1-5.6-21.4c-3.7-5.4-8.6-7.9-14.7-7.9c-6.3,0-11.2,2.6-14.9,7.9c-3.7,5.4-5.6,12.3-5.6,21.4c0,8.9,1.9,16.1,5.6,21.2
	c3.7,5.4,8.6,7.9,14.9,7.9c6.1,0,11.2-2.6,14.7-7.9C509.1,389.2,510.9,382.2,510.9,373.2z M486.7,369.2h7.7c3,0,4.9-0.5,6.1-1.4
	c0.9-0.9,1.6-2.6,1.6-5.1h2.3v19.5h-2.3c-0.2-2.6-0.7-4.2-1.6-5.1c-0.9-0.9-3-1.4-6.1-1.4h-7.7c-3,0-5.1,0.5-6.1,1.4
	c-0.9,0.9-1.6,2.6-1.6,5.1h-2.3v-19.6h2.3c0.2,2.6,0.7,4.2,1.6,5.1C481.6,368.7,483.7,369.2,486.7,369.2z"/>
<path fill="#6F6F6F" d="M253.2,143.9c2.6-2.1,3.7-3.7,4-5.4c0.2-1.6-0.7-3.7-2.6-6.3l1.6-1.4l10.5,13l-20,16.3L236,147
	c3.3-3.7,4.7-8.2,4.4-13c-0.2-4.9-2.1-9.3-5.6-14c-4.2-5.1-8.9-8.2-14.2-8.9c-5.4-0.7-10.5,0.7-15.4,4.7s-7.5,8.6-7.9,14
	c-0.5,5.4,1.4,10.7,5.6,15.8c3.5,4.4,7.7,7.2,12.3,8.6c4.7,1.2,9.1,0.7,13.7-1.6l10.7,13.3l-20,16.3l-10.6-13l1.6-1.4
	c2.1,2.3,4,3.7,5.6,3.7c1.6,0.2,3.5-0.7,6.1-2.8l9.1-7.2l-3.5-4.4c-6.8,3.7-13,5.1-18.9,4.4c-5.8-0.7-10.9-3.7-14.9-8.6
	c-4.7-5.8-6.3-12.6-4.7-19.8s6.1-14,13.5-19.8c7.5-6.1,14.9-9.1,22.4-9.1s13.5,3,18.4,8.9c4,4.9,5.8,10.5,5.4,16.3
	c-0.5,5.8-3.3,11.9-8.2,17.5l3.5,4.4L253.2,143.9z"/>
<path fill="#6F6F6F" d="M512.1,524.5l22.6,1.9c2.3,0.2,4.2-0.2,5.1-0.9c0.9-0.9,1.4-2.8,1.9-5.6l1.4,0.2l-1.9,22.1l-1.4-0.2
	c0.2-2.8-0.2-4.9-0.9-5.8c-0.7-0.9-2.3-1.6-4.9-1.9l-22.6-1.9c0,4.4,0.7,7.7,2.3,9.6c1.6,1.9,4.7,2.8,9.3,3.3l6.3,0.5
	c4.4,0.2,7.5,1.4,9.1,2.8c1.6,1.6,2.3,4,2.1,7.5c0,0.7-0.2,1.4-0.2,2.1c0,0.7-0.2,1.2-0.5,1.9l-1.6-0.2l0.2-1.4
	c0.2-1.6-0.2-2.6-1.2-3.3c-0.9-0.7-2.8-1.2-6.1-1.4l-7.9-0.7c-4.9-0.5-8.4-2.3-10.7-5.8s-3.3-8.6-3-15.1l-7-0.5
	c-2.6-0.2-4.2,0.2-5.1,0.9c-0.9,0.9-1.6,2.8-1.9,5.6l-1.4-0.2l1.9-22.1l1.4,0.2c-0.2,3,0.2,4.9,0.9,5.8c0.7,0.9,2.3,1.6,4.9,1.9
	l7,0.5c0.7-6.5,2.6-11.4,5.4-14.4c2.8-3,6.8-4.4,11.6-4l7.9,0.7c3.3,0.2,5.4,0.2,6.3-0.5c0.9-0.5,1.4-1.6,1.6-3l0.2-1.4l1.6,0.2
	c0,0.5,0,1.2,0,1.9s0,1.4-0.2,2.1c-0.2,3.5-1.4,5.8-3.3,7c-1.9,1.4-4.9,1.9-9.3,1.4l-6.3-0.5c-4.7-0.5-7.9,0.2-9.8,1.6
	C514,517.2,512.6,520.2,512.1,524.5z"/>
<path fill="#6F6F6F" d="M428.2,469.2c-1.2,2.6-1.9,4.4-1.9,5.4c0,0.9,0.2,1.6,1.2,2.1c0.5,0.2,0.9,0.5,1.6,0.5s1.4,0,2.6,0l24.9-1.6
	L445.7,456l0,0c-1.6-3-2.8-4.7-3.5-5.1c-0.7-0.5-1.6-0.5-2.3,0c-0.7,0.5-1.9,1.9-3.5,4l-1.6-0.9l9.3-16.5l1.6,0.9
	c-0.7,1.9-0.9,3.5-0.7,4.9c0.2,1.6,1.2,4,2.8,7l14.2,25.9l16.8,9.3c2.3,1.4,4.2,1.6,5.6,1.2c1.4-0.5,3-2.3,4.9-5.1l1.6,0.9
	l-13.3,23.8l-1.6-0.9l0.2-0.5c1.6-2.8,2.1-4.9,1.6-6.5s-1.9-3-4.4-4.4l-15.1-8.4l-34.2,3c-2.1,0.2-3.7,0.7-5.1,1.4
	c-1.4,0.9-2.6,2.1-3.7,4l-1.6-0.9l13.5-24.2L428.2,469.2z"/>
<path fill="#6F6F6F" d="M98.8,150.7c0-3.3-0.5-5.6-1.6-6.5c-1.2-1.2-3.3-1.6-6.8-1.9v-1.9h26.3v1.9c-3.3,0-5.6,0.7-6.8,1.9
	c-1.2,1.2-1.6,3.3-1.6,6.5v41.9c0,3.3,0.5,5.6,1.6,6.5c1.2,1.2,3.3,1.9,6.8,1.9v1.9H90.4V201c3.3,0,5.6-0.7,6.8-1.6
	c1.2-1.2,1.6-3.3,1.6-6.8V150.7z"/>
<path fill="#6F6F6F" d="M411.9,528c0-9.8,2.8-17.7,8.4-23.8s12.8-8.9,22.1-8.9c9.1,0,16.3,3,21.9,9.1s8.4,14,8.4,23.8
	s-2.8,17.7-8.4,23.8s-12.8,9.1-21.9,9.1s-16.3-3-22.1-8.9C414.7,546,411.9,538,411.9,528z M442.2,498.7c-6.1,0-10.9,2.6-14.4,7.9
	c-3.7,5.4-5.4,12.3-5.4,21.2s1.9,16.1,5.4,21.4s8.4,7.9,14.4,7.9s10.7-2.6,14.2-7.9c3.5-5.4,5.4-12.3,5.4-21.4
	c0-9.1-1.9-16.1-5.4-21.4C453.2,501.5,448.3,498.7,442.2,498.7z"/>
<path fill="#6F6F6F" d="M254.4,14c-3,1.4-4.9,2.6-5.6,4c-0.7,1.4-0.5,3.3,0.5,6.1L262.6,59c1.2,2.8,2.3,4.4,3.7,4.9
	c1.4,0.5,3.5,0.2,6.8-0.9l0.7,1.6l-24,9.1l-0.7-1.6c3-1.2,4.9-2.6,5.6-4c0.7-1.4,0.5-3.5-0.5-6.1l-12.8-33.5
	c-1.2-2.8-2.3-4.4-3.7-4.9s-4,0-7.7,1.2l-7.5,2.8c-3.7,1.4-5.8,2.8-6.5,4.2c-0.7,1.4-0.7,3.5,0.5,6.3l13,33.5
	c0.9,2.8,2.3,4.4,3.7,4.9s3.7,0.2,6.8-0.9l0.7,1.6l-24,9.1l-0.7-1.6c3-1.4,5.1-2.6,5.6-4c0.7-1.4,0.5-3.3-0.7-6.1l-13.3-34.9
	c-0.9-2.6-2.3-4.2-3.5-4.9c-1.4-0.5-3.7-0.2-6.8,0.7l-0.9-1.2l57.5-22L254.4,14z"/>
<path fill="#6F6F6F" d="M592.7,298.5h-2.3c-0.5-4.7-1.9-7.9-4.7-10.3c-2.6-2.3-6.5-3.5-11.4-3.5h-17.9l22.8,25.2v1.4l-24.5,23.5h28
	c2.8,0,4.9-0.5,5.8-1.6c0.9-1.2,1.6-3.3,1.9-6.5h2.3v17.2h-50.6v-2.6l28.7-27.7l-27.5-30.3v-2.1h49.2L592.7,298.5L592.7,298.5z"/>
<path fill="#6F6F6F" d="M529.1,579.5l-48.9,24l-4.7-68.7l1.9-0.9L529.1,579.5z M484.4,596.7l31.7-15.6l-35.2-31.2L484.4,596.7z"/>
<path fill="#6F6F6F" d="M79.2,429.7c-3.7,0-6.3,0.7-7.5,1.6s-1.9,3-1.9,6.1v0.5c8.9,0.2,15.6,2.3,20.5,6.1c4.9,3.7,7.5,8.6,7.5,14.9
	c0,5.8-2.6,10.7-7.5,14.4s-11.9,5.8-20.5,6.5v0.9c0,2.8,0.7,4.9,1.9,6.1c1.4,1.2,3.7,1.6,7.5,1.6v1.9H50.6v-1.9
	c3.7,0,6.1-0.7,7.5-1.9s1.9-3.3,1.9-6.1v-0.7c-8.6-0.7-15.6-2.8-20.5-6.5s-7.5-8.6-7.5-14.4c0-6.3,2.6-11.2,7.5-14.9
	s11.9-5.6,20.7-6.1v-0.5c0-3-0.7-5.1-1.9-6.3s-3.7-1.6-7.7-1.6v-1.6h28.7v1.9H79.2L79.2,429.7z M59.9,440.5
	c-5.6,0.5-10,2.3-12.8,5.6c-2.8,3-4.2,7.5-4.2,13c0,5.6,1.4,10,4.2,13s7,4.9,12.8,5.4V440.5z M69.9,440.5v37
	c5.6-0.5,9.8-2.1,12.6-5.4c2.8-3,4.2-7.5,4.2-13c0-5.6-1.4-10-4.2-13C79.7,443,75.5,441.2,69.9,440.5z"/>
<path fill="#6F6F6F" d="M465.7,82.6l0.7-1.9c4.7,0.2,8.4-0.2,11.2-1.9c2.8-1.4,4.9-4,6.3-7.2l3.7-9.3c0.9-2.6,1.4-4.4,1.2-5.4
	c-0.2-1.2-1.9-2.1-4.4-3.3l-39.1-15.8c-3-1.2-5.4-1.4-7-0.5s-3.3,3-4.7,6.8l-1.9-0.7l11.4-28.2l1.9,0.7c-1.4,3.7-1.9,6.3-1.4,7.7
	c0.5,1.6,2.3,3,5.8,4.4l37.7,15.1c3.5,1.4,6.1,1.9,7.7,1.2s3.3-2.8,4.4-6.1l0.2-0.5l1.6,0.7l-19.3,48.2L465.7,82.6z"/>
<path fill="#6F6F6F" d="M181.2,411.4c1.4-2.3,1.9-4.4,1.4-6.3s-1.9-3.5-4.2-4.9c-0.2,0.2-0.5,0.7-0.7,1.4c-1.2,2.1-1.9,3.5-2.3,4.2
	c-5.6,9.3-11.4,15.4-17.5,18.4s-12.3,2.6-18.4-1.2c-5.4-3.3-8.6-7.2-9.3-11.9s0.9-10.3,4.7-16.8l4.2-7.2c1.4-2.3,2.3-4.4,2.3-5.8
	c0.2-1.4-0.5-2.6-1.6-3.3c-1.4-0.7-2.6-0.9-4-0.2s-2.6,2.1-3.7,4l-1.6-0.9c0.2-0.2,0.5-0.7,0.7-1.2c1.6-2.6,3.5-4.2,5.8-4.9
	c2.3-0.9,4.7-0.5,6.8,0.7c3.3,1.9,4.9,4.4,5.4,7.5c0.2,3-0.9,6.8-3.7,11.4l-5.8,9.6c-2.6,4.2-3.7,7.7-3.3,10.5
	c0.2,2.8,1.9,5.1,4.9,7c3.5,2.1,6.8,2.1,9.8,0.2c3.3-1.9,6.8-6.3,10.9-13.3l7.9-13l-1.2-0.7c-6.5-4-10.9-8.2-13.5-13
	c-2.3-4.7-2.6-9.1,0-13c1.9-3.3,4.7-5.1,8.4-5.8c3.5-0.7,7.2,0,10.7,2.3c5.4,3.3,8.6,7.7,9.6,13.5c0.9,5.6-0.5,12.3-4.2,19.8
	c3.3,2.1,5.1,4.2,5.8,6.5s0.2,5.1-1.6,8.2L181.2,411.4z M171.2,393l0.9-1.4c3.7-6.3,5.8-11.2,6.1-15.4c0.2-4-1.2-7-4.2-8.9
	c-2.1-1.4-4.2-1.6-6.1-0.9c-1.9,0.7-3.7,2.1-5.1,4.4c-2.6,4.2-3,7.9-1.9,11.6c1.4,3.7,4.4,7,9.3,10L171.2,393z"/>
<path fill="#6F6F6F" d="M547.8,456.3c-3.5-3.5-6.1-5.6-7.9-6.3c-1.9-0.9-3.7-0.9-5.6,0l-0.7-1.9l23.3-9.8l0.7,1.9
	c-2.6,1.2-4,2.1-4.7,3c-0.7,0.7-0.7,1.6-0.5,2.8c0.9,2.1,8.9,10.5,24.2,25.4l7.7,7.5v-39.1c0-1.4,0-2.6-0.2-3.5
	c0-1.2-0.2-1.9-0.5-2.3c-0.5-1.4-1.4-2.1-2.3-2.3c-0.9-0.2-2.8,0.2-5.4,1.2l-0.7-1.9l16.8-7l0.7,1.9c-1.4,0.7-2.6,1.6-3,3.3
	c-0.5,1.4-0.9,4.4-0.7,8.6l0.2,57.1l-2.1,0.9L547.8,456.3z"/>
<path fill="#6F6F6F" d="M448,291.4l-0.7,29.8c0,3.3,0.5,5.4,1.4,6.5c1.2,1.2,3.3,1.9,6.5,2.1v2.1l-17.2-0.5l1.2-51l17.2,0.5v2.1
	c-3.3,0.2-5.4,0.7-6.5,1.9C448.7,286,448,288.2,448,291.4z M483.4,332.2v-2.1c3.3-0.2,5.4-0.7,6.5-1.9c1.1-1.2,1.9-3,1.9-6.3
	l0.7-29.6c0-3.3-0.5-5.4-1.6-6.5c-1.2-1.2-3.3-1.9-6.5-2.1v-2.1l17.2,0.5l-1.2,50.3L483.4,332.2z M474.4,302l-0.2,9.3
	c0,3.5,0.2,5.6,1.2,6.8c0.7,1.2,2.3,1.6,4.7,1.9v2.1l-20.3-0.5v-2.1c2.6,0,4.2-0.7,5.1-1.6c0.9-1.2,1.4-3.3,1.4-6.5l0.2-9.3
	c0-3.3-0.2-5.6-1.2-6.5c-0.9-1.2-2.6-1.9-4.9-2.1v-2.1l20.3,0.5v2.1c-2.3,0-4,0.7-4.9,1.6C474.8,296.5,474.4,298.5,474.4,302z"/>
<path fill="#6F6F6F" d="M190.3,501.5l-15.6-21.4c-2.3-3.3-4.4-5.6-5.8-6.5c-1.6-0.9-3.3-1.6-5.4-1.6h-0.9v-1.9h28.2v1.9h-0.7
	c-2.1,0-3.7,0.2-4.7,0.5c-0.9,0.5-1.4,0.9-1.4,1.9c0,0.5,0.2,0.9,0.2,1.4c0.2,0.5,0.7,1.2,1.4,2.1l11.2,15.8l10.9-13.7
	c0.9-0.9,1.4-2.1,2.1-3c0.5-0.9,0.7-1.9,0.7-2.3c0-0.9-0.5-1.4-1.4-1.9s-2.6-0.7-5.1-0.7v-1.9h23.1v1.9H226c-2.1,0-4.2,0.5-5.8,1.4
	s-3.7,2.8-5.8,5.6l-15.1,18.1l18.6,26.3c1.9,2.6,3.5,4.4,5.1,5.4c1.6,1.2,3.7,1.6,5.8,1.9v1.9h-28.9v-1.9c0.2,0,0.2,0,0.5,0
	c4.7-0.2,7.2-1.4,7.2-3c0-0.5-0.2-1.2-0.7-2.1c-0.5-0.9-1.2-2.1-2.3-3.5l-11.9-17l-13,16.1c-1.6,1.9-2.6,3.3-3,4.4
	c-0.5,0.9-0.7,1.9-0.7,2.6c0,0.9,0.5,1.6,1.4,2.1s2.8,0.7,5.4,0.7v1.9h-21v-1.8c1.6,0,3.3-0.2,4.7-1.2c1.4-0.7,3-2.3,5.4-5.1
	L190.3,501.5z"/>
<path fill="#6F6F6F" d="M536.5,125.1l1.2,1.9c-3,1.6-5.6,2.1-7.7,1.6c-2.1-0.7-4.2-2.6-6.1-5.6l-0.2-0.2c-0.2-0.5-0.7-1.4-1.4-2.8
	s-1.4-2.6-1.9-3.5c-2.1-3.7-5.1-6.1-8.6-7c-3.5-0.9-7.2-0.5-10.7,1.6c-3.7,2.3-6.1,5.1-6.3,8.4c-0.5,3.3,1.2,8.2,4.4,14.9
	c2.1,4,2.8,7.2,2.3,9.6c-0.5,2.3-2.1,4.4-5.1,6.1c-4,2.3-7.9,2.8-12.1,1.2s-7.9-4.9-10.7-9.8c-1.6-2.8-2.6-4.9-2.8-6.3
	c-0.2-1.4,0.2-2.6,1.2-3.3c0.9-0.5,1.6-0.5,2.3-0.2c0.7,0.2,1.4,0.9,2.1,2.1c0.5,0.7,0.9,2.1,1.4,4.4s1.2,4.2,2.1,5.6
	c1.4,2.3,3.3,4,5.6,4.9c2.3,0.9,4.4,0.9,6.1,0c1.4-0.9,2.3-1.9,2.6-3c0.3-1.1,0.2-2.6-0.5-4.7c-0.5-1.2-1.2-3-2.6-5.4
	c-1.2-2.3-2.1-4.2-2.6-5.6c-1.6-4-1.6-7.9,0-11.4s4.9-6.5,9.8-9.6c6.3-3.7,11.9-5.4,17-4.7c4.9,0.7,9.1,3.5,12.1,8.4
	c0.7,1.2,1.6,2.8,2.6,4.7c0.9,1.9,1.6,3,1.9,3.7c0.7,1.4,1.6,2.3,2.6,2.8C535.1,125.2,535.8,125.2,536.5,125.1z"/>
<path fill="#6F6F6F" d="M47.3,169.6c6.3,1.6,10.5,5.6,12.6,11.6c2.1,6.1,1.9,14-0.7,23.8c-2.8,10.5-6.5,18.2-11.2,22.8
	c-4.9,4.7-10.3,6.3-16.5,4.7c-6.8-1.6-10.9-5.6-12.8-11.9c-2.3-6.1-1.9-14.4,0.9-24.9c2.6-9.8,6.3-17,11.2-21.4
	C35.4,169.6,41,168.2,47.3,169.6z M50.8,200c0-0.5,0.2-0.9,0.5-1.9c0.2-0.7,0.5-1.2,0.5-1.6c2.1-7.7,2.6-13.5,1.9-17.5
	c-0.7-4-3-6.5-6.8-7.5c-3.7-0.9-7.2,0.2-10,4c-2.8,3.5-5.4,9.8-7.7,18.9L50.8,200z M28.2,197.7l-0.5,2.1c-2.6,10.3-3.7,17.5-3,22.1
	c0.7,4.4,3,7.2,6.8,8.2c4,1.2,7.5-0.2,10-3.7c2.6-3.5,5.4-11.2,8.4-23.1L28.2,197.7z"/>
<path fill="#6F6F6F" d="M465,96h2.6c-0.7,6.3-3,10.9-7,14.2s-9.6,4.7-16.3,4.7c-6.5-0.2-11.9-1.9-15.8-5.4c-4-3.3-5.8-7.5-5.8-12.6
	c0-3,1.2-5.4,3-7.5c2.1-1.9,5.1-3.5,9.1-4.4c-4-1.2-7-2.8-8.9-4.9s-2.8-4.7-2.8-7.7c0.2-5.1,2.3-9.1,6.5-12.3
	c4.2-3,9.6-4.7,16.1-4.4c6.8,0.2,12.1,2.1,16.1,5.6c3.7,3.5,5.8,8.4,6.3,14.7h-2.6c0-3.7-1.4-6.5-4.2-8.2c-2.6-1.6-7.2-2.6-13.7-2.8
	c-7.7-0.2-13,0.2-16.3,1.6s-4.9,3.7-4.9,6.8c0,2.8,1.2,4.9,3.5,6.5s5.8,2.6,10,2.6c2.1,0,5.1-0.2,8.6-0.7s6.1-0.7,7.2-0.7
	c1.6,0,2.8,0.5,3.5,1.2s1.2,1.9,1.2,3.3s-0.5,2.6-1.4,3.3s-2.1,1.2-3.5,1.2s-3.7-0.5-7.5-1.2c-3.5-0.7-6.5-1.2-8.6-1.2
	c-4.2,0-7.7,0.7-10,2.1s-3.7,3.5-3.7,6.3c0,3.3,1.4,5.6,4.7,7c3,1.4,8.4,2.3,15.4,2.6c7,0.2,11.9-0.5,14.7-1.9
	C463.1,102.5,464.8,99.7,465,96z"/>
<path fill="#6F6F6F" d="M295,527.5c-2.8-0.9-4.9-2.1-6.5-3.7c-1.4-1.6-2.3-3.7-2.3-6.1c0-3.3,1.4-5.8,4.2-7.9c2.8-2.1,6.5-3,10.9-3
	c4,0,7.2,0.7,10,2.1s4,3,4,5.1c0,0.9-0.2,1.9-0.9,2.3c-0.7,0.7-1.4,0.9-2.6,0.9c-0.9,0-1.9-0.2-2.6-0.7s-1.4-1.4-2.1-2.8
	c-0.9-1.6-1.6-2.6-2.6-3.3c-0.9-0.7-2.1-0.9-3.7-0.9c-2.1,0-3.5,0.7-4.7,2.1c-1.2,1.4-1.6,3.5-1.6,6.1s0.5,4.7,1.6,6.1
	c1.2,1.4,2.6,2.3,4.4,2.3c0.7,0,1.9-0.2,3.3-0.7s2.6-0.7,3.3-0.7c0.9,0,1.6,0.2,2.3,0.9c0.5,0.5,0.9,1.2,0.9,2.1s-0.2,1.6-0.9,2.3
	c-0.5,0.5-1.2,0.7-2.3,0.7c-0.7,0-1.9-0.2-3.3-0.9c-1.4-0.5-2.6-0.9-3.3-0.9c-1.9,0-3.5,0.7-4.7,2.3s-1.6,3.7-1.6,6.5
	c0,3,0.9,5.4,2.6,7.2c1.6,1.9,4,2.8,6.8,2.8c2.6,0,4.7-0.7,6.5-2.1c1.9-1.4,3.5-3.7,4.9-6.8l2.6,1.2c-1.6,3.7-3.7,6.8-6.5,8.6
	c-2.8,1.9-6.1,2.8-10.3,2.8c-4.7,0-8.2-1.2-10.9-3.5c-2.8-2.3-4.2-5.4-4.2-9.3c0-2.8,0.7-5.1,2.3-7C289.6,530,291.9,528.5,295,527.5
	z"/>
<path fill="#6F6F6F" d="M335,398.2c-7.5,0.5-13.3-1.2-17.7-4.7c-4.4-3.5-6.8-8.6-7.2-15.4c-0.2-6.1,1.4-11.2,5.6-14.9
	c4-4,9.6-6.1,16.3-6.5c7-0.2,13,1.2,17.7,4.7s7.2,8.2,7.5,14c0.2,2.6-0.2,5.1-1.2,7.5c-0.9,2.6-2.3,4.7-4.2,6.3l26.1-1.4l0.5,8.2
	L335,398.2z M312.9,379.9c0.2,3.5,1.9,6.3,5.1,7.9c3.3,1.9,7.7,2.6,13.3,2.3c7-0.2,12.8-1.9,17-4.7s6.3-6.1,6.1-10
	c-0.2-3.7-1.9-6.5-4.7-8.2c-3-1.6-7.2-2.3-13-2.1c-7.2,0.5-13,2.1-17.5,4.7C314.8,372.5,312.9,375.7,312.9,379.9z"/>
<path fill="#6F6F6F" d="M435.2,168.9c0,0.5,0,1.2,0,2.1c-0.2,6.8-0.2,11.6-0.2,14.7v3c0,5.4,0.2,8.9,0.9,10.3
	c0.7,1.4,1.9,2.1,3.5,2.1c2.1,0,3.7-0.9,4.9-2.8c1.2-1.9,1.6-4.7,1.9-8.6h2.3v0.7c0,5.1-0.9,8.9-2.8,11.2s-4.9,3.5-8.9,3.5
	c-4.2,0-7-1.2-8.6-3.5s-2.3-7.7-2.3-16.1c0-1.2,0-3.5,0-6.5s0.2-6.5,0.2-10.3c-0.2,0-0.2,0-0.7,0c-2.3-0.2-4-0.2-4.9-0.2
	c-2.6,0-4.9,0.5-6.5,1.4s-2.6,2.1-3,3.7h-2.1c0.2-4.2,1.6-7.2,4-9.1c2.6-1.9,6.8-2.6,12.8-2.6c1.6,0,4,0,7.5,0.2
	c3.3,0.2,5.8,0.2,7.7,0.2c3,0,5.1-0.2,6.5-0.7s2.1-1.2,2.1-2.1l0,0h1.9c0,3.5-0.9,6.1-2.6,7.5c-1.6,1.4-4.9,2.1-9.3,2.1
	C438.4,169.1,437,169.1,435.2,168.9L435.2,168.9L435.2,168.9z"/>
<path fill="#6F6F6F" d="M194.1,574.5c1.2-4.7,0.7-8.9-1.2-12.3c-1.9-3.5-5.1-6.3-9.6-8.4c-3.5-1.4-7.5-2.3-11.6-2.6
	c-4.2-0.2-7-0.5-7.7-0.9c-1.4-0.7-2.3-1.4-2.8-2.3s-0.2-2.3,0.2-3.5c0.9-2.1,2.6-3,4.9-3c2.6,0,6.1,0.9,10.7,3
	c7.9,3.3,13.5,7.7,16.8,13.3c3.5,5.6,4.2,11.4,2.6,17.9l18.2,6.5l-4,9.1l-17.2-8.4c-3.5,6.8-7.2,11.2-11.4,13
	c-4.2,1.9-9.1,1.9-14.7-0.7c-2.1-0.9-4.7-2.3-7.9-4c-3.3-1.9-5.6-3-6.8-3.5c-1.6-0.7-3-0.9-4-0.7c-1.2,0.2-1.9,0.9-2.3,1.9
	c-0.7,1.4-0.5,2.8,0.5,4.2c0.9,1.2,2.6,2.3,5.1,3.5l1.4,0.5l-0.9,2.1c-0.2,0-0.5-0.2-0.7-0.2s-0.7-0.2-1.2-0.5
	c-3.5-1.4-5.6-3.3-6.8-5.6s-1.2-4.9,0.2-7.9c1.2-2.8,3-4.7,5.4-5.4c2.3-0.7,5.4-0.2,8.9,1.2c0.9,0.5,2.8,1.4,5.6,2.8
	c2.8,1.4,5.1,2.6,7,3.5c5.6,2.3,9.8,3.3,12.6,2.3c2.8-0.9,5.4-3.5,7.7-7.9l-47.3-23.1l0.9-2.3L194.1,574.5z"/>
<path fill="#6F6F6F" d="M416.8,582.8h-2.1c0-0.2,0-0.5,0-0.7s0-0.7,0-1.2c0-3.7,0.9-6.5,2.6-8.6c1.6-1.9,4.4-2.8,7.7-2.8
	c3.3,0,5.8,0.9,7.5,3c1.6,1.9,2.6,4.9,2.6,8.9c0,1.2-0.2,3.7-0.5,7.7c-0.2,4-0.5,7.2-0.5,10c0,4,0.9,7,2.6,8.9
	c1.6,1.9,4.2,2.8,7.7,2.8c4.2,0,7.5-1.4,10.3-4.4c2.6-2.8,4-6.8,4-11.4c0-3.5-0.9-7.5-3-11.9s-3-7.5-3-9.1s0.5-2.6,1.2-3.5
	c0.7-0.7,2.1-1.2,3.7-1.2c2.3,0,4,1.2,5.1,3.5s1.6,6.1,1.6,11.2c0,9.6-1.9,16.8-5.8,22.1c-4,5.4-9.3,7.9-16.3,7.9
	c-5.1,0-9.1-1.4-11.9-4.7c-2.8-3-4.2-7.2-4.2-12.6c0-2.3,0.2-5.6,0.7-9.6s0.7-7,0.7-8.6s-0.5-3-1.2-4c-0.7-0.9-1.9-1.4-3-1.4
	c-1.9,0-3.3,0.7-4.2,2.1c-0.9,1.4-1.4,3.3-1.4,6.1c0,0.2,0,0.5,0,0.7C416.8,582.3,416.8,582.5,416.8,582.8z"/>
<path fill="#6F6F6F" d="M579.4,378.7c0,4.4,0.5,7.2,1.2,8.4s1.9,1.9,3.7,1.9c2.1,0,3.7-0.9,4.7-2.6c0.9-1.6,1.4-4.4,1.4-7.9v-0.9
	h2.3v1.6c0,4.7-0.9,8.2-2.8,10.3c-1.9,2.1-4.7,3.3-8.6,3.3c-3.7,0-6.3-1.2-7.9-3.3s-2.6-5.6-2.6-10.5v-29.6h8.9L579.4,378.7
	L579.4,378.7z"/>
<path fill="#6F6F6F" d="M192.2,424.9c5.1,0,9.3,1.6,12.6,5.1s4.7,8.2,4.7,14c0,6.1-1.6,10.7-4.9,14.4c-3.3,3.5-7.7,5.4-13,5.4
	c-5.1,0-9.1-1.9-12.3-5.4c-3.3-3.5-4.9-8.2-4.9-14s1.6-10.5,5.1-14.2C182.4,426.7,186.8,424.9,192.2,424.9z M202.2,447.2
	c0-6.1-1.2-10.9-3.3-14.7c-2.1-3.7-4.9-5.6-8.4-5.6c-3,0-5.4,1.4-7,4s-2.6,6.3-2.6,10.9c0,5.8,1.2,10.5,3.3,14
	c2.1,3.7,4.9,5.4,8.2,5.4s5.6-1.2,7.2-3.5C201.5,455.7,202.2,452.2,202.2,447.2z"/>
<path fill="#6F6F6F" d="M137.9,247c-0.5,0.2-1.2,0.7-1.9,1.2c-5.8,3.3-10,5.6-12.3,7l-3.3,2.1c-4.4,2.6-7.2,4.7-8.2,5.8
	c-0.9,1.2-0.9,2.3-0.2,3.5c0.9,1.6,2.3,2.1,4.4,2.1c2.1-0.2,4.7-1.2,8.2-3l1.2,2.1l-0.5,0.2c-4.4,2.6-7.9,3.7-10.9,3.7
	c-2.8-0.2-5.1-1.6-7-4.7c-1.9-3-2.1-5.8-0.7-8.4s5.4-5.8,12.3-9.8c0.7-0.5,3-1.6,6.5-3.7c3.5-1.9,6.3-3.5,8.6-4.9
	c-0.5-0.9-1.4-2.3-2.3-4.2c-0.9-1.9-2.3-4-3.7-6.3c-12.6,7.5-21.4,11.9-26.3,13.3s-8.4,0.5-10.3-2.8c-1.2-1.9-1.2-3.7-0.2-5.6
	c0.9-1.9,3-3.7,6.1-5.6l1.6-0.8l1.2,1.9c-1.4,0.9-2.3,1.9-2.8,2.8s-0.2,1.9,0.2,2.8c1.4,2.3,4,2.8,7.9,1.6s10.9-4.4,21-10.3
	l-1.2-1.9c-1.2-2.1-2.6-3.5-4-4.2s-3-0.9-4.7-0.2l-1.2-1.9c3.7-2.1,7-2.6,9.6-1.6s5.4,3.7,8.2,8.6c0.5,0.9,2.1,3.7,4.7,8.4
	c2.6,4.7,4.9,8.9,7.2,12.6c1.2,1.9,2.1,3,3,3.7s1.9,0.7,2.6,0.2l0,0l1.2,1.9l-0.2,0.2c-2.8,1.6-5.1,2.3-7.2,1.6
	c-2.1-0.5-3.7-2.1-5.4-4.9c-0.2-0.5-0.5-0.9-0.7-1.2C138.1,247.7,137.9,247.5,137.9,247z"/>
<path fill="#6F6F6F" d="M549.6,142.2l-3.7,14.2c-0.7,2.6-1.4,4.9-2.3,7.2c-0.7,2.3-1.6,4.7-2.8,6.8c1.2,2.8,2.1,4.9,3.5,6.1
	c1.2,1.4,2.6,2.1,3.7,2.1c1.2,0,1.9-0.5,2.6-1.2c0.7-0.7,1.2-1.9,1.4-3.3h1.9v0.9c0,3.5-0.5,6.1-1.4,7.9c-0.9,1.6-2.6,2.6-4.4,2.6
	c-2.1,0-3.7-0.7-5.1-2.6c-1.2-1.6-2.3-4.9-3.5-9.6c-2.6,4.2-5.1,7.2-8.2,9.1c-2.8,1.9-6.3,2.8-10.3,2.8c-6.1,0-10.9-2.1-15.1-6.5
	c-4-4.2-6.1-9.8-6.1-16.3c0-5.8,2.1-10.9,6.1-15.4c4.2-4.4,9.1-6.5,14.7-6.5c4.4,0,7.9,1.4,10.7,4s4.7,6.5,5.8,11.6l3.5-14.2
	L549.6,142.2L549.6,142.2z M536.1,162.2c-1.4-6.5-3.3-11.2-5.4-14c-2.1-2.8-5.1-4.4-8.6-4.4c-3.7,0-6.8,1.9-9.1,5.1
	c-2.3,3.5-3.3,8.2-3.3,14.2c0,6.5,1.2,11.4,3,14.9c2.1,3.5,5.1,5.1,9.1,5.1c3.7,0,6.5-1.4,8.6-4.4
	C532.6,175.9,534.4,170.2,536.1,162.2z"/>
<path fill="#6F6F6F" d="M182.6,211.2c3.5,1.9,6.1,4.2,7.9,7c1.6,2.8,2.6,6.3,2.6,10.3c0,6.5-2.3,11.9-6.8,16.1
	c-4.7,4.2-10.5,6.3-17.9,6.3c-7,0-12.8-2.1-17.2-6.3s-6.8-9.3-6.8-15.8c0-7,2.3-12.6,7-16.8s10.7-6.3,18.4-6.3
	c1.6,0,4.4,0.2,8.6,0.2c4.2,0.2,7.7,0.2,10.3,0.2s4.4-0.2,5.6-0.7c1.2-0.5,1.9-0.9,2.1-1.9h2.1c0,3-0.7,5.1-1.9,6.3
	s-3.3,1.9-6.3,1.9c-0.7,0-1.4,0-2.3-0.2C186.8,211.7,185.2,211.5,182.6,211.2z M183.6,231.5c0-7.2-1.4-12.8-4.4-17
	s-6.8-6.3-11.6-6.3c-4.2,0-7.5,1.4-10,4.4c-2.3,3-3.5,7.2-3.5,12.8c0,6.8,1.4,12.1,4.4,16.3s6.8,6.3,11.6,6.3
	c4.7,0,7.9-1.4,10.3-4.2C182.4,241,183.6,236.9,183.6,231.5z"/>
<path fill="#6F6F6F" d="M566.6,136.7l-1.2-0.2c-11.4-2.6-17.9-5.8-19.6-9.8c-0.9-2.6-0.9-4.9,0.5-7.2c1.2-2.3,3.3-4,6.1-5.1
	c3.3-1.2,6.5-1.4,10-0.2c3.5,1.2,6.1,3,7.9,5.8l-2.3,0.9c-1.9-2.1-4.2-3.5-7-4.4c-2.8-0.7-5.4-0.7-7.7,0.2c-1.6,0.7-2.6,1.4-3.3,2.3
	s-0.7,2.1-0.2,3.3c0.9,2.3,4.4,4.2,10.5,5.4c2.1,0.5,3.5,0.7,4.7,0.9c6.8,1.6,12.3,4.2,16.5,7.5s7.2,7.5,9.3,12.6
	c2.3,6.3,2.6,11.9,0.5,16.8c-2.1,5.1-6.1,8.9-11.9,10.9c-5.4,2.1-10.5,2.1-15.4-0.2s-8.4-6.3-10.5-11.9c-2.3-5.8-2.6-11.4-0.5-16.3
	c1.9-5.1,5.6-8.6,10.9-10.7c0.5-0.2,0.9-0.2,1.2-0.5C565.9,136.7,566.3,136.7,566.6,136.7z M584.3,155.1c-2.3-5.8-5.1-10.3-8.9-13
	c-3.5-2.8-7-3.5-10.5-2.1c-3,1.2-4.9,3.5-5.8,6.5c-0.7,3.3-0.2,7.2,1.6,11.9c2.1,5.6,5.1,9.8,8.6,12.6s7,3.5,10.5,2.1
	c3.3-1.4,5.4-3.5,6.1-6.3C586.6,163.7,585.9,159.7,584.3,155.1z"/>
<path fill="#6F6F6F" d="M151.4,290c6.1,0.2,10.7,2.3,14.4,6.3c3.7,4.2,5.6,9.3,5.6,16.1c0,6.3-1.6,11.6-5.1,15.6s-7.9,6.3-13.7,6.8
	v19.1h-6.8v-19.1c-5.8-0.5-10.3-2.6-13.7-6.8c-3.5-4.2-5.1-9.3-5.1-15.6c0-6.5,1.9-11.9,5.6-15.8c3.7-4.2,8.4-6.3,14.4-6.5l0.5-18.4
	h3.7L151.4,290z M146.8,292.7c-3.5,0.5-6.3,2.3-8.6,5.8s-3.3,8.2-3.3,13.7c0,5.4,0.9,9.8,3,13.3s4.7,5.6,7.9,6.3L146.8,292.7z
	 M151.4,292.7l0.9,39.1c3.3-0.7,6.1-2.8,7.9-6.3c2.1-3.5,3-7.9,3-13.3c0-5.6-1.2-10-3.3-13.7C158,295,154.9,293,151.4,292.7z"/>
<path fill="#6F6F6F" d="M437.5,405.2c-1.9-9.1-4-16.3-6.3-21.7s-4.4-7.9-6.3-7.9c-0.9,0-1.6,0.5-2.3,1.4c-0.7,0.9-0.9,2.3-1.2,4
	h-2.1v-2.8c0-3.7,0.5-6.5,1.6-8.4c1.2-1.9,2.8-2.8,4.9-2.8c4.2,0,8.4,10,12.8,30.3l0.9,4c3-7.2,5.1-15.1,6.1-23.8
	c0.2-1.2,0.2-1.9,0.2-2.3c0.5-2.8,0.9-4.9,1.6-6.1c0.9-1.2,1.9-1.9,3.3-1.9s2.3,0.2,3,1.2c0.7,0.7,1.2,1.9,1.2,3
	c0,2.6-1.9,7.7-5.8,15.6c-3.7,7.9-6.8,14.2-8.6,19.1c0.5,3.5,0.9,6.8,1.2,9.6c0.2,2.8,0.5,5.1,0.5,7.2c0,3.3-0.5,5.4-0.9,6.8
	c-0.7,1.4-1.6,2.1-3,2.1s-2.3-0.5-3-1.6c-0.7-1.2-1.2-2.8-1.2-5.1s0.2-4.9,0.9-8.2C435.4,413,436.4,409.2,437.5,405.2z"/>
<path fill="#6F6F6F" d="M192.2,106.4V58.2c0-4.4-0.5-7.2-1.4-8.9c-0.9-1.6-2.8-2.3-5.1-2.3c-4,0-7.2,2.6-9.8,7.7s-3.7,11.6-3.7,19.3
	v12.3h-9.1V55.1c0-2.8-0.2-4.9-0.9-6.3s-1.6-2.1-3-2.1s-2.6,0.7-3.5,1.9c-0.7,1.4-1.2,3.3-1.2,5.8v1.4h-1.9c0-0.2,0-0.5,0-0.7
	s0-0.7,0-1.2c0-3.5,0.7-6.3,2.3-8.4c1.6-1.9,3.7-2.8,6.5-2.8c3.5,0,6.1,1.4,7.7,4.2c1.6,2.8,2.6,7,2.6,12.8
	c1.6-5.8,3.7-10.3,6.3-12.8c2.6-2.8,6.1-4.2,10-4.2c4.7,0,7.9,1.6,9.8,4.7c2.1,3,3,8.2,3,15.6v43.3L192.2,106.4L192.2,106.4
	L192.2,106.4z"/>
<path fill="#6F6F6F" d="M292.6,64v-5.4c0-7.5,0.2-12.8,0.5-15.8s0.7-5.8,1.4-8.2c1.2-4,3-7,5.1-9.1c2.3-2.1,4.9-3.3,8.2-3.3
	c3.7,0,7,1.9,9.6,5.1c2.6,3.5,3.7,7.9,3.7,13.3c0,7.5-1.9,13.7-5.8,18.4c-4,4.7-9.1,7.2-15.6,7.5v19.1h-7.2V66.7
	c-7.5-0.5-13-2.8-17.2-7c-4-4.2-6.1-9.8-6.1-16.8c0-6.5,1.4-11.6,4-15.4c3-3.3,6.5-5.1,11.2-5.1c2.1,0,4.2,0.7,5.8,1.6
	c1.6,1.2,3.3,2.8,4.4,5.1l-2.3,1.4c-0.9-1.6-1.9-2.8-3-3.5c-1.2-0.7-2.6-1.2-4-1.2c-2.6,0-4.4,1.4-5.6,3.7c-1.2,2.6-1.6,7-1.6,13
	s1.2,10.9,3.7,14.4C284.2,61.1,287.9,63.3,292.6,64z M299.8,64c5.4,0,9.6-2.1,13-6.3c3.5-4.2,5.1-9.8,5.1-16.5
	c0-4.7-0.9-8.4-2.6-11.2c-1.6-2.8-4.2-4.2-7-4.2c-3,0-5.4,1.4-6.5,4.2c-1.2,2.8-1.9,7.9-1.9,15.4L299.8,64L299.8,64z"/>
<path fill="#6F6F6F" d="M592.7,502.2v-2c-2.6-0.7-4.9-1.2-7.5-1.9c-2.3-0.7-4.7-1.6-7-2.3l0.5,18.9c0,0.5,0,0.9-0.2,1.2
	c0,0.2-0.2,0.2-0.5,0.2c-0.2,0-0.5,0-0.7-0.2s-0.7-0.5-0.7-0.7l-4.7-5.4c-5.1-5.6-8.9-9.3-11.2-10.9c-2.6-1.6-4.9-2.6-7.2-2.3
	c-1.6,0-3,0.5-4,1.2c-1.2,0.7-1.6,1.6-1.6,2.8c0,0.7,0.5,1.4,0.9,2.1c0.7,0.5,1.4,0.7,2.6,0.7c0.7,0,1.6-0.2,2.8-0.7
	s1.9-0.7,2.6-0.7c1.4,0,3,0.7,4.7,1.9c1.6,1.4,4,3.7,7,7.2l2.8,3.5l-14.2,20c-1.4,2.1-2.8,3.7-4.2,4.7c-1.4,1.2-2.8,1.6-4.2,1.6
	h-0.2v1.9l20-0.5v-1.9c-1.4,0-2.6,0-3.3-0.2s-0.9-0.5-0.9-0.9c0-0.5,0.2-0.9,0.5-1.4s0.7-1.4,1.4-2.3l11.2-15.4
	c0.2-0.2,0.5-0.5,0.7-0.7s0.5-0.2,0.7-0.2s0.2,0,0.2,0.2s0.2,0.5,0.2,0.7l0.5,21.7l7.9-0.2l-0.7-33.3c0-2.8,0.2-4.4,0.9-5.1
	s1.9-1.2,3.5-1.2c0.2,0,0.7,0,0.9,0C592,502.2,592.4,502.2,592.7,502.2z"/>
<path fill="#6F6F6F" d="M499,178.2l2.1-0.5v0.2c0.5,1.2,0.7,1.9,0.7,2.6c0.7,3.3,0.7,5.8-0.5,8.2c-0.9,2.3-2.6,3.7-4.9,4.2
	c-2.1,0.5-3.7,0.2-5.1-0.7s-3-2.6-4.7-5.4l-14.4-23.3l-7,35.9l-9.8,2.3l9.6-49.9l-3.3-5.1c-1.6-2.3-3-4-4.4-4.7s-3-0.9-4.9-0.5
	c-1.9,0.5-3.3,1.2-4.2,2.3c-0.9,1.2-1.2,2.3-0.9,4l-1.9,0.5c0-0.2-0.2-0.5-0.2-0.7c-0.2-0.2-0.2-0.5-0.2-0.7
	c-0.7-3.3-0.5-5.8,0.5-8.2c0.9-2.3,2.8-3.7,5.4-4.2c2.3-0.5,4.4-0.2,6.1,0.9c1.6,1.2,4.2,4.2,7,8.9l20.5,33.3c2.1,3.5,4,5.6,5.1,6.5
	c1.4,0.9,3,1.2,4.9,0.7c1.6-0.2,2.6-1.2,3.3-2.3C499,181.2,499.2,179.7,499,178.2z"/>
<path fill="#6F6F6F" d="M533.1,319.4c3-2.1,5.8-3.7,8.4-4.7c2.6-0.9,5.1-1.6,7.7-1.6c2.1,0,3.7,0.2,4.9,0.9c1.2,0.7,1.6,1.6,1.6,2.8
	c0,1.9-1.2,3.3-3.7,4.2c-2.6,0.9-6.1,1.6-10.3,1.6c-1.4,0-2.8,0-4-0.2c-1.2,0-2.3-0.2-3.7-0.5c-3.3,2.8-5.8,6.5-7.7,11.2
	s-2.8,9.6-2.8,14.7s1.2,9.1,3.5,11.2c2.3,2.3,6.3,3.5,11.6,3.5c0.9,0,2.3,0,4-0.2c1.9,0,3.3-0.2,4.2-0.2c4.7,0,8.2,0.9,10.3,2.6
	c2.1,1.6,3.3,4.2,3.3,7.7c0,4.7-1.9,8.4-5.6,10.9c-3.7,2.6-9.1,4-16.1,4c-2.1,0-3.7-0.2-4.9-0.9s-1.6-1.4-1.6-2.6
	c0-0.9,0.5-1.6,1.2-2.3c0.7-0.5,1.9-0.7,3.3-0.7c0.9,0,2.6,0.2,4.9,0.9c2.3,0.7,4.4,0.9,6.1,0.9c2.8,0,5.1-0.7,7-2.1s2.8-3,2.8-5.1
	c0-1.9-0.7-3-2.3-3.7c-1.4-0.7-4-1.2-7.5-1.2c-1.2,0-3,0-5.4,0.2c-2.3,0-4,0.2-4.9,0.2c-6.3,0-11.2-1.6-14.2-4.9s-4.4-8.4-4.4-15.1
	c0-5.6,0.9-10.9,3-15.6c2.1-4.9,5.1-9.3,9.1-13.5c-4.9-1.2-8.6-2.6-11.2-4.2c-2.6-1.9-3.7-3.7-3.7-6.1c0-2.6,1.2-4.4,3.7-5.8
	c2.3-1.4,5.8-2.1,10.3-2.1c0.9,0,1.6,0,2.1,0s1.2,0.2,1.6,0.2v2.3H531c-2.8,0-4.9,0.5-6.3,1.4c-1.4,0.9-2.1,2.3-2.1,4.2
	s0.9,3.5,2.6,4.9C527.2,317.7,529.8,318.7,533.1,319.4z"/>
<path fill="#6F6F6F" d="M391,500c3.3,2.8,5.6,5.1,7,7.2c1.6,1.9,2.8,4,3.7,6.1c0.9,2.1,1.4,4,1.2,5.4c0,1.4-0.7,2.3-1.9,2.8
	c-1.4,0.5-2.8,0.2-4.2-1.4c-1.4-1.4-3-4-4.4-7.5c-1.2-2.6-2.1-6.1-3-10.5c0-0.2-0.2-0.5-0.2-0.7c-2.3-1.2-4.4-1.6-6.1-1.9
	c-1.9-0.2-3.5,0-4.9,0.5c-1.6,0.7-3,1.6-3.7,3c-0.7,1.2-1.4,3-1.6,5.4c1.6,2.6,3,4.9,4.2,7s2.1,4.2,3,6.1c1.4,3,1.9,5.6,1.9,7.2
	c0,1.6-0.7,2.8-1.9,3.5c-1.4,0.5-2.8,0.2-4.2-1.2s-2.8-3.7-4.2-7.2c-0.9-2.6-1.9-4.9-2.3-7.5c-0.5-2.6-0.9-5.1-0.9-7.9
	c-1.9-1.9-4.2-3-6.5-3.5s-4.7-0.2-6.8,0.5c-2.8,1.2-4.7,3.3-5.1,5.8c-0.4,2.5,0,6.1,1.9,10.3c0.2,0.5,0.7,1.4,1.2,2.8
	c0.5,1.4,0.9,2.3,1.4,3c2.3,5.4,3,9.6,2.3,12.6s-2.8,5.4-6.3,6.8c-4.2,1.6-8.2,1.4-12.1-0.9c-4-2.3-7-6.1-9.3-11.4
	c-1.2-2.6-1.6-4.7-1.4-6.3c0.2-1.4,0.9-2.6,2.1-3c0.7-0.2,1.2-0.2,1.9,0.2c0.7,0.2,1.2,0.9,1.4,1.6s0.7,2.6,0.9,5.1
	c0.2,2.6,0.7,4.7,1.4,6.5c1.2,2.8,2.8,4.7,4.7,5.8c1.9,1.2,4,1.2,6.3,0.2c2.1-0.9,3-2.1,3.3-3.7c0.2-1.6-0.5-4.4-2.1-8.2
	c-0.7-1.4-1.4-3-2.1-4.7c-0.9-1.6-1.2-2.8-1.4-3c-2.1-4.9-2.6-9.6-1.2-13.3c1.4-4,4.2-6.8,8.4-8.6c2.8-1.2,5.8-1.6,8.9-1.2
	c3,0.5,5.8,1.6,8.9,3.7c0.5-2.1,1.4-3.7,2.6-4.9c1.2-1.4,2.6-2.3,4.4-3c2.1-0.9,4.2-1.2,6.1-0.9c2.1,0.2,4.4,0.9,6.8,2.3
	c-0.7-4.2-0.9-7.5-0.2-10c0.7-2.6,1.9-4.2,4-4.9c1.9-0.9,4-0.5,5.8,0.9c1.9,1.4,3.5,3.7,4.9,7.2c0.5,1.2,0.7,2.1,1.2,3
	c0.2,0.9,0.5,1.9,0.5,2.8l-1.9,0.5c-0.2-0.9-0.5-1.6-0.7-2.3s-0.2-1.2-0.5-1.4c-0.9-2.1-1.9-3.7-3.3-4.4c-1.2-0.7-2.6-0.9-4-0.2
	c-1.6,0.7-2.6,1.9-3,3.7C390.5,494.7,390.5,497,391,500z"/>
<path fill="#6F6F6F" d="M114.2,346.4h9.6L104,379.2l4.7,11.4c1.6,4.2,3.3,7,4.7,8.4c1.4,1.4,3,2.3,4.9,2.3s3-0.7,4-1.6
	c0.9-1.2,1.4-3,1.4-5.6h2.3c0,0.7,0,1.4,0.2,1.9c0,0.7,0,1.4,0,2.3c0,3.5-0.7,6.3-2.1,8.2c-1.4,2.1-3.3,3-5.8,3
	c-3.5,0-6.8-3.7-9.8-11.2c-0.7-1.4-1.2-2.8-1.4-3.5l-5.4-12.8l-16,27.3h-9.6L97.5,373l-3.7-9.3c-1.4-3.7-3-6.3-4.7-7.9
	s-3.5-2.3-5.8-2.3c-1.6,0-3,0.5-4,1.6c-0.9,1.2-1.4,2.6-1.4,4.4c0,0.2,0,0.2,0,0.5s0,0.5,0,0.7h-2.3c0-0.5-0.2-1.2-0.2-1.9
	s0-1.4,0-2.3c0-3.5,0.7-6.1,2.1-8.2s3.5-3,5.8-3s4.2,0.9,5.8,2.8c1.6,1.9,3.7,6.1,6.5,13l4,9.6L114.2,346.4z"/>
<path fill="#6F6F6F" d="M142.8,91.5l3.5-3.3c1.6-1.6,2.8-3,3-4.2s0-2.8-0.9-4.4l1.6-1.4c2.6,3,4,5.8,3.7,8.6c0,2.6-1.4,5.4-4.4,7.9
	l-1.6,1.4l-38.4,36.3l-4.7-4.9l7.9-7.7c-2.8,0-5.4-0.5-7.7-1.6c-2.3-1.2-4.7-2.8-7-5.4c-4.4-4.7-7-9.6-7.5-14.7s0.9-9.1,4.4-12.3
	c1.9-1.9,4.2-2.6,6.8-2.6c2.6,0,5.4,1.2,8.6,3.3c-1.9-3.3-2.8-6.3-2.8-8.6c0-2.6,0.9-4.7,3-6.5c3.5-3.3,7.7-4.4,12.8-3.5
	c5.1,0.7,9.8,3.5,14,7.9c2.3,2.6,4,4.9,4.9,7.7C143,86.1,143.3,89,142.8,91.5z M116.2,116.7l23.3-21.9c-0.9-2.1-2.1-4-3.5-6.1
	s-3-4-5.1-6.1c-4.2-4.4-7.9-7.5-11.4-8.9c-3.3-1.4-6.1-1.4-7.9,0.5c-1.4,1.4-1.9,3.3-1.4,6.1c0.5,2.6,1.9,4.9,4,7.2
	c0.7,0.7,1.9,1.9,4,3.5c1.9,1.6,3.5,3,4.7,4c1.2,1.2,1.6,2.3,1.9,3.3c0,0.9-0.2,1.9-1.2,2.8c-0.9,0.9-1.9,1.2-3,1.2
	c-0.9-0.2-2.1-0.9-3.3-2.1c-0.9-0.9-2.1-2.6-3.5-4.4c-1.4-2.1-2.6-3.5-3.3-4.2c-2.1-2.3-4.4-3.7-7.2-4.2c-2.6-0.5-4.7-0.2-6.1,1.2
	c-1.6,1.6-1.9,4.2-0.7,7.7c1.4,3.5,4,7.2,7.9,11.4c2.1,2.3,4.2,4.2,6.1,5.8C112.3,114.4,114.4,115.7,116.2,116.7z"/>
<path fill="#6F6F6F" d="M384.4,355c0.5,1.9,1.4,3.3,3,4.4s3.5,1.6,5.6,1.6c3.3,0,5.8-1.4,7.7-4.4c1.9-2.8,2.8-6.8,2.8-11.9
	c0-4.9-0.9-9.1-2.8-12.1s-4.4-5.4-8.2-6.3c-0.2,0-0.5,0.2-0.9,0.5c-2.3,0.9-4.2,1.4-5.4,1.4c-0.9,0-1.6-0.2-2.1-0.7
	s-0.7-1.4-0.7-2.3s0.2-1.6,0.7-2.1s1.4-0.7,2.3-0.7s2.6,0.5,5.1,1.4c0.5,0.2,0.9,0.5,1.4,0.5c2.1-0.9,3.5-2.3,4.7-4.2
	c0.9-1.9,1.4-4.4,1.4-7.5c0-4-0.9-7-2.6-9.3c-1.9-2.3-4.2-3.5-7-3.5c-3.5,0-6.1,1.4-7.5,4.2c-1.6,2.8-2.3,7.5-2.3,13.7v64.8h-8.4
	v-55.9c0-9.6,1.6-16.8,5.1-21.9s8.2-7.7,14.4-7.7c5.1,0,9.1,1.4,12.1,4s4.7,6.1,4.7,10.5c0,3-1.2,5.8-3.3,8.2s-5.4,4.2-9.6,5.6
	c5.8,1.4,10.3,3.7,13,6.8c3,3,4.4,7,4.4,11.6c0,5.8-1.6,10.7-5.1,14.4s-7.9,5.6-13,5.6c-3.5,0-6.3-0.7-8.6-2.3
	c-2.3-1.6-3.5-3.5-4-6.1L384.4,355L384.4,355z"/>
<path fill="#6F6F6F" d="M325.9,14.8c-0.5-1.2-0.9-2.1-1.4-2.6s-1.2-0.7-1.6-0.7c-1.2,0-2.1,0.5-2.6,1.6s-0.7,2.8-0.7,5.4v0.9h-2.1
	c0-0.2,0-0.5,0-0.9c0-0.5,0-0.7,0-0.9c0-3.7,0.7-6.5,2.1-8.4s3.5-3,6.1-3c2.3,0,4.4,0.7,5.8,2.1s3,4.2,4.7,8.4l9.3,23.5
	c2.8-4.4,4.9-8.4,6.3-12.1s1.9-7.5,1.9-11.2v-2.3c0-3,0.5-5.1,1.4-6.5c0.9-1.2,2.3-1.9,4.7-1.9c1.4,0,2.3,0.2,3.3,0.9
	c0.7,0.7,1.2,1.6,1.2,2.8c0,2.1-2.6,7.9-7.7,17s-9.3,17.2-12.6,24.2h-2.6L325.9,14.8z"/>
<path fill="#6F6F6F" d="M285.4,109.9c0,4.4,0.5,7.5,1.4,8.9c0.9,1.6,2.6,2.3,4.7,2.3c3.7,0,6.8-2.6,9.1-7.7
	c2.3-5.1,3.5-11.6,3.5-19.3V81.8h8.9V113c0,2.8,0.2,4.9,0.9,6.3c0.7,1.4,1.4,2.1,2.8,2.1s2.3-0.7,3-2.1s1.2-3.3,1.2-5.8v-1.4h1.9
	c0,0.2,0,0.5,0,0.9c0,0.2,0,0.7,0,1.2c0,3.5-0.7,6.3-2.3,8.2c-1.4,1.9-3.5,2.8-6.3,2.8c-3.3,0-5.6-1.4-7.2-4
	c-1.6-2.8-2.3-6.8-2.6-12.3c-1.4,5.6-3.5,9.8-5.8,12.3c-2.3,2.6-5.6,4-9.1,4c-2.8,0-5.1-0.9-7-2.6s-3-4.2-3.7-7.2c0,0.5,0,1.4,0,2.6
	c0,4,0.9,8.4,3,13.3c2.1,4.9,3,7.9,3,8.6c0,1.2-0.5,2.3-1.2,3s-1.6,0.9-3,0.9s-2.6-0.5-3-1.6c-0.7-0.9-0.9-2.8-0.9-5.1
	c0-0.5,0-2.3,0.2-5.6c0.2-3,0.2-5.8,0.2-8.4c0-2.3,0-5.6-0.2-9.6c0-4.2-0.2-7.2-0.2-9.1V81.1h8.6L285.4,109.9L285.4,109.9z"/>
<path fill="#6F6F6F" d="M539.8,281.5v5.6H506v-5.6H539.8z"/>
<path fill="#6F6F6F" d="M364.1,65.6c3.5,2.1,7.7,6.8,7.2,13.5c-0.2,4.2-1.9,7.9-5.6,9.8l5.6,0.2c5.1,0.2,13.5,0.5,17.5-0.2l-0.5,7.5
	c-2.8,0.9-9.6,0.9-17,0.5l-47.5-2.1l0.5-8.4l27,1.4c7,0.5,13-2.3,13.5-9.6c0.2-5.6-3.5-9.6-7.2-11.4c-1.2-0.5-2.8-0.9-4.4-0.9
	l-28-1.4l0.5-8.4l33.3,1.6c5.1,0.2,7-0.7,7.5-4l6.1,0.9c0.2,1.2,0.2,1.6,0.2,3c-0.2,4.2-2.6,7.2-8.6,7.7L364.1,65.6z"/>
<path fill="#6F6F6F" d="M78.3,537c-3-3.7-5.4-6.8-8.2-9.6l5.8-4.7l5.1,5.5h0.2c-0.9-4.7,0.7-11.4,6.5-16.1c4.9-4,15.1-7.2,24.9,5.1
	l17,21.4l-6.5,5.1L106.6,523c-4.7-5.8-10.7-8.9-16.8-4c-4.2,3.3-5.1,9.1-3.5,13.5c0.2,1.2,1.2,2.3,2.1,3.5l17.2,21.7l-6.5,5.1
	L78.3,537z M71.8,516.2c-4-4.7-4.2-9.1-1.2-11.6c1.6-1.4,3.5-1.6,5.8-2.1c1.6-0.2,3.3-0.5,4.2-1.2c1.2-0.9,1.4-2.1-0.5-4.7l3.5-2.8
	c4,4.9,4.4,8.9,0.9,11.6c-1.6,1.4-3.7,1.6-5.8,2.1s-3.3,0.5-4.2,1.2c-1.2,0.9-0.7,2.8,0.7,4.9L71.8,516.2z"/>
<path fill="#6F6F6F" d="M421,21.8c-0.7-0.2-1.9-0.5-2.8-0.5c-1.6,0-3.3,0.7-4.4,2.1c-1.9,2.3-2.8,6.5-2.8,14.9
	c0,13.7,1.2,30.3,1.2,44.7c0,9.3-1.6,14.9-4,17.9c-2.1,3-5.4,4.7-9.1,4.7c-2.1,0-4.2-0.5-5.1-0.9l0.9-5.4c0.9,0.2,2.1,0.5,3.5,0.5
	s3-0.7,4.2-2.1c1.6-2.1,3-5.6,3-14.7c0-14.4-1.2-31.5-1.2-45.2c0-9.6,1.6-14.9,4.9-18.6c2.3-2.6,5.1-3.5,8.4-3.5
	c1.6,0,3.3,0.2,4.2,0.7L421,21.8z"/>
<path fill="#6F6F6F" d="M47.3,310.5h-6.1L26.1,270l-7,3l-1.9-4.4l13-5.4L41.8,296c0.7,2.1,1.4,4.4,1.9,6.1l0,0
	c0.2-1.6,0.7-4,1.4-6.1l17.7-73.2h6.3L47.3,310.5z"/>
<path fill="#6F6F6F" d="M90.2,161.9c-1.4,1.6-4.9,4.7-10,7l-0.9,4.2c3.5-0.7,7.2,0.5,8.9,4c2.1,5.4-1.4,9.1-6.3,10.9
	c-2.1,0.7-4.7,1.4-6.8,0.9l-0.2-4.4c1.6,0.2,3.5,0,5.4-0.7c2.1-0.7,3.5-2.3,2.6-4.4c-0.9-2.3-4-2.1-8.4-0.9l0.9-8.2
	c-11.4,3-21.7-2.6-26.3-14.4c-5.1-12.8,0-26.1,14-31.7c4.7-1.9,9.1-2.3,11.6-2.1l0.7,6.5c-2.3-0.2-5.6,0-9.8,1.6
	c-9.8,4-12.1,13.3-8.6,22.1c4,9.8,12.6,13.3,21.2,10c4.4-1.9,7-4,8.6-5.8L90.2,161.9z"/>
<path fill="#6F6F6F" d="M277,623.5l-1.6,8.4l-3-0.7l3-14.4l2.6,0.5c1.4,5.1,5.4,10,11.4,11.2c5.6,1.2,12.6-1.9,14.2-10
	c1.6-8.2-3.3-14-9.1-15.1c-5.6-1.2-11.9,1.9-14.9,5.8l-2.3-0.5l3-14.4l3,0.7l-1.6,8.4h0.2c3.3-3.3,8.6-6.1,14.2-5.1
	c8.6,1.9,13,10.7,10.9,21c-2.3,10.7-9.8,16.1-17.7,14.4C282.6,632.7,278.9,628,277,623.5L277,623.5L277,623.5z"/>
<path fill="#6F6F6F" d="M67.6,210.7l3.5,2.1v-0.2c-0.7-3-0.2-6.8,2.6-10.3c4-4.9,9.3-5.1,13.3-2.1c5.4,4.2,4.4,12.1-3.5,21.7
	l0.7,0.5c1.2,0.9,5.1,3,9.1-1.9c1.9-2.3,3-5.1,3-7.9l4,1.4c0,3.5-1.6,7.2-4.2,10.5c-5.8,7.5-12.6,5.4-17.9,1.2l-7.9-6.3
	c-2.1-1.6-4.2-3-6.1-4.2L67.6,210.7z M80.1,219.4c4-4.7,7.2-10.7,3-14c-2.6-2.1-5.6-1.2-7.2,1.4c-1.9,2.3-2.1,5.1-1.2,7.2
	c0.2,1.2,0.9,1.9,1.4,2.3L80.1,219.4z"/>
<path fill="#6F6F6F" d="M516.3,47.3l31.5,29.1c7.9,7.5,10.7,13.3,10.5,19.1c0,4.7-1.9,9.1-5.8,13.5c-6.1,6.5-15.6,8.6-23.3,1.4
	c-2.3-2.3-3.7-5.1-4.2-7c1.6-4.4,1.4-7.9-0.9-10.3c-2.3-2.3-5.1-2.1-9.3-2.1c-5.4,0.2-10.9,0.2-15.8-4.4c-6.5-6.1-6.8-14.9,0.5-22.8
	c2.3-2.6,5.4-4.9,8.4-6.1l3.7,5.4c-2.6,0.9-4.9,2.6-6.8,4.7c-4.2,4.4-3.7,9.3-0.5,12.3c3,2.8,6.1,3.3,10.7,3
	c5.6-0.2,10.5-0.5,14.2,3.3c3.5,3.3,4.7,8.4,2.8,14.2c0.5,1.2,1.4,2.3,2.6,3.3c4.9,4.4,10.3,4.2,14.2-0.2c4.9-5.4,4-11.9-5.8-21
	l-31.9-29.4L516.3,47.3z"/>
<path fill="#6F6F6F" d="M311.5,288.2c3-2.3,8.2-5.6,16.1-5.8c13.3-0.5,25.6,10.7,26.6,32.6c0.9,24.2-10.7,37-24,37.5
	c-12.8,0.5-19.3-9.1-19.8-19.1c-0.5-12.8,7.9-23.5,19.8-24c7.9-0.2,13.7,4,15.8,7.7l0,0c0-0.9,0-2.1,0-3
	c-0.7-16.8-10-24.7-18.9-24.5c-6.3,0.2-10.5,2.3-12.8,4.4L311.5,288.2z M345.5,324.5c-1.9-4.7-7.2-8.9-13.7-8.6
	c-7.5,0.2-13.5,7.7-13,16.8c0.2,8.2,5.1,13,11.9,12.8C339.2,345.2,344.8,335.2,345.5,324.5z"/>
<path fill="#6F6F6F" d="M542.2,399l3,8.9l7.5-1.9c15.8-4.2,35.4-6.3,39.6,5.8c0.7,2.8,0.5,5.1-0.2,7l-10.7,2.1
	c0.5-1.6,0.7-3.5,0-5.1c-2.1-6.1-13.3-5.4-25.2-2.1l-8.2,2.1l3.7,10.7l-10,3.5l-4-11.4l-33.1,8.6c-21.2,5.6-36.3,6.5-39.8-4
	c-0.9-3-0.7-5.8,0.2-7.9l10.3-1.9c-0.7,1.9-0.7,3.7,0,5.6c1.9,5.6,11.2,4.7,27.7,0.2l31.9-8.4l-2.8-8.2L542.2,399z"/>
<path fill="#6F6F6F" d="M367.7,620.5l17.2-13l0.2,6.8l-17.2,13l-17.7-12.1l-0.2-6.8L367.7,620.5z M367.4,605.2l17.2-13l0.2,6.8
	l-17.2,13l-17.7-12.1l-0.2-6.8L367.4,605.2z"/>
<path fill="#6F6F6F" d="M258.6,106.4l12.6,17.5h-6.8l-12.6-17.5l12.6-17.5h6.8L258.6,106.4z"/>
<path fill="#6F6F6F" d="M256.1,562.1l3.2-1.2l56.5-0.9l-8.5,7.6l-34.6,27.8l-3.3,1.1L256.1,562.1z M291.6,572.8
	c2.7-2.2,6.7-5,9.2-6.8l0-0.2c-2.6,0.2-7.3,0.3-10.7,0.5l-26.9,0l8.8,22.5L291.6,572.8z"/>
<path fill="#6F6F6F" d="M182.2,114.7v26.6h-6.1v-20.7h-42.9V115C133.3,114.7,182.2,114.7,182.2,114.7z"/>
<path fill="#6F6F6F" d="M459,451.5c-0.2-9.6,4.7-14.2,11.2-14.2c4,0,7,1.2,13.5,4.2c4.7,2.3,8.2,4,11.9,4c3.5,0,5.1-2.8,5.1-7.9h5.6
	c0.5,10.5-4.9,14.4-10.7,14.4c-3.7,0-7.2-1.2-13.7-4.2c-4.4-2.1-7.9-4.2-11.4-4.2s-5.6,2.3-5.6,8.2L459,451.5L459,451.5z"/>
<path fill="#6F6F6F" d="M356.5,557.7h22.1c6.5,0,9.8-0.5,11.6-0.9v5.4c-1.2,0.7-4.7,0.9-10.9,0.9h-22.8v10.1
	c10.5,0.2,27.5,2.1,34,4.4v5.4c-7.7-2.3-23.5-4.2-34-4.4c0,2.6,0.2,4.7,0.7,6.3l-4.2,0.9c-1.2-1.4-2.1-4-2.1-9.1v-24.5l5.6,0.5
	L356.5,557.7L356.5,557.7z"/>
<path fill="#6F6F6F" d="M306.4,626.8l2.6-18.6h-8v-5.6h8.6l1.9-13.7h-8.2v-5.7h9.1L315,565h5.6l-2.6,18.2h10l2.3-18.2h5.6l-2.3,18.2
	h7.7v5.6h-8.6l-1.6,13.7h8.2v5.6h-9.1l-2.6,18.6H322l2.6-18.6h-9.8l-2.3,18.6h-6.1L306.4,626.8L306.4,626.8z M325,602.7l1.9-13.7
	h-10l-1.9,13.7H325z"/>
<path fill="#6F6F6F" d="M146.3,158.2c0,13-6.8,19.6-14.7,19.6c-7.7,0-14.2-6.1-14.4-18.4c0-12.3,6.5-19.3,14.9-19.3
	C140.7,139.7,146.3,146.2,146.3,158.2z M123.7,158.6c-0.2,7.9,2.8,14,8.2,14c5.6,0,7.9-5.8,7.9-14c0-7.7-2.1-13.7-8.2-13.7
	C126.5,144.9,123.7,150.9,123.7,158.6z M130.9,203.5l36.3-64.1h5.4l-36.3,64.1H130.9z M186.6,183.7c0,13-6.8,19.6-14.7,19.6
	c-7.7,0-14.4-6.1-14.4-18.6c0-12.3,6.8-19.3,14.9-19.3C181,165.4,186.6,171.9,186.6,183.7z M164,184.2c-0.2,7.9,2.8,14,8.2,14
	c5.6,0,7.9-5.8,7.9-14c0-7.5-2.1-13.7-8.2-13.7C166.8,170.2,164,176.6,164,184.2z"/>
<path fill="#6F6F6F" d="M55.9,409.5c-1.9-1.9-3.5-3.7-6.1-6.1c-5.6,4.9-11.6,7.2-18.6,7.2c-12.3,0-19.6-8.4-19.6-17.9
	c0-8.9,5.1-14.7,12.6-18.6v-0.2c-3.3-4.2-5.4-8.9-5.4-13.5c0-7.9,5.6-15.8,16.3-15.8c7.9,0,14.2,5.1,14.2,13.5c0,6.8-4,12.1-14,17
	v0.5c5.4,6.3,11.4,13,15.6,17.7c3-4.4,4.9-10.7,6.1-18.6h7.7c-1.6,10-4.4,17.9-9.1,23.5c3.5,3.7,6.8,7.2,10.5,11.4H55.9V409.5
	L55.9,409.5z M45.9,398.2C42.2,394,35,386.3,28,377.9c-3.5,2.3-8.2,6.3-8.2,13c0,7.2,5.4,12.8,13.3,12.8
	C38.2,404.2,42.9,401.7,45.9,398.2z M26.3,359.4c0,4.7,2.1,8.2,4.9,11.6c6.5-3.7,10.7-7,10.7-12.6c0-4-2.1-8.2-7.5-8.2
	C29.1,350,26.3,354.2,26.3,359.4z"/>
<path fill="#6F6F6F" d="M499.3,498.2l26.3-68.7h6.5l-26.5,68.7H499.3z"/>
<path fill="#6F6F6F" d="M31.5,239c-8.2,7-14.4,17-16.8,31.9c-2.1,14.7,1.4,25.9,6.8,34.9l-6.3-0.9c-4.9-7.7-9.8-19.1-7.5-34.9
	c2.3-16.1,10.3-25.6,17.2-31.8L31.5,239z"/>
<path fill="#6F6F6F" d="M432.2,296.2c-9.8-6.1-22.4-10.3-39.4-9.1c-17,1.2-28.7,7.2-37.7,14.4l-0.5-6.5c7.2-6.5,19.1-13.7,37.7-15.1
	c18.6-1.2,31.2,4.2,39.6,9.8L432.2,296.2z"/>
<path fill="#6F6F6F" d="M324.8,110.2l0.9-5.6l48.2,8.4l-0.9,5.6L324.8,110.2z M321.7,128.2l0.9-5.6l48.2,8.4l-0.9,5.6L321.7,128.2z"
	/>
<path fill="#6F6F6F" d="M64.3,358l-0.9-2.3c-2.1-4.7-2.3-10.5,0.5-17.5c2.6-6.1,3.5-10.5,2.1-14.4c-1.6-4.7-5.4-6.8-11.2-4.9
	c-3.3,1.2-6.5,3.5-8.2,5.8l-4-4.9c2.3-3.3,7-6.3,11.6-7.9c10.3-3.5,17.2,1.4,19.6,8.2c2.1,6.1,0,11.6-2.6,18.2
	c-2.3,6.1-2.6,10.5-0.7,15.1l0.9,2.1L64.3,358z M66.6,371.2c-1.2-3.3,0.2-6.3,3.5-7.5s6.1,0.5,7.2,4c0.9,3.3-0.2,6.3-3.5,7.5
	C70.8,376.2,67.8,374.2,66.6,371.2z"/>
<path fill="#6F6F6F" d="M25.2,329.9c0,7.7-6.1,12.8-12.8,12.8C4.9,342.7,0,337,0,330.2c0-7.2,5.6-12.8,12.8-12.8
	C20.5,317.5,25.2,323.2,25.2,329.9z M5.1,330.2c0,4.4,3,7.7,7.5,7.7s7.5-3.5,7.5-8.2c0-3.5-2.1-7.9-7.7-7.9
	C7.5,321.9,5.1,326,5.1,330.2z"/>
<path fill="#6F6F6F" d="M393,13c0,3.3-2.1,5.8-5.6,5.8c-3.3,0-5.6-2.6-5.6-5.8c0-3.5,2.3-6.1,5.6-6.1C390.7,7.2,393,9.5,393,13z
	 M382.8,72l1.4-45.2h6.5l1.4,45.2H382.8z"/>
<path fill="#6F6F6F" d="M240.4,493.5c-2.3,1.6-4.9,4.9-6.5,9.6c-1.9,5.4-0.7,10.3,3.3,11.6c4.7,1.6,7.9-2.3,12.6-8.2
	c5.6-7.2,11.2-12.3,19.1-9.6c4.7,1.6,7.2,5.1,8.9,9.6c1.9-0.9,5.4-1.9,9.1-0.5c9.3,3.3,10.3,13.3,7.5,21.7
	c-1.9,5.4-5.1,10.3-8.6,12.8l-4.4-4c2.3-1.6,5.8-5.4,7.7-10.7c2.1-5.6,0.9-10.7-3.7-12.6c-4.2-1.4-7.5,0.2-13.3,7.7
	c-6.3,7.9-11.9,13.3-19.6,10.5c-3.5-1.2-6.8-4.4-8.2-10.3c-2.1,1.4-5.6,1.6-8.6,0.7c-7.9-2.8-10.3-11.6-7-21
	c1.9-5.1,4.7-8.9,7.2-11.4L240.4,493.5z M265.6,518.5c3.3-4,5.8-7,7.9-8.6c-0.9-2.8-2.8-4.9-5.6-5.8c-3.5-1.2-7,0-11.2,4.9
	c-2.6,3-5.6,7-8.4,9.3c0.9,3.5,2.8,5.6,5.6,6.5C257,526.2,260.5,524.7,265.6,518.5z"/>
<path fill="#6F6F6F" d="M411.4,145.7c-4.9,4.7-9.8,10-17.7,10s-13.5-5.8-13.5-14c0-7.7,6.1-14,14.2-14c7.2,0,12.3,5.6,17,10
	c4.9-4.9,9.8-10,17.7-10c7.9,0,13.5,5.8,13.5,14c0,7.5-6.1,14-14.4,14C421.2,155.7,415.8,150.2,411.4,145.7z M407.5,141.7
	c-3.7-3.5-7.7-8.4-13-8.4c-4.7,0-8.4,4-8.4,8.4c0,4.7,3.5,8.2,8.2,8.2C399.5,150.2,404,145.6,407.5,141.7z M436.6,141.7
	c0-4.9-3.5-8.4-8.2-8.4c-5.4,0-9.8,4.7-13.3,8.4c3.7,3.3,7.7,8.2,13.3,8.2C433.1,150.2,436.6,146.2,436.6,141.7z"/>
<path fill="#6F6F6F" d="M140.9,531.5c-0.7-4.7,0.5-11.2,4.4-15.6c3.7-4,7.7-5.1,10.9-6.5c2.8-1.4,6.5-2.3,9.8-5.6
	c3-3.3,3.7-8.2,3.5-11.9l5.1,0.2c0.5,4.7-0.5,11.2-4.7,15.6c-3.7,4-7.7,5.1-10.7,6.3c-2.8,1.4-6.5,2.3-9.8,5.6
	c-3,3.3-3.7,8.4-3.5,11.9L140.9,531.5L140.9,531.5z M127,519.2c-0.7-4.9,0.5-11.4,4.4-15.6c3.7-4,7.7-5.1,10.7-6.5
	c2.8-1.4,6.5-2.1,9.8-5.8c3-3,3.7-8.2,3.5-11.9l5.1,0.5c0.5,4.7-0.7,11.2-4.7,15.6c-3.7,4-7.7,5.1-10.7,6.5
	c-2.8,1.4-6.5,2.3-9.8,5.6c-3,3.3-3.7,8.2-3.5,11.9L127,519.2z"/>
<path fill="#6F6F6F" d="M82,293.2l-13-4l-1.6-6.1l13,4.4l-3.5-13.3l5.6-1.4l4.4,16.8l14.9,4.9l-6.5-25.2l5.6-1.4l7.5,28.4l13,4
	l1.6,6.1l-13-4.4l3.5,13.3l-5.6,1.4l-4.4-16.8l-14.9-4.7l6.4,25l-5.6,1.4L82,293.2z"/>
<path fill="#6F6F6F" d="M161.9,435.4L148.4,448l14.7,15.8l-4.2,4l-14.7-15.6l-14,12.8l-4.2-4.4l14-13L125.3,432l4.2-4l14.7,15.6
	l13.5-12.6L161.9,435.4z M141.2,484l-4.2,4l-33.3-35.9l4.2-4L141.2,484z"/>
<path fill="#6F6F6F" d="M393.3,621v-75.8h17.5v5.1H400v65.2h10.7v5.1L393.3,621L393.3,621z"/>
<path fill="#6F6F6F" d="M183.3,273v75.7h-17.2v-5.4h10.7v-65.2h-10.7V273H183.3L183.3,273z"/>
<path fill="#6F6F6F" d="M398.6,394.4c0-3.5,2.3-6.1,5.6-6.1s5.6,2.6,5.6,6.1c0,3.3-2.3,5.8-5.8,5.8
	C401,400.2,398.6,397.5,398.6,394.4z"/>
<path fill="#6F6F6F" d="M478.7,100.1c0-3.5,2.3-6.1,5.6-6.1c3.3,0,5.6,2.6,5.6,6.1c0,3.3-2.3,5.8-5.8,5.8
	C480.8,106,478.7,103.4,478.7,100.1z"/>
<path fill="#6F6F6F" d="M528.2,483c0-3.5,2.3-6.1,5.6-6.1s5.6,2.6,5.6,6.1c0,3.3-2.3,5.8-5.8,5.8C530.5,489,528.2,486.3,528.2,483z"
	/>
<path fill="#6F6F6F" d="M431.5,349.4c0-3.5,2.3-6.1,5.6-6.1s5.6,2.6,5.6,6.1c0,3.3-2.3,5.8-5.8,5.8
	C433.8,355.2,431.5,352.7,431.5,349.4z"/>
<g>
	<path fill="#6F6F6F" d="M207.1,563.5h-2.8l1.4-19.3h56.1l-45.2,69.2H240c7.5,0,12.6-1.2,15.6-3.3c3-2.3,5.1-6.5,6.5-12.6h2.8
		l-3.5,20.5h-61.3l45-69.2h-20c-6.8,0-11.2,0.9-13.5,3C209.4,553.7,208,557.7,207.1,563.5z"/>
</g>
<path fill="#6F6F6F" d="M48.2,413c1.4,5.6,4.9,5.6,7.7,4.9c2.3-0.7,4.4-1.4,6.3-2.3c2.3-0.9,4.4-1.9,6.5-2.3
	c7.2-2.1,11.6,2.1,13.5,8.9l0.5,1.6l-4.4,1.2l-0.2-1.4c-1.4-4.7-4.2-5.6-8.6-4.4c-1.9,0.5-3.7,1.4-5.6,2.1c-1.9,0.9-3.7,1.6-5.8,2.3
	c-5.1,1.4-8.2-0.2-10.3-3.5h-0.2c0,3.7-2.1,6.8-7,8.2c-2.1,0.5-4.2,0.9-6.3,0.9c-2.1,0.2-4,0.5-5.8,0.9c-4.4,1.2-6.3,3.7-5.1,8.2
	l0.2,1.4l-4.4,1.2l-0.5-1.6c-1.9-6.5-0.2-12.3,7.7-14.4c2.1-0.5,4.4-0.9,6.8-0.9c2.3-0.5,4.4-0.7,6.5-1.2c2.6-0.7,5.8-2.3,4.2-7.9
	L48.2,413z"/>
<path fill="#6F6F6F" d="M287.7,6c0.2,4,3,4.4,4.9,4.4c1.6,0,3.5-0.2,5.1-0.7c1.6-0.2,3.5-0.7,5.1-0.7c6.5-0.2,8.9,3.3,9.1,7.9v1.2
	l-3.5,0.2v-0.9c-0.2-3.3-2.1-4.4-5.8-4.4c-1.4,0-3,0.2-4.7,0.5c-1.6,0.2-3.3,0.7-4.9,0.7c-4.2,0.2-6.3-1.4-7.2-4h-0.2
	c-0.7,2.6-2.6,4.2-6.8,4.4c-1.6,0-3.3,0-4.9-0.2c-1.6,0-3-0.2-4.7-0.2c-3.5,0-5.4,1.4-5.4,4.7v0.9l-3,0.5v-1.2
	c-0.2-4.9,2.1-8.4,8.2-8.6c1.6,0,3.5,0,5.4,0.2c1.6,0.2,3.5,0.2,5.4,0.2c2.3,0,4.7-0.7,4.7-4.9L287.7,6L287.7,6z"/>
<path fill="#6F6F6F" d="M125.3,558.3c0,6.3-3.3,9.6-7.2,9.6c-3.7,0-7-3-7.2-9.1c0-6.1,3.3-9.6,7.5-9.6
	C122.5,549.2,125.3,552.5,125.3,558.3z M114.2,558.5c0,4,1.4,6.8,4,6.8c2.8,0,4-3,4-7c0-3.7-1.2-6.8-4-6.8
	C115.6,551.8,114.2,554.8,114.2,558.5z M117.9,580.7l17.9-31.7h2.6l-17.9,31.7H117.9z M145.1,571c0,6.5-3.3,9.6-7.2,9.6
	c-4,0-7-3-7.2-9.1c0-6.1,3.3-9.6,7.5-9.6C142.6,561.8,145.1,565,145.1,571z M134,571.2c0,4,1.4,6.8,4,6.8c2.8,0,4-3,4-7
	c0-3.7-1.2-6.8-4-6.8C135.6,564.3,134,567.5,134,571.2z"/>
<path fill="#6F6F6F" d="M125.1,335.2l-19.3,9.1c-4.9,2.3-8.2,2.3-10.7,1.4c-2.3-0.9-4-2.6-5.1-5.1c-1.9-4-0.9-8.9,3.7-10.9
	c1.4-0.7,3-0.7,4-0.7c1.6,1.6,3.5,2.1,4.9,1.4s1.9-1.9,2.8-4c0.9-2.6,1.9-5.1,4.9-6.5c4-1.9,8.2-0.2,10.5,4.4
	c0.7,1.6,1.4,3.5,1.2,4.9l-3.3,0.7c0-1.4-0.2-2.8-0.9-4c-1.4-2.8-3.5-3.5-5.6-2.6c-1.9,0.9-2.6,2.3-3.3,4.4
	c-0.9,2.6-1.6,4.9-4.2,6.1c-2.1,0.9-4.7,0.5-7-1.4c-0.7,0-1.4,0.2-2.1,0.5c-3,1.4-3.7,4-2.6,6.5c1.6,3.3,4.7,4,10.7,1.2l19.6-9.1
	L125.1,335.2z"/>
<path fill="#6F6F6F" d="M102.3,414.2c0.2,0.2,0.7,0.5,0.9,0.7c3,2.3,5.1,4,6.3,4.9l1.6,1.2c2.3,1.6,4,2.8,4.7,3s1.4,0,1.9-0.7
	c0.7-0.7,0.7-1.6,0-2.8c-0.5-0.9-1.6-2.1-3.3-3.5l0.7-1.2l0.2,0.2c2.3,1.6,3.7,3.3,4.2,4.9s0.2,3-0.9,4.7c-1.2,1.6-2.6,2.3-4.2,2.1
	s-4.2-1.6-7.9-4.2c-0.5-0.2-1.6-1.2-3.3-2.6c-1.9-1.4-3.3-2.6-4.4-3.5c-0.5,0.5-0.9,1.2-1.6,2.1s-1.6,1.9-2.6,3.3
	c6.5,4.9,10.7,8.4,12.6,10.7s2.1,4.2,0.9,5.8c-0.7,0.9-1.6,1.4-2.8,1.4s-2.6-0.7-4.2-1.9l-0.7-0.7l0.7-0.9c0.7,0.5,1.4,0.7,2.1,0.9
	c0.5,0,0.9-0.2,1.4-0.7c0.9-1.2,0.7-2.6-0.9-4.4c-1.4-1.9-4.7-4.7-10-8.6l-0.7,0.8c-0.7,1.2-1.2,2.1-1.4,3c0,0.9,0.2,1.6,0.9,2.3
	l-0.7,0.9c-1.9-1.6-2.8-3-2.8-4.7c0-1.6,0.9-3.5,2.6-6.1c0.5-0.5,1.4-1.9,3.3-4.2s3.5-4.4,4.9-6.5c0.7-0.9,1.2-1.6,1.2-2.3
	s0-1.2-0.5-1.4l0,0l0.7-0.9l0,0c1.4,1.2,2.3,2.1,2.6,3.3c0.3,1.2-0.2,2.6-1.4,4c-0.2,0.2-0.2,0.5-0.5,0.7
	C102.5,413.7,102.5,414,102.3,414.2z"/>
<path fill="#6F6F6F" d="M90.2,485.8l-1.4,0.2c0,0,0,0,0-0.2c-0.2-0.7-0.2-1.2-0.5-1.6c-0.2-1.9-0.2-3.5,0.5-4.9s1.6-2.1,3-2.3
	c1.2-0.2,2.3,0,3,0.5c0.9,0.5,1.9,1.6,2.6,3.3l7.9,14.4l5.4-21.4l5.8-0.9l-7.5,29.8l1.9,3.3c0.9,1.6,1.6,2.6,2.6,3
	c0.9,0.5,1.9,0.7,3,0.5s2.1-0.7,2.6-1.2c0.5-0.7,0.7-1.4,0.7-2.3l1.2-0.2c0,0.2,0,0.2,0,0.5s0,0.2,0,0.5c0.2,1.9,0.2,3.5-0.5,4.9
	c-0.7,1.4-1.9,2.1-3.3,2.3s-2.8,0-3.7-0.7c-0.9-0.7-2.3-2.6-4-5.6L98.1,487c-1.2-2.1-2.1-3.5-3-4.2c-0.7-0.7-1.9-0.7-2.8-0.7
	c-0.9,0.2-1.6,0.7-2.1,1.2C90.2,484,89.9,485,90.2,485.8z"/>
<path fill="#6F6F6F" d="M556.6,566.2c-2.3-3.3-4.9-2.1-6.5-0.9c-1.4,0.9-2.6,2.1-4,3.3s-2.6,2.3-4.2,3.5c-5.4,3.7-9.3,2.1-11.9-1.6
	l-0.7-0.9l3-2.1l0.5,0.9c1.9,2.6,4.2,2.6,7.2,0.5c1.2-0.9,2.3-1.9,3.5-3c1.2-1.2,2.3-2.3,3.7-3.3c3.3-2.3,6.1-2.3,8.2-0.5h0.2
	c-0.9-2.6,0-4.9,3.3-7.5c1.4-0.9,2.8-1.6,4.2-2.3s2.8-1.4,4-2.3c2.8-2.1,3.7-4,1.9-7l-0.5-0.7l3-2.1l0.7,0.9c2.8,4,2.6,8.2-2.3,11.6
	c-1.4,0.9-3,1.9-4.7,2.8c-1.6,0.7-3.3,1.6-4.7,2.6c-1.9,1.2-3.5,3.3-1.4,6.5L556.6,566.2z"/>
</svg>
