<?xml version="1.0" encoding="utf-8"?>
<!-- Generator: Adobe Illustrator 17.1.0, SVG Export Plug-In . SVG Version: 6.00 Build 0)  -->
<!DOCTYPE svg PUBLIC "-//W3C//DTD SVG 1.1//EN" "http://www.w3.org/Graphics/SVG/1.1/DTD/svg11.dtd">
<svg version="1.1" id="Layer_1" xmlns="http://www.w3.org/2000/svg" xmlns:xlink="http://www.w3.org/1999/xlink" x="0px" y="0px"
	 viewBox="69.8 204.6 472.5 364.8" enable-background="new 69.8 204.6 472.5 364.8" xml:space="preserve">
<g>
	<path fill="#33485D" d="M517.6,211.4H93.8c-8.3,0-15.3,6.5-15.3,15.3v30.1c0,1.2,1.8,2.9,2.9,3.5l222.8,127.3
		c0.6,0.6,1.2,0.6,1.8,0.6s1.2,0,1.8-0.6l215.7-127.3c1.2-0.6,4.7-2.4,5.9-3.5c1.2-1.2,2.9-1.8,2.9-3.5v-27.1
		C532.9,217.9,526.4,211.4,517.6,211.4z"/>
	<path fill="#33485D" d="M531.1,302.1c-1.2-0.6-2.4-0.6-3.5,0l-122,71.9c-1.2,0.6-1.8,1.8-1.8,2.9c0,1.2,0,2.4,1.2,2.9l122,132
		c0.6,0.6,1.8,1.2,2.9,1.2c0.6,0,1.2,0,1.2,0c1.2-0.6,2.4-1.8,2.4-3.5V305.7C532.9,304.5,532.3,303.3,531.1,302.1z"/>
	<path fill="#33485D" d="M369.6,398.2c-1.2-1.2-2.9-1.8-4.7-0.6L316,426.5c-5.9,3.5-13,3.5-18.9,0l-43-24.8
		c-1.2-0.6-2.9-0.6-4.7,0.6l-163.8,152c-0.6,0.6-1.2,1.8-1.2,2.9s0.6,2.4,1.8,2.9c2.4,1.8,4.7,2.4,7.7,2.4h419.6
		c1.8,0,2.9-1.2,3.5-2.4c0.6-1.2,0.6-2.9-0.6-4.1L369.6,398.2z"/>
	<path fill="#33485D" d="M213.5,384.6c1.2-0.6,1.2-1.8,1.2-2.9c0-1.2-0.6-2.4-1.8-2.9L84.4,305.7c-1.2-0.6-2.4-0.6-3.5,0
		c-1.2,0.6-1.8,1.8-1.8,3.5v192.1c0,1.8,0.6,2.9,2.4,3.5c0.6,0,1.2,0.6,1.8,0.6c1.2,0,1.8-0.6,2.4-1.2L213.5,384.6z"/>
</g>
</svg>
