<?xml version="1.0" encoding="utf-8"?>
<!-- Generator: Adobe Illustrator 18.1.1, SVG Export Plug-In . SVG Version: 6.00 Build 0)  -->
<svg version="1.1" id="Layer_1" xmlns="http://www.w3.org/2000/svg" xmlns:xlink="http://www.w3.org/1999/xlink" x="0px" y="0px"
	 viewBox="0 0 480 480" enable-background="new 0 0 480 480" xml:space="preserve">
<g id="Layer_1_1_">
</g>
<g id="Layer_2">
	<path fill="none" stroke="#33485D" stroke-width="6" stroke-miterlimit="10" d="M278.3,294.2c-6.2,20.9,5.8,43,26.9,49.1
		c20.9,6.2,43-5.8,49.1-26.9l39.8-135.7c6.2-20.9-5.8-43-26.9-49.1c-21-6.1-43,5.8-49.1,26.9L278.3,294.2z"/>
	<path fill="#33485D" d="M301.5,213.6l76,22.3l-29.9,95.9c0,0-25.3,18.2-43.1,13.8s-29.1-31-29.6-38.3
		C274.5,299.9,301.5,213.6,301.5,213.6z"/>
	<path fill="#FFFFFF" stroke="#33485D" stroke-width="4" stroke-miterlimit="10" d="M292.9,310.3l-1.4-0.4c-2-0.6-3.1-2.7-2.5-4.7
		l42.4-144.5c0.6-2,2.7-3.1,4.7-2.5l1.4,0.4c2,0.6,3.1,2.7,2.5,4.7l-42.4,144.5C296.9,309.8,294.8,311,292.9,310.3z"/>
	<path fill="#33485D" d="M380.1,163.7c0.5,3.7,2.2,6.6,3.8,6.6c1.7,0,2.6-3,2.3-6.7c-0.5-3.7-2.2-6.6-3.8-6.6
		C380.8,157,379.6,160,380.1,163.7z"/>
	<g>
		<path fill="none" stroke="#33485D" stroke-width="6" stroke-miterlimit="10" d="M110.1,322.9c-17.4,13.2-20.7,38.1-7.4,55.5
			c13.2,17.4,38.1,20.7,55.5,7.4l112.4-85.9c17.4-13.2,20.7-38.1,7.4-55.5s-38.1-20.7-55.5-7.4L110.1,322.9z"/>
		<path fill="#33485D" d="M176.5,271.6l48.1,62.9l-80.8,59.6c0,0-31.2-0.3-43-14.4s-5.2-42.3-1.2-48.4
			C103.6,325.4,176.5,271.6,176.5,271.6z"/>
		<path fill="#FFFFFF" stroke="#33485D" stroke-width="4" stroke-miterlimit="10" d="M112.3,344.6l-0.8-1.1c-1.2-1.6-0.9-4,0.7-5.3
			l119.6-91.5c1.6-1.2,4-0.9,5.3,0.7l0.8,1.1c1.2,1.6,0.9,4-0.7,5.3l-119.6,91.5C116,346.6,113.6,346.2,112.3,344.6z"/>
		<path fill="#FFFFFF" stroke="#33485D" stroke-width="4" stroke-miterlimit="10" d="M137,380c-3.6,0.7-6.4,2.5-6.3,4.1
			c0.1,1.7,3.1,2.4,6.8,1.9c3.7-0.6,6.4-2.5,6.3-4.1C143.7,380.2,140.7,379.3,137,380z"/>
	</g>
	<g>
		<path fill="none" stroke="#33485D" stroke-width="6" stroke-miterlimit="10" d="M206.2,247c16.7,14.1,41.7,12,55.8-4.7
			c14.1-16.7,12-41.7-4.7-55.8L149.4,95.2c-16.7-14.2-41.7-12-55.8,4.6s-12,41.7,4.7,55.8L206.2,247z"/>
		<path fill="#33485D" d="M142,193.1l51.2-60.5l75.6,66.1c0,0,6.4,30.5-4.8,45.1c-11.2,14.6-40.1,14.1-47,11.5
			C210,252.9,142,193.1,142,193.1z"/>
		<path fill="#FFFFFF" stroke="#33485D" stroke-width="4" stroke-miterlimit="10" d="M227,240.3l-0.9,1.1c-1.3,1.6-3.8,1.8-5.3,0.5
			l-115-97.4c-1.6-1.3-1.8-3.8-0.5-5.3l0.9-1.1c1.3-1.6,3.8-1.8,5.3-0.5l115,97.3C228.1,236.3,228.3,238.7,227,240.3z"/>
		<path fill="#FFFFFF" stroke="#33485D" stroke-width="4" stroke-miterlimit="10" d="M256.3,208.5c1.4,3.4,3.8,5.7,5.4,5.3
			s1.8-3.6,0.4-6.9c-1.4-3.4-3.8-5.7-5.4-5.3C255,202.1,254.8,205.2,256.3,208.5z"/>
	</g>
</g>
</svg>
