<?xml version="1.0" encoding="utf-8"?>
<!-- Generator: Adobe Illustrator 18.1.1, SVG Export Plug-In . SVG Version: 6.00 Build 0)  -->
<svg version="1.1" id="Layer_1" xmlns="http://www.w3.org/2000/svg" xmlns:xlink="http://www.w3.org/1999/xlink" x="0px" y="0px"
	 viewBox="-189 191 100 100" enable-background="new -189 191 100 100" xml:space="preserve">
<g>
	<path fill="#33485D" d="M-119.7,208.5h-38.8v0c-1.3,0.1-2.4,1.1-2.4,2.5v60c0,1.3,1.1,2.4,2.4,2.5v0h38.8c1.4,0,2.5-1.1,2.5-2.5
		v-60C-117.2,209.6-118.3,208.5-119.7,208.5z M-138.9,270.9c-1.4,0-2.4-1.1-2.4-2.4c0-1.4,1.1-2.5,2.4-2.5c1.4,0,2.5,1.1,2.5,2.5
		C-136.5,269.8-137.6,270.9-138.9,270.9z M-127.1,263.5h-23.7v-45h23.7L-127.1,263.5L-127.1,263.5z"/>
</g>
</svg>
