<?xml version="1.0" encoding="utf-8"?>
<!-- Generator: Adobe Illustrator 18.1.1, SVG Export Plug-In . SVG Version: 6.00 Build 0)  -->
<svg version="1.1" id="Layer_1" xmlns="http://www.w3.org/2000/svg" xmlns:xlink="http://www.w3.org/1999/xlink" x="0px" y="0px"
	 viewBox="-189 119 172 172" enable-background="new -189 119 172 172" xml:space="preserve">
<g>
	<path fill="#33485D" d="M-48.7,155.1h-108.7c-4.2,0-7.6,3.4-7.6,7.6V229c0,4.2,3.4,7.6,7.6,7.6h40.9v11.5h-12.7
		c-1.2,0-2.2,1-2.2,2.2v2.4c0,1.2,1,2.2,2.2,2.2H-78c1.2,0,2.2-1,2.2-2.2v-2.4c0-1.2-1-2.2-2.2-2.2h-11.6v-11.5h40.9
		c4.2,0,7.6-3.4,7.6-7.6v-66.3C-41,158.5-44.4,155.1-48.7,155.1z M-151.4,223.2v-54.7h96.8v54.7H-151.4z"/>
</g>
</svg>
