<?xml version="1.0" encoding="utf-8"?>
<!-- Generator: Adobe Illustrator 15.0.2, SVG Export Plug-In . SVG Version: 6.00 Build 0)  -->
<!DOCTYPE svg PUBLIC "-//W3C//DTD SVG 1.1//EN" "http://www.w3.org/Graphics/SVG/1.1/DTD/svg11.dtd">
<svg version="1.1" id="Layer_1" xmlns="http://www.w3.org/2000/svg" xmlns:xlink="http://www.w3.org/1999/xlink" x="0px" y="0px"
	 width="100px" height="100px" viewBox="0 0 100 100" enable-background="new 0 0 100 100" xml:space="preserve">
<g>
	<path fill="#FFFFFF" stroke="#FFFFFF" d="M88.79,29.297L70.702,11.209c-1.052-1.052-2.757-1.052-3.808,0L17.389,60.713l0.109,0.109
		l-0.171-0.047l-6.772,25.272l0.004,0.001c-0.309,0.936-0.103,2.004,0.642,2.748c0.822,0.822,2.038,0.993,3.033,0.531l0.002,0.009
		l25.027-6.706l-0.016-0.059l0.038,0.037L88.79,33.105C89.842,32.053,89.842,30.349,88.79,29.297z M18.792,81.146l4.022-15.008
		l10.988,10.987L18.792,81.146z"/>
</g>
</svg>
