<?xml version="1.0" encoding="utf-8"?>
<!-- Generator: Adobe Illustrator 17.1.0, SVG Export Plug-In . SVG Version: 6.00 Build 0)  -->
<!DOCTYPE svg PUBLIC "-//W3C//DTD SVG 1.1//EN" "http://www.w3.org/Graphics/SVG/1.1/DTD/svg11.dtd">
<svg version="1.1" id="Layer_1" xmlns="http://www.w3.org/2000/svg" xmlns:xlink="http://www.w3.org/1999/xlink" x="0px" y="0px"
	 viewBox="0 0 100 100" enable-background="new 0 0 100 100" xml:space="preserve">
<g>
	<path fill="none" stroke="#FFFFFF" stroke-miterlimit="10" d="M80.7,14H19.3c-2.9,0-5.3,2.3-5.3,5.2v61.6c0,2.9,2.4,5.2,5.3,5.2
		h61.4c2.9,0,5.3-2.3,5.3-5.2V19.2C86,16.3,83.6,14,80.7,14z M35.4,75.4H24.7V41h10.7V75.4z M30,36.3c-3.4,0-6.2-2.8-6.2-6.2
		c0-3.4,2.8-6.2,6.2-6.2c3.4,0,6.2,2.8,6.2,6.2C36.2,33.5,33.4,36.3,30,36.3z M75.3,75.4H64.7V58.6c0-4-0.1-9.1-5.6-9.1
		c-5.6,0-6.4,4.3-6.4,8.8v17H42.1V41h10.2v4.7h0.1c1.4-2.7,4.9-5.5,10.1-5.5c10.8,0,12.8,7.1,12.8,16.4L75.3,75.4L75.3,75.4z"/>
</g>
</svg>
