<?xml version="1.0" encoding="utf-8"?>
<!-- Generator: Adobe Illustrator 18.1.1, SVG Export Plug-In . SVG Version: 6.00 Build 0)  -->
<svg version="1.1" id="Layer_1" xmlns="http://www.w3.org/2000/svg" xmlns:xlink="http://www.w3.org/1999/xlink" x="0px" y="0px"
	 viewBox="0 0 612 792" enable-background="new 0 0 612 792" xml:space="preserve">
<g>
	<path fill="#FFFFFF" stroke="#FFFFFF" stroke-miterlimit="10" d="M154.2,405.8c11,8.6,23.3,12.9,36.7,12.9
		c17.7-0.6,31.8-6.7,43.5-19c5.5-8.6,9.2-17.1,11-25.7c1.2-8.6,1.2-16.5,1.2-22.6c0-26.3-6.7-52.6-20.2-78.9
		c-6.1-12.9-14.7-23.3-25.1-31.2c-10.4-7.3-22.6-11.6-36.1-12.2c-17.7,0.6-33,8-44.7,22c-9.8,14.7-14.7,31.2-14.7,49.6
		c0,23.9,6.7,49,20.8,74.7C134.6,386.8,143.2,397.2,154.2,405.8z"/>
	<path fill="#FFFFFF" stroke="#FFFFFF" stroke-miterlimit="10" d="M194.6,506.8c-4.9-6.1-9.2-12.9-12.9-20.2
		c-4.3-6.7-6.7-15.3-6.7-25.1c0-6.1,0.6-11,2.4-14.7c1.2-4.3,3.1-8,4.3-11.6c-7.3,0.6-14.7,1.2-21.4,1.2
		c-31.8-0.6-56.3-9.2-74.7-26.9v118.1c16.5-7.3,33-12.9,50.2-15.9C159.7,508.6,179.3,506.8,194.6,506.8z"/>
	<path fill="#FFFFFF" stroke="#FFFFFF" stroke-miterlimit="10" d="M212.4,525.1c-4.3-0.6-9.2-0.6-14.7-0.6c-3.7-0.6-12.2,0-25.7,1.2
		c-13.5,1.8-27.5,4.9-42.2,9.2c-3.7,1.2-8,3.1-14.1,6.1c-6.1,3.1-12.2,6.7-19,12.2c-4.3,3.7-8,8-11,12.2v17.7
		c0,17.1,13.5,30.6,30.6,30.6h167.1c0-0.6,0-0.6,0-1.2c0-17.1-5.5-31.8-16.5-44.1C255.8,557,237.5,542.3,212.4,525.1z"/>
	<path fill="#FFFFFF" stroke="#FFFFFF" stroke-miterlimit="10" d="M495.7,177.5h-79.6H306H194h-77.7c-17.1,0-30.6,13.5-30.6,30.6v33
		v8c1.8-1.8,3.7-4.3,6.1-6.1c19-15.3,38.6-25.7,58.8-30.6c20.2-4.3,39.2-6.1,56.9-6.1h132.8l-41.6,24.5h-41
		c4.3,2.4,8.6,6.1,14.1,11.6c4.9,4.9,9.8,11.6,14.7,19c4.3,7.3,8.6,15.3,12.2,25.1c3.1,9.8,4.3,20.8,4.3,34.3
		c-0.6,23.9-5.5,42.8-15.9,56.9c-4.9,6.7-10.4,13.5-15.9,19c-6.1,6.1-12.9,11.6-19.6,17.7c-3.7,4.3-7.3,8.6-11,14.1
		c-3.7,5.5-6.1,11.6-6.1,19c0,6.7,1.8,12.9,6.1,17.1c3.7,4.3,6.7,8,9.8,11.6l22.6,18.4c14.1,11.6,26.3,23.9,36.7,37.9
		c9.8,14.1,15.3,32.4,15.3,55.1c0,9.2-1.2,18.4-3.7,26.9h174.4c17.1,0,30.6-13.5,30.6-30.6V241.8v-33
		C526.3,191.6,512.9,177.5,495.7,177.5z M519.6,313.4h-69.8v69.8h-33.7v-69.8H347v-33.7h69.2V210h33.7v69.8h69.8V313.4z"/>
</g>
</svg>
