<?xml version="1.0" encoding="utf-8"?>
<!-- Generator: Adobe Illustrator 17.1.0, SVG Export Plug-In . SVG Version: 6.00 Build 0)  -->
<!DOCTYPE svg PUBLIC "-//W3C//DTD SVG 1.1//EN" "http://www.w3.org/Graphics/SVG/1.1/DTD/svg11.dtd">
<svg version="1.1" id="Layer_1" xmlns="http://www.w3.org/2000/svg" xmlns:xlink="http://www.w3.org/1999/xlink" x="0px" y="0px"
	 viewBox="0 0 100 100" enable-background="new 0 0 100 100" xml:space="preserve">
<g id="White_1_">
	<path fill="none" stroke="#FFFFFF" stroke-miterlimit="10" d="M82,14H18c-2.2,0-4,1.8-4,4V82c0,2.2,1.8,4,4,4h34.5V58.1h-9.4V47.3
		h9.4v-8c0-9.3,5.7-14.4,14-14.4c4,0,7.4,0.3,8.4,0.4V35l-5.8,0c-4.5,0-5.4,2.1-5.4,5.3v6.9h10.8L73,58.1h-9.4V86H82
		c2.2,0,4-1.8,4-4V18C86,15.8,84.2,14,82,14z"/>
</g>
</svg>
