<?xml version="1.0" encoding="utf-8"?>
<!-- Generator: Adobe Illustrator 18.1.1, SVG Export Plug-In . SVG Version: 6.00 Build 0)  -->
<svg version="1.1" id="Layer_1" xmlns="http://www.w3.org/2000/svg" xmlns:xlink="http://www.w3.org/1999/xlink" x="0px" y="0px"
	 viewBox="0 0 612 792" enable-background="new 0 0 612 792" xml:space="preserve">
<g>
	<path fill="#FFFFFF" stroke="#FFFFFF" stroke-miterlimit="10" d="M493.9,175.7H118.1c-17.7,0-32.4,14.1-32.4,31.8v377
		c0,17.7,14.7,31.8,32.4,31.8h375.8c17.7,0,32.4-14.1,32.4-31.8v-377C526.3,189.8,511.6,175.7,493.9,175.7z M216.6,551.4h-65.5
		V340.9h65.5V551.4z M183.6,312.2c-20.8,0-37.9-17.1-37.9-37.9c0-20.8,17.1-37.9,37.9-37.9s37.9,17.1,37.9,37.9
		S204.4,312.2,183.6,312.2z M460.8,551.4H396V448.6c0-24.5-0.6-55.7-34.3-55.7c-34.3,0-39.2,26.3-39.2,53.9v104h-64.9V340.9h62.4
		v28.8h0.6c8.6-16.5,30-33.7,61.8-33.7c66.1,0,78.3,43.5,78.3,100.4V551.4L460.8,551.4z"/>
</g>
</svg>
