<?xml version="1.0" encoding="utf-8"?>
<!-- Generator: Adobe Illustrator 18.1.1, SVG Export Plug-In . SVG Version: 6.00 Build 0)  -->
<svg version="1.1" id="Layer_1" xmlns="http://www.w3.org/2000/svg" xmlns:xlink="http://www.w3.org/1999/xlink" x="0px" y="0px"
	 viewBox="0 0 612 792" enable-background="new 0 0 612 792" xml:space="preserve">
<g id="White_1_">
	<path fill="#FFFFFF" stroke="#FFFFFF" stroke-miterlimit="10" d="M501.8,175.7H110.2c-13.5,0-24.5,11-24.5,24.5v391.7
		c0,13.5,11,24.5,24.5,24.5h211.1V445.6h-57.5v-66.1h57.5v-49c0-56.9,34.9-88.1,85.7-88.1c24.5,0,45.3,1.8,51.4,2.4v59.4h-35.5
		c-27.5,0-33,12.9-33,32.4v42.2h66.1l-9.2,66.7h-57.5v170.7h112.6c13.5,0,24.5-11,24.5-24.5V200.2
		C526.3,186.7,515.3,175.7,501.8,175.7z"/>
</g>
</svg>
