<?xml version="1.0" encoding="utf-8"?>
<!-- Generator: Adobe Illustrator 17.1.0, SVG Export Plug-In . SVG Version: 6.00 Build 0)  -->
<!DOCTYPE svg PUBLIC "-//W3C//DTD SVG 1.1//EN" "http://www.w3.org/Graphics/SVG/1.1/DTD/svg11.dtd">
<svg version="1.1" id="Layer_1" xmlns="http://www.w3.org/2000/svg" xmlns:xlink="http://www.w3.org/1999/xlink" x="0px" y="0px"
	 viewBox="0 0 100 100" enable-background="new 0 0 100 100" xml:space="preserve">
<g>
	<path fill="none" stroke="#FFFFFF" stroke-miterlimit="10" d="M25.2,51.6c1.8,1.4,3.8,2.1,6,2.1c2.9-0.1,5.2-1.1,7.1-3.1
		c0.9-1.4,1.5-2.8,1.8-4.2c0.2-1.4,0.2-2.7,0.2-3.7c0-4.3-1.1-8.6-3.3-12.9c-1-2.1-2.4-3.8-4.1-5.1c-1.7-1.2-3.7-1.9-5.9-2
		c-2.9,0.1-5.4,1.3-7.3,3.6c-1.6,2.4-2.4,5.1-2.4,8.1c0,3.9,1.1,8,3.4,12.2C22,48.5,23.4,50.2,25.2,51.6z"/>
	<path fill="none" stroke="#FFFFFF" stroke-miterlimit="10" d="M31.8,68.1c-0.8-1-1.5-2.1-2.1-3.3c-0.7-1.1-1.1-2.5-1.1-4.1
		c0-1,0.1-1.8,0.4-2.4c0.2-0.7,0.5-1.3,0.7-1.9c-1.2,0.1-2.4,0.2-3.5,0.2C21,56.5,17,55.1,14,52.2v19.3c2.7-1.2,5.4-2.1,8.2-2.6
		C26.1,68.4,29.3,68.1,31.8,68.1z"/>
	<path fill="none" stroke="#FFFFFF" stroke-miterlimit="10" d="M34.7,71.1C34,71,33.2,71,32.3,71c-0.6-0.1-2,0-4.2,0.2
		c-2.2,0.3-4.5,0.8-6.9,1.5c-0.6,0.2-1.3,0.5-2.3,1c-1,0.5-2,1.1-3.1,2c-0.7,0.6-1.3,1.3-1.8,2v2.9c0,2.8,2.2,5,5,5h27.3
		c0-0.1,0-0.1,0-0.2c0-2.8-0.9-5.2-2.7-7.2C41.8,76.3,38.8,73.9,34.7,71.1z"/>
	<path fill="none" stroke="#FFFFFF" stroke-miterlimit="10" d="M81,14.3H68H50H31.7H19c-2.8,0-5,2.2-5,5v5.4v1.3
		c0.3-0.3,0.6-0.7,1-1c3.1-2.5,6.3-4.2,9.6-5c3.3-0.7,6.4-1,9.3-1h21.7L48.8,23h-6.7c0.7,0.4,1.4,1,2.3,1.9c0.8,0.8,1.6,1.9,2.4,3.1
		c0.7,1.2,1.4,2.5,2,4.1c0.5,1.6,0.7,3.4,0.7,5.6c-0.1,3.9-0.9,7-2.6,9.3c-0.8,1.1-1.7,2.2-2.6,3.1c-1,1-2.1,1.9-3.2,2.9
		c-0.6,0.7-1.2,1.4-1.8,2.3c-0.6,0.9-1,1.9-1,3.1c0,1.1,0.3,2.1,1,2.8c0.6,0.7,1.1,1.3,1.6,1.9l3.7,3c2.3,1.9,4.3,3.9,6,6.2
		c1.6,2.3,2.5,5.3,2.5,9c0,1.5-0.2,3-0.6,4.4H81c2.8,0,5-2.2,5-5V24.8v-5.4C86,16.6,83.8,14.3,81,14.3z M84.9,36.5H73.5v11.4H68
		V36.5H56.7V31H68V19.6h5.5V31h11.4V36.5z"/>
</g>
</svg>
