<?xml version="1.0" encoding="utf-8"?>
<!-- Generator: Adobe Illustrator 18.1.1, SVG Export Plug-In . SVG Version: 6.00 Build 0)  -->
<svg version="1.1" id="Layer_1" xmlns="http://www.w3.org/2000/svg" xmlns:xlink="http://www.w3.org/1999/xlink" x="0px" y="0px"
	 viewBox="0 0 100 100" enable-background="new 0 0 100 100" xml:space="preserve">
<g>
	<path fill="none" stroke="#FFFFFF" stroke-miterlimit="10" d="M95,47.5h-7.6c-1.2-18.7-16.2-33.7-34.9-34.9V5
		c0-1.4-1.1-2.5-2.5-2.5S47.5,3.6,47.5,5v7.6c-18.7,1.2-33.7,16.2-34.9,34.9H5c-1.4,0-2.5,1.1-2.5,2.5s1.1,2.5,2.5,2.5h7.6
		c1.2,18.7,16.2,33.7,34.9,34.9V95c0,1.4,1.1,2.5,2.5,2.5s2.5-1.1,2.5-2.5v-7.6c18.7-1.2,33.7-16.2,34.9-34.9H95
		c1.4,0,2.5-1.1,2.5-2.5S96.4,47.5,95,47.5z M47.5,77.4c-13.2-1.2-23.8-11.7-24.9-24.9h5c1.2,10.5,9.5,18.8,20,20L47.5,77.4
		L47.5,77.4z M47.5,27.5c-10.5,1.2-18.8,9.5-20,20h-5c1.2-13.2,11.7-23.8,24.9-24.9L47.5,27.5L47.5,27.5z M52.5,22.6
		c13.2,1.2,23.8,11.7,24.9,24.9h-5c-1.2-10.5-9.5-18.8-20-20C52.5,27.5,52.5,22.6,52.5,22.6z M52.5,77.4v-5c10.5-1.2,18.8-9.5,20-20
		h5C76.3,65.7,65.7,76.3,52.5,77.4z"/>
</g>
</svg>
