<?xml version="1.0" encoding="utf-8"?>
<!-- Generator: Adobe Illustrator 18.1.1, SVG Export Plug-In . SVG Version: 6.00 Build 0)  -->
<svg version="1.1" id="Layer_1" xmlns="http://www.w3.org/2000/svg" xmlns:xlink="http://www.w3.org/1999/xlink" x="0px" y="0px"
	 viewBox="-249 351 100 100" enable-background="new -249 351 100 100" xml:space="preserve">
<g>
	<path fill="#1C1D26" stroke="#FFFFFF" d="M-164,421.2c-0.2-1-0.8-1.9-1.8-2.4l-14.3-8.4l-0.1-0.1c-0.6-0.3-1.2-0.4-1.9-0.4
		c-1.2,0-2.3,0.5-3.1,1.3l-4.2,4.2c-0.2,0.2-0.8,0.4-0.9,0.4c0,0-4.9-0.4-13.9-9.3c-9-9-9.3-13.8-9.3-13.8c0-0.2,0.3-0.8,0.4-1
		l3.6-3.6c1.3-1.3,1.7-3.4,0.9-5l-8-15c-0.6-1.2-1.7-1.9-3-1.9c-0.9,0-1.7,0.4-2.4,1l-9.8,9.8c-0.9,0.9-1.8,2.6-1.9,3.9
		c-0.1,0.6-1.8,15.7,18.8,36.3c17.5,17.5,31.2,18.9,35,18.9l0,0c0.8,0,1.3-0.1,1.4-0.1c1.3-0.2,3-1,3.9-1.9l9.8-9.8
		C-164.2,423.4-163.9,422.3-164,421.2z"/>
</g>
</svg>
