<?xml version="1.0" encoding="utf-8"?>
<!-- Generator: Adobe Illustrator 17.1.0, SVG Export Plug-In . SVG Version: 6.00 Build 0)  -->
<!DOCTYPE svg PUBLIC "-//W3C//DTD SVG 1.1//EN" "http://www.w3.org/Graphics/SVG/1.1/DTD/svg11.dtd">
<svg version="1.1" id="Layer_1" xmlns="http://www.w3.org/2000/svg" xmlns:xlink="http://www.w3.org/1999/xlink" x="0px" y="0px"
	 viewBox="123.7 176.5 428.1 428.8" enable-background="new 123.7 176.5 428.1 428.8" xml:space="preserve">
<g>
	<path fill="#33485D" stroke="#FFFFFF" d="M551.2,513.6c-1.2-6.1-4.9-11.6-11-14.7l-87.5-51.4l-0.6-0.6c-3.7-1.8-7.3-2.4-11.6-2.4
		c-7.3,0-14.1,3.1-19,8l-25.7,25.7c-1.2,1.2-4.9,2.4-5.5,2.4c0,0-30-2.4-85.1-56.9c-55.1-55.1-56.9-84.5-56.9-84.5
		c0-1.2,1.8-4.9,2.4-6.1l22-22c8-8,10.4-20.8,5.5-30.6l-49-91.8c-3.7-7.3-10.4-11.6-18.4-11.6c-5.5,0-10.4,2.4-14.7,6.1l-60,60
		c-5.5,5.5-11,15.9-11.6,23.9c-0.6,3.7-11,96.1,115.1,222.2c107.1,107.1,190.9,115.7,214.2,115.7l0,0c4.9,0,8-0.6,8.6-0.6
		c8-1.2,18.4-6.1,23.9-11.6l60-60C550,527.1,551.8,520.4,551.2,513.6z"/>
</g>
</svg>
