<?xml version="1.0" encoding="utf-8"?>
<!-- Generator: Adobe Illustrator 18.1.1, SVG Export Plug-In . SVG Version: 6.00 Build 0)  -->
<svg version="1.1" id="Layer_1" xmlns="http://www.w3.org/2000/svg" xmlns:xlink="http://www.w3.org/1999/xlink" x="0px" y="0px"
	 viewBox="-249 351 100 100" enable-background="new -249 351 100 100" xml:space="preserve">
<g>
	<path fill="#000333" stroke="#FFFFFF" d="M-168.8,411.4l-15.7-7.5l-6.6-3.2c2.9-1.8,5.2-4.6,6.8-8c1.2-2.7,1.9-5.7,1.9-9
		c0-1.8-0.3-3.6-0.7-5.2c-2-8.1-8.3-14.1-15.9-14.1c-7.5,0-13.7,5.8-15.8,13.6c-0.5,1.8-0.8,3.7-0.8,5.7c0,3.5,0.8,6.7,2.2,9.5
		c1.6,3.3,3.9,5.9,6.8,7.7l-6.3,3l-16.2,7.5c-1.4,0.7-2.3,2.2-2.3,4v15.1v2.7c0,2.4,1.7,4.3,3.7,4.3h24v-13.6c0-0.1,0.1-0.3,0.1-0.4
		l0,0l3.9-6.8l0,0c0.1-0.2,0.4-0.4,0.7-0.4c0.3,0,0.5,0.2,0.7,0.4l0,0l0,0.1c0,0,0,0,0,0l3.9,6.7l0,0c0.1,0.1,0.1,0.2,0.1,0.4v13.6
		h24c2,0,3.7-1.9,3.7-4.3v-2.7v-15.1C-166.5,413.7-167.4,412.1-168.8,411.4z M-194.4,406.9L-194.4,406.9l-3.9,6.8l0,0
		c-0.1,0.2-0.4,0.4-0.7,0.4c-0.3,0-0.5-0.2-0.7-0.4l0,0l0-0.1c0,0,0,0,0,0l-3.9-6.7l0,0c-0.1-0.1-0.1-0.2-0.1-0.4
		c0-0.4,0.4-0.8,0.8-0.8h7.9c0.4,0,0.8,0.4,0.8,0.8C-194.3,406.6-194.3,406.8-194.4,406.9z"/>
</g>
</svg>
