<?xml version="1.0" encoding="utf-8"?>
<!-- Generator: Adobe Illustrator 17.1.0, SVG Export Plug-In . SVG Version: 6.00 Build 0)  -->
<!DOCTYPE svg PUBLIC "-//W3C//DTD SVG 1.1//EN" "http://www.w3.org/Graphics/SVG/1.1/DTD/svg11.dtd">
<svg version="1.1" id="Layer_1" xmlns="http://www.w3.org/2000/svg" xmlns:xlink="http://www.w3.org/1999/xlink" x="0px" y="0px"
	 viewBox="115.2 179.5 397.6 448.4" enable-background="new 115.2 179.5 397.6 448.4" xml:space="preserve">
<g>
	<path fill="#33485D" stroke="#FFFFFF" d="M498.8,467.6l-96.1-45.9l-40.4-19.6c17.7-11,31.8-28.2,41.6-49
		c7.3-16.5,11.6-34.9,11.6-55.1c0-11-1.8-22-4.3-31.8C399.1,216.7,360.5,180,314,180c-45.9,0-83.8,35.5-96.7,83.2
		c-3.1,11-4.9,22.6-4.9,34.9c0,21.4,4.9,41,13.5,58.1c9.8,20.2,23.9,36.1,41.6,47.1l-38.6,18.4l-99.1,45.9
		c-8.6,4.3-14.1,13.5-14.1,24.5v92.4v16.5c0,14.7,10.4,26.3,22.6,26.3h146.9v-83.2c0-0.6,0.6-1.8,0.6-2.4l0,0l23.9-41.6l0,0
		c0.6-1.2,2.4-2.4,4.3-2.4c1.8,0,3.1,1.2,4.3,2.4l0,0v0.6l0,0l23.9,41l0,0c0.6,0.6,0.6,1.2,0.6,2.4v83.2h146.9
		c12.2,0,22.6-11.6,22.6-26.3v-16.5v-92.4C512.9,481.7,507.4,471.9,498.8,467.6z M342.2,440.1L342.2,440.1l-23.9,41.6l0,0
		c-0.6,1.2-2.4,2.4-4.3,2.4s-3.1-1.2-4.3-2.4l0,0v-0.6l0,0l-23.9-41l0,0c-0.6-0.6-0.6-1.2-0.6-2.4c0-2.4,2.4-4.9,4.9-4.9h48.3
		c2.4,0,4.9,2.4,4.9,4.9C342.8,438.3,342.8,439.5,342.2,440.1z"/>
</g>
</svg>
