<?xml version="1.0" encoding="utf-8"?>
<!-- Generator: Adobe Illustrator 18.1.1, SVG Export Plug-In . SVG Version: 6.00 Build 0)  -->
<svg version="1.1" id="Layer_1" xmlns="http://www.w3.org/2000/svg" xmlns:xlink="http://www.w3.org/1999/xlink" x="0px" y="0px"
	 viewBox="0 0 100 100" enable-background="new 0 0 100 100" xml:space="preserve">
<g>
	<path fill="none" stroke="#FFFFFF" stroke-miterlimit="10" d="M76.3,22.8c0,0,0.1-0.1,0.1-0.2s-0.1-0.2-0.2-0.3l0,0h-0.5h-0.5h-11
		c-0.3,0-0.6,0.2-0.8,0.5l0,0L50,44.3L36.8,22.8l0,0c-0.2-0.3-0.4-0.5-0.8-0.5H24.9h-0.4H24c-0.1,0-0.3,0.1-0.3,0.3
		c0,0.1,0,0.1,0.1,0.2l0,0l16.4,25.4H26l0,0c0,0,0,0-0.1,0c-0.6,0-1.2,0.5-1.2,1.2l0,0v4l0,0l0,0v0.1l0,0c0,0.6,0.5,1.1,1.1,1.1
		c0,0,0,0,0.1,0l0,0h18.4V61H26l0,0l0,0c-0.6,0-1.2,0.5-1.2,1.2v4c0,0.6,0.5,1.2,1.2,1.2l0,0l0,0h18.4v9.2c0,0,0,0,0,0.1
		c0,0.6,0.5,1.2,1.2,1.2l0,0l0,0h9.1l0,0c0.6,0,1.2-0.5,1.2-1.2l0,0v-9.2h18.4l0,0l0,0c0.6,0,1.2-0.5,1.2-1.2v-4
		c0-0.6-0.5-1.2-1.2-1.2l0,0l0,0H55.8v-6.4h18.4l0,0l0,0c0.6,0,1.2-0.5,1.2-1.2v-4.1l0,0c0-0.6-0.5-1.1-1.1-1.1l0,0l0,0H59.9
		L76.3,22.8L76.3,22.8z"/>
</g>
</svg>
